<svg id="Layer_1" data-name="Layer 1" xmlns="http://www.w3.org/2000/svg" viewBox="0 0 1135.11 340.6"><path d="M0,288.83v-23H2.22v21h10.4v2Z" style="fill:#fff"/><path d="M24,289.17a11,11,0,0,1-4.42-.77,6.37,6.37,0,0,1-2.77-2.23,9.17,9.17,0,0,1-1.42-3.66,27.94,27.94,0,0,1-.4-5,28.74,28.74,0,0,1,.41-5.09,10,10,0,0,1,1.44-3.76,6.7,6.7,0,0,1,2.77-2.32,10.58,10.58,0,0,1,4.39-.79,10.53,10.53,0,0,1,4.38.79,6.63,6.63,0,0,1,2.77,2.32,10,10,0,0,1,1.44,3.76,27.83,27.83,0,0,1,.41,5.09,27.91,27.91,0,0,1-.41,5.15,9.52,9.52,0,0,1-1.42,3.65,6,6,0,0,1-2.75,2.17A11.67,11.67,0,0,1,24,289.17Zm0-2a8.53,8.53,0,0,0,3.41-.58,4.32,4.32,0,0,0,2.05-1.79,7.89,7.89,0,0,0,1-3,30.23,30.23,0,0,0,.27-4.32,30,30,0,0,0-.28-4.26,8.78,8.78,0,0,0-1-3.15,4.89,4.89,0,0,0-2.05-1.93,7.3,7.3,0,0,0-3.36-.67,7.43,7.43,0,0,0-3.4.67,4.93,4.93,0,0,0-2,1.92,8.61,8.61,0,0,0-1,3.13,28.67,28.67,0,0,0-.28,4.29,29.1,29.1,0,0,0,.27,4.23,7.89,7.89,0,0,0,1,3.05,4.63,4.63,0,0,0,2.05,1.84A8.1,8.1,0,0,0,24,287.21Z" style="fill:#fff"/><path d="M45.9,289.17a11,11,0,0,1-4.42-.77,6.43,6.43,0,0,1-2.77-2.23,9.17,9.17,0,0,1-1.42-3.66,31.43,31.43,0,0,1,0-10.12,9.72,9.72,0,0,1,1.44-3.76,6.61,6.61,0,0,1,2.76-2.32,10.58,10.58,0,0,1,4.39-.79,10.58,10.58,0,0,1,4.39.79,6.61,6.61,0,0,1,2.76,2.32,9.72,9.72,0,0,1,1.44,3.76,31.42,31.42,0,0,1,0,10.24,9.36,9.36,0,0,1-1.42,3.65,5.94,5.94,0,0,1-2.75,2.17A11.64,11.64,0,0,1,45.9,289.17Zm0-2a8.5,8.5,0,0,0,3.41-.58,4.32,4.32,0,0,0,2-1.79,8.06,8.06,0,0,0,1-3,31.91,31.91,0,0,0,.26-4.32,28.62,28.62,0,0,0-.28-4.26,8.78,8.78,0,0,0-1-3.15,4.83,4.83,0,0,0-2.05-1.93,7.3,7.3,0,0,0-3.36-.67,7.38,7.38,0,0,0-3.39.67,4.89,4.89,0,0,0-2.06,1.92,8.61,8.61,0,0,0-1,3.13,28.56,28.56,0,0,0-.29,4.29,29.1,29.1,0,0,0,.27,4.23,8.06,8.06,0,0,0,1,3.05,4.68,4.68,0,0,0,2,1.84A8.14,8.14,0,0,0,45.9,287.21Z" style="fill:#fff"/><path d="M65.87,278.5l-3.94.1v10.23H59.71v-23h2.22v10.76l3.91-.06,6.22-10.7h2.52l-6.86,11.53L75,288.83H72.39Z" style="fill:#fff"/><path d="M91.17,267.76l-2.52-.26-2.15-.21c-.73-.06-1.33-.1-1.82-.1a6.63,6.63,0,0,0-3.89,1,3.5,3.5,0,0,0-1.34,3.07,5.14,5.14,0,0,0,.33,2,2.74,2.74,0,0,0,1,1.24,6.2,6.2,0,0,0,1.81.77c.72.21,1.6.41,2.61.61a23.58,23.58,0,0,1,2.93.8,6.58,6.58,0,0,1,2.07,1.13,4.22,4.22,0,0,1,1.23,1.71,7.2,7.2,0,0,1,.4,2.56,9.63,9.63,0,0,1-.5,3.28,5.27,5.27,0,0,1-3.69,3.45,10.91,10.91,0,0,1-3,.39c-.69,0-1.44,0-2.27-.1s-1.61-.15-2.34-.24-1.73-.2-2.61-.36l.2-1.85c.88.11,1.74.21,2.58.29s1.46.13,2.25.19,1.49.08,2.09.08A5.52,5.52,0,0,0,88.37,286a4.89,4.89,0,0,0,1.28-3.78,5,5,0,0,0-.28-1.78,2.64,2.64,0,0,0-.93-1.17,5.7,5.7,0,0,0-1.66-.79,21.77,21.77,0,0,0-2.43-.59,24.23,24.23,0,0,1-3.08-.77A7.24,7.24,0,0,1,79.05,276a4.41,4.41,0,0,1-1.36-1.81,7.36,7.36,0,0,1-.46-2.82,7,7,0,0,1,.51-2.82,4.65,4.65,0,0,1,1.48-1.92,6.16,6.16,0,0,1,2.31-1.07,12.29,12.29,0,0,1,3-.34c.66,0,1.39,0,2.18.1s1.54.15,2.22.23l2.42.3Z" style="fill:#fff"/><path d="M103.62,288.83v-23h2.22v21h10.4v2Z" style="fill:#fff"/><path d="M118.36,265.85h7.28v1.79h-2.58v19.41h2.62v1.78h-7.32v-1.78h2.55V267.64h-2.55Z" style="fill:#fff"/><path d="M136.34,278.5l-3.94.1v10.23h-2.22v-23h2.22v10.76l3.91-.06,6.22-10.7h2.52l-6.85,11.53,7.28,11.45h-2.61Z" style="fill:#fff"/><path d="M148.89,265.85h13.88v2H151.11v8.34h9.67v2h-9.67v8.78h11.66v1.95H148.89Z" style="fill:#fff"/><path d="M181.55,288.83h-2.16v-9.7L172,265.85h2.45l6,11,6-11h2.48l-7.38,13.28Z" style="fill:#fff"/><path d="M199.36,289.17a11,11,0,0,1-4.42-.77,6.34,6.34,0,0,1-2.76-2.23,9.17,9.17,0,0,1-1.43-3.66,28.89,28.89,0,0,1-.4-5,27.77,27.77,0,0,1,.42-5.09,9.72,9.72,0,0,1,1.44-3.76,6.61,6.61,0,0,1,2.76-2.32,12.59,12.59,0,0,1,8.78,0,6.7,6.7,0,0,1,2.77,2.32,10,10,0,0,1,1.44,3.76,32.17,32.17,0,0,1,0,10.24,9.36,9.36,0,0,1-1.43,3.65,5.94,5.94,0,0,1-2.75,2.17A11.64,11.64,0,0,1,199.36,289.17Zm0-2a8.5,8.5,0,0,0,3.41-.58,4.34,4.34,0,0,0,2.06-1.79,8.24,8.24,0,0,0,1-3,30.36,30.36,0,0,0,.26-4.32,28.62,28.62,0,0,0-.28-4.26,8.78,8.78,0,0,0-1-3.15,4.86,4.86,0,0,0-2.06-1.93,7.3,7.3,0,0,0-3.36-.67,7.38,7.38,0,0,0-3.39.67,5,5,0,0,0-2.06,1.92,8.8,8.8,0,0,0-1,3.13,28.67,28.67,0,0,0-.28,4.29,29.22,29.22,0,0,0,.26,4.23,8.06,8.06,0,0,0,1,3.05,4.68,4.68,0,0,0,2.05,1.84A8.17,8.17,0,0,0,199.36,287.21Z" style="fill:#fff"/><path d="M216.7,286a6.53,6.53,0,0,0,4.15,1.17,7,7,0,0,0,4.34-1.17,4.74,4.74,0,0,0,1.53-4v-16.2h2.15V282c0,2.59-.69,4.42-2.07,5.52a9.41,9.41,0,0,1-6,1.64,12.85,12.85,0,0,1-3.31-.39,5.86,5.86,0,0,1-2.45-1.24,5.47,5.47,0,0,1-1.52-2.22A9.15,9.15,0,0,1,213,282V265.85h2.19v16.2Q215.23,284.86,216.7,286Z" style="fill:#fff"/><path d="M236.65,279.83v9h-2.22v-23h8.45a7.88,7.88,0,0,1,5.41,1.62c1.21,1.09,1.81,2.83,1.81,5.24a8.13,8.13,0,0,1-1,4.3,5.48,5.48,0,0,1-3.32,2.39l4.63,9.43h-2.42l-4.4-9Zm11.2-7.09a4.3,4.3,0,0,0-5-4.93h-6.23v10.1h6.29a5.92,5.92,0,0,0,2.29-.39,3.81,3.81,0,0,0,1.51-1.07,4.55,4.55,0,0,0,.84-1.64A7.51,7.51,0,0,0,247.85,272.74Z" style="fill:#fff"/><path d="M270.3,265.85a8,8,0,0,1,5.12,1.38,5.36,5.36,0,0,1,1.7,4.42,6.32,6.32,0,0,1-.81,3.52,5.15,5.15,0,0,1-2.2,1.84,7.67,7.67,0,0,1,1.44.63,4.75,4.75,0,0,1,1.21,1,4.64,4.64,0,0,1,.82,1.58,7.09,7.09,0,0,1,.3,2.18,8,8,0,0,1-.51,3.05,4.86,4.86,0,0,1-1.44,2,5.61,5.61,0,0,1-2.24,1.06,12.37,12.37,0,0,1-2.89.31h-8.71v-23Zm-6,2v8.34h6.23a4.38,4.38,0,0,0,3.33-1.08,4.61,4.61,0,0,0,1-3.26,3.79,3.79,0,0,0-1.13-3.06,5.39,5.39,0,0,0-3.51-.94Zm0,10.29v8.78h6.43a9.54,9.54,0,0,0,2-.2,3.73,3.73,0,0,0,1.56-.71,3.27,3.27,0,0,0,1-1.39,6.07,6.07,0,0,0,.35-2.2,4.2,4.2,0,0,0-.55-2.31,3.83,3.83,0,0,0-1.34-1.29,4.78,4.78,0,0,0-1.67-.56,11.62,11.62,0,0,0-1.54-.12Z" style="fill:#fff"/><path d="M287,265.85h5l6.52,23h-2.18l-1.76-6.22H284.41l-1.76,6.22h-2.22Zm-2.05,14.8H294l-3.67-12.91h-1.79Z" style="fill:#fff"/><path d="M310.87,277.18h6.29v11.19c-.2.05-.59.11-1.16.2s-1.22.18-1.94.26-1.46.17-2.23.24-1.47.1-2.09.1a10.25,10.25,0,0,1-4.32-.8,6.39,6.39,0,0,1-2.7-2.3,9.86,9.86,0,0,1-1.39-3.69,27.56,27.56,0,0,1-.4-5,28,28,0,0,1,.4-5,9.88,9.88,0,0,1,1.39-3.72,6.41,6.41,0,0,1,2.7-2.34,10.09,10.09,0,0,1,4.32-.81,26,26,0,0,1,2.62.13c.88.09,1.68.19,2.38.3s1.65.28,2.42.43l-.1,1.86c-.79-.14-1.6-.26-2.42-.37s-1.48-.17-2.32-.25-1.63-.11-2.38-.11a7.83,7.83,0,0,0-3.39.63,4.72,4.72,0,0,0-2.06,1.87,8.45,8.45,0,0,0-1,3.09,32.07,32.07,0,0,0-.26,4.31,31,31,0,0,0,.26,4.24,8.42,8.42,0,0,0,1,3.06,4.59,4.59,0,0,0,2,1.87,7.75,7.75,0,0,0,3.36.63c.42,0,.88,0,1.38,0s1-.07,1.46-.13.91-.12,1.3-.18l1-.17v-7.55h-4.14Z" style="fill:#fff"/><path d="M344,278.27H331.76v10.56h-2.22v-23h2.22v10.47H344V265.85h2.19v23H344Z" style="fill:#fff"/><path d="M360,289.17a11,11,0,0,1-4.42-.77,6.34,6.34,0,0,1-2.76-2.23,9.17,9.17,0,0,1-1.43-3.66,28.89,28.89,0,0,1-.4-5,27.77,27.77,0,0,1,.42-5.09,9.72,9.72,0,0,1,1.44-3.76,6.61,6.61,0,0,1,2.76-2.32,12.59,12.59,0,0,1,8.78,0,6.7,6.7,0,0,1,2.77,2.32,10,10,0,0,1,1.44,3.76,32.17,32.17,0,0,1,0,10.24,9.36,9.36,0,0,1-1.43,3.65,5.94,5.94,0,0,1-2.75,2.17A11.64,11.64,0,0,1,360,289.17Zm0-2a8.5,8.5,0,0,0,3.41-.58,4.34,4.34,0,0,0,2.06-1.79,8.24,8.24,0,0,0,1-3,30.36,30.36,0,0,0,.26-4.32,28.62,28.62,0,0,0-.28-4.26,8.78,8.78,0,0,0-1-3.15,4.86,4.86,0,0,0-2.06-1.93,7.3,7.3,0,0,0-3.36-.67,7.38,7.38,0,0,0-3.39.67,5,5,0,0,0-2.06,1.92,8.8,8.8,0,0,0-1,3.13,28.67,28.67,0,0,0-.28,4.29,29.22,29.22,0,0,0,.26,4.23,8.06,8.06,0,0,0,1,3.05,4.68,4.68,0,0,0,2.05,1.84A8.17,8.17,0,0,0,360,287.21Z" style="fill:#fff"/><path d="M373.82,288.83v-23H376v21h10.4v2Z" style="fill:#fff"/><path d="M389.68,288.83v-23H398a8.41,8.41,0,0,1,4,.86,6.78,6.78,0,0,1,2.53,2.37,10.31,10.31,0,0,1,1.34,3.54,22.77,22.77,0,0,1,.4,4.42,26.28,26.28,0,0,1-.38,4.53,11.48,11.48,0,0,1-1.33,3.75,7,7,0,0,1-2.55,2.57,7.82,7.82,0,0,1-4,.94ZM404,277a22.07,22.07,0,0,0-.26-3.52,9.73,9.73,0,0,0-.93-2.95,5.13,5.13,0,0,0-1.84-2,5.39,5.39,0,0,0-3-.74H391.9v19.07H398a5,5,0,0,0,3-.84,5.79,5.79,0,0,0,1.84-2.22,11.18,11.18,0,0,0,.93-3.15A24,24,0,0,0,404,277Z" style="fill:#fff"/><path d="M410,265.85h7.29v1.79h-2.58v19.41h2.61v1.78H410v-1.78h2.55V267.64H410Z" style="fill:#fff"/><path d="M421.78,265.85H426l9.41,21h.76v-21h2.15v23h-4.17l-9.47-21H424v21h-2.21Z" style="fill:#fff"/><path d="M453.1,277.18h6.3v11.19c-.2.05-.59.11-1.16.2s-1.22.18-1.94.26-1.46.17-2.24.24-1.46.1-2.08.1a10.19,10.19,0,0,1-4.32-.8,6.39,6.39,0,0,1-2.7-2.3,9.7,9.7,0,0,1-1.39-3.69,27.56,27.56,0,0,1-.4-5,28,28,0,0,1,.4-5,9.72,9.72,0,0,1,1.39-3.72,6.41,6.41,0,0,1,2.7-2.34,10,10,0,0,1,4.32-.81,25.62,25.62,0,0,1,2.61.13c.89.09,1.68.19,2.39.3s1.64.28,2.42.43l-.1,1.86c-.8-.14-1.6-.26-2.42-.37s-1.48-.17-2.32-.25-1.63-.11-2.38-.11a7.88,7.88,0,0,0-3.4.63,4.75,4.75,0,0,0-2,1.87,8.27,8.27,0,0,0-1,3.09,30.37,30.37,0,0,0-.27,4.31,29.34,29.34,0,0,0,.27,4.24,8.61,8.61,0,0,0,1,3.06,4.67,4.67,0,0,0,2,1.87,7.75,7.75,0,0,0,3.36.63c.42,0,.88,0,1.37,0s1-.07,1.46-.13.91-.12,1.31-.18l1-.17v-7.55H453.1Z" style="fill:#fff"/><path d="M471.78,265.85h4.07l6.93,19.94,6.92-19.94h4.07v23h-2.18V268.14h-.47l-7.05,19.93h-2.55l-7.06-19.93H474v20.69h-2.22Z" style="fill:#fff"/><path d="M507.58,289.17a11,11,0,0,1-4.42-.77,6.34,6.34,0,0,1-2.76-2.23,9.17,9.17,0,0,1-1.43-3.66,28.89,28.89,0,0,1-.4-5,27.77,27.77,0,0,1,.42-5.09,9.72,9.72,0,0,1,1.44-3.76,6.61,6.61,0,0,1,2.76-2.32,12.59,12.59,0,0,1,8.78,0,6.61,6.61,0,0,1,2.76,2.32,9.89,9.89,0,0,1,1.45,3.76,32.17,32.17,0,0,1,0,10.24,9.52,9.52,0,0,1-1.43,3.65,5.94,5.94,0,0,1-2.75,2.17A11.64,11.64,0,0,1,507.58,289.17Zm0-2a8.5,8.5,0,0,0,3.41-.58,4.34,4.34,0,0,0,2.06-1.79,8.24,8.24,0,0,0,1-3,30.36,30.36,0,0,0,.26-4.32,28.62,28.62,0,0,0-.28-4.26,9,9,0,0,0-1-3.15,4.91,4.91,0,0,0-2.06-1.93,7.3,7.3,0,0,0-3.36-.67,7.38,7.38,0,0,0-3.39.67,4.89,4.89,0,0,0-2.06,1.92,8.61,8.61,0,0,0-1,3.13,28.67,28.67,0,0,0-.28,4.29,29.22,29.22,0,0,0,.26,4.23,8.06,8.06,0,0,0,1,3.05,4.68,4.68,0,0,0,2,1.84A8.17,8.17,0,0,0,507.58,287.21Z" style="fill:#fff"/><path d="M529.5,289.17a11.05,11.05,0,0,1-4.42-.77,6.34,6.34,0,0,1-2.76-2.23,9.17,9.17,0,0,1-1.43-3.66,29,29,0,0,1-.39-5,27.83,27.83,0,0,1,.41-5.09,10,10,0,0,1,1.44-3.76,6.7,6.7,0,0,1,2.77-2.32,12.56,12.56,0,0,1,8.77,0,6.7,6.7,0,0,1,2.77,2.32,10,10,0,0,1,1.44,3.76,32.17,32.17,0,0,1,0,10.24,9.36,9.36,0,0,1-1.43,3.65,6,6,0,0,1-2.74,2.17A11.69,11.69,0,0,1,529.5,289.17Zm0-2a8.55,8.55,0,0,0,3.42-.58,4.36,4.36,0,0,0,2.05-1.79,8.06,8.06,0,0,0,1-3,33.59,33.59,0,0,0,0-8.58,8.78,8.78,0,0,0-1-3.15,4.89,4.89,0,0,0-2-1.93,8.86,8.86,0,0,0-6.76,0,4.87,4.87,0,0,0-2.05,1.92,8.61,8.61,0,0,0-1,3.13,28.67,28.67,0,0,0-.28,4.29,30.72,30.72,0,0,0,.26,4.23,8.24,8.24,0,0,0,1,3.05,4.65,4.65,0,0,0,2.06,1.84A8.09,8.09,0,0,0,529.5,287.21Z" style="fill:#fff"/><path d="M543.31,265.85h4.24l9.41,21h.76v-21h2.15v23H555.7l-9.47-21h-.7v21h-2.22Z" style="fill:#fff"/><path d="M572.89,265.85H577l6.92,19.94,6.92-19.94h4.08v23h-2.19V268.14h-.46l-7.06,19.93h-2.55l-7-19.93h-.46v20.69h-2.22Z" style="fill:#fff"/><path d="M599.45,265.85h7.28v1.79h-2.58v19.41h2.62v1.78h-7.32v-1.78H602V267.64h-2.55Z" style="fill:#fff"/><path d="M624,267.76l-2.52-.26-2.15-.21c-.73-.06-1.33-.1-1.82-.1a6.63,6.63,0,0,0-3.89,1,3.5,3.5,0,0,0-1.34,3.07,5.14,5.14,0,0,0,.33,2,2.74,2.74,0,0,0,1,1.24,6.2,6.2,0,0,0,1.81.77c.72.21,1.6.41,2.61.61a23.58,23.58,0,0,1,2.93.8,6.58,6.58,0,0,1,2.07,1.13,4.13,4.13,0,0,1,1.23,1.71,7.2,7.2,0,0,1,.4,2.56,9.63,9.63,0,0,1-.5,3.28,5.27,5.27,0,0,1-3.69,3.45,10.91,10.91,0,0,1-3,.39c-.69,0-1.44,0-2.27-.1s-1.61-.15-2.34-.24-1.73-.2-2.61-.36l.2-1.85c.88.11,1.74.21,2.58.29s1.46.13,2.25.19,1.49.08,2.09.08a5.52,5.52,0,0,0,3.82-1.16,4.89,4.89,0,0,0,1.28-3.78,5,5,0,0,0-.28-1.78,2.64,2.64,0,0,0-.93-1.17,5.7,5.7,0,0,0-1.66-.79,21.77,21.77,0,0,0-2.43-.59,24.23,24.23,0,0,1-3.08-.77A7.13,7.13,0,0,1,611.9,276a4.41,4.41,0,0,1-1.36-1.81,7.36,7.36,0,0,1-.46-2.82,7,7,0,0,1,.51-2.82,4.71,4.71,0,0,1,1.47-1.92,6.28,6.28,0,0,1,2.32-1.07,12.29,12.29,0,0,1,3-.34c.66,0,1.39,0,2.18.1s1.54.15,2.22.23l2.42.3Z" style="fill:#fff"/><path d="M641.94,267.76l-2.52-.26-2.15-.21c-.73-.06-1.34-.1-1.82-.1a6.68,6.68,0,0,0-3.9,1,3.52,3.52,0,0,0-1.34,3.07,5.14,5.14,0,0,0,.33,2,2.76,2.76,0,0,0,1.05,1.24,6,6,0,0,0,1.8.77c.73.21,1.6.41,2.62.61a24.59,24.59,0,0,1,2.93.8,6.58,6.58,0,0,1,2.07,1.13,4.11,4.11,0,0,1,1.22,1.71,7,7,0,0,1,.4,2.56,9.64,9.64,0,0,1-.49,3.28,5.64,5.64,0,0,1-1.43,2.21,5.56,5.56,0,0,1-2.27,1.24,10.81,10.81,0,0,1-3,.39c-.68,0-1.44,0-2.27-.1s-1.6-.15-2.33-.24-1.73-.2-2.62-.36l.2-1.85c.88.11,1.75.21,2.59.29s1.45.13,2.25.19,1.49.08,2.08.08a5.55,5.55,0,0,0,3.83-1.16,4.88,4.88,0,0,0,1.27-3.78,4.82,4.82,0,0,0-.28-1.78,2.58,2.58,0,0,0-.93-1.17,5.76,5.76,0,0,0-1.65-.79,22.57,22.57,0,0,0-2.44-.59,24.67,24.67,0,0,1-3.08-.77,7.07,7.07,0,0,1-2.21-1.14,4.41,4.41,0,0,1-1.36-1.81,7.34,7.34,0,0,1-.47-2.82,6.86,6.86,0,0,1,.52-2.82,4.71,4.71,0,0,1,1.47-1.92,6.13,6.13,0,0,1,2.32-1.07,12.21,12.21,0,0,1,3-.34c.67,0,1.39,0,2.19.1s1.53.15,2.22.23l2.42.3Z" style="fill:#fff"/><path d="M646,265.85h7.28v1.79h-2.58v19.41h2.62v1.78H646v-1.78h2.55V267.64H646Z" style="fill:#fff"/><path d="M665.91,289.17a11.05,11.05,0,0,1-4.42-.77,6.34,6.34,0,0,1-2.76-2.23,9.17,9.17,0,0,1-1.43-3.66,29,29,0,0,1-.39-5,27.83,27.83,0,0,1,.41-5.09,10,10,0,0,1,1.44-3.76,6.63,6.63,0,0,1,2.77-2.32,12.56,12.56,0,0,1,8.77,0,6.7,6.7,0,0,1,2.77,2.32,10,10,0,0,1,1.44,3.76,32.17,32.17,0,0,1,0,10.24,9.36,9.36,0,0,1-1.43,3.65,5.94,5.94,0,0,1-2.75,2.17A11.6,11.6,0,0,1,665.91,289.17Zm0-2a8.5,8.5,0,0,0,3.41-.58,4.34,4.34,0,0,0,2.06-1.79,8.24,8.24,0,0,0,1-3,30.23,30.23,0,0,0,.27-4.32,28.52,28.52,0,0,0-.29-4.26,8.78,8.78,0,0,0-1-3.15,4.86,4.86,0,0,0-2.06-1.93,7.3,7.3,0,0,0-3.36-.67,7.38,7.38,0,0,0-3.39.67,4.87,4.87,0,0,0-2,1.92,8.61,8.61,0,0,0-1,3.13,28.67,28.67,0,0,0-.28,4.29,30.72,30.72,0,0,0,.26,4.23,8.24,8.24,0,0,0,1,3.05,4.65,4.65,0,0,0,2.06,1.84A8.09,8.09,0,0,0,665.91,287.21Z" style="fill:#fff"/><path d="M679.72,265.85H684l9.41,21h.76v-21h2.15v23h-4.17l-9.47-21h-.7v21h-2.22Z" style="fill:#fff"/><path d="M723.73,278.27H711.52v10.56H709.3v-23h2.22v10.47h12.21V265.85h2.19v23h-2.19Z" style="fill:#fff"/><path d="M736.15,265.85h5l6.53,23h-2.19l-1.75-6.22H733.57l-1.76,6.22H729.6Zm-2,14.8h9.11l-3.68-12.91h-1.79Z" style="fill:#fff"/><path d="M764.07,267.76l-2.52-.26-2.15-.21c-.73-.06-1.33-.1-1.82-.1a6.63,6.63,0,0,0-3.89,1,3.52,3.52,0,0,0-1.34,3.07,5.14,5.14,0,0,0,.33,2,2.74,2.74,0,0,0,1,1.24,6.2,6.2,0,0,0,1.81.77c.73.21,1.6.41,2.61.61a23.58,23.58,0,0,1,2.93.8,6.58,6.58,0,0,1,2.07,1.13,4.13,4.13,0,0,1,1.23,1.71,7.2,7.2,0,0,1,.4,2.56,9.63,9.63,0,0,1-.5,3.28,5.27,5.27,0,0,1-3.69,3.45,10.91,10.91,0,0,1-3,.39c-.69,0-1.44,0-2.27-.1s-1.61-.15-2.34-.24-1.73-.2-2.61-.36l.2-1.85c.88.11,1.74.21,2.58.29s1.46.13,2.25.19,1.49.08,2.09.08a5.52,5.52,0,0,0,3.82-1.16,4.89,4.89,0,0,0,1.28-3.78,5,5,0,0,0-.28-1.78,2.64,2.64,0,0,0-.93-1.17,5.7,5.7,0,0,0-1.66-.79,21.77,21.77,0,0,0-2.43-.59,24.23,24.23,0,0,1-3.08-.77A7.24,7.24,0,0,1,752,276a4.41,4.41,0,0,1-1.36-1.81,7.36,7.36,0,0,1-.46-2.82,7,7,0,0,1,.51-2.82,4.73,4.73,0,0,1,1.48-1.92,6.16,6.16,0,0,1,2.31-1.07,12.29,12.29,0,0,1,3-.34c.66,0,1.39,0,2.18.1s1.54.15,2.22.23l2.42.3Z" style="fill:#fff"/><path d="M776.52,288.83v-23h2.22v21h10.4v2Z" style="fill:#fff"/><path d="M792.39,265.85h13.87v2H794.6v8.34h9.67v2H794.6v8.78h11.66v1.95H792.39Z" style="fill:#fff"/><path d="M810.67,265.85h13.61v2H812.89v9.33h9.7v2h-9.7v9.73h-2.22Z" style="fill:#fff"/><path d="M825.64,265.85h16.55v2H835v21h-2.19v-21h-7.21Z" style="fill:#fff"/><path d="M859.84,288.83h-2.15v-9.7l-7.38-13.28h2.45l6,11,6-11h2.48l-7.39,13.28Z" style="fill:#fff"/><path d="M877.66,289.17a11,11,0,0,1-4.42-.77,6.43,6.43,0,0,1-2.77-2.23,9.17,9.17,0,0,1-1.42-3.66,31.43,31.43,0,0,1,0-10.12,9.72,9.72,0,0,1,1.44-3.76,6.61,6.61,0,0,1,2.76-2.32,12.59,12.59,0,0,1,8.78,0,6.61,6.61,0,0,1,2.76,2.32,9.72,9.72,0,0,1,1.44,3.76,31.42,31.42,0,0,1,0,10.24,9.36,9.36,0,0,1-1.42,3.65,5.94,5.94,0,0,1-2.75,2.17A11.64,11.64,0,0,1,877.66,289.17Zm0-2a8.5,8.5,0,0,0,3.41-.58,4.32,4.32,0,0,0,2-1.79,8.06,8.06,0,0,0,1-3,30.36,30.36,0,0,0,.26-4.32,28.62,28.62,0,0,0-.28-4.26,9,9,0,0,0-1-3.15,4.91,4.91,0,0,0-2.06-1.93,7.3,7.3,0,0,0-3.36-.67,7.38,7.38,0,0,0-3.39.67,4.89,4.89,0,0,0-2.06,1.92,8.61,8.61,0,0,0-1,3.13,28.56,28.56,0,0,0-.29,4.29,29.1,29.1,0,0,0,.27,4.23,8.06,8.06,0,0,0,1,3.05,4.68,4.68,0,0,0,2.05,1.84A8.14,8.14,0,0,0,877.66,287.21Z" style="fill:#fff"/><path d="M895,286a6.53,6.53,0,0,0,4.15,1.17,7,7,0,0,0,4.34-1.17,4.74,4.74,0,0,0,1.53-4v-16.2h2.15V282c0,2.59-.69,4.42-2.07,5.52a9.41,9.41,0,0,1-6,1.64,12.85,12.85,0,0,1-3.31-.39,5.86,5.86,0,0,1-2.45-1.24,5.47,5.47,0,0,1-1.52-2.22,8.94,8.94,0,0,1-.53-3.31V265.85h2.18v16.2A4.85,4.85,0,0,0,895,286Z" style="fill:#fff"/><path d="M920,288.83v-23h2.22v21h10.4v2Z" style="fill:#fff"/><path d="M944,289.17a11.05,11.05,0,0,1-4.42-.77,6.34,6.34,0,0,1-2.76-2.23,9.17,9.17,0,0,1-1.43-3.66,29,29,0,0,1-.39-5,27.83,27.83,0,0,1,.41-5.09,10,10,0,0,1,1.44-3.76,6.63,6.63,0,0,1,2.77-2.32,12.56,12.56,0,0,1,8.77,0,6.7,6.7,0,0,1,2.77,2.32,10,10,0,0,1,1.44,3.76,32.17,32.17,0,0,1,0,10.24,9.36,9.36,0,0,1-1.43,3.65,5.94,5.94,0,0,1-2.75,2.17A11.6,11.6,0,0,1,944,289.17Zm0-2a8.5,8.5,0,0,0,3.41-.58,4.34,4.34,0,0,0,2.06-1.79,8.24,8.24,0,0,0,1-3,33.59,33.59,0,0,0,0-8.58,9,9,0,0,0-1-3.15,4.86,4.86,0,0,0-2.06-1.93,7.3,7.3,0,0,0-3.36-.67,7.38,7.38,0,0,0-3.39.67,4.87,4.87,0,0,0-2.05,1.92,8.61,8.61,0,0,0-1,3.13,28.67,28.67,0,0,0-.28,4.29,30.72,30.72,0,0,0,.26,4.23,8.24,8.24,0,0,0,1,3.05,4.65,4.65,0,0,0,2.06,1.84A8.09,8.09,0,0,0,944,287.21Z" style="fill:#fff"/><path d="M970.55,267.76,968,267.5l-2.16-.21c-.72-.06-1.33-.1-1.82-.1a6.65,6.65,0,0,0-3.89,1,3.52,3.52,0,0,0-1.34,3.07,5.14,5.14,0,0,0,.33,2,2.74,2.74,0,0,0,1,1.24,6.2,6.2,0,0,0,1.81.77c.73.21,1.6.41,2.62.61a24.59,24.59,0,0,1,2.93.8,6.81,6.81,0,0,1,2.07,1.13,4.11,4.11,0,0,1,1.22,1.71,7,7,0,0,1,.4,2.56,9.63,9.63,0,0,1-.5,3.28,5.52,5.52,0,0,1-1.42,2.21,5.63,5.63,0,0,1-2.27,1.24,10.81,10.81,0,0,1-3,.39c-.68,0-1.44,0-2.27-.1s-1.61-.15-2.33-.24-1.74-.2-2.62-.36l.2-1.85c.88.11,1.74.21,2.58.29s1.46.13,2.25.19,1.49.08,2.09.08a5.57,5.57,0,0,0,3.83-1.16,4.92,4.92,0,0,0,1.27-3.78,4.82,4.82,0,0,0-.28-1.78,2.64,2.64,0,0,0-.93-1.17,5.76,5.76,0,0,0-1.65-.79,22.57,22.57,0,0,0-2.44-.59,24.23,24.23,0,0,1-3.08-.77,7.24,7.24,0,0,1-2.22-1.14,4.5,4.5,0,0,1-1.36-1.81,7.56,7.56,0,0,1-.46-2.82,7,7,0,0,1,.51-2.82,4.82,4.82,0,0,1,1.48-1.92,6.13,6.13,0,0,1,2.32-1.07,12.21,12.21,0,0,1,3-.34c.66,0,1.39,0,2.19.1s1.53.15,2.22.23l2.41.3Z" style="fill:#fff"/><path d="M973.3,265.85h16.56v2h-7.15v21h-2.19v-21H973.3Z" style="fill:#fff"/><path d="M999.3,265.85h7.28v1.79H1004v19.41h2.62v1.78H999.3v-1.78h2.55V267.64H999.3Z" style="fill:#fff"/><path d="M1011.12,265.85h4.24l9.41,21h.76v-21h2.15v23h-4.17l-9.47-21h-.7v21h-2.22Z" style="fill:#fff"/><path d="M1053.44,267.76l-2.51-.26-2.16-.21c-.72-.06-1.33-.1-1.82-.1a6.65,6.65,0,0,0-3.89,1,3.52,3.52,0,0,0-1.34,3.07,5.14,5.14,0,0,0,.33,2,2.7,2.7,0,0,0,1,1.24,6,6,0,0,0,1.8.77c.73.21,1.6.41,2.62.61a24.59,24.59,0,0,1,2.93.8,6.69,6.69,0,0,1,2.07,1.13,4.11,4.11,0,0,1,1.22,1.71,7,7,0,0,1,.4,2.56,9.63,9.63,0,0,1-.5,3.28,5.27,5.27,0,0,1-3.69,3.45,10.81,10.81,0,0,1-3,.39c-.68,0-1.44,0-2.27-.1s-1.6-.15-2.33-.24-1.74-.2-2.62-.36l.2-1.85c.88.11,1.74.21,2.58.29s1.46.13,2.25.19,1.5.08,2.09.08a5.55,5.55,0,0,0,3.83-1.16,4.88,4.88,0,0,0,1.27-3.78,4.82,4.82,0,0,0-.28-1.78,2.64,2.64,0,0,0-.93-1.17,5.76,5.76,0,0,0-1.65-.79,22.57,22.57,0,0,0-2.44-.59,24.67,24.67,0,0,1-3.08-.77,7.24,7.24,0,0,1-2.22-1.14,4.39,4.39,0,0,1-1.35-1.81,7.34,7.34,0,0,1-.47-2.82,6.86,6.86,0,0,1,.52-2.82,4.71,4.71,0,0,1,1.47-1.92,6.13,6.13,0,0,1,2.32-1.07,12.21,12.21,0,0,1,3-.34c.66,0,1.39,0,2.19.1s1.53.15,2.22.23l2.41.3Z" style="fill:#fff"/><path d="M1060.83,280.89v7.94h-2.22v-23h8.45q3.7,0,5.44,1.81t1.74,5.51a8.44,8.44,0,0,1-1.74,5.71q-1.74,2-5.44,2Zm6.19-2a4.45,4.45,0,0,0,3.79-1.49,6.85,6.85,0,0,0,1.15-4.27,6,6,0,0,0-1.15-4.06,4.8,4.8,0,0,0-3.79-1.3h-6.19v11.12Z" style="fill:#fff"/><path d="M1082.12,265.85h5l6.53,23h-2.19l-1.75-6.22h-10.17l-1.76,6.22h-2.21Zm-2,14.8h9.11l-3.68-12.91h-1.79Z" style="fill:#fff"/><path d="M1110.77,288.47c-.82.18-1.78.34-2.9.48a26.6,26.6,0,0,1-3.33.22,9.85,9.85,0,0,1-4.22-.78,5.84,5.84,0,0,1-2.55-2.29,10,10,0,0,1-1.26-3.69,32.38,32.38,0,0,1-.34-5,34.78,34.78,0,0,1,.33-5.07,9.88,9.88,0,0,1,1.24-3.72,6,6,0,0,1,2.55-2.31,9.77,9.77,0,0,1,4.25-.79,25.66,25.66,0,0,1,3.43.23c1.12.16,2.06.32,2.83.5l-.13,1.85-1.29-.2-1.54-.19q-.81-.1-1.62-.15c-.54,0-1-.05-1.51-.05a7.23,7.23,0,0,0-3.28.63,4.32,4.32,0,0,0-1.89,1.87,8.68,8.68,0,0,0-.87,3.09,36.46,36.46,0,0,0-.22,4.31,35.39,35.39,0,0,0,.22,4.25,8.51,8.51,0,0,0,.87,3.07,4.25,4.25,0,0,0,1.91,1.84,7.43,7.43,0,0,0,3.29.61,27.78,27.78,0,0,0,3.1-.18c1.07-.12,2-.26,2.83-.42Z" style="fill:#fff"/><path d="M1115,265.85h13.88v2h-11.66v8.34h9.67v2h-9.67v8.78h11.66v1.95H1115Z" style="fill:#fff"/><path d="M1132.76,285.36h2.35v3.47h-2.35Z" style="fill:#fff"/><path d="M277.74,317.29h4.08l6.92,19.93,6.92-19.93h4.07v23h-2.18v-20.7h-.47L290,339.51h-2.55l-7.05-19.94H280v20.7h-2.22Z" style="fill:#fff"/><path d="M309.93,317.29h5l6.52,23h-2.19L317.52,334H307.35l-1.75,6.23h-2.22Zm-2.05,14.8H317l-3.68-12.91h-1.79Z" style="fill:#fff"/><path d="M330.43,340.27h-2.15v-9.7l-7.38-13.28h2.45l6,11,6-11h2.48l-7.39,13.28Z" style="fill:#fff"/><path d="M349.28,317.29a8.05,8.05,0,0,1,5.11,1.37,5.34,5.34,0,0,1,1.71,4.42,6.36,6.36,0,0,1-.81,3.53,5.15,5.15,0,0,1-2.2,1.84,6.56,6.56,0,0,1,1.44.63,4.56,4.56,0,0,1,1.21,1,4.68,4.68,0,0,1,.82,1.57,7.16,7.16,0,0,1,.3,2.19,8,8,0,0,1-.51,3.05,4.93,4.93,0,0,1-1.44,2,5.75,5.75,0,0,1-2.24,1.06,12.4,12.4,0,0,1-2.9.31h-8.71v-23Zm-6,1.95v8.35h6.23a4.4,4.4,0,0,0,3.33-1.08,4.63,4.63,0,0,0,1-3.26,3.81,3.81,0,0,0-1.13-3.07,5.45,5.45,0,0,0-3.51-.94Zm0,10.3v8.78h6.43a9.54,9.54,0,0,0,2-.2,3.73,3.73,0,0,0,1.56-.71,3.33,3.33,0,0,0,1-1.39,6.09,6.09,0,0,0,.35-2.21,4.14,4.14,0,0,0-.55-2.3,3.83,3.83,0,0,0-1.34-1.29,4.46,4.46,0,0,0-1.67-.56,11.62,11.62,0,0,0-1.54-.12Z" style="fill:#fff"/><path d="M361.46,317.29h13.88v1.95H363.68v8.35h9.67v2h-9.67v8.78h11.66v1.95H361.46Z" style="fill:#fff"/><path d="M384.61,317.29h16.56v1.95H394v21h-2.19v-21h-7.22Z" style="fill:#fff"/><path d="M418.89,329.71H406.67v10.56h-2.22v-23h2.22v10.46h12.22V317.29h2.19v23h-2.19Z" style="fill:#fff"/><path d="M426.8,317.29h13.88v1.95H429v8.35h9.67v2H429v8.78h11.66v1.95H426.8Z" style="fill:#fff"/><path d="M452.37,340.27v-23h8.35a8.26,8.26,0,0,1,4,.86,6.66,6.66,0,0,1,2.54,2.37,10.36,10.36,0,0,1,1.34,3.54,23.53,23.53,0,0,1,.39,4.42,25.13,25.13,0,0,1-.38,4.52,11.23,11.23,0,0,1-1.32,3.76,7.06,7.06,0,0,1-2.55,2.57,7.82,7.82,0,0,1-4,.94Zm14.34-11.79a22.17,22.17,0,0,0-.27-3.53,9.48,9.48,0,0,0-.92-2.94,5.13,5.13,0,0,0-1.84-2,5.4,5.4,0,0,0-3-.75h-6.13v19.08h6.13a4.89,4.89,0,0,0,3-.85,5.73,5.73,0,0,0,1.84-2.22,10.7,10.7,0,0,0,.92-3.14A24,24,0,0,0,466.71,328.48Z" style="fill:#fff"/><path d="M473.76,317.29h13.88v1.95H476v8.35h9.67v2H476v8.78h11.66v1.95H473.76Z" style="fill:#fff"/><path d="M507.48,317.29l-6.13,23h-5.17l-6.12-23h2.22l5.53,21h1.92l5.49-21Z" style="fill:#fff"/><path d="M523.94,319.2l-2.52-.27-2.15-.2c-.73-.07-1.34-.1-1.83-.1a6.65,6.65,0,0,0-3.89,1,3.5,3.5,0,0,0-1.34,3.06,5.23,5.23,0,0,0,.33,2,2.75,2.75,0,0,0,1.05,1.24,6.28,6.28,0,0,0,1.8.77c.73.2,1.6.4,2.62.6a26.5,26.5,0,0,1,2.93.81,6.57,6.57,0,0,1,2.07,1.12,4.11,4.11,0,0,1,1.22,1.71,7.08,7.08,0,0,1,.4,2.57,9.29,9.29,0,0,1-.5,3.27,5.26,5.26,0,0,1-3.69,3.46,11.21,11.21,0,0,1-3,.38c-.68,0-1.44,0-2.27-.1s-1.6-.14-2.33-.23-1.74-.21-2.62-.36l.2-1.86,2.58.3c.71.07,1.46.13,2.26.18s1.49.08,2.08.08a5.55,5.55,0,0,0,3.83-1.15,4.9,4.9,0,0,0,1.27-3.78,4.78,4.78,0,0,0-.28-1.78,2.64,2.64,0,0,0-.93-1.17,5.51,5.51,0,0,0-1.65-.79,20.43,20.43,0,0,0-2.44-.59,24.67,24.67,0,0,1-3.08-.77,7.26,7.26,0,0,1-2.22-1.15,4.41,4.41,0,0,1-1.35-1.81,7.34,7.34,0,0,1-.47-2.82,6.93,6.93,0,0,1,.52-2.82,4.75,4.75,0,0,1,1.47-1.91A6.3,6.3,0,0,1,514.3,317a12.73,12.73,0,0,1,3-.33c.66,0,1.39,0,2.19.1s1.53.14,2.22.23l2.41.3Z" style="fill:#fff"/><path d="M550.16,339.91c-.81.17-1.78.33-2.89.48a26.83,26.83,0,0,1-3.33.21,9.93,9.93,0,0,1-4.23-.78,5.74,5.74,0,0,1-2.54-2.28,10.16,10.16,0,0,1-1.26-3.69,31.18,31.18,0,0,1-.35-5,34.78,34.78,0,0,1,.33-5.07,10,10,0,0,1,1.24-3.73,6,6,0,0,1,2.55-2.3,9.79,9.79,0,0,1,4.26-.79,24,24,0,0,1,3.42.23c1.12.15,2.06.32,2.84.49l-.14,1.86c-.37-.07-.8-.13-1.29-.2l-1.54-.2q-.81-.09-1.62-.15c-.54,0-1-.05-1.51-.05a7.23,7.23,0,0,0-3.28.63,4.41,4.41,0,0,0-1.88,1.87,8.47,8.47,0,0,0-.88,3.1,38.6,38.6,0,0,0-.22,4.31,37.6,37.6,0,0,0,.22,4.25,8.2,8.2,0,0,0,.88,3.06,4.23,4.23,0,0,0,1.9,1.84,7.51,7.51,0,0,0,3.3.61,27.74,27.74,0,0,0,3.09-.18c1.07-.12,2-.26,2.83-.41Z" style="fill:#fff"/><path d="M558.94,317.29h5l6.52,23h-2.18L566.52,334H556.36l-1.76,6.23h-2.22Zm-2.05,14.8H566l-3.67-12.91h-1.79Z" style="fill:#fff"/><path d="M574.11,317.29h4.24l9.4,21h.76v-21h2.16v23h-4.18l-9.47-21h-.69v21h-2.22Z" style="fill:#fff"/><path d="M603.68,340.27v-23H612a8.26,8.26,0,0,1,4,.86,6.66,6.66,0,0,1,2.54,2.37,10.36,10.36,0,0,1,1.34,3.54,23.5,23.5,0,0,1,.4,4.42,25.11,25.11,0,0,1-.39,4.52,11.23,11.23,0,0,1-1.32,3.76,7.06,7.06,0,0,1-2.55,2.57,7.82,7.82,0,0,1-4,.94ZM618,328.48a23.44,23.44,0,0,0-.26-3.53,9.76,9.76,0,0,0-.93-2.94,5.13,5.13,0,0,0-1.84-2,5.4,5.4,0,0,0-3-.75H605.9v19.08H612a4.89,4.89,0,0,0,3-.85,5.73,5.73,0,0,0,1.84-2.22,11,11,0,0,0,.93-3.14A25.42,25.42,0,0,0,618,328.48Z" style="fill:#fff"/><path d="M633.19,340.6a11,11,0,0,1-4.42-.76A6.45,6.45,0,0,1,626,337.6a9.18,9.18,0,0,1-1.42-3.65,28,28,0,0,1-.4-5,28.62,28.62,0,0,1,.41-5.08,10,10,0,0,1,1.44-3.76,6.55,6.55,0,0,1,2.77-2.32,12.59,12.59,0,0,1,8.78,0,6.52,6.52,0,0,1,2.76,2.32,9.66,9.66,0,0,1,1.44,3.76,31.36,31.36,0,0,1,0,10.23,9.35,9.35,0,0,1-1.42,3.66,6.06,6.06,0,0,1-2.75,2.17A11.85,11.85,0,0,1,633.19,340.6Zm0-2a8.68,8.68,0,0,0,3.41-.58,4.37,4.37,0,0,0,2-1.79,8.11,8.11,0,0,0,1-3,31.69,31.69,0,0,0,.26-4.32,28.38,28.38,0,0,0-.28-4.25,8.78,8.78,0,0,0-1-3.15,4.86,4.86,0,0,0-2.05-1.94,7.44,7.44,0,0,0-3.36-.66,7.6,7.6,0,0,0-3.4.66,4.93,4.93,0,0,0-2,1.92,8.67,8.67,0,0,0-1,3.13,30.27,30.27,0,0,0-.28,4.29,29.24,29.24,0,0,0,.27,4.24,8,8,0,0,0,1,3.05,4.69,4.69,0,0,0,2,1.84A8.26,8.26,0,0,0,633.19,338.65Z" style="fill:#fff"/><path d="M667,319.2l-2.51-.27-2.16-.2c-.73-.07-1.33-.1-1.82-.1a6.63,6.63,0,0,0-3.89,1,3.5,3.5,0,0,0-1.34,3.06,5.23,5.23,0,0,0,.33,2,2.79,2.79,0,0,0,1,1.24,6.48,6.48,0,0,0,1.81.77q1.1.3,2.61.6a26.11,26.11,0,0,1,2.94.81,6.62,6.62,0,0,1,2.06,1.12,4,4,0,0,1,1.23,1.71,7.08,7.08,0,0,1,.4,2.57,9.53,9.53,0,0,1-.5,3.27,5.56,5.56,0,0,1-1.42,2.22,5.63,5.63,0,0,1-2.27,1.24,11.31,11.31,0,0,1-3,.38c-.69,0-1.44,0-2.27-.1s-1.61-.14-2.34-.23-1.73-.21-2.61-.36l.2-1.86,2.58.3q1.06.11,2.25.18c.8.06,1.49.08,2.09.08a5.52,5.52,0,0,0,3.82-1.15,4.9,4.9,0,0,0,1.28-3.78,5,5,0,0,0-.28-1.78,2.64,2.64,0,0,0-.93-1.17,5.46,5.46,0,0,0-1.66-.79,19.76,19.76,0,0,0-2.43-.59,24.23,24.23,0,0,1-3.08-.77,7.26,7.26,0,0,1-2.22-1.15,4.34,4.34,0,0,1-1.36-1.81,7.36,7.36,0,0,1-.46-2.82,7.1,7.1,0,0,1,.51-2.82,4.86,4.86,0,0,1,1.48-1.91A6.3,6.3,0,0,1,657.4,317a12.67,12.67,0,0,1,3-.33c.66,0,1.39,0,2.18.1s1.54.14,2.22.23l2.42.3Z" style="fill:#fff"/><path d="M680.31,340.6a11,11,0,0,1-4.42-.76,6.36,6.36,0,0,1-2.76-2.24A9.19,9.19,0,0,1,671.7,334a28.93,28.93,0,0,1-.4-5,27.66,27.66,0,0,1,.42-5.08,9.66,9.66,0,0,1,1.44-3.76,6.52,6.52,0,0,1,2.76-2.32,12.59,12.59,0,0,1,8.78,0,6.55,6.55,0,0,1,2.77,2.32,10,10,0,0,1,1.44,3.76,32.11,32.11,0,0,1,0,10.23,9.51,9.51,0,0,1-1.43,3.66,6,6,0,0,1-2.75,2.17A11.85,11.85,0,0,1,680.31,340.6Zm0-2a8.68,8.68,0,0,0,3.41-.58,4.39,4.39,0,0,0,2.06-1.79,8.29,8.29,0,0,0,1-3,30.16,30.16,0,0,0,.26-4.32,28.38,28.38,0,0,0-.28-4.25,8.78,8.78,0,0,0-1-3.15,4.88,4.88,0,0,0-2.06-1.94,7.44,7.44,0,0,0-3.36-.66,7.52,7.52,0,0,0-3.39.66,5,5,0,0,0-2.06,1.92,8.67,8.67,0,0,0-1,3.13,28.85,28.85,0,0,0-.28,4.29,29.36,29.36,0,0,0,.26,4.24,8.12,8.12,0,0,0,1,3.05,4.74,4.74,0,0,0,2,1.84A8.33,8.33,0,0,0,680.31,338.65Z" style="fill:#fff"/><path d="M694.12,317.29h4.08l6.92,19.93L712,317.29h4.07v23h-2.18v-20.7h-.47l-7.05,19.94h-2.55l-7.06-19.94h-.46v20.7h-2.22Z" style="fill:#fff"/><path d="M721.81,317.29h13.88v1.95H724v8.35h9.67v2H724v8.78h11.66v1.95H721.81Z" style="fill:#fff"/><path d="M737.67,317.29h16.56v1.95h-7.15v21h-2.19v-21h-7.22Z" style="fill:#fff"/><path d="M772,329.71H759.73v10.56h-2.22v-23h2.22v10.46H772V317.29h2.18v23H772Z" style="fill:#fff"/><path d="M778.73,317.29H786v1.79h-2.58v19.4h2.61v1.79h-7.32v-1.79h2.56v-19.4h-2.56Z" style="fill:#fff"/><path d="M790.56,317.29h4.24l9.4,21H805v-21h2.16v23h-4.18l-9.47-21h-.69v21h-2.22Z" style="fill:#fff"/><path d="M821.89,328.61h6.29v11.2c-.2,0-.58.11-1.16.2l-1.94.26c-.71.09-1.46.17-2.23.23s-1.47.1-2.09.1a10.26,10.26,0,0,1-4.32-.79,6.39,6.39,0,0,1-2.7-2.3,9.85,9.85,0,0,1-1.39-3.7,27.36,27.36,0,0,1-.4-5,28,28,0,0,1,.4-5,10,10,0,0,1,1.39-3.73,6.46,6.46,0,0,1,2.7-2.33,10.09,10.09,0,0,1,4.32-.81,26,26,0,0,1,2.62.13c.88.09,1.68.19,2.38.3s1.65.27,2.42.43l-.1,1.85c-.79-.13-1.6-.25-2.42-.36s-1.48-.17-2.31-.25-1.64-.12-2.39-.12a7.83,7.83,0,0,0-3.39.63,4.78,4.78,0,0,0-2.06,1.87,8.44,8.44,0,0,0-1,3.1,32,32,0,0,0-.26,4.31,30.72,30.72,0,0,0,.26,4.23,8.41,8.41,0,0,0,1,3.07,4.59,4.59,0,0,0,2,1.87,7.75,7.75,0,0,0,3.36.63c.42,0,.88,0,1.38,0l1.46-.13c.47-.06.91-.12,1.3-.19l1-.16v-7.55h-4.14Z" style="fill:#fff"/><path d="M832.72,336.79h2.35v3.48h-2.35Z" style="fill:#fff"/><path d="M377.05,184.38h-91.7V150L338.73,3.93h49.78l-58,141.15h46.5V84.49h45.19v60.59h20.64v39.3H422.24v35.7H377.05Z" style="fill:#56f"/><path d="M545.06,0q20,0,35.69,6.22A62,62,0,0,1,607.12,26q10.64,13.59,16.21,35t5.56,52.23q0,30.8-5.56,51.91t-16.21,34.23a59.84,59.84,0,0,1-26.37,18.83Q565,224,545.06,224q-20.31,0-35.87-5.73A60,60,0,0,1,483,199.45q-10.64-13.09-16.21-34.23t-5.56-51.91q0-30.78,5.56-52.23T483,26a62.19,62.19,0,0,1,26.2-19.82Q524.74,0,545.06,0Zm.32,39.3a36.61,36.61,0,0,0-16.86,3.6q-7,3.62-11.79,12.28t-6.88,22.93a243.85,243.85,0,0,0-2.13,35.2,221.89,221.89,0,0,0,2.13,33.57q2.13,13.6,6.88,21.94t11.79,12.12a39.61,39.61,0,0,0,33.73,0q7-3.75,11.46-12.12t6.55-21.94a221.89,221.89,0,0,0,2.13-33.57,243.85,243.85,0,0,0-2.13-35.2q-2.13-14.25-6.55-22.93T562.25,42.9A36.69,36.69,0,0,0,545.38,39.3Z" style="fill:#56f"/><path d="M583.39,81.79q-2.13-14.25-6.55-22.92A31,31,0,0,0,571,50.65a34.22,34.22,0,0,1,2.74,4.53q4.42,8.68,6.55,22.92a244,244,0,0,1,2.13,35.21,222,222,0,0,1-2.13,33.57q-2.13,13.59-6.55,21.94t-11.46,12.12a39.7,39.7,0,0,1-33.73,0,26.29,26.29,0,0,1-6.27-4.71,27.89,27.89,0,0,0,9.4,8.39q7,3.78,16.87,3.77a35.19,35.19,0,0,0,16.86-3.77c4.69-2.5,8.52-6.55,11.46-12.11s5.13-12.88,6.55-21.95A221.74,221.74,0,0,0,585.52,117,244,244,0,0,0,583.39,81.79ZM580.75,6.22Q565,0,545.06,0,524.75,0,509.2,6.22A62,62,0,0,0,483,26q-10.65,13.59-16.22,35t-5.56,52.24q0,30.78,5.56,51.91T483,199.44c.84,1,1.71,2,2.6,3q-10.28-13-15.68-33.55-5.58-21.12-5.57-51.9t5.57-52.24q5.56-21.45,16.21-35A62.07,62.07,0,0,1,512.33,9.9q15.54-6.21,35.86-6.22,20,0,35.69,6.22A61.36,61.36,0,0,1,607,25.9,62,62,0,0,0,580.75,6.22Z" style="fill:#cad2ff"/><path d="M739.26,184.38h-91.7V150L700.94,3.93h49.78l-58,141.15h46.5V84.49h45.2v60.59h20.63v39.3H784.46v35.7h-45.2Z" style="fill:#56f"/><polygon points="338.65 3.93 350.92 3.69 285.35 150.03 285.35 150.03 338.65 3.93" style="fill:#cad2ff"/><polygon points="701.1 3.93 713.36 3.69 647.8 150.03 647.8 150.03 701.1 3.93" style="fill:#cad2ff"/><polygon points="377.05 184.38 382.04 184.38 377.05 220.08 377.05 184.38" style="fill:#cad2ff"/><polygon points="739.27 184.38 744.26 184.38 739.27 220.08 739.27 184.38" style="fill:#cad2ff"/></svg>