<svg id="Layer_1" data-name="Layer 1" xmlns="http://www.w3.org/2000/svg" viewBox="0 0 126.98 242.27"><path d="M53.79,151.76a75.39,75.39,0,0,0-36.34,38,80,80,0,0,0-3.94,11.11,76,76,0,0,0-2.59,24.4,71.36,71.36,0,0,0,3,17A71.67,71.67,0,0,0,28.51,233a76,76,0,0,0,16.24-18.39,79.91,79.91,0,0,0,5.53-10.41A75.47,75.47,0,0,0,53.79,151.76Z" style="fill:#e86e00"/><path d="M53.79,151.76a55.09,55.09,0,0,0-26.55,27.78,57.25,57.25,0,0,0-2.87,8.11,55.45,55.45,0,0,0-1.9,17.83,52.67,52.67,0,0,0,2.21,12.4,52,52,0,0,0,10.64-6.75A55.47,55.47,0,0,0,47.18,197.7a58,58,0,0,0,4-7.61A55.18,55.18,0,0,0,53.79,151.76Z" style="fill:#ff9e1d"/><path d="M53.79,151.76A34.69,34.69,0,0,0,37,169.29a36,36,0,0,0-1.82,5.12A35,35,0,0,0,34,185.66a33.3,33.3,0,0,0,1.4,7.82,32.61,32.61,0,0,0,6.71-4.26,34.82,34.82,0,0,0,7.49-8.48A35.79,35.79,0,0,0,52.17,176,34.8,34.8,0,0,0,53.79,151.76Z" style="fill:#ffe31a"/><path d="M125.12,19.54a100.71,100.71,0,0,1-11.29-4.2,97.51,97.51,0,0,1-10.72-5.49A155.3,155.3,0,0,0,46.79,77.24q-2.88,6.56-5.13,13.2c-1.06,3.1-2,6.23-2.86,9.35q-.66,2.43-1.25,4.87-1,4.22-1.78,8.46c-.14.84-.29,1.68-.43,2.52-.18,1.06-.33,2.11-.49,3.16-.24,1.66-.45,3.32-.63,5q-.39,3.48-.61,7c0,.07,0,.13,0,.2-.13,1.91-.22,3.81-.26,5.72q-.14,4.59,0,9.13c0,1.19.09,2.38.16,3.57.22,3.71.57,7.4,1,11,.17,1.3.36,2.59.57,3.88a96.93,96.93,0,0,1,11.29,4.2A97.51,97.51,0,0,1,57.15,174c1.09-.72,2.18-1.45,3.24-2.2q4.53-3.16,8.86-6.68c.92-.76,1.82-1.53,2.73-2.3q3.47-3,6.76-6.15c1.37-1.32,2.71-2.67,4-4l.14-.15c1.61-1.67,3.18-3.39,4.72-5.14,1.09-1.26,2.18-2.53,3.23-3.83.68-.82,1.35-1.65,2-2.5.53-.66,1-1.34,1.58-2q2.6-3.42,5-7c.94-1.38,1.85-2.78,2.75-4.2q2.59-4.11,5-8.43,3.38-6.15,6.28-12.7A155.27,155.27,0,0,0,125.12,19.54Z" style="fill:#d1cdc5"/><path d="M125.12,19.54v-.06c-.25-1.56-.53-3.1-.83-4.64,0-.21-.08-.43-.13-.64-.6-3.06-1.31-6.09-2.11-9.09l-.18-.68c-.41-1.48-.83-3-1.28-4.43l-.27.13c-1.22.59-2.44,1.19-3.65,1.82l-1,.52c-1.28.67-2.56,1.36-3.82,2.07l-.49.28c-1.14.65-2.27,1.31-3.4,2l-1,.59c-1.23.76-2.45,1.53-3.66,2.33l-.19.12a97.51,97.51,0,0,0,10.72,5.49A100.71,100.71,0,0,0,125.12,19.54Z" style="fill:#4ca3e5"/><path d="M41.66,90.44c-1.69,1.62-3.37,3.34-5,5.14-11.71,12.67-22.81,29.67-31.54,49.49Q2.3,151.43,0,157.74a52.66,52.66,0,0,1,32.82-12h.54a155.08,155.08,0,0,1,5.43-46Q40.08,95.11,41.66,90.44Z" style="fill:#4ca3e5"/><path d="M106.8,126.47q.3-3.68.39-7.19-2.37,4.32-5,8.43A154.66,154.66,0,0,1,72,162.78l.36.4A52.65,52.65,0,0,1,85.7,195.46c2.06-4,4-8.07,5.9-12.32C100.33,163.32,105.37,143.66,106.8,126.47Z" style="fill:#4ca3e5"/><path d="M98.5,140.14a361,361,0,0,1-18.15,34.92,52.19,52.19,0,0,0-8-11.88l-.36-.4a154.41,154.41,0,0,0,30.24-35.07q2.59-4.11,5-8.43Q103.13,129.92,98.5,140.14Z" style="fill:#071759"/><path d="M99.48,131.91q-2.43,3.6-5,7c-.52.68-1,1.36-1.57,2-8.68-4.85-18.21-9.57-28.2-14s-19.9-8.23-29.34-11.36c.14-.84.29-1.68.44-2.52.51-2.83,1.11-5.65,1.78-8.46,11.41,3.75,22.5,8.13,31.61,12.14S89,126,99.48,131.91Z" style="fill:#3a3a3a"/><path d="M87.64,147.29c-1.54,1.75-3.11,3.47-4.72,5.14l-.14.15c-6.51-3.53-14.55-7.5-24.19-11.74s-18-7.49-25-9.91c0-.06,0-.13,0-.2q.22-3.48.61-7c8.28,2.82,17.62,6.47,27.19,10.68S80,143.08,87.64,147.29Z" style="fill:#3a3a3a"/><path d="M48,161.84a86.54,86.54,0,0,0-13.79-4.52c.12,1,.24,2.05.38,3.07.16,1.3.36,2.59.56,3.88a98.78,98.78,0,0,1,11.29,4.2A98.63,98.63,0,0,1,57.16,174c1.08-.72,2.17-1.45,3.24-2.2l2.52-1.8A87.3,87.3,0,0,0,48,161.84Z" style="fill:#4c3723"/><path d="M125.11,19.54v-.07c-.26-1.55-.53-3.09-.83-4.63,0-.22-.08-.43-.13-.64-.61-3.07-1.31-6.09-2.11-9.09l-.18-.68c-.41-1.48-.83-3-1.28-4.43h0L46.43,168.47h0A97.51,97.51,0,0,1,57.15,174c1.09-.72,2.18-1.45,3.24-2.2q4.53-3.16,8.86-6.68c.92-.76,1.83-1.52,2.73-2.3q3.47-3,6.76-6.15c1.37-1.32,2.71-2.67,4-4l.14-.15c1.61-1.67,3.18-3.39,4.72-5.14,1.09-1.26,2.18-2.53,3.23-3.83.68-.82,1.35-1.65,2-2.5.53-.66,1-1.34,1.58-2q2.6-3.42,5-7c.94-1.38,1.85-2.78,2.75-4.2q2.59-4.11,5-8.43,3.38-6.15,6.28-12.7A155.17,155.17,0,0,0,125.11,19.54Z" style="fill:#3a3a3a;opacity:0.15"/><path d="M77.07,101.07l-.14-.08L57.08,84.39a.56.56,0,0,1-.15-.64l12.63-30.1a.6.6,0,0,1,.38-.33.58.58,0,0,1,.49.12L90.27,70a.56.56,0,0,1,.16.64l-12.64,30.1a.56.56,0,0,1-.38.32A.5.5,0,0,1,77.07,101.07ZM58.1,83.8l19,15.86,12.19-29-19-15.86Z"/><polyline points="72.49 60.54 70.97 61.31 71.22 63.56 71.75 63.3 71.58 61.82 72.58 61.32 72.49 60.54"/><polyline points="64.01 80.73 62.49 81.49 62.75 83.75 63.27 83.48 63.1 82.01 64.1 81.51 64.01 80.73"/><polyline points="66.28 82.63 65.76 82.89 65.92 84.36 64.93 84.86 65.02 85.64 66.54 84.88 66.28 82.63"/><polyline points="75.86 63.36 75.33 63.63 75.5 65.1 74.5 65.6 74.59 66.38 76.11 65.61 75.86 63.36"/><polyline points="74.88 64.09 72.55 62.13 72.24 62.87 74.57 64.82 74.88 64.09"/><polyline points="76.94 71.22 69.6 65.08 69.29 65.82 76.63 71.96 76.94 71.22"/><polyline points="82.33 78.96 68.6 67.47 68.29 68.2 82.03 79.69 82.33 78.96"/><polyline points="81.33 81.35 67.6 69.86 67.29 70.59 81.02 82.08 81.33 81.35"/><polyline points="70.79 75.75 66.59 72.24 66.29 72.98 70.48 76.49 70.79 75.75"/><polyline points="79.33 86.12 65.59 74.63 65.28 75.37 79.02 86.86 79.33 86.12"/><polyline points="78.32 88.51 64.59 77.02 64.28 77.76 78.02 89.25 78.32 88.51"/><polyline points="65.21 81.91 63.58 83.89 63.87 84.51 65.5 82.52 65.21 81.91"/><path d="M89.7,71l-.14-.08L69.72,54.29a.57.57,0,0,1-.15-.66.54.54,0,0,1,.6-.31l25.92,4.51a.57.57,0,0,1,.26.12l19.85,16.6a.57.57,0,0,1,.15.66.56.56,0,0,1-.6.31L89.82,71ZM72,54.76,90.16,69.94l23.75,4.14L95.76,58.89Z"/><path d="M93.64,61.76a6.76,6.76,0,0,0-3-1.19c-1.2-.2-1.6,0-.94.51a4.87,4.87,0,0,0,2.12.94l-.37-.31a2.87,2.87,0,0,1-1.25-.53l0,0c-.41-.35-.08-.43.83-.28a4.8,4.8,0,0,1,2.09.79l0,0c.28.24.15.33-.29.27l.37.31c.7.1.94-.05.39-.51"/><path d="M95.3,63.19l-.35-.3-3.79-.66.35.3,1.48.25a3.37,3.37,0,0,1,1.35.57l0,0c.24.21.14.28-.3.2l-1.67-.29.35.29,1.76.31c.59.1.79,0,.37-.36a3.7,3.7,0,0,0-1.1-.6l1.51.27"/><path d="M94.41,64.7c-.18-.14-.14-.22.1-.18a2,2,0,0,1,.79.38l.53.4-.23,0a3.14,3.14,0,0,1-1.17-.53l0,0m2.52.53a4.1,4.1,0,0,0-1.6-.77l.35.29a2.16,2.16,0,0,1,.82.4l0,0c.24.2.16.28-.21.22l-.09,0-.59-.45a3.64,3.64,0,0,0-1.5-.7c-.47-.08-.54.09-.21.36a3.74,3.74,0,0,0,1,.58l-.37,0,.33.27.58.09,1.16.2c.59.1.73-.06.26-.45"/><path d="M99.36,67.3l-1-.8L98,66.43l.6.5-1.86-.32L96.05,66,95.63,66l1.68,1.41.42.07-.65-.55,2.28.4m1.1.22-.43-.36L99.36,67l.43.36.67.12"/><path d="M101.55,69.1a3.55,3.55,0,0,0-1.09-.6l.43.08-.35-.3-2.71-.47.35.3,1.43.25a3.33,3.33,0,0,1,1.41.57l0,0c.25.2.14.27-.31.19l-1.66-.29.35.3,1.76.3c.62.11.77,0,.36-.36"/><polyline points="87.82 60.39 87.45 60.08 83.66 59.42 85.42 60.89 85.91 60.98 84.51 59.81 87.82 60.39"/><path d="M89.69,62.67l-1-.8-.42-.07.6.5L87.05,62l-.68-.57L86,61.34l1.68,1.41.43.07-.66-.55,2.29.4m1.09.21-.43-.36-.67-.11.43.36.67.11"/><path d="M91.88,64.47a3.8,3.8,0,0,0-1.09-.6l.42.08-.35-.3-2.71-.47.36.3,1.42.24a3.51,3.51,0,0,1,1.42.58l0,0c.25.21.15.28-.31.2l-1.65-.29.35.29,1.75.31c.63.11.77,0,.37-.36"/><polyline points="94.58 66.05 94.23 65.75 90.44 65.09 90.79 65.39 91.67 65.54 92.33 65.83 91.66 66.11 92.09 66.47 92.93 66.1 94.76 66.91 94.31 66.53 92.32 65.65 94.58 66.05"/><path d="M77.07,101.07a.49.49,0,0,1-.27-.24.58.58,0,0,1,0-.48l12.64-30.1a.55.55,0,0,1,.6-.33l25.93,4.51a.56.56,0,0,1,.39.28.54.54,0,0,1,0,.48l-12.63,30.1a.56.56,0,0,1-.61.33l-25.92-4.51Zm13.19-30-12.2,29.06,24.81,4.32,12.2-29.06Z"/><path d="M92.84,84.35l-1.58-.28,0,.11,1.57.27a.47.47,0,0,1,0-.1m8,1.39-6.41-1.11,0,.1,6.41,1.12a.49.49,0,0,0,0-.11m3.31.58-1.7-.3s0,.07,0,.11l1.57.27-4.4,10.47.13,0,4.44-10.58"/><path d="M97.07,81.8a5.61,5.61,0,0,0-2.8,2.91l.13,0,0-.1a5.69,5.69,0,0,1,2.63-2.83m3-2.12a5.27,5.27,0,0,0-3.21.56,5.19,5.19,0,0,1,3-.48c2.62.46,3.72,3.3,2.44,6.35l.13,0s0-.07,0-.11c1.28-3,.19-5.88-2.43-6.34"/><path d="M100.81,85.85,94.4,84.73l-.13,0c-.88,2.09-.13,4.05,1.67,4.37s4-1.14,4.87-3.23m3.18.55-1.57-.27-.13,0a7.72,7.72,0,0,1-5.86,4.72l0,0A1.87,1.87,0,0,1,95,92L94,94.4l-.54-.09,1-2.39a1.07,1.07,0,0,1-.33-1.44l0,0c-1.82-1-2.44-3.39-1.36-6l-1.57-.27-.13,0L86.65,94.73,99.55,97l0-.11L104,86.4"/><path d="M97.07,81.8a3.51,3.51,0,0,1,2.06-.32c1.78.31,2.54,2.21,1.72,4.26a.49.49,0,0,1,0,.11c-.88,2.09-3.06,3.54-4.87,3.23s-2.55-2.28-1.67-4.37a5.61,5.61,0,0,1,2.8-2.91m2.78-2a5.19,5.19,0,0,0-3,.48,8.22,8.22,0,0,0-4,4.11.47.47,0,0,0,0,.1c-1.08,2.59-.46,5,1.36,6a1.72,1.72,0,0,1,1.68-1.07c.61.1.88.76.6,1.47a7.72,7.72,0,0,0,5.86-4.72c1.28-3,.18-5.89-2.44-6.35"/></svg>