<svg width="24" height="24" viewBox="0 0 24 24" fill="none" xmlns="http://www.w3.org/2000/svg">
<path fill-rule="evenodd" clip-rule="evenodd" d="M22.6608 21.0208C23.1131 21.4731 23.1131 22.2084 22.6608 22.6608C22.2084 23.1131 21.4731 23.1131 21.0208 22.6608L11.9997 13.6397L2.98097 22.6608C2.52632 23.1131 1.79332 23.1131 1.34099 22.6608C0.886338 22.2084 0.886338 21.4731 1.34099 21.0208L10.3597 11.9997L1.34099 2.98097C0.886338 2.52632 0.886338 1.79332 1.34099 1.34099C1.79332 0.886338 2.52632 0.886338 2.98097 1.34099L11.9997 10.3597L21.0208 1.34099C21.4731 0.886338 22.2084 0.886338 22.6608 1.34099C23.1131 1.79332 23.1131 2.52632 22.6608 2.98097L13.6397 11.9997L22.6608 21.0208Z" fill="white" stroke="white"/>
</svg>
