<?xml version="1.0" encoding="UTF-8"?>
<svg width="24px" height="24px" viewBox="0 0 24 24" version="1.1" xmlns="http://www.w3.org/2000/svg" xmlns:xlink="http://www.w3.org/1999/xlink">
    <title>Group 2</title>
    <g id="Artboards" stroke="none" stroke-width="1" fill="none" fill-rule="evenodd">
        <g id="Mobile_Contact" transform="translate(-330.000000, -115.000000)" fill="#FFFFFF">
            <g id="Group-2" transform="translate(330.000000, 115.000000)">
                <g id="menu">
                    <path d="M21.974026,4 L2.02597403,4 C0.903896104,4 0,3.10769231 0,2 C0,0.892307692 0.903896104,0 2.02597403,0 L21.974026,0 C23.0961039,0 24,0.892307692 24,2 C24,3.10769231 23.0961039,4 21.974026,4 Z" id="XMLID_101_"></path>
                </g>
                <g id="menu" transform="translate(0.000000, 20.000000)">
                    <path d="M21.974026,4 L2.02597403,4 C0.903896104,4 0,3.10769231 0,2 C0,0.892307692 0.903896104,0 2.02597403,0 L21.974026,0 C23.0961039,0 24,0.892307692 24,2 C24,3.10769231 23.0961039,4 21.974026,4 Z" id="XMLID_101_"></path>
                </g>
                <g id="menu" transform="translate(0.000000, 10.000000)">
                    <path d="M21.974026,4 L2.02597403,4 C0.903896104,4 0,3.10769231 0,2 C0,0.892307692 0.903896104,0 2.02597403,0 L21.974026,0 C23.0961039,0 24,0.892307692 24,2 C24,3.10769231 23.0961039,4 21.974026,4 Z" id="XMLID_101_"></path>
                </g>
            </g>
        </g>
    </g>
</svg>