
<svg width="32px" height="32px" viewBox="0 0 32 32" version="1.1" xmlns="http://www.w3.org/2000/svg" xmlns:xlink="http://www.w3.org/1999/xlink">
    <g id="Artboards" stroke="none" stroke-width="1" fill="none" fill-rule="evenodd">
        <g id="Desktop_FAQsExpanded" transform="translate(-150.000000, -350.000000)" fill="#F3504F" fill-rule="nonzero">
            <g id="subtract-circle" transform="translate(150.000000, 350.000000)">
                <path d="M16,31.3333333 C24.4683662,31.3333333 31.3333333,24.4683662 31.3333333,16 C31.3333333,7.53163384 24.4683662,0.666666667 16,0.666666667 C7.53163384,0.666666667 0.666666667,7.53163384 0.666666667,16 C0.676218938,24.4644063 7.53559367,31.3237811 16,31.3333333 Z M8,14.6666667 L24,14.6666667 C24.7363797,14.6666667 25.3333333,15.2636203 25.3333333,16 C25.3333333,16.7363797 24.7363797,17.3333333 24,17.3333333 L8,17.3333333 C7.26362033,17.3333333 6.66666667,16.7363797 6.66666667,16 C6.66666667,15.2636203 7.26362033,14.6666667 8,14.6666667 Z" id="Shape"></path>
            </g>
        </g>
    </g>
</svg>