
<svg width="30px" height="30px" viewBox="0 0 30 30" version="1.1" xmlns="http://www.w3.org/2000/svg" xmlns:xlink="http://www.w3.org/1999/xlink">
    <g id="Artboards" stroke="none" stroke-width="1" fill="none" fill-rule="evenodd">
        <g id="Mobile_Pricing" transform="translate(-30.000000, -2726.000000)" fill="#419865">
            <path d="M52.826087,2741.65217 L45.6521739,2741.65217 L45.6521739,2748.82609 C45.6521739,2749.18609 45.36,2749.47826 45,2749.47826 C44.64,2749.47826 44.3478261,2749.18609 44.3478261,2748.82609 L44.3478261,2741.65217 L37.173913,2741.65217 C36.813913,2741.65217 36.5217391,2741.36 36.5217391,2741 C36.5217391,2740.64 36.813913,2740.34783 37.173913,2740.34783 L44.3478261,2740.34783 L44.3478261,2733.17391 C44.3478261,2732.81391 44.64,2732.52174 45,2732.52174 C45.36,2732.52174 45.6521739,2732.81391 45.6521739,2733.17391 L45.6521739,2740.34783 L52.826087,2740.34783 C53.186087,2740.34783 53.4782609,2740.64 53.4782609,2741 C53.4782609,2741.36 53.186087,2741.65217 52.826087,2741.65217 M45,2726 C36.7147826,2726 30,2732.71478 30,2741 C30,2749.28522 36.7147826,2756 45,2756 C53.2852174,2756 60,2749.28522 60,2741 C60,2732.71478 53.2852174,2726 45,2726" id="Fill-1"></path>
        </g>
    </g>
</svg>