<?xml version="1.0" encoding="UTF-8"?>
<svg width="15px" height="36px" viewBox="0 0 15 36" version="1.1" xmlns="http://www.w3.org/2000/svg" xmlns:xlink="http://www.w3.org/1999/xlink">
    <title>Arrows</title>
    <g id="Artboards" stroke="none" stroke-width="1" fill="none" fill-rule="evenodd">
        <g id="Desktop_Home_CookieDisclaimer" transform="translate(-151.000000, -3638.000000)" fill="#FFFFFF" fill-rule="nonzero">
            <g id="Arrows" transform="translate(151.500000, 3638.500000)">
                <g id="Arrow" transform="translate(7.000000, 30.500000) rotate(90.000000) translate(-7.000000, -30.500000) translate(2.500000, 23.500000)">
                    <path d="M7.71646546,7.69046018 L1.68199321,13.7080133 C1.29812789,14.091 0.675756063,14.091 0.292077094,13.7080133 C-0.0916329333,13.3253673 -0.0916329333,12.7047522 0.292077094,12.3221372 L5.6316534,6.99752212 L0.292232392,1.67309292 C-0.0914776354,1.29029204 -0.0914776354,0.669738938 0.292232392,0.28709292 C0.67594242,-0.0957079646 1.29828319,-0.0957079646 1.68214851,0.28709292 L7.71662076,6.30473894 C7.90847578,6.49615487 8.00429457,6.74676106 8.00429457,6.99749115 C8.00429457,7.24834513 7.90828942,7.49913717 7.71646546,7.69046018 Z" id="Shape"></path>
                </g>
                <g id="Arrow" transform="translate(7.000000, 17.500000) rotate(90.000000) translate(-7.000000, -17.500000) translate(2.500000, 10.500000)" opacity="0.5">
                    <path d="M7.71646546,7.69046018 L1.68199321,13.7080133 C1.29812789,14.091 0.675756063,14.091 0.292077094,13.7080133 C-0.0916329333,13.3253673 -0.0916329333,12.7047522 0.292077094,12.3221372 L5.6316534,6.99752212 L0.292232392,1.67309292 C-0.0914776354,1.29029204 -0.0914776354,0.669738938 0.292232392,0.28709292 C0.67594242,-0.0957079646 1.29828319,-0.0957079646 1.68214851,0.28709292 L7.71662076,6.30473894 C7.90847578,6.49615487 8.00429457,6.74676106 8.00429457,6.99749115 C8.00429457,7.24834513 7.90828942,7.49913717 7.71646546,7.69046018 Z" id="Shape"></path>
                </g>
                <g id="Arrow" transform="translate(7.000000, 4.500000) rotate(90.000000) translate(-7.000000, -4.500000) translate(2.500000, -2.500000)" opacity="0.100000001">
                    <path d="M7.71646546,7.69046018 L1.68199321,13.7080133 C1.29812789,14.091 0.675756063,14.091 0.292077094,13.7080133 C-0.0916329333,13.3253673 -0.0916329333,12.7047522 0.292077094,12.3221372 L5.6316534,6.99752212 L0.292232392,1.67309292 C-0.0914776354,1.29029204 -0.0914776354,0.669738938 0.292232392,0.28709292 C0.67594242,-0.0957079646 1.29828319,-0.0957079646 1.68214851,0.28709292 L7.71662076,6.30473894 C7.90847578,6.49615487 8.00429457,6.74676106 8.00429457,6.99749115 C8.00429457,7.24834513 7.90828942,7.49913717 7.71646546,7.69046018 Z" id="Shape"></path>
                </g>
            </g>
        </g>
    </g>
</svg>