<?xml version="1.0" encoding="UTF-8"?>
<svg width="20px" height="20px" viewBox="0 0 20 20" version="1.1" xmlns="http://www.w3.org/2000/svg" xmlns:xlink="http://www.w3.org/1999/xlink">
    <title>time-clock-three</title>
    <g id="Artboards" stroke="none" stroke-width="1" fill="none" fill-rule="evenodd">
        <g id="Mobile_HomeSlide3" transform="translate(-335.000000, -422.000000)" fill="#FFFFFF" fill-rule="nonzero">
            <g id="time-clock-three" transform="translate(335.000000, 422.000000)">
                <path d="M10,0 C4.4771525,0 0,4.4771525 0,10 C0,15.5228475 4.4771525,20 10,20 C15.5228475,20 20,15.5228475 20,10 C19.9940293,4.47962754 15.5203725,0.00597070634 10,0 Z M10,18.3333333 C5.39762708,18.3333333 1.66666667,14.6023729 1.66666667,10 C1.66666667,5.39762708 5.39762708,1.66666667 10,1.66666667 C14.6023729,1.66666667 18.3333333,5.39762708 18.3333333,10 C18.3282814,14.6002787 14.6002787,18.3282814 10,18.3333333 L10,18.3333333 Z" id="Shape"></path>
                <path d="M10,3.33333333 C9.76988135,3.33333333 9.58333333,3.51988135 9.58333333,3.75 L9.58333333,10.4166667 C9.58333333,10.6467853 9.76988135,10.8333333 10,10.8333333 L16.2291667,10.8333333 C16.459415,10.7991512 16.6336846,10.6074546 16.6458333,10.375 C16.7503298,8.54609538 16.0970767,6.75486827 14.8397227,5.42262485 C13.5823687,4.09038142 11.8318869,3.3347045 10,3.33333333 Z" id="Path"></path>
            </g>
        </g>
    </g>
</svg>