<?xml version="1.0" encoding="UTF-8"?>
<svg width="24px" height="24px" viewBox="0 0 24 24" version="1.1" xmlns="http://www.w3.org/2000/svg" xmlns:xlink="http://www.w3.org/1999/xlink">
    <title>video-player-playing</title>
    <g id="Artboards" stroke="none" stroke-width="1" fill="none" fill-rule="evenodd">
        <g id="Desktop_Home" transform="translate(-601.000000, -597.000000)" fill="#FFFFFF" fill-rule="nonzero">
            <g id="video-player-playing" transform="translate(601.000000, 597.000000)">
                <path d="M12,4 C7.581722,4 4,7.581722 4,12 C4,16.418278 7.581722,20 12,20 C16.418278,20 20,16.418278 20,12 C20,9.87826808 19.1571453,7.84343678 17.6568542,6.34314575 C16.1565632,4.84285472 14.1217319,4 12,4 Z M15.768,12.678 L10.178,15.7 C9.93364391,15.8551932 9.62278388,15.8598056 9.37393101,15.7119304 C9.12507813,15.5640552 8.98051317,15.2888167 9,15 L9,9 C8.98051317,8.71118328 9.12507813,8.43594483 9.37393101,8.28806961 C9.62278388,8.14019439 9.93364391,8.14480678 10.178,8.3 L15.768,11.323 C16.0354332,11.4420021 16.2077493,11.7072851 16.2077493,12 C16.2077493,12.2927149 16.0354332,12.5579979 15.768,12.677 L15.768,12.678 Z" id="Shape"></path>
                <path d="M9.727,2.259 C11.2226965,1.91399979 12.7773035,1.91399979 14.273,2.259 C14.8109253,2.38436862 15.3486313,2.04992533 15.474,1.51199999 C15.5993686,0.974074658 15.2649253,0.436368652 14.727,0.311 C12.9324554,-0.101998513 11.0675446,-0.101998513 9.273,0.311 C8.92502332,0.392099289 8.64674555,0.652681473 8.54299126,0.994587767 C8.43923696,1.33649406 8.52576887,1.70778076 8.76999126,1.96858777 C9.01421364,2.22939477 9.37902332,2.34009929 9.727,2.259 L9.727,2.259 Z" id="Path"></path>
                <path d="M2.126,7.039 C2.59376092,7.32880743 3.20777276,7.186253 3.5,6.72 C4.3147717,5.41598114 5.41598114,4.3147717 6.72,3.5 C7.18944204,3.20811751 7.33338249,2.59094204 7.0415,2.1215 C6.74961751,1.65205796 6.13244204,1.50811751 5.663,1.8 C4.10073522,2.77696745 2.78194218,4.09747054 1.807,5.661 C1.66652464,5.88602467 1.62121471,6.15764422 1.68104177,6.41608213 C1.74086883,6.67452004 1.90093004,6.89859722 2.126,7.039 Z" id="Path"></path>
                <path d="M2.259,14.273 C1.91367078,12.7770033 1.91367078,11.2219967 2.259,9.726 C2.35283581,9.37348289 2.2472688,8.99783786 1.98353778,8.74580727 C1.71980675,8.49377667 1.3397609,8.40535306 0.991861725,8.51507832 C0.643962546,8.62480358 0.383415136,8.91526637 0.312,9.273 C-0.104005118,11.0668641 -0.104005118,12.9321359 0.312,14.726 C0.383415136,15.0837336 0.643962546,15.3741964 0.991861725,15.4839217 C1.3397609,15.5936469 1.71980675,15.5052233 1.98353778,15.2531927 C2.2472688,15.0011621 2.35283581,14.6255171 2.259,14.273 L2.259,14.273 Z" id="Path"></path>
                <path d="M6.72,20.494 C5.41642295,19.6803707 4.31524903,18.5805647 3.5,17.278 C3.31082788,16.9743242 2.97401653,16.7946384 2.61643954,16.8066284 C2.25886256,16.8186184 1.93484438,17.0204626 1.76643953,17.3361284 C1.59803468,17.6517941 1.61082786,18.0333242 1.8,18.337 C2.77600939,19.8983381 4.09466188,21.2169906 5.656,22.193 C6.12544204,22.4848825 6.74261749,22.340942 7.03449997,21.8715 C7.32638246,21.402058 7.18244202,20.7848825 6.713,20.493 L6.72,20.494 Z" id="Path"></path>
                <path d="M14.273,21.739 C12.7773035,22.0840002 11.2226965,22.0840002 9.727,21.739 C9.18879851,21.6136314 8.65086864,21.9482985 8.5255,22.4865 C8.40013136,23.0247015 8.73479851,23.5626314 9.273,23.688 C11.0673534,24.1026784 12.9326466,24.1026784 14.727,23.688 C15.2652015,23.5626314 15.5998686,23.0247015 15.4745,22.4865 C15.3491314,21.9482985 14.8112015,21.6136314 14.273,21.739 L14.273,21.739 Z" id="Path"></path>
                <path d="M21.874,16.959 C21.6489753,16.8185246 21.3773558,16.7732147 21.1189179,16.8330418 C20.86048,16.8928688 20.6364028,17.05293 20.496,17.278 C19.6818935,18.580123 18.582123,19.6798935 17.28,20.494 C16.810558,20.7858825 16.6666175,21.403058 16.9585,21.8725 C17.2503825,22.341942 17.867558,22.4858825 18.337,22.194 C19.8983381,21.2179906 21.2169906,19.8993381 22.193,18.338 C22.3337929,18.1128921 22.3792835,17.8410336 22.3194438,17.5823535 C22.2596041,17.3236733 22.0993471,17.0994098 21.874,16.959 Z" id="Path"></path>
                <path d="M23.688,9.273 C23.6165849,8.91526637 23.3560375,8.62480358 23.0081383,8.51507832 C22.6602391,8.40535306 22.2801932,8.49377667 22.0164622,8.74580727 C21.7527312,8.99783786 21.6471642,9.37348289 21.741,9.726 C22.0863292,11.2219967 22.0863292,12.7770033 21.741,14.273 C21.6471642,14.6255171 21.7527312,15.0011621 22.0164622,15.2531927 C22.2801932,15.5052233 22.6602391,15.5936469 23.0081383,15.4839217 C23.3560375,15.3741964 23.6165849,15.0837336 23.688,14.726 C24.1040051,12.9321359 24.1040051,11.0668641 23.688,9.273 L23.688,9.273 Z" id="Path"></path>
                <path d="M17.28,3.5 C18.5840189,4.3147717 19.6852283,5.41598114 20.5,6.72 C20.7924348,7.18944201 21.410058,7.33293472 21.8795,7.04049996 C22.348942,6.74806519 22.4924347,6.13044204 22.2,5.661 C21.2243407,4.09965191 19.9056011,2.78125426 18.344,1.806 C17.8762148,1.51218453 17.2588155,1.65321484 16.965,2.12100001 C16.6711845,2.58878519 16.8122148,3.20618451 17.28,3.5 Z" id="Path"></path>
            </g>
        </g>
    </g>
</svg>