<svg id="Layer_1" data-name="Layer 1" xmlns="http://www.w3.org/2000/svg" xmlns:xlink="http://www.w3.org/1999/xlink" viewBox="0 0 91 91"><defs><linearGradient id="linear-gradient" x1="-389.17" y1="1012.25" x2="-389.26" y2="1012.17" gradientTransform="matrix(776, 0, 0, -776, 302075.85, 785516.29)" gradientUnits="userSpaceOnUse"><stop offset="0" stop-color="#b6509e"/><stop offset="1" stop-color="#2ebac6"/></linearGradient></defs><g id="b"><circle cx="45.5" cy="45.5" r="45.5" style="fill:url(#linear-gradient)"/><path d="M65.41,63.63,50,26.43c-.87-1.92-2.16-2.86-3.86-2.86H44.81c-1.7,0-3,.94-3.86,2.86l-6.7,16.21H29.19a2.78,2.78,0,0,0-2.76,2.75h0a2.79,2.79,0,0,0,2.76,2.76h2.72L25.52,63.63a3.2,3.2,0,0,0-.19,1.06,3,3,0,0,0,.75,2.07,2.62,2.62,0,0,0,2,.79A2.8,2.8,0,0,0,29.7,67a3.38,3.38,0,0,0,1.11-1.4l7-17.45h4.88a2.78,2.78,0,0,0,2.76-2.75v-.07a2.79,2.79,0,0,0-2.76-2.76h-2.6l5.37-13.38,14.63,36.4A3.48,3.48,0,0,0,61.23,67a2.72,2.72,0,0,0,1.58.52,2.63,2.63,0,0,0,2-.78,3,3,0,0,0,.75-2.08A2.58,2.58,0,0,0,65.41,63.63Z" style="fill:#fff"/></g></svg>