<svg id="Layer_1" data-name="Layer 1" xmlns="http://www.w3.org/2000/svg" viewBox="0 0 91 91"><path d="M45.54,0A45.48,45.48,0,1,0,91,45.51,45.47,45.47,0,0,0,45.54,0Z" style="fill:#e0e0e0"/><path d="M52.12,39.41a5.26,5.26,0,1,1,5.31-5.23A5.25,5.25,0,0,1,52.12,39.41Z" style="fill:#2061ba"/><path d="M44.27,34.07A5.27,5.27,0,1,1,39,28.8,5.3,5.3,0,0,1,44.27,34.07Z" style="fill:#2165c2"/><path d="M38.8,62.12a5.27,5.27,0,1,1,5.32-5.23A5.27,5.27,0,0,1,38.8,62.12Z" style="fill:#1f5fb4"/><path d="M37.6,45.39a5.27,5.27,0,1,1-5.31-5.24A5.25,5.25,0,0,1,37.6,45.39Z" style="fill:#2164be"/><path d="M58.64,40.34a5.27,5.27,0,1,1-5.25,5.3A5.26,5.26,0,0,1,58.64,40.34Z" style="fill:#1f5cb0"/><path d="M54.3,52.34a1.87,1.87,0,0,1,.55.18,5.26,5.26,0,1,1-7,7.69.48.48,0,0,1-.08-.16c.13-.08.28-.26.39-.24.43.07.57-.22.79-.49a6.31,6.31,0,0,1,1.42-1.45,5.51,5.51,0,0,0,1.25-1c.6-.63,1.22-1.24,1.83-1.85a4.9,4.9,0,0,1,.79-.72,1,1,0,0,0,.14-1.77S54.34,52.41,54.3,52.34Z" style="fill:#1d5aab"/><path d="M54.3,52.34c0,.07.05.16.11.2a1,1,0,0,1-.14,1.77,5.91,5.91,0,0,0-.79.72c-.61.61-1.23,1.22-1.83,1.85a5.51,5.51,0,0,1-1.25,1A5.94,5.94,0,0,0,49,59.32c-.22.27-.36.55-.79.49-.12,0-.26.15-.39.24l-.09-.13c0-.3.16-.65,0-.87a4.86,4.86,0,0,0-.86-1,5,5,0,0,1,1.59-5A5.09,5.09,0,0,1,53.78,52,2,2,0,0,1,54.3,52.34Z" style="fill:#1e5caf"/><path d="M45.5,22.64a2.42,2.42,0,0,1,2.43,2.44,2.43,2.43,0,0,1-4.86,0A2.41,2.41,0,0,1,45.5,22.64Z" style="fill:#2367c4"/><path d="M63.21,53.31a2.43,2.43,0,0,1,2.43,2.44,2.44,2.44,0,0,1-4.87,0A2.43,2.43,0,0,1,63.21,53.31Z" style="fill:#1f59a8"/><path d="M27.81,53.31a2.41,2.41,0,0,1,2.42,2.45,2.43,2.43,0,0,1-4.86,0A2.41,2.41,0,0,1,27.81,53.31Z" style="fill:#2263bb"/><path d="M45.48,68.38A2.43,2.43,0,1,1,47.93,66,2.41,2.41,0,0,1,45.48,68.38Z" style="fill:#1f5bab"/><path d="M27.77,37.7a2.42,2.42,0,1,1,2.46-2.4A2.42,2.42,0,0,1,27.77,37.7Z" style="fill:#2369c7"/><path d="M63.24,37.7a2.43,2.43,0,1,1,2.4-2.47A2.41,2.41,0,0,1,63.24,37.7Z" style="fill:#1f5fb4"/><path d="M59.56,23.83a2,2,0,1,1-2-2A2,2,0,0,1,59.56,23.83Z" style="fill:#2364bd"/><path d="M60.22,66.86a2,2,0,0,1-2,2,2,2,0,0,1,.06-4A2,2,0,0,1,60.22,66.86Z" style="fill:#1f57a4"/><path d="M35.38,67.22a2,2,0,1,1-2-2A2,2,0,0,1,35.38,67.22Z" style="fill:#215eb1"/><path d="M32.77,26.17a2,2,0,0,1-2-2,2,2,0,0,1,3.95,0A2,2,0,0,1,32.77,26.17Z" style="fill:#246bcb"/><path d="M72.31,45.12a2,2,0,0,1-3.94,0,2,2,0,0,1,2-2A2,2,0,0,1,72.31,45.12Z" style="fill:#1f5bab"/><path d="M20.63,47.85a2,2,0,1,1,.08-3.93,2,2,0,1,1-.08,3.93Z" style="fill:#2367c4"/><path d="M47.09,15.91a1.59,1.59,0,0,1-3.18.06,1.59,1.59,0,0,1,3.18-.06Z" style="fill:#256ac8"/><path d="M72.7,30.71a1.59,1.59,0,1,1-1.6-1.58A1.61,1.61,0,0,1,72.7,30.71Z" style="fill:#215eb1"/><path d="M45.48,76.66a1.59,1.59,0,1,1,1.61-1.56A1.57,1.57,0,0,1,45.48,76.66Z" style="fill:#1f59a8"/><path d="M19.91,29.13a1.61,1.61,0,0,1,1.58,1.6,1.59,1.59,0,0,1-3.18,0A1.6,1.6,0,0,1,19.91,29.13Z" style="fill:#246cce"/><path d="M19.9,58.7a1.59,1.59,0,1,1-1.6,1.58A1.61,1.61,0,0,1,19.9,58.7Z" style="fill:#2263bb"/><path d="M72.69,60.29a1.59,1.59,0,1,1-1.58-1.6A1.6,1.6,0,0,1,72.69,60.29Z" style="fill:#1d55a1"/><path d="M61.5,71.3a1.2,1.2,0,0,1,0,2.4,1.2,1.2,0,1,1,0-2.4Z" style="fill:#1f57a4"/><path d="M31.31,72.83a1.2,1.2,0,1,1-1.22-1.18A1.21,1.21,0,0,1,31.31,72.83Z" style="fill:#215eb1"/><path d="M14.17,44.65a1.19,1.19,0,0,1,1.15,1.25,1.19,1.19,0,1,1-1.15-1.25Z" style="fill:#256ac8"/><path d="M60.9,17a1.19,1.19,0,0,1,1.19,1.21,1.21,1.21,0,0,1-1.25,1.16A1.19,1.19,0,0,1,60.9,17Z" style="fill:#2364bd"/><path d="M76.84,46.35a1.19,1.19,0,1,1,1.22-1.17A1.18,1.18,0,0,1,76.84,46.35Z" style="fill:#1f59a8"/><path d="M30.71,18.53a1.18,1.18,0,0,1-1.21,1.18,1.19,1.19,0,0,1-1.17-1.16,1.21,1.21,0,0,1,1.18-1.22A1.19,1.19,0,0,1,30.71,18.53Z" style="fill:#246cce"/><path d="M46.89,58.08a5.49,5.49,0,0,1,.86,1c.12.22,0,.58,0,.87Q47.3,59,46.89,58.08Z" style="fill:#1f5bab"/></svg>