<svg id="Layer_1" data-name="Layer 1" xmlns="http://www.w3.org/2000/svg" viewBox="0 0 91 91"><path d="M45.51,0A45.47,45.47,0,1,0,91,45.53,45.47,45.47,0,0,0,45.51,0Z" style="fill:#e0e0e0"/><polygon points="26.92 67.93 34.27 55.21 41.62 42.53 48.92 29.81 50.13 27.79 50.66 29.81 52.9 38.19 50.39 42.53 43.05 55.21 35.75 67.93 44.58 67.93 51.92 55.21 55.72 48.63 57.52 55.21 60.92 67.93 68.8 67.93 65.39 55.21 61.99 42.55 61.1 39.28 66.56 29.83 58.59 29.83 58.32 28.89 55.54 18.48 55.18 17.13 47.48 17.13 47.3 17.4 40.14 29.81 32.79 42.53 25.49 55.21 18.15 67.93 26.92 67.93"/></svg>