<svg id="Layer_1" data-name="Layer 1" xmlns="http://www.w3.org/2000/svg" viewBox="0 0 91 91"><circle cx="45.5" cy="45.5" r="45.5" style="fill:#f5eadc"/><path d="M41.07,18.24a11.51,11.51,0,0,1,4.52.33,15.2,15.2,0,0,1,3.75,2.15,19.93,19.93,0,0,1,1.95,1.84A18.76,18.76,0,0,1,54.21,27a13.81,13.81,0,0,1,2.45-.73,13.42,13.42,0,0,1,5.81.26,19.78,19.78,0,0,1,8.36,4.74A18.49,18.49,0,0,1,75,36.86c.15.19-.09.28-.21.38-.66.41-1.3.85-2,1.27a.82.82,0,0,1-.36.15c-.42-.41-.71-.94-1.17-1.31a9.1,9.1,0,0,0-1.5-4.14,10.92,10.92,0,0,0-3.31-3.52,9.65,9.65,0,0,0-3.88-1.47c-.44-.51-1.16-.47-1.77-.6.13.16.26.32.38.49h-1a5.14,5.14,0,0,0-1.16-.21l.27.3a16.6,16.6,0,0,0-7.27,2.87c-.2-.5-.35-1-.6-1.5s-.21-.92-.41-1.35l0,.16A12.18,12.18,0,0,0,49.42,23a7.07,7.07,0,0,0-3-2.64,11.65,11.65,0,0,0-4.15-1,10.46,10.46,0,0,0-5.25.72,6.71,6.71,0,0,0-3.18,3.38,15.44,15.44,0,0,0-1,6.66,37.06,37.06,0,0,0,.79,6.29,22.9,22.9,0,0,0-6.33-3,10.27,10.27,0,0,0-4.83-.31,6.32,6.32,0,0,0-2.32,1,2,2,0,0,1,.72-.79,2.86,2.86,0,0,1,1.05-.61,14.18,14.18,0,0,1,6.35.09c.68.16,1.34.42,2,.63a19,19,0,0,1,.94-6.09,15.44,15.44,0,0,1,3.86-6.28,10.83,10.83,0,0,1,6-2.9" style="fill:#f5eadc"/><path d="M17.62,46.62A10,10,0,0,0,20,51.37a9.06,9.06,0,0,0,3.67,2.34,15.12,15.12,0,0,0,5.43.69c-.34.58-.69,1.15-1,1.75a34.94,34.94,0,0,1-4.66-1.67,17.87,17.87,0,0,1-4.18-2.55,12.28,12.28,0,0,1-2.79-3.3,3.69,3.69,0,0,1-.48-1c.37-.46,1.05-.51,1.52-.82l.12-.19" style="fill:#f5eadc"/><path d="M60.82,27.62c.61.13,1.33.09,1.77.6a9.2,9.2,0,0,0-1.39-.11c-.12-.17-.25-.33-.38-.49" style="fill:#fff"/><path d="M59.06,27.9a5.14,5.14,0,0,1,1.16.21c-.3,0-.59.05-.89.09l-.27-.3" style="fill:#fff"/><path d="M51.05,28.22c.2.43.18.93.41,1.35s.4,1,.6,1.5l-1,.71a27.57,27.57,0,0,0-.07-3.4Z" style="fill:#fff"/><path d="M40.43,24a8.9,8.9,0,0,1,1.36,2.61,23.73,23.73,0,0,1,1,5.15c.17,1.84.26,3.69.36,5.54,0,.52.08,1.05,0,1.57l-.5,0A60.51,60.51,0,0,0,41,26.42c-.17-.81-.42-1.6-.56-2.42" style="fill:#d26b7f"/><path d="M57.65,35.9A10.72,10.72,0,0,1,65,35.14a9.64,9.64,0,0,1-1.61.07,14.53,14.53,0,0,0-5.29,1.41,20.2,20.2,0,0,0-6.79,5.57c-.31.37-.59.76-.91,1.13-.09-.2-.2-.39-.29-.59s.06-.24.12-.34a27.13,27.13,0,0,1,3.41-3.77,16.55,16.55,0,0,1,4-2.72" style="fill:#d26b7f"/><path d="M22.65,43.41a10.18,10.18,0,0,1,5.69-.7A27.72,27.72,0,0,1,36,45.49c0,.13,0,.26,0,.4s0,.43,0,.65a43.49,43.49,0,0,0-5.25-2.15,12.74,12.74,0,0,0-5.34-.61,9.24,9.24,0,0,0-2.68.81c-.36.19-.71.41-1.09.57a1.59,1.59,0,0,1,1.11-1.75" style="fill:#d26b7f"/><path d="M49.61,51.29c.13-.18.25-.37.37-.55a57.79,57.79,0,0,1,15,8.9,1.49,1.49,0,0,1,.54,1.11c0,.21-.13.36-.22.52-.79-.72-1.5-1.53-2.33-2.2A47.73,47.73,0,0,0,49.53,51.4Z" style="fill:#d26b7f"/><path d="M40.54,55.22a5.7,5.7,0,0,1,.8-1.18h.11l.37.11c.07.09,0,.18,0,.27-1.84,2.83-3.23,5.94-5.28,8.64A8.17,8.17,0,0,1,34,65.36a3.12,3.12,0,0,1-1.62.32,16.13,16.13,0,0,0,2.1-1.77c2.45-2.57,4.18-5.7,6.06-8.69" style="fill:#d26b7f"/><path d="M38,41.25a7.47,7.47,0,0,1,4.7-2.34l.5,0a7.64,7.64,0,0,1,6.88,3.86c.09.2.2.39.29.59A8,8,0,0,1,50,50.74c-.12.18-.24.37-.37.55a7.72,7.72,0,0,1-4.29,2.9,6.7,6.7,0,0,1-3.5,0l-.37-.11a8.48,8.48,0,0,1-3.94-3,7.6,7.6,0,0,1-1.61-4.46c0-.22,0-.44,0-.65A7.84,7.84,0,0,1,38,41.25" style="fill:#feecac"/><path d="M37,20.15a10.46,10.46,0,0,1,5.25-.72,11.65,11.65,0,0,1,4.15,1,7.07,7.07,0,0,1,3,2.64A12.18,12.18,0,0,1,51,28.38a27.57,27.57,0,0,1,.07,3.4l1-.71a16.6,16.6,0,0,1,7.27-2.87c.3,0,.59-.07.89-.09h1a9.2,9.2,0,0,1,1.39.11,9.65,9.65,0,0,1,3.88,1.47,10.92,10.92,0,0,1,3.31,3.52,9.1,9.1,0,0,1,1.5,4.14A8.12,8.12,0,0,1,70.19,42a15,15,0,0,1-4.79,4.88,14.87,14.87,0,0,1,5.29,6.91A11.29,11.29,0,0,1,71.2,59a13.87,13.87,0,0,1-1.81,5.09,7.75,7.75,0,0,1-3.29,3.15,9.26,9.26,0,0,1-5.71.67,18.92,18.92,0,0,1-7.7-3.39,22.68,22.68,0,0,1-2.56-2.12,4.1,4.1,0,0,0-.69-.63,18.46,18.46,0,0,1-5.07,7.63,14.4,14.4,0,0,1-4.47,2.82,9.32,9.32,0,0,1-4.93.53,10.28,10.28,0,0,1-4.7-2.22,11.31,11.31,0,0,1-2.65-2.87,9.12,9.12,0,0,1-1.3-5.25,15.19,15.19,0,0,1,1.77-6.23c.3-.6.65-1.17,1-1.75a15.12,15.12,0,0,1-5.43-.69A9.06,9.06,0,0,1,20,51.37a10,10,0,0,1-2.36-4.75,12.87,12.87,0,0,1-.41-3.33,15,15,0,0,1,1.05-6.69,6.75,6.75,0,0,1,1.86-2.41,6.32,6.32,0,0,1,2.32-1,10.27,10.27,0,0,1,4.83.31,22.9,22.9,0,0,1,6.33,3,37.06,37.06,0,0,1-.79-6.29,15.44,15.44,0,0,1,1-6.66A6.71,6.71,0,0,1,37,20.15M40.43,24c.14.82.39,1.61.56,2.42a60.51,60.51,0,0,1,1.73,12.49A7.47,7.47,0,0,0,38,41.25a7.84,7.84,0,0,0-2.09,4.64c0-.14,0-.27,0-.4a27.72,27.72,0,0,0-7.61-2.78,10.18,10.18,0,0,0-5.69.7,1.59,1.59,0,0,0-1.11,1.75c.38-.16.73-.38,1.09-.57a9.24,9.24,0,0,1,2.68-.81,12.74,12.74,0,0,1,5.34.61,43.49,43.49,0,0,1,5.25,2.15A7.6,7.6,0,0,0,37.51,51a8.48,8.48,0,0,0,3.94,3h-.11a5.7,5.7,0,0,0-.8,1.18c-1.88,3-3.61,6.12-6.06,8.69a16.13,16.13,0,0,1-2.1,1.77A3.12,3.12,0,0,0,34,65.36a8.17,8.17,0,0,0,2.5-2.29c2-2.7,3.44-5.81,5.28-8.64.06-.09.11-.18,0-.27a6.7,6.7,0,0,0,3.5,0,7.72,7.72,0,0,0,4.29-2.9l-.08.11A47.73,47.73,0,0,1,63,59.07c.83.67,1.54,1.48,2.33,2.2.09-.16.26-.31.22-.51A1.49,1.49,0,0,0,65,59.64a57.79,57.79,0,0,0-15-8.9,8,8,0,0,0,.41-7.42c.32-.37.6-.76.91-1.13a20.3,20.3,0,0,1,6.79-5.57,14.53,14.53,0,0,1,5.29-1.41A9.64,9.64,0,0,0,65,35.14a10.72,10.72,0,0,0-7.34.76,16.55,16.55,0,0,0-4,2.72,27.13,27.13,0,0,0-3.41,3.77c-.06.1-.16.21-.12.34a7.64,7.64,0,0,0-6.88-3.86c0-.52,0-1,0-1.57-.1-1.85-.19-3.7-.36-5.54a23.73,23.73,0,0,0-1-5.15A8.9,8.9,0,0,0,40.43,24" style="fill:#ea8397"/></svg>