<svg id="Layer_1" data-name="Layer 1" xmlns="http://www.w3.org/2000/svg" viewBox="0 0 91 91"><path d="M45.51,0A45.47,45.47,0,1,0,91,45.53,45.47,45.47,0,0,0,45.51,0Z" style="fill:#e0e0e0"/><path d="M55.84,59c-.3.55-.52.93-.73,1.31a17.63,17.63,0,0,1-8.48,8.09,19.2,19.2,0,0,1-10.29,1.38c-6.65-.86-10.72-4.93-13.16-10.9A29.38,29.38,0,0,1,21.32,51a46.55,46.55,0,0,1,0-10.94C22,35.22,23.43,30.72,26.69,27a16.26,16.26,0,0,1,7.77-5.3,13,13,0,0,1,9.92.67,12.71,12.71,0,0,1,4.94,5A41.2,41.2,0,0,1,53.06,36a.61.61,0,0,0,.27.35c1-4.64,2-9.27,3-14h8.54c-.14.69-.26,1.36-.41,2-1.13,5.09-2.24,10.19-3.41,15.28-1,4.6-2.18,9.18-3.27,13.77a1.64,1.64,0,0,0-.05.66,21.56,21.56,0,0,0,2.32,6.54,10.28,10.28,0,0,0,.73,1,4,4,0,0,0,6.61-.89A9.6,9.6,0,0,0,68.15,57H70c-.07.94-.11,1.9-.21,2.85a16.73,16.73,0,0,1-2.23,7A6,6,0,0,1,64,69.79a4.55,4.55,0,0,1-5.55-2.41,28.37,28.37,0,0,1-2-5.95C56.24,60.69,56.07,60,55.84,59ZM39.15,67a17.63,17.63,0,0,0,2-.44,8.69,8.69,0,0,0,4.47-3.83A29.14,29.14,0,0,0,49,55c1.25-4.09,1.92-8.32,2.8-12.49a1.55,1.55,0,0,0,0-.74,53.89,53.89,0,0,0-4-10.25A17.38,17.38,0,0,0,44.6,27a6.84,6.84,0,0,0-10.76,1.16,17.71,17.71,0,0,0-2.27,5.68A51.71,51.71,0,0,0,30.39,44.8a61.62,61.62,0,0,0,.76,11.9,19.5,19.5,0,0,0,2.15,6.51A6.8,6.8,0,0,0,39.15,67Z"/></svg>