<svg id="Layer_1" data-name="Layer 1" xmlns="http://www.w3.org/2000/svg" xmlns:xlink="http://www.w3.org/1999/xlink" viewBox="0 0 91 91"><defs><clipPath id="clip-path"><rect width="91.03" height="91" style="fill:none"/></clipPath></defs><g style="clip-path:url(#clip-path)"><g style="clip-path:url(#clip-path)"><path d="M45.47,91A45.5,45.5,0,1,1,91,45.87,45.52,45.52,0,0,1,45.47,91m.06-7.28A38.23,38.23,0,1,0,7.27,45.77,38.22,38.22,0,0,0,45.53,83.72"/><path d="M52.48,79c.84-4-.1-6.85-2.88-8.73a7.31,7.31,0,0,0-8.24,0q-4.06,2.79-2.83,8.56C27.26,77.39,13.23,66.35,11.44,49.3A34.11,34.11,0,0,1,38.54,12c-.82,3.15-.34,6,2.17,8.18A7,7,0,0,0,46.18,22c4.76-.47,7.22-4.3,6.33-10a33,33,0,0,1,14.72,7A33.3,33.3,0,0,1,79.58,41.67c2.16,19.54-12,34.6-27.1,37.32M53,42.07,50.08,39.4Q43.69,33.49,37.3,27.58a2.24,2.24,0,0,0-2.53-.44,1.9,1.9,0,0,0-1.14,2c0,.3,0,.61,0,.91V57.5c0,1.51,0,3,0,4.55a1.83,1.83,0,0,0,1.51,2A2.11,2.11,0,0,0,38,61.83c0-1.86,0-3.72,0-5.58V49.62c.42.32.69.5.94.72q7.2,6.52,14.4,13a2.29,2.29,0,0,0,2.51.56,2.23,2.23,0,0,0,1.52-2.08c0-.3,0-.6,0-.91V51.88q0-10.86,0-21.73a14.08,14.08,0,0,0,0-1.59A1.65,1.65,0,0,0,55.94,27c-1.85-.4-3,.45-2.94,2.34.07,3.76,0,7.51,0,11.26v1.46"/><path d="M48.92,14.77a3.41,3.41,0,1,1-6.81-.25,3.41,3.41,0,1,1,6.81.25"/><path d="M45.48,73a3.35,3.35,0,0,1,3.45,3.33,3.41,3.41,0,1,1-6.82.07A3.34,3.34,0,0,1,45.48,73"/><path d="M53,49.09v6.85L38.07,42.21V35.69c5.09,4.52,10,9,14.9,13.4"/></g></g></svg>