<svg id="Layer_1" data-name="Layer 1" xmlns="http://www.w3.org/2000/svg" xmlns:xlink="http://www.w3.org/1999/xlink" viewBox="0 0 91 91"><defs><clipPath id="clip-path"><circle cx="45.5" cy="45.5" r="45.47" style="fill:none"/></clipPath></defs><circle cx="45.5" cy="45.5" r="45.47" style="fill:#014af6"/><g style="clip-path:url(#clip-path)"><path d="M56.33,28.67l0,.4.14.84.06.86.08,2.06,0,1.05,0,.74,0,1.52-.06,1.22v1.15l0,.84a15.69,15.69,0,0,0,.37,1.81,2.64,2.64,0,0,0,1.88,1.78c1.86.62,3.7,1.29,5.53,2,.57.21,1.09.57,1.65.83s.34.48.17.75a2.79,2.79,0,0,1-.49.48s-.1,0-.12,0c-.55.79-1.17.5-1.82.14a20.38,20.38,0,0,0-5.17-2,5.64,5.64,0,0,0-4.74,1.15,3.87,3.87,0,0,0-1.32,1.82,5.48,5.48,0,0,1-2.28,2.58,3.6,3.6,0,0,0-1.82,3.63c.09,1.5,0,3,0,4.52a1.53,1.53,0,0,1-.93,1.42c-.42.21-.68.07-.68-.41,0-.71,0-1.42.08-2.13.07-.94-.22-1.31-1.16-1.23s-2.18.27-3.27.37a2.32,2.32,0,0,0-1.57.43c-.11.11-.46,0-.65,0a1.73,1.73,0,0,0-1.83.06.45.45,0,0,1-.41.06c-1.21-.72-2.37-.22-3.56.13a3.12,3.12,0,0,0-2.77-.84,1.18,1.18,0,0,1-1.11-.35.75.75,0,0,0-.95-.11c-.61.27-.7.21-1.08-.37a5.37,5.37,0,0,0-.74-.77l-.34-.18L27,54.77a1.82,1.82,0,0,0-1.78-.06.74.74,0,0,1-.89-.12,2.12,2.12,0,0,0-1.55-.51,1.78,1.78,0,0,1-.85-.21,3.56,3.56,0,0,0-2.12-.37,2,2,0,0,1-.88-.22c-.6-.21-1.19-.44-1.86-.7a3.67,3.67,0,0,1,.37-.57c1.18-1.24,2.38-2.48,3.57-3.72l1-1a3.34,3.34,0,0,0,.58-3.83,2,2,0,0,0-.23-.46c-1-1.5-.58-2.89.29-4.27a36.8,36.8,0,0,0,2.65-4.41,28.89,28.89,0,0,0,1.4-4.61c.23-.88.34-1.8.5-2.7l0-.27.13-.37.05-.27.14-.38c.14-.38.29-.76.42-1.14.52-1.46.91-3,2.57-3.65l.2-.11.32-.07.24-.12,1.7-.25h.78l.91.23c1,.49,1.89,1,2.85,1.48a6.17,6.17,0,0,0,3.9.5c.51-.1,1-.29,1.51-.36a24.57,24.57,0,0,1,6.69-.16,7.24,7.24,0,0,1,4.76,2.16,8.44,8.44,0,0,1,1.77,4Zm-27.7,6.49a3.12,3.12,0,0,0,2.33.71,27.46,27.46,0,0,0,3.6-.66,3.91,3.91,0,0,0,1.5-.92,4.86,4.86,0,0,0,1.08-2.51l.06-.25.09-.65.1-.38.22-1.56a18.51,18.51,0,0,0,.3-2.86,2.72,2.72,0,0,0-1.49-2.54,4,4,0,0,0-5.74,2.38,19.93,19.93,0,0,1-2.33,5.15,7.13,7.13,0,0,0-.81,1.75,1.8,1.8,0,0,0,.68,2l.1.09Zm24.45-5.31,0-.52A6.6,6.6,0,0,0,51.41,26c-2.19-2.64-5.47-2.68-8.08-.73a.76.76,0,0,0-.22,1.13.79.79,0,0,0,1.15.15c.31-.18.61-.39.94-.54.13-.06.4,0,.45,0a.58.58,0,0,1,0,.5c-.23.43-.51.84-.77,1.27s-.65,1-.9,1.51c-.36.74-.66,1.5-1,2.26a1.42,1.42,0,0,0-.11.35c0,1.12,0,2.23,0,3.34a2.84,2.84,0,0,1-.15.64,2.08,2.08,0,0,1-.64-.19,1,1,0,0,1-.36-.57,12.23,12.23,0,0,1,.27-5.61.79.79,0,0,0-.47-1.09.8.8,0,0,0-1,.61,10.73,10.73,0,0,0-.47,4.9,2.76,2.76,0,0,1,.05.64,2.75,2.75,0,0,0,2,2.93,10.09,10.09,0,0,0,4.73.77,4.73,4.73,0,0,0,3.93-2.35c.3-.51.56-1,.85-1.56s.48-.84.73-1.26a4.23,4.23,0,0,0,.76-2.33ZM27.57,50.46a4.9,4.9,0,0,0,.55-.13,13,13,0,0,0,4.23-2.77,8.92,8.92,0,0,0,2.44-3.44A3.21,3.21,0,0,0,33.33,40a16.5,16.5,0,0,0-2.22-.87c-.12-.08-.22-.23-.35-.25a18,18,0,0,0-2.6-.39,2.24,2.24,0,0,0-2.32,1.61,6,6,0,0,0-.22.93,17.14,17.14,0,0,1-1.37,5.22,2.49,2.49,0,0,0-.21.67,3,3,0,0,0,2.39,3.67l.78,0Z" style="fill:#fafbfd"/><path d="M33,73.58,26.62,73c-.49,0-1-.1-1.46-.15l-1.39-.28a7.14,7.14,0,0,1-4.31-2.74c-1.58-2-2.46-4.36-3.57-6.79.74.26,1.52,0,1.9.79.05.11.24.15.37.23a9.67,9.67,0,0,0,1.69.16c.59,0,1,.05,1.2.66a2.42,2.42,0,0,0,.6.82,1,1,0,0,0,1.18.22,1,1,0,0,1,1.33.25,4.42,4.42,0,0,0,3.33,1.25,22.81,22.81,0,0,0,2.34-.18.84.84,0,0,0,.68-1.07,2.64,2.64,0,0,1,0-.48,2,2,0,0,0,.62.17,1.12,1.12,0,0,1,1.15.84,1.58,1.58,0,0,0,1.41,1,2.69,2.69,0,0,0,2.76-1.11,1,1,0,0,1,1.28-.08A1.64,1.64,0,0,0,40.23,66a3.88,3.88,0,0,0,.28-.58c.1-.3.27-.33.55-.21a1.76,1.76,0,0,0,2.6-1l.23-.51.33.18c1.27.81,2.41.35,2.61-1.13a1.49,1.49,0,0,1,.87-1.21,15.46,15.46,0,0,0,1.5-1.2,2.45,2.45,0,0,1,.57-.4,11.37,11.37,0,0,1,1.76-.59c1-.19,2-.28,2.95-.44A7.6,7.6,0,0,0,56,58.44a2.71,2.71,0,0,0,1.83-2.37c.05-.38.08-.77.1-1.15a6.35,6.35,0,0,1,1-3.05C59.61,50.6,60.32,49.29,61,48a.7.7,0,0,1,1.07-.31c.61.31,1.26.54,1.87.85.27.14.54.37.15.74a8.56,8.56,0,0,0-.68.88,5.39,5.39,0,0,0-1.25,3.46c0,2.3,0,4.6.06,6.91,0,.6-.07,1.2-.11,1.8l-.1.26-.27,1c-1.08,1.75-2.12,3.53-3.25,5.24a5.81,5.81,0,0,1-2.6,2.25,4.73,4.73,0,0,1-1.49.32c-2.53.14-5.07.21-7.6.39a7.42,7.42,0,0,0-2.5.58A17,17,0,0,1,37,73.57Z" style="fill:#fafbfd"/><path d="M29.49,59.34l-.08,1c0,1.17-.05,2.34,0,3.51,0,.85.14,1.69.23,2.62l-1.77.18c-.65-.13-1.3-.25-2-.39a1.83,1.83,0,0,1-.59-.26c-.95-.6-1-1.07-.39-2,1.15-1.71,2.27-3.44,3.41-5.16l1.25-1.68.2.09L29.56,59Z" style="fill:#fafbfd"/><path d="M20.87,60.05c.75.13,1.48.3,2.22.37s1.44,0,2.34,0c-.22.58-.33,1-.51,1.36a9.85,9.85,0,0,1-2.06,3.08c-.43.42-.64.41-.9-.1a9.42,9.42,0,0,1-1.14-4.62S20.86,60.08,20.87,60.05Z" style="fill:#fafbfd"/><path d="M26.69,55.68a2.31,2.31,0,0,1,1.13,2.57,2.1,2.1,0,0,0-.35.45c-.31.8-.95.89-1.68.81l-1.22-.15c-.4,0-.8-.13-1.25-.21a2,2,0,0,1,.16-.41c.6-.91,1.23-1.81,1.83-2.72C25.68,55.46,26.18,55.57,26.69,55.68Z" style="fill:#fafbfd"/><path d="M23.08,55a4.39,4.39,0,0,1,.76.63c.24.29.09.59-.11.87-.45.63-.9,1.26-1.32,1.92a.66.66,0,0,1-.86.32c-1.59-.48-1.42-.42-.71-1.64a9.67,9.67,0,0,1,1.24-1.62A3.73,3.73,0,0,1,23.08,55Z" style="fill:#fafbfd"/><path d="M18.21,59.18l1.65.43c.09.87.14,1.74.28,2.59s.19,1-.86,1c-.74,0-.83-.08-1-.79A11,11,0,0,1,18.21,59.18Z" style="fill:#fafbfd"/><path d="M21.15,54.68c-.56.93-1.15,1.82-1.65,2.75-.24.44-.46.58-.9.36-.24-.12-.51-.2-.91-.36.69-.94,1.29-1.82,1.95-2.65C20,54.39,20.42,54.42,21.15,54.68Z" style="fill:#fafbfd"/><path d="M16.09,56.88c-.9-.46-.23-1-.1-1.54.2-.28.39-.56.59-.83.59-.82,1.14-.87,2-.16L16.72,57.1Z" style="fill:#fafbfd"/><path d="M17.21,62.19a.7.7,0,0,1-.95-.53,4.87,4.87,0,0,1,.08-3.24,1.46,1.46,0,0,1,.52.24.79.79,0,0,1,.29.53C17.2,60.19,17.2,61.19,17.21,62.19Z" style="fill:#fafbfd"/><path d="M54,57.69l-.57.08-.21,0L52.16,58l-.47.1-.56.08-.29.08a.3.3,0,0,0-.13,0c-1.09.3-1.09.3-1.09-.82s0-2.46,0-3.68a2,2,0,0,1,.95-1.85,7.67,7.67,0,0,0,3.3-4,.85.85,0,0,1,.21-.32,5.12,5.12,0,0,1,5.65-.84c.45.23.31.52.13.85-.65,1.16-1.26,2.34-1.95,3.48a8.91,8.91,0,0,0-1.25,4c-.16,2-.31,2.14-2.26,2.59Z" style="fill:#fafbfd"/><path d="M32.2,63.37l-1,1.34a14.74,14.74,0,0,1-.89-4.08v-.77c.07-.46.12-.92.21-1.37a1.18,1.18,0,0,1,1.09-1c.13,0,.26,0,.38,0,1.42-.07,2.07.53,1.81,1.91a17,17,0,0,1-1,2.83C32.61,62.61,32.39,63,32.2,63.37Z" style="fill:#fafbfd"/><path d="M36,66a2.39,2.39,0,0,1-2,.82c-.67,0-1-.35-1-1S33,64.6,33,64c.52-1.09.52-1.09,1.83-1l.58,0c1,0,1,.06.95,1A15.17,15.17,0,0,1,36,66Z" style="fill:#fafbfd"/><path d="M39.93,62a7.12,7.12,0,0,1-.33,3.36.89.89,0,0,1-.85.68.78.78,0,0,1-.78-.72c-.12-.87-.18-1.74-.24-2.62a.44.44,0,0,1,.28-.34C38.63,62.17,39.26,62.07,39.93,62Z" style="fill:#fafbfd"/><path d="M34.75,61.33c.17-1,.32-2,.49-3a.52.52,0,0,1,.33-.33A7.21,7.21,0,0,1,37,57.94c.14,0,.4.34.36.46-.26,1-.57,2-.9,2.94,0,.09-.24.18-.37.17C35.69,61.47,35.25,61.4,34.75,61.33Z" style="fill:#fafbfd"/><path d="M43.13,61.29a4.38,4.38,0,0,1-.43,2.78,1.13,1.13,0,0,1-.84.44.89.89,0,0,1-.63-.58,12.73,12.73,0,0,1-.22-2,.4.4,0,0,1,.25-.3C41.85,61.48,42.44,61.39,43.13,61.29Z" style="fill:#fafbfd"/><path d="M39.84,60.77H37.78c.23-.78.4-1.48.64-2.16s.59-.84,1.11-.68a1.11,1.11,0,0,1,.69,1.24,3.43,3.43,0,0,1-.09.44C40,60,39.94,60.39,39.84,60.77Z" style="fill:#fafbfd"/><path d="M42.79,57.74c0,.69,0,1.3,0,1.92a.44.44,0,0,1-.23.34c-.42.17-.87.31-1.4.48.09-.85.15-1.59.27-2.32a.72.72,0,0,1,.46-.4A3.67,3.67,0,0,1,42.79,57.74Z" style="fill:#fafbfd"/><path d="M46,60.73a16.5,16.5,0,0,1,0,1.89c0,.23-.31.59-.5.6s-.78-.13-.86-.34a5.32,5.32,0,0,1-.19-1.55c0-.1.17-.25.29-.29C45.07,60.92,45.47,60.85,46,60.73Z" style="fill:#fafbfd"/><path d="M44.45,59.74c0-.7,0-1.3,0-1.89a.5.5,0,0,1,.29-.34,9,9,0,0,1,1.08-.18c0,.68,0,1.27,0,1.86a.65.65,0,0,1-.38.47A4.27,4.27,0,0,1,44.45,59.74Z" style="fill:#fafbfd"/><path d="M15.07,60.05l-.43-3c.93.4,1,.55.85,1.35-.1.56-.16,1.13-.23,1.69Z" style="fill:#fafbfd"/><path d="M50.44,18.74l.44-.19.25-.12a35.41,35.41,0,0,1,10.36-1,37.76,37.76,0,0,1,3.81,1.09,9.51,9.51,0,0,1,3.39,2.29,2.86,2.86,0,0,1,.42.5,19,19,0,0,0,5,5.23A4,4,0,0,1,75.79,30l-.06.65-.06.26-.09.77-.1.39c-.46,1.45-.93,2.89-1.39,4.34a3.32,3.32,0,0,0-.06.44c-.14.84-.26,1.69-.43,2.52a9.48,9.48,0,0,1-1.75,4c-.17.21-.31.45-.47.68-.34.33-.66.68-1,1a2.69,2.69,0,0,1-3.52.38,56.33,56.33,0,0,0-8-3.69,1.83,1.83,0,0,1-1.19-1.89c-.06-1.76-.07-3.52,0-5.28a28.33,28.33,0,0,0-.22-5.6,3.63,3.63,0,0,0-.15-.54c-.07-.43-.11-.86-.22-1.27-.67-2.51-1.94-4.58-4.48-5.52a23.14,23.14,0,0,0-3.5-.83,14.57,14.57,0,0,0-1.62-.16V20.5l1.79-1.11a.08.08,0,0,0,.09-.07l.34-.19.44-.21Z" style="fill:#fafbfd"/><path d="M26.57,48.61l-.08.3a1.44,1.44,0,0,1-.76-2,19.43,19.43,0,0,0,1.5-5.76c.16-1,.46-1.16,1.53-.93A6.89,6.89,0,0,0,27.64,44c-.2.71-.38,1.42-.62,2.12A5.17,5.17,0,0,0,26.57,48.61Z" style="fill:#fafbfd"/><path d="M35.38,98.31c-1.13,0-2.27,0-3.48-.08l-.89,0-.92-.12c-.47-.06-1.35-.12-2.2-.17A49.33,49.33,0,0,1,16.06,96,31.31,31.31,0,0,1-.11,84.89,48.64,48.64,0,0,1-6.26,74c-.3-.68-.58-1.32-.81-1.78l-1.65-3.38-.42-3.74c-1.15-10.19.58-18.57,5.29-25.61a23.76,23.76,0,0,1,1.33-2,29.82,29.82,0,0,1,.62-3.1,40.86,40.86,0,0,1,4.3-10L2.59,24v-.53l.82-3.08A35.39,35.39,0,0,1,10.76,5.67a29,29,0,0,1,22.56-10q1.05,0,2.13.06l2.24.14,2.14.58c.7-.34,1.38-.65,2.08-.93L43.19-5l1.33-.35A56.91,56.91,0,0,1,59-7.31c11.35,0,20.65,3.74,27.64,11.1l2.14,2.27.37.71A39,39,0,0,1,96,14.54a27.18,27.18,0,0,1,4.41,17.34V32a38,38,0,0,1-1.06,6.45L99,39.63l-.41,1c-.07.24-.22.88-.45,1.89C97,47.41,95,56.43,86.86,63.41a30.16,30.16,0,0,1-1.3,6.64l-.27.85-.34.83C80.47,82.66,74.29,89.79,66.06,93.54L65,94l-1.1.37a41.41,41.41,0,0,1-12.8,1.84H51A55.81,55.81,0,0,1,35.38,98.31ZM-8.53,68.77l1.64,3.35c.22.45.5,1.1.8,1.78A49,49,0,0,0,.05,84.77,31.12,31.12,0,0,0,16.11,95.85,49.91,49.91,0,0,0,27.9,97.71c.86.05,1.74.11,2.22.17L31,98l.89,0c1.21.06,2.34.09,3.47.09a55.52,55.52,0,0,0,15.56-2.07h.17A41.38,41.38,0,0,0,63.85,94.2l1.09-.36,1-.48c8.18-3.72,14.33-10.82,18.79-21.7l.34-.83.27-.84a30.53,30.53,0,0,0,1.29-6.63v0l0,0C94.8,56.35,96.85,47.35,98,42.51c.23-1,.39-1.65.46-1.9l.41-1,.31-1.18A37.45,37.45,0,0,0,100.19,32v-.11a26.93,26.93,0,0,0-4.38-17.21A38.46,38.46,0,0,0,89,6.9l0,0-.37-.71L86.45,3.93c-7-7.33-16.21-11-27.5-11a56.6,56.6,0,0,0-14.38,2l-1.32.35L42-4.3c-.71.29-1.39.59-2.1.94h-.07l-2.16-.58-2.22-.13c-.7,0-1.42-.07-2.11-.07A28.76,28.76,0,0,0,10.91,5.8,35,35,0,0,0,3.59,20.44L2.77,23.5l0,.55,0,0c-.06.12-.13.24-.21.37a41.31,41.31,0,0,0-4.27,10,29.82,29.82,0,0,0-.62,3.1v0l0,0c-.48.66-.92,1.31-1.34,2-4.69,7-6.41,15.34-5.26,25.49Z" style="fill:#fafbfd"/><path d="M35.38,94.69c-1.07,0-2.16,0-3.31-.08l-.75,0-.76-.1c-.59-.08-1.49-.14-2.44-.2a46.65,46.65,0,0,1-11-1.71A27.77,27.77,0,0,1,2.77,82.68,45.89,45.89,0,0,1-2.95,72.52c-.31-.71-.61-1.39-.86-1.91L-5.19,67.8l-.35-3.12c-1.06-9.35.49-17,4.75-23.27A22.17,22.17,0,0,1,1,38.9a25.52,25.52,0,0,1,.66-3.62,38,38,0,0,1,3.95-9.17l.68-1.24,0-1,.69-2.57A31.89,31.89,0,0,1,13.5,8.05,25.41,25.41,0,0,1,33.32-.71c.63,0,1.27,0,1.91.06l1.88.11,1.8.49,1.28.37c1.06-.56,2.07-1,3.07-1.44l1.07-.43,1.12-.3A53.27,53.27,0,0,1,59-3.69c10.32,0,18.73,3.36,25,10l1.79,1.89.43.83.33.3a35.89,35.89,0,0,1,6.43,7.2,23.62,23.62,0,0,1,3.84,15.07v.09a34.66,34.66,0,0,1-1,5.84l-.27,1-.37,1c-.13.35-.42,1.62-.57,2.3-1.15,5.06-3.08,13.53-11.25,19.84l0,0A27.1,27.1,0,0,1,82.11,69l-.23.71-.28.69c-4.12,10-9.69,16.55-17,19.89l-.87.4-.93.31a38.13,38.13,0,0,1-11.71,1.66h-.62A52,52,0,0,1,35.38,94.69ZM-5,67.74l1.36,2.79c.26.52.56,1.2.87,1.91A45.67,45.67,0,0,0,2.92,82.57a27.55,27.55,0,0,0,14.25,9.81,46.21,46.21,0,0,0,11,1.71c1,.06,1.87.12,2.46.2l.76.09.74,0c1.15,0,2.23.07,3.3.07a51.62,51.62,0,0,0,15-2.06h.66A38.31,38.31,0,0,0,62.7,90.77l.92-.31.86-.39c7.3-3.33,12.84-9.8,16.94-19.79l.28-.69.22-.7a27,27,0,0,0,1.22-7.33v-.05l.11-.07c8.11-6.28,10-14.7,11.17-19.73.16-.69.45-2,.58-2.32l.37-1,.26-1a34.28,34.28,0,0,0,1-5.8v-.09a23.37,23.37,0,0,0-3.81-14.95,35.47,35.47,0,0,0-6.39-7.16c-.12-.12-.24-.22-.35-.32l0,0-.43-.84L83.82,6.42C77.58-.16,69.21-3.49,59-3.49A52.87,52.87,0,0,0,45.5-1.66l-1.11.29-1,.43A30.38,30.38,0,0,0,40.25.51l0,0h0L38.86.14,37.07-.35,35.22-.46c-.64,0-1.28-.06-1.9-.06A25.27,25.27,0,0,0,13.64,8.17,31.69,31.69,0,0,0,7.09,21.38l-.68,2.54,0,1v0l-.69,1.27A37.49,37.49,0,0,0,1.8,35.33,25.52,25.52,0,0,0,1.14,39v0l0,0A23.66,23.66,0,0,0-.63,41.51C-4.86,47.79-6.4,55.36-5.35,64.65Z" style="fill:#fafbfd"/><path d="M35.38,91.07c-1,0-2.05,0-3.15-.08l-.6,0L31,90.89c-.7-.1-1.66-.16-2.68-.22a43.35,43.35,0,0,1-10.17-1.56A24.19,24.19,0,0,1,5.65,80.48,42.23,42.23,0,0,1,.37,71.07c-.33-.75-.64-1.46-.93-2l-1.1-2.28-.28-2.48c-1-8.49.41-15.33,4.21-20.92a19.44,19.44,0,0,1,2.2-3,20.66,20.66,0,0,1,.65-4.17,35,35,0,0,1,3.6-8.31c.24-.42.86-1.53,1.17-2.18l0-1.36.55-2.06a28.45,28.45,0,0,1,5.83-11.85A21.91,21.91,0,0,1,33.32,2.91c.55,0,1.12,0,1.7,0l1.5.1L38,3.45c.91.24,1.76.51,2.6.82a30.09,30.09,0,0,1,4.06-2l.86-.35.89-.23A49.28,49.28,0,0,1,59-.07c9.28,0,16.81,3,22.38,8.85l1.44,1.52.48.94.83.76a32.06,32.06,0,0,1,5.81,6.48,20.07,20.07,0,0,1,3.28,12.81v.07a30.36,30.36,0,0,1-.84,5.22l-.21.79-.31.77A28.9,28.9,0,0,0,91.08,41C90,45.83,88.29,53.2,81.15,58.72c-.47.37-1,.72-1.42,1a24.87,24.87,0,0,1-1.07,8.1l-.18.56-.23.56c-3.75,9.14-8.72,15-15.19,18l-.7.32-.74.24A34.36,34.36,0,0,1,51,89h0l-1.1,0A48.42,48.42,0,0,1,35.38,91.07ZM-1.47,66.71l1.09,2.23c.29.59.6,1.3.93,2A42,42,0,0,0,5.8,80.36a24,24,0,0,0,12.43,8.56,43.5,43.5,0,0,0,10.12,1.56c1,.06,2,.12,2.7.21l.6.08.59,0c1.1,0,2.13.07,3.14.07a48.15,48.15,0,0,0,14.44-2.05h0l1.11,0h0a34.55,34.55,0,0,0,10.58-1.47l.73-.24.69-.32C69.4,83.85,74.34,78,78.07,68.91l.22-.55.18-.56a24.51,24.51,0,0,0,1.06-8.09v-.05l0,0c.49-.33,1-.69,1.46-1.06,7.08-5.48,8.75-12.81,9.86-17.66a26.72,26.72,0,0,1,.73-2.84l.3-.76.21-.78A31.07,31.07,0,0,0,93,31.34v-.07a19.81,19.81,0,0,0-3.24-12.68A32,32,0,0,0,84,12.15c-.36-.32-.64-.58-.85-.78l0,0-.49-.94L81.19,8.91C75.66,3.08,68.18.13,59,.13A49.3,49.3,0,0,0,46.42,1.84l-.88.24-.85.34a30.91,30.91,0,0,0-4.07,2l0,0,0,0c-.85-.31-1.7-.58-2.62-.83l-1.43-.38L35,3.16c-.56,0-1.13-.05-1.68-.05a21.7,21.7,0,0,0-16.94,7.44,28.26,28.26,0,0,0-5.79,11.77l-.55,2,0,1.38v0c-.3.65-.94,1.79-1.18,2.22A34.57,34.57,0,0,0,5.3,36.23a21.39,21.39,0,0,0-.64,4.16v0l0,0a20.21,20.21,0,0,0-2.21,3C-1.34,49-2.7,55.8-1.75,64.25Z" style="fill:#fafbfd"/><path d="M35.38,87.44c-1,0-1.94,0-3-.07l-.45,0-.46-.06c-.82-.1-1.84-.17-2.92-.24a39.11,39.11,0,0,1-9.34-1.41A20.67,20.67,0,0,1,8.52,78.28a38.53,38.53,0,0,1-4.83-8.67c-.35-.78-.67-1.52-1-2.17l-.83-1.72-.21-1.86C.79,56.22,2,50.14,5.33,45.29A17.48,17.48,0,0,1,8.06,41.8a17.86,17.86,0,0,1,.56-4.72,31.1,31.1,0,0,1,3.27-7.44,20.18,20.18,0,0,0,1.64-3.37l0-1.52.42-1.55A25.14,25.14,0,0,1,19,12.79,18.38,18.38,0,0,1,33.32,6.53c.48,0,1,0,1.48,0l1.13.07L37,6.94A27.73,27.73,0,0,1,40.89,8.3,33.42,33.42,0,0,1,46,5.59l.64-.25.67-.18A45.69,45.69,0,0,1,59,3.56c8.25,0,14.9,2.59,19.75,7.71l1.08,1.15.52,1c.35.35,1.09,1,1.36,1.26a28.6,28.6,0,0,1,5.19,5.76A16.46,16.46,0,0,1,89.56,31v.06a27,27,0,0,1-.73,4.59l-.16.6-.23.58a27.22,27.22,0,0,0-.88,3.32c-1.06,4.64-2.51,11-8.62,15.72A20.69,20.69,0,0,1,76,57.79a23.43,23.43,0,0,1-.81,9l-.13.43-.17.42c-3.39,8.25-7.75,13.5-13.34,16l-.52.24-.56.19a30.94,30.94,0,0,1-9.55,1.29l-1.68,0A44.78,44.78,0,0,1,35.38,87.44ZM2.06,65.68l.81,1.67c.32.66.65,1.4,1,2.18a38.55,38.55,0,0,0,4.81,8.63,20.51,20.51,0,0,0,10.61,7.3,39.78,39.78,0,0,0,9.29,1.4c1.09.07,2.12.13,2.94.24l.46.06.44,0c1,0,2,.07,3,.07a44.41,44.41,0,0,0,13.82-2h0l1.69,0a30.92,30.92,0,0,0,9.5-1.29l.55-.18.51-.24C67,81,71.35,75.74,74.72,67.53l.17-.41L75,66.7a23.53,23.53,0,0,0,.79-9v-.06l0,0a20.26,20.26,0,0,0,3-1.95c6.06-4.68,7.5-11,8.55-15.6a27.17,27.17,0,0,1,.89-3.35l.23-.58.15-.58A26.42,26.42,0,0,0,89.36,31V31a16.28,16.28,0,0,0-2.67-10.42,28.39,28.39,0,0,0-5.16-5.71c-.28-.26-1-.93-1.37-1.29l0,0-.52-1-1.06-1.11C73.74,6.33,67.15,3.75,59,3.75a45.76,45.76,0,0,0-11.61,1.6l-.66.17-.63.25A34,34,0,0,0,41,8.49l0,0,0,0A26.38,26.38,0,0,0,37,7.13l-1.07-.29-1.1-.07c-.5,0-1,0-1.47,0a18.21,18.21,0,0,0-14.21,6.19,25.07,25.07,0,0,0-5,10.33l-.4,1.52,0,1.52h0a18.94,18.94,0,0,1-1.66,3.43,30.73,30.73,0,0,0-3.25,7.4,17.3,17.3,0,0,0-.55,4.7v.05l0,0A17,17,0,0,0,5.5,45.39C2.18,50.21,1,56.25,1.85,63.84Z" style="fill:#fafbfd"/><path d="M35.38,83.82c-.91,0-1.83,0-2.82-.06l-.3,0-.31,0c-.94-.12-2-.19-3.16-.26a36.31,36.31,0,0,1-8.51-1.26,17.11,17.11,0,0,1-8.88-6.1A35.4,35.4,0,0,1,7,68.16c-.36-.83-.7-1.6-1-2.31L5.4,64.69l-.14-1.24c-.77-6.8.25-12.11,3.14-16.23a17.48,17.48,0,0,1,3.4-4A13.67,13.67,0,0,1,12.13,38a27.75,27.75,0,0,1,2.92-6.58c1.1-2,2.14-3.83,2.1-5.15l0-1.07.28-1a21.77,21.77,0,0,1,4.3-9,14.86,14.86,0,0,1,11.62-5c.41,0,.84,0,1.26,0l.77,0,.72.2A23.52,23.52,0,0,1,41,12.37l.45-.13L41.9,12a34.51,34.51,0,0,1,5.44-3l.42-.17.46-.12A42.44,42.44,0,0,1,59,7.18c7.22,0,13,2.21,17.13,6.59l.72.77.47.89a15.78,15.78,0,0,0,2,1.95C82,19.83,86.5,23.94,86,30.69v0a22.73,22.73,0,0,1-.62,4l-.11.39-.15.4a28,28,0,0,0-1,3.84C83,43.67,81.8,49.06,76.72,53a14.57,14.57,0,0,1-4.45,2.49c0,.59,0,1.46.09,2.1a21,21,0,0,1-.61,8.09l-.09.28-.11.28c-3,7.36-6.78,12-11.49,14.12l-.35.16-.38.13a27.39,27.39,0,0,1-8.47,1.11c-.82,0-1.59,0-2.28.07A41.13,41.13,0,0,1,35.38,83.82ZM5.59,64.66l.54,1.1c.35.72.69,1.49,1,2.31A35,35,0,0,0,11.55,76a16.9,16.9,0,0,0,8.79,6,36.29,36.29,0,0,0,8.46,1.26c1.15.07,2.23.14,3.18.26l.3,0h.29c1,0,1.91.07,2.81.07a41,41,0,0,0,13.15-2h0c.7,0,1.48-.06,2.31-.08a27.53,27.53,0,0,0,8.41-1.09l.37-.13.34-.15c4.66-2.13,8.39-6.71,11.39-14l.11-.27.09-.28a21,21,0,0,0,.6-8c0-.67-.11-1.59-.09-2.19v-.07l.07,0a14.18,14.18,0,0,0,4.45-2.47c5-3.89,6.25-9.24,7.22-13.54a30,30,0,0,1,1.06-3.87L85,35l.1-.38a24.3,24.3,0,0,0,.62-3.94v0C86.3,24,81.8,20,79.11,17.53a16.42,16.42,0,0,1-2-2l-.46-.89-.7-.74c-4.11-4.33-9.83-6.53-17-6.53A42.12,42.12,0,0,0,48.27,8.85L47.82,9l-.41.17a33.26,33.26,0,0,0-5.4,3l-.5.31c-.18.05-.35.1-.51.13h-.06A24,24,0,0,0,36,10.62l-.71-.19-.74,0c-.42,0-.84,0-1.25,0a14.66,14.66,0,0,0-11.47,5,21.73,21.73,0,0,0-4.27,8.89l-.27,1,0,1.05c0,1.37-1,3.25-2.12,5.24A27.78,27.78,0,0,0,12.32,38,13.33,13.33,0,0,0,12,43.22v.05l0,0a17.7,17.7,0,0,0-3.41,4C5.7,51.41,4.68,56.68,5.45,63.43Z" style="fill:#fafbfd"/><path d="M35.38,80.2c-.85,0-1.72,0-2.65-.06h-.15l-.16,0c-1.06-.14-2.2-.21-3.4-.29-4.81-.3-10.79-.68-14.75-5.95a31.75,31.75,0,0,1-3.95-7.17C10,65.85,9.59,65,9.21,64.26l-.28-.59-.07-.62c-.68-6,.18-10.52,2.61-13.91a16.11,16.11,0,0,1,3.21-3.68c.31-.3.74-.7,1.11-1.07a9.53,9.53,0,0,1-.15-5.51,24.54,24.54,0,0,1,2.58-5.72c1.34-2.41,2.61-4.7,2.55-7l0-.55.14-.52a18.78,18.78,0,0,1,3.55-7.54,11.17,11.17,0,0,1,8.88-3.76l1,0,.39,0,.36.09a20.42,20.42,0,0,1,4.29,1.7c.88.44,1,.46,1.18.46A8.83,8.83,0,0,0,43,15.57l.88-.56a30.46,30.46,0,0,1,4.86-2.7l.21-.09.23-.06A38.94,38.94,0,0,1,59,10.8c6.19,0,11.06,1.84,14.5,5.46l.37.4.24.45a13.24,13.24,0,0,0,2.75,3c2.51,2.26,5.94,5.36,5.53,10.33v0a21.87,21.87,0,0,1-.52,3.36l0,.19-.08.2a30.5,30.5,0,0,0-1.21,4.37c-.9,4-1.92,8.45-6,11.59a9.31,9.31,0,0,1-4.71,2.2c-.23.34-.52.79-.85,1.34a10.64,10.64,0,0,0-.19,4.15,17.7,17.7,0,0,1-.45,6.75l0,.15-.06.14c-2.65,6.46-5.8,10.45-9.63,12.2l-.18.08-.19.06a24.37,24.37,0,0,1-7.39.93c-1,0-2,0-2.95.12A37.78,37.78,0,0,1,35.38,80.2ZM9.12,63.63l.26.54c.39.79.74,1.6,1.12,2.45a31.47,31.47,0,0,0,3.93,7.14c3.9,5.19,9.83,5.57,14.6,5.87,1.21.08,2.35.15,3.42.29l.15,0h.14c.93,0,1.79.07,2.64.07a37.44,37.44,0,0,0,12.42-2h0c.93-.09,1.92-.11,3-.13A24.25,24.25,0,0,0,58.13,77l.18-.06.17-.08c3.78-1.72,6.9-5.68,9.53-12.09l.06-.14,0-.14a17.68,17.68,0,0,0,.45-6.67,10.38,10.38,0,0,1,.21-4.25h0c.35-.58.64-1,.88-1.39l0,0h0A9.2,9.2,0,0,0,74.38,50c4-3.09,5-7.54,5.91-11.48a32.55,32.55,0,0,1,1.22-4.39l.07-.19,0-.18a20.14,20.14,0,0,0,.51-3.33v0c.4-4.87-3-7.93-5.46-10.16a13.77,13.77,0,0,1-2.8-3l-.23-.44-.34-.37C69.91,12.81,65.08,11,59,11a38.56,38.56,0,0,0-9.76,1.36l-.22.06-.2.08A29.87,29.87,0,0,0,44,15.17l-.91.57h0a9,9,0,0,1-2.44.53c-.29,0-.42-.05-1.26-.48a20.11,20.11,0,0,0-4.26-1.68L34.72,14l-.36,0-1,0a11,11,0,0,0-8.74,3.7,18.56,18.56,0,0,0-3.5,7.46l-.13.5v.51c.07,2.37-1.21,4.68-2.57,7.12a23.9,23.9,0,0,0-2.56,5.67A9.16,9.16,0,0,0,16,44.38l0,.06,0,0c-.38.39-.83.81-1.16,1.12a15.69,15.69,0,0,0-3.17,3.64h0C9.22,52.6,8.38,57.1,9.05,63Z" style="fill:#fafbfd"/><path d="M35.32,76.58q-1.17,0-2.43-.06c-1.18-.15-2.43-.23-3.64-.31-4.5-.29-9.15-.58-12.1-4.54a28.67,28.67,0,0,1-3.51-6.42c-.38-.85-.76-1.73-1.18-2.58v0c-.58-5.18.12-9,2.14-11.62a11.59,11.59,0,0,1,2.59-2.93c1.44-1.38,3.08-2.94,2.68-3.58-2.06-3.17-.32-6.29,1.52-9.58,1.53-2.74,3.1-5.57,3-8.89h0a14.94,14.94,0,0,1,3-6.32c1.6-1.71,3.82-2.45,6.78-2.27h0a17.13,17.13,0,0,1,3.6,1.43c1.72.87,2.67,1.35,6.72,0l1.31-.83a27.69,27.69,0,0,1,4.25-2.39c5.34-1.41,15.12-2.87,20.77,3.08l0,0a15.39,15.39,0,0,0,3.55,4c2.26,2,4.6,4.16,4.34,7.34h0a17.27,17.27,0,0,1-.41,2.74A35,35,0,0,0,77,37.73c-.8,3.54-1.64,7.19-4.66,9.53-1.87,1.45-2.76,1.49-3.41,1.52-.84,0-1.3,0-3.16,3.22-.87,1.82-.72,4-.58,6.07a14.83,14.83,0,0,1-.29,5.41c-2.26,5.5-4.88,9-7.79,10.28a20.93,20.93,0,0,1-6.32.74c-1.22,0-2.49,0-3.69.19A34,34,0,0,1,35.32,76.58Zm-22.67-14c.41.85.79,1.72,1.16,2.57a29,29,0,0,0,3.49,6.39c2.91,3.88,7.51,4.17,12,4.46,1.21.07,2.47.15,3.65.31A35.92,35.92,0,0,0,47,74.5h0a35.37,35.37,0,0,1,3.72-.19A20.75,20.75,0,0,0,57,73.58c2.85-1.3,5.44-4.72,7.67-10.17a14.59,14.59,0,0,0,.28-5.33c-.14-2.11-.29-4.29.61-6.17,1.92-3.27,2.42-3.29,3.32-3.33.63,0,1.48-.06,3.3-1.47,3-2.3,3.79-5.92,4.59-9.42a36.32,36.32,0,0,1,1.37-4.91,17.86,17.86,0,0,0,.41-2.69h0c.25-3.09-2.06-5.17-4.28-7.18a15.91,15.91,0,0,1-3.59-4c-5.58-5.88-15.27-4.42-20.56-3a27.58,27.58,0,0,0-4.2,2.37c-.47.3-.9.58-1.33.84h0c-4.13,1.35-5.11.86-6.88,0a16.34,16.34,0,0,0-3.55-1.41c-6-.35-8.08,3-9.55,8.43.09,3.36-1.57,6.34-3,9C19.66,38.41,18,41.33,20,44.4c.48.78-1.07,2.26-2.72,3.83a11.83,11.83,0,0,0-2.54,2.87v0C12.76,53.72,12.07,57.47,12.65,62.6Z" style="fill:#fafbfd"/><path d="M30.58,32.31v1.85c-.47.32-.81-.19-1.23-.34a1,1,0,0,1-.05-1.24c.69-1.24,1.41-2.46,2-3.74a28.81,28.81,0,0,0,1-2.78,1.92,1.92,0,0,1,1.6-1.29c-.19.46-.33.83-.47,1.19a23,23,0,0,1-2.25,4.63A8.59,8.59,0,0,0,30.58,32.31Z" style="fill:#fafbfd"/></g></svg>