<svg width="40" height="40" viewBox="0 0 40 40" fill="none" xmlns="http://www.w3.org/2000/svg">
<path d="M39.9993 20C39.9993 8.95446 31.0452 0.000307633 19.9997 0.000308116C8.95415 0.000308599 -1.35703e-06 8.95446 -8.74213e-07 20C-3.91399e-07 31.0455 8.95415 39.9996 19.9997 39.9996C31.0452 39.9996 39.9993 31.0455 39.9993 20Z" fill="white"/>
<path d="M38.8147 13.2042C38.6989 13.1811 38.5668 13.171 38.4164 13.1727C34.9282 13.2106 31.4393 13.1693 27.9511 13.2048C27.1765 13.2126 26.6108 12.9782 26.141 12.3858C25.7853 11.9377 25.4039 11.5065 25.0019 11.0993C24.4389 10.5289 23.799 10.5211 23.2249 11.0736C22.9028 11.3835 22.6017 11.7212 22.3293 12.0755C21.7054 12.8878 20.9277 13.2147 19.8776 13.2082C13.6983 13.1703 7.51825 13.1869 1.33889 13.1998C1.29147 13.1998 1.23863 13.2028 1.18308 13.2079C0.60081 14.8212 0.220084 16.5308 0.0710449 18.3064C0.222455 18.3064 0.365397 18.3064 0.508 18.3064C5.6661 18.3067 10.8242 18.3331 15.982 18.2989C19.378 18.2766 18.2568 18.7789 20.5886 16.3695C20.6404 16.3157 20.6923 16.2618 20.7471 16.211C21.3955 15.6139 22.0377 15.6369 22.6338 16.2916C23.0193 16.715 23.401 17.1432 23.7635 17.5862C24.1886 18.1055 24.7038 18.3216 25.389 18.3186C30.0736 18.2976 34.7582 18.3074 39.4427 18.3071C39.5921 18.3071 39.7415 18.3071 39.9284 18.3071C39.7794 16.5294 39.3983 14.8182 38.8147 13.2035V13.2042Z" fill="black"/>
<path d="M39.1793 23.7724C33.4731 23.7731 27.7666 23.7768 22.0605 23.7738C19.055 23.7721 19.9038 23.9878 17.9578 21.905C17.1337 21.023 16.5121 20.9928 15.7226 21.8786C15.5238 22.1018 15.3232 22.325 15.144 22.5635C14.4595 23.4743 13.571 23.8086 12.421 23.7937C8.53451 23.7436 4.64696 23.7734 0.759418 23.7727C0.63409 23.7727 0.508423 23.7727 0.35498 23.7727C0.702173 25.5917 1.29596 27.3232 2.10009 28.9315C2.15903 28.9349 2.22068 28.9363 2.28571 28.9349C4.4776 28.8936 6.67118 28.9359 8.86375 28.9149C11.9363 28.8858 11.0072 29.2753 13.0866 27.1227C13.1906 27.0153 13.2875 26.9005 13.3976 26.7999C13.9964 26.2515 14.6068 26.2475 15.1732 26.826C15.6257 27.2884 15.9973 27.8384 16.4864 28.2537C16.8414 28.5552 17.3285 28.8841 17.7587 28.8868C24.4613 28.9271 31.1644 28.9214 37.8674 28.8976C37.8833 28.8976 37.9002 28.8963 37.9172 28.8943C38.7118 27.2965 39.2992 25.5771 39.6437 23.7721C39.4841 23.7721 39.3317 23.7721 39.1789 23.7721L39.1793 23.7724Z" fill="black"/>
<path d="M4.19995 7.73681C11.2393 7.73817 18.279 7.7463 25.3181 7.71615C25.7134 7.71446 26.1713 7.47057 26.4874 7.20501C27.0375 6.74299 27.4849 6.16106 28.0025 5.65704C28.5983 5.07681 29.2554 5.08968 29.8353 5.68787C30.3207 6.1885 30.7472 6.74909 31.2559 7.22297C31.511 7.46041 31.8866 7.69041 32.2169 7.70429C33.3811 7.75375 34.5483 7.73241 35.7921 7.72767C32.1329 3.02515 26.4196 0 19.9994 0C13.5752 0 7.85886 3.02922 4.19995 7.73647V7.73681Z" fill="black"/>
<path d="M13.8548 33.9595C12.1578 33.9856 10.9736 33.5094 9.98992 32.1636C9.18105 31.0573 8.48531 31.119 7.5782 32.1616C7.01693 32.8065 6.51596 33.5395 5.56787 33.8457C9.20747 37.6388 14.328 40 19.9999 40C25.636 40 30.727 37.6686 34.3622 33.9179H33.8758C27.2019 33.9179 20.527 33.8576 13.8548 33.9599V33.9595Z" fill="black"/>
</svg>
