<svg id="Layer_1" data-name="Layer 1" xmlns="http://www.w3.org/2000/svg" viewBox="0 0 91 91"><path d="M45.5,91A45.5,45.5,0,1,1,91,45.5,45.55,45.55,0,0,1,45.5,91Zm0-88.37A42.87,42.87,0,1,0,88.37,45.5,42.92,42.92,0,0,0,45.5,2.63Z"/><path d="M51.3,62.53c-.3-.3-.3-.9-.6-1.5,0-.6-.3-1.21-.3-1.81-.6.6-1.2.9-1.8,1.51a7.52,7.52,0,0,1-2.1,1.2c-.91.3-1.51.6-2.71.9a10.24,10.24,0,0,1-3,.3,12.44,12.44,0,0,1-4.8-.9,15.74,15.74,0,0,1-3.91-2.11,8.64,8.64,0,0,1-2.41-3.3,9.63,9.63,0,0,1-.9-4.21A9.77,9.77,0,0,1,33,44.19c2.71-2.1,6.91-3,12.32-3H50.4v-2.1a5.19,5.19,0,0,0-1.5-3.91,7.64,7.64,0,0,0-4.81-1.5c-1.8,0-3,.3-3.91,1.2a3.85,3.85,0,0,0-1.2,3H30a9.59,9.59,0,0,1,.91-4.2,10.56,10.56,0,0,1,3-3.61,16,16,0,0,1,4.51-2.41,20,20,0,0,1,6.31-.9,17.48,17.48,0,0,1,5.71.9,14.41,14.41,0,0,1,4.81,2.41,9.73,9.73,0,0,1,3,3.91,14.34,14.34,0,0,1,1.2,5.41v15a19.91,19.91,0,0,0,.3,4.51,18.81,18.81,0,0,0,.9,3v.6Zm-8.71-6.31a5.85,5.85,0,0,0,2.4-.3A14.8,14.8,0,0,0,47.1,55a3.07,3.07,0,0,0,1.5-1.21l1.2-1.2v-6H45.29a12.36,12.36,0,0,0-3.6.3,6,6,0,0,0-2.41,1.2c-.6.6-1.2.9-1.5,1.81a5.11,5.11,0,0,0-.3,2.1,3.89,3.89,0,0,0,1.2,3A5.56,5.56,0,0,0,42.59,56.22Z"/></svg>