<?xml version="1.0" encoding="utf-8"?>
<!-- Generator: Adobe Illustrator 27.3.1, SVG Export Plug-In . SVG Version: 6.00 Build 0)  -->
<svg version="1.1" id="Layer_1" xmlns="http://www.w3.org/2000/svg" xmlns:xlink="http://www.w3.org/1999/xlink" x="0px" y="0px"
	 viewBox="0 0 47.2 47.2" style="enable-background:new 0 0 47.2 47.2;" xml:space="preserve">
<style type="text/css">
	.st0{fill:#283749;}
	.st1{fill:#28ADDF;}
	.st2{fill:#B0CEE9;}
	.st3{fill:#FDFDF9;}
</style>
<g>
	<circle class="st0" cx="23.6" cy="23.6" r="23.6"/>
	<polygon class="st1" points="37.4,36.4 33.6,38.6 32.8,36.7 28.1,24 30.4,17.8 36.7,34.5 	"/>
	<polygon class="st1" points="31.7,39.7 27.9,41.9 27.1,40 24.6,33.3 27,27 31,37.8 	"/>
	<path class="st2" d="M40.9,12.8L24.3,3.2c-0.4-0.2-1-0.2-1.4,0L6.3,12.8c-0.4,0.2-0.7,0.7-0.7,1.2v19.2c0,0.5,0.3,1,0.7,1.2
		l3.2,1.8l3.9,2.2l0.7-1.9l-3.9-2.2l-1.9-1.1C7.9,33,7.6,32.5,7.6,32V15.2c0-0.5,0.3-1,0.7-1.2l14.6-8.4c0.4-0.2,1-0.2,1.4,0
		L38.9,14c0.4,0.2,0.7,0.7,0.7,1.2V32c0,0.5-0.3,1-0.7,1.2l-2.2,1.3l-3.9,2.2L31,37.8L27.1,40l-2.8,1.6c-0.4,0.2-1,0.2-1.4,0
		l-3.1-1.8l-3.9-2.2l-0.7,1.9l3.9,2.2l3.9,2.2c0.4,0.2,1,0.2,1.4,0l3.5-2.1l3.9-2.2l1.8-1.1l3.9-2.2l3.5-2c0.4-0.2,0.7-0.7,0.7-1.2
		V14C41.6,13.5,41.3,13.1,40.9,12.8z"/>
	<polygon class="st3" points="22.5,14.3 22.3,14.7 19.9,20.9 14.1,36.6 13.3,38.5 9.5,36.2 10.2,34.3 17.6,14.7 17.7,14.3 	"/>
	<path class="st3" d="M24.7,14.3c-2.9,7.8-5.9,15.6-8.8,23.4l-0.7,1.9l3.9,2.2l0.7-1.9c3.2-8.5,6.4-17.1,9.6-25.6
		C27.8,14.3,26.3,14.3,24.7,14.3z"/>
</g>
</svg>
