<svg id="Layer_1" data-name="Layer 1" xmlns="http://www.w3.org/2000/svg" viewBox="0 0 91 91"><circle cx="45.5" cy="45.5" r="45.32" style="fill:#2e3148"/><circle cx="45.5" cy="45.5" r="26.3" style="fill:#1b1e36"/><path d="M45.6,6c-4.89,0-8.86,17.74-8.86,39.63s4,39.63,8.86,39.63,8.86-17.74,8.86-39.63S50.49,6,45.6,6Zm.61,77a.7.7,0,0,1-1.12.19c-2.25-2.61-3.38-7.46-3.38-7.46-3.94-12.68-3-39.91-3-39.91C40.56,14.19,43.93,9.09,45.08,8a.7.7,0,0,1,.9-.07C47.63,9.06,49,14,49,14a116.55,116.55,0,0,1,3.75,29.65,154.36,154.36,0,0,1-2.06,26.48C48.83,80.75,46.21,83,46.21,83Z" style="fill:#6f7390"/><path d="M80,25.87c-2.44-4.24-19.8,1.14-38.79,12s-32.39,23.16-30,27.41S31,64.18,50,53.28,82.4,30.12,80,25.87ZM13.47,64.73c-.93-.12-.72-.88-.72-.88,1.14-3.25,4.78-6.64,4.78-6.64,9-9.73,33.13-22.47,33.13-22.47C70.33,25.59,76.44,26,78,26.4a.71.71,0,0,1,.51.75c-.19,2-3.78,5.69-3.78,5.69a116.25,116.25,0,0,1-23.85,18,154,154,0,0,1-24,11.39c-10.15,3.66-13.4,2.49-13.4,2.49Z" style="fill:#6f7390"/><path d="M79.88,65.46C82.33,61.23,69,48.9,50,37.93S13.76,21.49,11.31,25.73,22.22,42.29,41.16,53.26,77.43,69.7,79.88,65.46ZM12.93,27.37c-.36-.86.4-1.07.4-1.07,3.39-.64,8.15.82,8.15.82,13,2.95,36,17.41,36,17.41C75.3,57,78,62.45,78.43,64a.69.69,0,0,1-.39.81c-1.85.85-6.82-.42-6.82-.42A116.52,116.52,0,0,1,43.68,52.77,152.47,152.47,0,0,1,21.81,37.71c-8.25-6.94-8.87-10.33-8.88-10.34Z" style="fill:#6f7390"/><circle cx="45.5" cy="45.5" r="4.66" style="fill:#b7b9c8"/><ellipse cx="64.62" cy="27.6" rx="2.7" ry="2.8" style="fill:#b7b9c8"/><ellipse cx="20.23" cy="37.11" rx="2.7" ry="2.8" style="fill:#b7b9c8"/><ellipse cx="40" cy="71.43" rx="2.7" ry="2.8" style="fill:#b7b9c8"/></svg>