<svg id="Layer_1" data-name="Layer 1" xmlns="http://www.w3.org/2000/svg" viewBox="0 0 91 91"><text transform="translate(25.73 50.99)" style="font-size:22.236879348754883px;fill:#fcfcfc;font-family:GaramondPremrPro, Garamond Premier Pro">L<tspan x="12.5" y="0" style="letter-spacing:-0.011023002987769726em">o</tspan><tspan x="22.97" y="0" style="letter-spacing:-0.04000779172055068em">o</tspan><tspan x="32.8" y="0" style="letter-spacing:-0.02000389586027534em">t</tspan></text><circle cx="45.5" cy="45.5" r="45.5" style="fill:#260c82"/><path d="M49.68,67.52c-6.39,0-12.79,0-19.18,0A2.62,2.62,0,0,1,29,67a1.16,1.16,0,0,1-.1-1.57l5.36-9.31a1.63,1.63,0,0,1,1.63-.79q5.93,0,11.87,0A3.07,3.07,0,0,0,49.26,55c.67-.4.68-1.23.14-2.17Q46.31,47.37,43.19,42c-.43-.75-.73-1.7-1.81-1.71S40,41.26,39.52,42Q36.67,47,33.84,52A1.91,1.91,0,0,1,32,53c-3.38,0-6.77,0-10.15,0-1.54,0-2.13-1-1.34-2.37,2.08-3.63,4.21-7.24,6.31-10.86l8.09-14c1.67-2.89,3.33-5.79,5-8.67A2.57,2.57,0,0,1,41,16c.8-.31,1.37.13,1.8.88,1.82,3.23,3.68,6.45,5.53,9.67L60.15,47.16q3.56,6.2,7.13,12.38c1.06,1.84,2.15,3.66,3.21,5.51.87,1.5.3,2.51-1.43,2.51H49.68Z" style="fill:#d300d3"/></svg>