<svg id="Layer_1" data-name="Layer 1" xmlns="http://www.w3.org/2000/svg" viewBox="0 0 91 91"><rect x="17.36" y="15.57" width="56.22" height="51.13" style="fill:#fff"/><path d="M91,45.5A45.5,45.5,0,1,1,45.5,0,45.5,45.5,0,0,1,91,45.5ZM32.61,63.61H23.78c-1.86,0-2.78,0-3.33-.36a2.22,2.22,0,0,1-1-1.76c0-.66.42-1.46,1.34-3.07L42.57,20c.93-1.63,1.4-2.45,2-2.75a2.29,2.29,0,0,1,2,0c.59.3,1.06,1.12,2,2.75l4.48,7.82,0,0a14.67,14.67,0,0,1,1.73,3.57,6.54,6.54,0,0,1,0,3.11,14.47,14.47,0,0,1-1.74,3.61L41.63,58.39l0,0a14.46,14.46,0,0,1-2.23,3.33,6.61,6.61,0,0,1-2.72,1.58A15.7,15.7,0,0,1,32.61,63.61Zm22.3,0H67.56c1.87,0,2.8,0,3.36-.37a2.21,2.21,0,0,0,1-1.77c0-.64-.42-1.41-1.29-2.93a1.3,1.3,0,0,0-.1-.15L64.22,47.54l-.08-.12c-.89-1.5-1.34-2.26-1.91-2.56a2.27,2.27,0,0,0-2,0c-.58.3-1.05,1.1-2,2.7L51.91,58.4l0,0c-.93,1.59-1.39,2.39-1.35,3a2.25,2.25,0,0,0,1,1.77C52.1,63.61,53,63.61,54.91,63.61Z" style="fill:#e84142;fill-rule:evenodd"/></svg>