<svg id="Layer_1" data-name="Layer 1" xmlns="http://www.w3.org/2000/svg" viewBox="0 0 91 91"><path id="SVGID" d="M45.5,0A45.5,45.5,0,1,1,0,45.5,45.5,45.5,0,0,1,45.5,0Z" style="fill:#0055d5;fill-rule:evenodd"/><path id="SVGID-2" data-name="SVGID" d="M24.75,30.1s-4.89-3.91-5.23,5.75c-.34,7.49-.33,22,3.14,28.91,1.46,2.58,3.42,1.79,7.06-.79,3.17-2.34,14.62-12.89,19.47-17.52s14.69-17.92,16.74-8.89A40.75,40.75,0,0,1,67,53c-.24,2.59-1.35,4.56-6.41,1-3.82-2.46-7.45-5.1-7.45-5.1s-.7-1.26-2.36.78c-1.3,1.63-2,2,.13,3.27s12.67,8.54,16.73,9.67c3.35,1,5.26,1,5.36-5.62,0-5.22-.32-20.18-2.22-26.55-1.44-4-3.55-5.77-8.11-1.31S43.72,47.58,35.85,53.9c-5.21,3.91-7.44,7.44-9.41.92-1.38-4.94-3.17-20.32,2.49-17.39,3.54,1.69,5.3,1.68,3.92,2.75s-5.36,4.7-5.36,4.7A3,3,0,0,0,26.84,48c.57,1.5.57,2.25,3.65-.65s5.36-5.1,5.36-5.1.5-.77,2,.65a12.51,12.51,0,0,1,1.7,1.83s.39,1.07,2-.78,2.58-3-.39-4.7S24.75,30.1,24.75,30.1Z" style="fill:#fff;fill-rule:evenodd"/></svg>