<svg width="40" height="40" viewBox="0 0 40 40" fill="none" xmlns="http://www.w3.org/2000/svg">
<path d="M30.7616 31.4384C31.1895 30.0122 32.1878 27.6353 32.1878 27.6353C32.1878 27.6353 33.2509 25.4486 31.0079 24.4979C28.7649 23.5472 27.4269 26.0857 27.4269 26.0857C27.4269 26.0857 27.4922 26.1953 27.4269 26.0857C25.6638 28.2371 22.9867 29.6124 19.9946 29.6124C14.6976 29.6124 10.388 25.3027 10.388 20.0058C10.388 16.7387 12.0277 13.8477 14.5275 12.1113C13.706 11.8011 12.7353 11.2783 11.8176 10.3991C9.60747 8.28054 10.51 4.15055 10.51 4.15055C10.5157 4.10957 10.5305 4.06525 10.5519 4.01855C9.21387 4.8091 7.98016 5.765 6.86749 6.87814C5.16393 8.5817 3.82587 10.5664 2.89094 12.7779C1.9217 15.0695 1.42993 17.5012 1.42993 20.0058C1.42993 22.5103 1.92122 24.942 2.89094 27.2336C3.82635 29.4446 5.16441 31.4298 6.86749 33.1334C8.57104 34.8369 10.5557 36.175 12.7673 37.1099C15.0588 38.0792 17.4905 38.5709 19.9951 38.5709C22.4997 38.5709 24.9314 38.0796 27.2229 37.1099C29.0385 36.3422 30.701 35.302 32.1811 34.0121L31.9033 33.9101C31.9033 33.9101 30.3346 32.8641 30.7625 31.4379L30.7616 31.4384Z" fill="url(#paint0_radial_8_174)"/>
<path d="M27.427 26.0856L27.4308 26.0918L27.427 26.0856Z" fill="#AC552A"/>
<path d="M27.4309 26.0914L27.4381 26.1033L27.4309 26.0914Z" fill="#AC552A"/>
<path d="M27.438 26.1038C27.4442 26.1142 27.449 26.1223 27.4518 26.1271C27.448 26.1209 27.4428 26.1119 27.438 26.1038Z" fill="#AC552A"/>
<path d="M27.4517 26.1266C27.4583 26.1376 27.4564 26.1347 27.4517 26.1266V26.1266Z" fill="#AC552A"/>
<path d="M39.9423 18.6243C39.6888 17.779 38.993 17.4978 38.3817 17.423C37.6207 17.3301 36.8587 17.5255 36.1058 17.6122C33.5555 17.9062 31.1738 17.9505 28.9452 16.5205C27.4384 15.5536 25.4637 13.9011 24.0995 11.3222C23.0764 9.38892 22.3673 7.06208 22.7647 4.8639C23.0135 3.48724 22.8262 2.38696 22.3011 1.58212C21.715 0.683402 20.7076 0.153991 19.4167 0.0196126C19.3886 0.0167535 19.36 0.0138947 19.3319 0.0110356C18.9988 -0.0189851 18.6004 0.0134177 18.1596 0.0939494C16.1092 0.279792 14.115 0.778708 12.2103 1.5845C9.82867 2.59186 7.69101 4.03285 5.85641 5.86697C4.02182 7.70157 2.5813 9.83923 1.57394 12.2209C0.529887 14.6897 0 17.3087 0 20.0053C0 22.7019 0.529411 25.3208 1.57394 27.7897C2.5813 30.1713 4.02229 32.309 5.85641 34.1436C7.69053 35.9782 9.8282 37.4187 12.2103 38.4261C14.6792 39.4701 17.2981 40 19.9947 40C22.6913 40 25.3108 39.4706 27.7791 38.4261C29.974 37.4978 31.9611 36.2002 33.6951 34.5667C33.8428 34.4276 33.9891 34.287 34.133 34.1431C35.9671 32.309 37.4081 30.1713 38.4155 27.7892C39.4596 25.3204 39.989 22.7014 39.989 20.0048C39.989 19.5416 39.9728 19.0808 39.9418 18.6229L39.9423 18.6243ZM17.7279 12.1499L17.7222 12.1561C17.7222 12.1561 22.3335 10.7794 25.661 14.1775C26.7141 15.2525 27.3574 16.349 27.7362 17.373C28.0183 18.1998 28.1718 19.0851 28.1718 20.0062C28.1718 21.7779 27.6052 23.42 26.6436 24.7609C25.1588 26.8314 22.7318 28.1833 19.9947 28.1833C15.4859 28.1833 11.8177 24.5151 11.8177 20.0062C11.8177 16.6897 13.8024 13.8282 16.6467 12.5468C16.995 12.39 17.3562 12.2576 17.7279 12.1499V12.1499ZM32.1874 27.6358C32.1874 27.6358 31.1891 30.0126 30.7612 31.4389C30.3333 32.8651 31.902 33.911 31.902 33.911L32.115 34.0693C30.6349 35.3597 29.0376 36.3432 27.2221 37.1109C24.9305 38.0801 22.4988 38.5719 19.9942 38.5719C17.4897 38.5719 15.058 38.0806 12.7664 37.1109C10.5554 36.1755 8.57019 34.8379 6.86663 33.1343C5.16308 31.4308 3.82501 29.4461 2.89008 27.2345C1.92084 24.943 1.42908 22.5113 1.42908 20.0067C1.42908 17.5021 1.92037 15.0705 2.89008 12.7789C3.82549 10.5678 5.16355 8.58265 6.86663 6.8791C7.97978 5.76595 9.21349 4.81005 10.5511 4.01951C10.5296 4.06621 10.5149 4.11053 10.5091 4.15151C10.5091 4.15151 9.60709 8.28149 11.8167 10.4001C12.734 11.2793 13.7047 11.802 14.5267 12.1122C12.0273 13.8487 10.3872 16.7392 10.3872 20.0067C10.3872 25.3037 14.6968 29.6133 19.9938 29.6133C22.9858 29.6133 25.6629 28.2381 27.426 26.0866C27.6409 25.8245 27.842 25.551 28.0283 25.267C28.6273 24.6232 29.6518 23.9242 31.0071 24.4989C33.25 25.4495 32.1869 27.6362 32.1869 27.6362L32.1874 27.6358Z" fill="#AC552A"/>
<path d="M5.80348 16.9046C6.35483 16.9046 6.80179 16.4576 6.80179 15.9063C6.80179 15.3549 6.35483 14.908 5.80348 14.908C5.25213 14.908 4.80518 15.3549 4.80518 15.9063C4.80518 16.4576 5.25213 16.9046 5.80348 16.9046Z" fill="#AC552A"/>
<path d="M14.194 36.002C15.1786 36.002 15.9767 35.2039 15.9767 34.2194C15.9767 33.2348 15.1786 32.4367 14.194 32.4367C13.2095 32.4367 12.4114 33.2348 12.4114 34.2194C12.4114 35.2039 13.2095 36.002 14.194 36.002Z" fill="#AC552A"/>
<path d="M20.2906 34.3623C20.8354 34.3623 21.277 33.9207 21.277 33.3759C21.277 32.8311 20.8354 32.3895 20.2906 32.3895C19.7458 32.3895 19.3042 32.8311 19.3042 33.3759C19.3042 33.9207 19.7458 34.3623 20.2906 34.3623Z" fill="#AC552A"/>
<defs>
<radialGradient id="paint0_radial_8_174" cx="0" cy="0" r="1" gradientUnits="userSpaceOnUse" gradientTransform="translate(20.7613 20.1134) scale(18.9221 18.9221)">
<stop offset="0.41" stop-color="#F7B566"/>
<stop offset="0.62" stop-color="#FFC976"/>
<stop offset="1" stop-color="#FFAB2A"/>
</radialGradient>
</defs>
</svg>
