<svg id="Layer_1" data-name="Layer 1" xmlns="http://www.w3.org/2000/svg" viewBox="0 0 91 91"><g id="Layer_2" data-name="Layer 2"><g id="Layer_1-2" data-name="Layer 1-2"><path d="M45.5,0A45.5,45.5,0,1,0,91,45.5,45.5,45.5,0,0,0,45.5,0Zm.77,24.85c8.53,0,15.44,2.86,15.44,6.37s-6.91,6.37-15.44,6.37-15.44-2.86-15.44-6.37S37.74,24.85,46.27,24.85ZM33.45,36.23a29,29,0,0,0,12.89,2.64,29,29,0,0,0,12.9-2.64c4.33,1.42,7.08,3.53,7.08,5.9,0,4.27-8.94,7.73-20,7.73s-20-3.46-20-7.73C26.37,39.76,29.12,37.64,33.45,36.23ZM46.19,64.52c-14.55,0-26.35-4.21-26.35-9.84,0-2.94,3.22-5.59,8.36-7.45,4,2.57,10.74,3.89,18.38,3.89,7.45,0,14-1.61,18.09-4.08,4.85,1.85,7.86,4.43,7.86,7.27C72.53,60,60.74,64.52,46.19,64.52Z" style="fill-rule:evenodd"/></g></g></svg>