<svg id="Layer_1" data-name="Layer 1" xmlns="http://www.w3.org/2000/svg" viewBox="0 0 91 91"><circle cx="45.5" cy="45.5" r="45.33" style="fill:#8dc351"/><path d="M60.23,29.92C58,24.25,52.58,24,46.07,25.1L43.8,17.17,39,18.59l2.27,7.65c-1.13.28-2.55.85-4,1.13L35,19.44l-4.8,1.41,2.27,7.94c-1.13.28-2,.56-3.12.85h0L22.84,31.9,24.25,37s3.69-1.13,3.4-1.13c2-.57,2.84.28,3.4,1.41l2.55,9.07h.57l-.57.28,3.68,12.75a2.14,2.14,0,0,1-1.41,2.27l-3.4,1.13.57,6L39.27,67l3.4-.85,2.26,7.93,4.82-1.41-2.27-7.94a20.51,20.51,0,0,0,4-1.13l2.27,7.93,4.81-1.41-2.27-7.94c7.94-2.83,13-6.51,11.62-14.44C66.78,41.5,63.09,39.52,58,39.8c2.84-2.83,4-5.66,2.27-9.91Zm-1.7,19.26c1.7,6-8.78,8.22-12.18,9.35L43.23,47.77C46.63,46.92,56.55,43,58.53,49.18Zm-6.8-14.44c1.7,5.38-7.08,7.36-9.91,8.21L39,33.32c2.84-.85,11.34-4.25,12.75,1.42Z" style="fill:#fff"/></svg>