<svg width="37" height="40" viewBox="0 0 37 40" fill="none" xmlns="http://www.w3.org/2000/svg">
<g clip-path="url(#clip0_16_26)">
<path d="M16.0615 0H5.26894C2.37102 0 0 2.37102 0 5.26894V20.7684C0 23.6663 2.37102 26.0373 5.26894 26.0373H16.0615C23.2536 26.0373 29.0801 20.2064 29.0801 13.0187C29.0801 5.83095 23.2536 0 16.0615 0Z" fill="#00CEAA"/>
<path d="M23.0605 13.9627H12.268C9.37004 13.9627 6.99902 16.3337 6.99902 19.2316V34.7311C6.99902 37.629 9.37004 40 12.268 40H23.0605C30.2526 40 36.0792 34.1691 36.0792 26.9814C36.0792 19.7937 30.2482 13.9627 23.0605 13.9627V13.9627Z" fill="#00B2FA"/>
<path d="M16.1055 26.0373C22.5073 26.0373 27.8245 21.4182 28.9178 15.3282C27.1659 14.4545 25.1944 13.9583 23.1044 13.9583H12.3075C9.40959 13.9583 7.03857 16.3293 7.03857 19.2272V26.0373H16.1055V26.0373Z" fill="white"/>
</g>
<defs>
<clipPath id="clip0_16_26">
<rect width="36.079" height="40" fill="white"/>
</clipPath>
</defs>
</svg>
