<svg width="40" height="40" viewBox="0 0 40 40" fill="none" xmlns="http://www.w3.org/2000/svg">
<g clip-path="url(#clip0_17_37)">
<path d="M38.0098 21.8043C36.6739 21.4726 35.3246 22.2347 34.8987 23.5213L32.496 22.925L34.8718 13.3274C36.2212 13.5739 37.5481 12.7356 37.8843 11.3863C38.2205 10.037 37.3777 8.56216 35.9746 8.21699C34.5715 7.87181 33.2625 8.66527 32.8501 9.97424L23.2524 7.59836L23.8486 5.20006C25.198 5.44662 26.5249 4.60833 26.8611 3.25901C27.1973 1.90969 26.35 0.425884 24.9469 0.0762257C23.5438 -0.273432 22.1228 0.582782 21.7776 1.9859C21.6162 2.63142 21.7148 3.27694 22.0017 3.82384L17.9448 6.27145L13.3454 5.13282C13.592 3.7835 12.7537 2.45659 11.4044 2.12038C10.0551 1.78417 8.58023 2.62694 8.23505 4.03005C7.88988 5.43317 8.68333 6.74214 9.99231 7.15456L8.85368 11.7539L4.76985 14.215C4.42019 13.7219 3.90019 13.3408 3.26363 13.1839C1.86052 12.8343 0.43947 13.6905 0.0942947 15.0936C-0.250881 16.4967 0.600851 17.9178 2.00397 18.2629C3.40708 18.6081 4.74296 17.8012 5.14192 16.4653L7.54022 17.0571L5.16434 26.6547C3.81502 26.4082 2.48811 27.2465 2.1519 28.5958C1.81569 29.9451 2.65845 31.4199 4.06157 31.7651C5.46469 32.1103 6.77366 31.3168 7.18608 30.0079L16.7837 32.3837L16.1875 34.782C14.8382 34.5355 13.5113 35.3738 13.1751 36.7231C12.8389 38.0724 13.6817 39.5473 15.0848 39.8924C16.4879 40.2421 17.9089 39.3859 18.2541 37.9828C18.4155 37.3372 18.3169 36.6917 18.03 36.1448L22.0869 33.6972L26.6862 34.8358C26.4397 36.1852 27.278 37.5121 28.6273 37.8483C29.9766 38.1845 31.4515 37.3417 31.7966 35.9386C32.1418 34.5355 31.3484 33.2265 30.0394 32.8141L31.178 28.2147L35.208 25.7851C35.5577 26.3051 36.0912 26.704 36.7456 26.8654C38.1488 27.2151 39.5698 26.3589 39.915 24.9557C40.2602 23.5526 39.4084 22.1316 38.0053 21.7864L38.0098 21.8043ZM7.91678 16.8374L9.12265 11.9691L13.4172 9.37803L17.4338 16.0395C16.5058 16.6446 15.7841 17.5681 15.4524 18.7022L7.91678 16.8374ZM20.9931 15.367C19.8321 15.1295 18.68 15.3357 17.7117 15.8781L13.6951 9.21665L17.9896 6.62559L22.8579 7.83146L20.9931 15.367ZM19.0117 24.7226C20.1996 24.9871 21.3831 24.7809 22.3738 24.2295L26.3276 30.7879L22.0331 33.3789L17.1648 32.1731L19.0117 24.7226ZM22.6517 24.0637C23.6021 23.445 24.3373 22.4947 24.6555 21.3202L32.106 23.1671L30.9001 28.0354L26.6056 30.6265L22.6517 24.0682V24.0637ZM24.7317 21.0019C24.9738 19.8229 24.7542 18.6485 24.1938 17.6712L33.1953 12.2425C33.518 12.7087 33.9887 13.0719 34.5625 13.2512L32.1866 22.8488L24.7317 21.0019V21.0019ZM32.7739 10.2836C32.6663 10.8753 32.7649 11.4625 33.0249 11.9646L24.019 17.3933C23.4004 16.4653 22.459 15.7526 21.3069 15.4388L23.1717 7.90767L32.7694 10.2836H32.7739ZM22.1676 4.10626C22.4903 4.57247 22.961 4.93558 23.5348 5.11489L22.9386 7.51319L18.3841 6.38352L22.1631 4.10626H22.1676ZM13.5337 8.93423L12.2561 6.81835C12.7223 6.49559 13.0854 6.0249 13.2648 5.4511L17.5503 6.51352L13.5337 8.93423V8.93423ZM10.3016 7.23974C10.8934 7.34732 11.4806 7.2487 11.9827 6.9887L13.2603 9.10458L9.24368 11.5253L10.3061 7.23974H10.3016ZM5.20917 16.165C5.30779 15.5777 5.2002 14.995 4.93572 14.5019L8.74161 12.2067L7.61195 16.7612L5.20917 16.165ZM15.3806 19.0205C15.1206 20.1861 15.3134 21.3516 15.8468 22.3288L6.8409 27.7575C6.51814 27.2913 6.04745 26.9282 5.47365 26.7489L7.84953 17.1512L15.3806 19.016V19.0205ZM7.2578 29.7165C7.36539 29.1247 7.26677 28.5375 7.00677 28.0354L16.0082 22.6068C16.6089 23.5616 17.5503 24.3013 18.7024 24.6375L16.8555 32.0924L7.2578 29.7165ZM17.8641 35.8938C17.5413 35.4276 17.0706 35.0645 16.4968 34.8851L17.0931 32.4868L21.6476 33.6165L17.8686 35.8938H17.8641ZM26.498 31.0658L27.7756 33.1817C27.3094 33.5044 26.9462 33.9751 26.7669 34.5489L22.4814 33.4865L26.498 31.0658V31.0658ZM29.7301 32.7603C29.1383 32.6527 28.5511 32.7513 28.049 33.0113L26.7714 30.8955L30.788 28.4747L29.7256 32.7603H29.7301ZM32.4242 23.2388L34.8225 23.8306C34.7015 24.4268 34.7956 25.0185 35.0511 25.5251L31.2946 27.7889L32.4242 23.2344V23.2388Z" fill="url(#paint0_linear_17_37)"/>
</g>
<defs>
<linearGradient id="paint0_linear_17_37" x1="15.1531" y1="39.6265" x2="25.0212" y2="-0.218722" gradientUnits="userSpaceOnUse">
<stop stop-color="#03FFFF"/>
<stop offset="0.49" stop-color="#847BFF"/>
<stop offset="1" stop-color="#FF00FF"/>
</linearGradient>
<clipPath id="clip0_17_37">
<rect width="40" height="40" fill="white"/>
</clipPath>
</defs>
</svg>
