<svg id="Layer_1" data-name="Layer 1" xmlns="http://www.w3.org/2000/svg" viewBox="0 0 91 91"><path d="M45.54,0A45.48,45.48,0,1,0,91,45.51,45.47,45.47,0,0,0,45.54,0Z" style="fill:#f2b92f"/><path d="M45.55,16.81,63.13,34.39l-6.42,6.42q-5.49-5.51-11.1-11.1L34.44,40.88,28,34.4Z" style="fill:#fefefd"/><path d="M45.5,74.19,27.93,56.62l6.4-6.44L45.45,61.3c3.78-3.78,7.49-7.5,11.18-11.18l6.47,6.47Z" style="fill:#fefefe"/><path d="M45.51,52l-6.45-6.45L45.55,39,52,45.49Z" style="fill:#fefefd"/><path d="M16.8,45.49l6.39-6.39,6.38,6.38-6.39,6.39Z" style="fill:#fefefd"/><path d="M67.83,39.12l6.37,6.36c-2.12,2.12-4.27,4.28-6.39,6.39L61.44,45.5Z" style="fill:#fefefd"/></svg>