<svg width="40" height="40" viewBox="0 0 40 40" fill="none" xmlns="http://www.w3.org/2000/svg">
<path d="M40 20C40 8.9543 31.0457 -1.35705e-06 20 -8.74228e-07C8.9543 -3.91405e-07 -1.35705e-06 8.9543 -8.74228e-07 20C-3.91405e-07 31.0457 8.9543 40 20 40C31.0457 40 40 31.0457 40 20Z" fill="#010202"/>
<path d="M27.8445 12.9593C26.2583 11.4018 24.6426 9.87487 23.0551 8.31867C21.9231 7.20933 20.16 7.29784 19.0716 8.35727C18.3393 9.06999 17.6102 9.78636 16.8822 10.5031C15.7845 11.5838 14.6862 12.6639 13.5938 13.7496C12.8841 14.455 12.1817 15.1673 11.4813 15.8821C10.7865 16.5911 10.0728 17.2845 9.414 18.0262C8.59181 18.9515 8.42345 20.0189 8.88329 21.1782C9.08892 21.6963 9.47821 22.0709 9.85886 22.4519C12.928 25.5234 15.9945 28.5972 19.0763 31.656C19.3388 31.9169 19.6795 32.1405 20.0256 32.2679C21.0923 32.6605 22.1008 32.4675 22.9899 31.7765C23.4591 31.4118 23.8846 30.9875 24.3099 30.5696C25.0382 29.8529 25.7526 29.1219 26.4696 28.3939C27.0449 27.8093 27.6122 27.2167 28.1902 26.6344C28.3712 26.452 28.3466 26.2424 28.2548 26.0594C28.2178 25.9855 28.0262 25.9596 27.907 25.9649C27.7859 25.9706 27.6608 26.0278 27.55 26.0864C26.7252 26.5209 25.905 26.9644 25.0785 27.396C24.9617 27.4569 24.8163 27.5085 24.6895 27.4978C23.9601 27.4366 23.2321 27.3564 22.5041 27.2812C21.3259 27.1598 20.148 27.0373 18.9698 26.9152C18.5233 26.8689 18.0771 26.822 17.6305 26.7755C17.8465 26.4224 18.0534 26.085 18.2581 25.7503C17.9197 25.545 17.6169 25.3673 17.3204 25.18C17.1245 25.0559 16.99 24.8908 16.979 24.6396C16.9444 23.8584 16.9035 23.0771 16.8599 22.2965C16.8549 22.2077 16.838 22.1092 16.7944 22.0343C16.6383 21.7681 16.469 21.5096 16.3029 21.2491C15.5583 20.0798 14.9866 18.8377 14.8502 17.4436C14.766 16.5828 14.7334 15.712 15.0019 14.8662C15.0342 14.7644 15.0728 14.6643 15.1164 14.5415C15.1493 14.5874 15.1633 14.5977 15.1636 14.609C15.1673 14.6952 15.1726 14.7817 15.1696 14.8676C15.1467 15.5553 15.33 16.1888 15.6781 16.7758C16.0374 17.3817 16.5512 17.8618 17.1138 18.2505C17.8009 18.7249 18.5585 19.0986 19.2952 19.4989C19.4063 19.5591 19.5677 19.5268 19.7511 19.5411C19.2676 18.3117 19.1794 17.1598 20.0492 16.0784C20.2927 16.484 20.517 16.8746 20.7582 17.2543C21.0554 17.7217 21.3678 18.1829 21.8237 18.514C22.4728 18.9855 23.2215 19.0374 23.9871 18.9825C24.0603 18.9772 24.1395 18.9119 24.1967 18.8554C24.6413 18.4142 25.0805 17.9676 25.522 17.5234C25.6921 17.3524 25.7257 17.1631 25.6228 16.9555C25.5879 16.8849 25.5549 16.8131 25.525 16.7402C25.0625 15.6179 25.0588 14.5322 25.7942 13.5117C25.8554 13.4268 25.9635 13.3756 26.0767 13.2881C26.278 14.0923 26.5778 14.7797 27.0146 15.4036C27.4123 15.9709 27.9011 16.4178 28.6327 16.462C29.5175 16.5156 30.4039 16.5419 31.2893 16.5798C31.293 16.5505 31.2966 16.5216 31.3003 16.4923C31.1382 16.3199 30.9788 16.1449 30.8135 15.9759C29.8259 14.9687 28.8513 13.9482 27.8448 12.96L27.8445 12.9593Z" fill="#DE3440"/>
<path d="M24.0514 20.6215C23.6175 21.2141 22.9936 21.5378 22.3528 21.8902C22.8352 22.0802 23.2675 22.0842 23.701 21.983C24.0115 21.9105 24.2281 21.7118 24.3123 21.4054C24.3911 21.1186 24.3432 20.8504 24.0517 20.6215H24.0514Z" fill="#DA333E"/>
</svg>
