<svg id="Layer_1" data-name="Layer 1" xmlns="http://www.w3.org/2000/svg" viewBox="0 0 91 91"><path d="M45.54,0A45.48,45.48,0,1,0,91,45.51,45.47,45.47,0,0,0,45.54,0Z" style="fill:#eab300"/><path d="M58.14,43.4a8.29,8.29,0,0,0,4.12-8.58c-.7-5.31-7-7.33-12-7.75v-8H45.31V27H42V19.08H37.07V27H27.13v5.1h3.7c1.65,0,2.46.49,2.46,1.83l0,21.93c0,1.83-.92,2.39-1.9,2.39H27.6v5.21h9.57v8.09h5V63.46h3.31v8.09h4.82V63.46h1.06c10.14,0,13.52-5,13.52-11.71A8.72,8.72,0,0,0,58.14,43.4ZM42,32.41h3.52c2.46,0,7.32.43,7.32,4.44a5,5,0,0,1-4.33,5.24H42Zm5.43,25.34v0H42V47.15h6.34c1.48,0,7,.5,7,4.44S52.71,57.76,47.43,57.75Z" style="fill:#fffefe"/></svg>