<svg id="Layer_1" data-name="Layer 1" xmlns="http://www.w3.org/2000/svg" viewBox="0 0 91 91"><path d="M45.54,0A45.48,45.48,0,1,0,91,45.51,45.47,45.47,0,0,0,45.54,0Z" style="fill:#f89a29"/><path d="M57.78,46.91a8.3,8.3,0,0,0,6.44-7C65.1,34.61,59.62,30.84,55,29l2.33-7.64L52.59,19.9l-2.31,7.57-3.16-1,2.31-7.57-4.71-1.44-2.31,7.57-9.49-2.9L31.43,27,35,28.12c1.58.48,2.21,1.19,1.82,2.47l-6.4,21c-.53,1.75-1.57,2-2.52,1.73l-3.6-1.1-1.52,5L31.9,60,29.54,67.7l4.75,1.45,2.36-7.74,3.16,1-2.36,7.74,4.61,1.41,2.36-7.74,1,.31c9.7,3,14.37-.8,16.35-7.27A8.76,8.76,0,0,0,57.78,46.91ZM45.53,31.69l3.37,1c2.36.72,6.88,2.54,5.71,6.38a5,5,0,0,1-5.67,3.75L42.71,41ZM43.36,57.52v0L38.15,55.9l3.08-10.1,6.06,1.85c1.41.43,6.59,2.52,5.44,6.3S48.41,59.06,43.36,57.52Z" style="fill:#fffefe"/></svg>