<svg id="Layer_1" data-name="Layer 1" xmlns="http://www.w3.org/2000/svg" viewBox="0 0 91 91"><circle cx="45.5" cy="45.5" r="45.5" style="fill:#d6af4d"/><path d="M45.46,53.61A13.6,13.6,0,1,1,59,67.18,13.63,13.63,0,0,1,45.46,53.61Zm5.77,0a7.74,7.74,0,0,0,7.87,7.74,7.81,7.81,0,0,0,0-15.61A7.74,7.74,0,0,0,51.23,53.62Z"/><path d="M44.43,37.4c.24,7.19-6,13.6-13.58,13.59A13.56,13.56,0,0,1,17.28,37.36,13.42,13.42,0,0,1,30.9,23.78,13.39,13.39,0,0,1,44.43,37.4Zm-5.76,0A7.77,7.77,0,0,0,31,29.58a7.82,7.82,0,1,0,7.69,7.86Z"/><path d="M49,41c-2.77-4.34-1.64-10.84,2.34-14.24a11.76,11.76,0,0,1,15.28-.18c4.78,4.08,5,10.78,2.62,14.33l-4.83-2.66c1.17-3.15.69-6-2.39-7.85a5.51,5.51,0,0,0-6.39.34c-2.27,1.61-2.76,3.72-1.86,7.61-.81.4-1.66.77-2.47,1.22S49.78,40.45,49,41Z"/><path d="M19.23,55.41h5.64c.61,3.49,2.29,5.93,6.15,5.87s5.26-2.53,5.9-5.83h5.63a11.68,11.68,0,0,1-18.38,9.61A11.33,11.33,0,0,1,19.23,55.41Z"/></svg>