<svg id="Layer_1" data-name="Layer 1" xmlns="http://www.w3.org/2000/svg" viewBox="0 0 91 91"><path d="M16.36,14.35a12,12,0,1,1,23.83-2.29V27c1.72,0,3.44-.28,5.17-.28a28.6,28.6,0,0,1,4.88.28V12.06A12.12,12.12,0,0,1,62.29,0,12.41,12.41,0,0,1,74.35,14.35L71.19,31.86C82.39,36.74,91,45.36,91,56v6.6c0,8.9-5.74,16.36-14.07,21.24-8.32,5.17-19.23,8-31.57,8S22.1,89,13.78,83.82C5.74,78.94,0,71.48,0,62.58V56C0,45.36,8.32,36.74,19.52,31.86ZM66.89,34.16l3.73-20.67a8.49,8.49,0,0,0-8.33-10A8.33,8.33,0,0,0,54,11.77v19a16.23,16.23,0,0,0-3.73-.29c-1.73,0-3.16-.29-4.88-.29a30.86,30.86,0,0,0-5.17.29c-1.15,0-2.58.29-3.73.29V12.06a8.28,8.28,0,1,0-16.37,1.72l3.74,20.67C11.77,39,3.73,47.08,3.73,56.26v6.61c0,14.06,18.66,25.55,41.63,25.55S87,76.93,87,62.87V56.26C87.27,46.79,79.23,38.75,66.89,34.16Z" style="fill:#633001;fill-rule:evenodd"/><path d="M87.27,62.58c0,14.07-18.66,25.55-41.63,25.55S4,76.65,4,62.58V56H87.56v6.6Z" style="fill:#fedc90"/><path d="M20.09,13.78a8.28,8.28,0,1,1,16.37-1.72V31a89,89,0,0,1,8.9-.57c2.87,0,5.74.29,8.61.57V12.06a8.33,8.33,0,0,1,8.32-8.33,8.64,8.64,0,0,1,8.33,10L66.89,34.45c12,4.59,20.38,12.63,20.38,21.81,0,14.07-18.66,25.55-41.63,25.55S4,70.33,4,56.26c0-9.18,8-17.22,20.09-21.81Z" style="fill:#d1884f;fill-rule:evenodd"/><path d="M33.87,54.26c0,3.73-2,6.89-4.59,6.89S24.69,58,24.69,54.26s2-6.89,4.59-6.89S33.87,50.52,33.87,54.26Z" style="fill:#633001"/><path d="M65.74,54.26c0,3.73-2,6.89-4.59,6.89s-4.6-3.16-4.6-6.89,2-6.89,4.6-6.89S65.74,50.52,65.74,54.26Z" style="fill:#633001"/></svg>