<svg id="Layer_1" data-name="Layer 1" xmlns="http://www.w3.org/2000/svg" xmlns:xlink="http://www.w3.org/1999/xlink" viewBox="0 0 91 91"><defs><clipPath id="clip-path"><rect width="91" height="91" style="fill:none"/></clipPath></defs><g style="clip-path:url(#clip-path)"><g style="clip-path:url(#clip-path)"><path d="M91,45.5A45.5,45.5,0,1,1,45.5,0,45.5,45.5,0,0,1,91,45.5" style="fill:#1f1a23"/><path d="M60.92,34.28c.29.39.6.78.87,1.18A20.3,20.3,0,0,1,64,39.92c.26.74.47,1.48.69,2.18l0,.09h0l-.11,0H53.6A10.67,10.67,0,0,0,47,36.91a10.44,10.44,0,0,0-6.69.25,10.74,10.74,0,0,0-7,10.13,10.58,10.58,0,0,0,2.19,6.45,10.47,10.47,0,0,0,5.63,3.84A10.77,10.77,0,0,0,53.6,52.27H64.71c-.12.46-.23.88-.36,1.3a21.34,21.34,0,0,1-2.68,5.54,22.67,22.67,0,0,1-2.08,2.61,21.8,21.8,0,0,1-3.11,2.73,20.94,20.94,0,0,1-5.87,3,21.9,21.9,0,0,1-3.77.85,21.19,21.19,0,0,1-4.14.13,23.55,23.55,0,0,1-2.49-.32,18.28,18.28,0,0,1-3.41-.92,21.54,21.54,0,0,1-7.87-5.06,21.83,21.83,0,0,1-3.59-4.9,20.93,20.93,0,0,1-1.86-4.8,16.09,16.09,0,0,1-.5-2.84c-.06-.86-.16-1.72-.15-2.57a21.73,21.73,0,0,1,.31-3.41,23.44,23.44,0,0,1,.91-3.48A20.35,20.35,0,0,1,26,36a21.52,21.52,0,0,1,2.76-3.55,21.18,21.18,0,0,1,5.21-4,20.67,20.67,0,0,1,4.28-1.74,18.58,18.58,0,0,1,3.14-.63c.7-.08,1.39-.13,2.09-.19,0,.15,0,.3,0,.45a8.31,8.31,0,0,0,.28,2.11,10.65,10.65,0,0,0,3.52,5.63,9.9,9.9,0,0,0,2.51,1.57,10.39,10.39,0,0,0,2.55.76c.46.07.94.06,1.4.14a8.93,8.93,0,0,0,1.37,0,4.07,4.07,0,0,0,.6-.06,11.86,11.86,0,0,0,2.48-.69,10.93,10.93,0,0,0,2.19-1.22,5.33,5.33,0,0,1,.51-.31" style="fill:#fdafc1"/><path d="M43.5,25.93a10.92,10.92,0,0,1,1.18-4.86,10.76,10.76,0,0,1,1.65-2.36,10.6,10.6,0,0,1,6.48-3.35,11,11,0,0,1,3,0,10.42,10.42,0,0,1,3.91,1.46,10.57,10.57,0,0,1,2.66,2.33,10.26,10.26,0,0,1,2.13,4.32,10.5,10.5,0,0,1,.27,3A10.83,10.83,0,0,1,64,30a10.7,10.7,0,0,1-2.59,3.75,5.2,5.2,0,0,1-.44.35c-.1-.05-.22-.07-.28-.14-.25-.28-.47-.57-.73-.84-.56-.59-1.1-1.2-1.7-1.74a20.44,20.44,0,0,0-2.08-1.63,21.36,21.36,0,0,0-3.32-1.89c-.72-.32-1.44-.61-2.18-.86a13.07,13.07,0,0,0-1.26-.37c-.65-.15-1.32-.24-2-.39a17.23,17.23,0,0,0-2.59-.27,12.71,12.71,0,0,0-1.38,0" style="fill:#ca8de7"/><path d="M43.5,25.93a12.71,12.71,0,0,1,1.38,0,17.23,17.23,0,0,1,2.59.27c.65.15,1.32.24,2,.39A13.07,13.07,0,0,1,50.7,27c.74.25,1.46.54,2.18.86a21.36,21.36,0,0,1,3.32,1.89,20.44,20.44,0,0,1,2.08,1.63c.6.54,1.14,1.15,1.7,1.74.26.27.48.56.73.84.06.07.18.09.28.14l-.07.22a5.33,5.33,0,0,0-.51.31,10.93,10.93,0,0,1-2.19,1.22,11.86,11.86,0,0,1-2.48.69,4.07,4.07,0,0,1-.6.06,8.93,8.93,0,0,1-1.37,0c-.46-.08-.94-.07-1.4-.14a10.39,10.39,0,0,1-2.55-.76,9.9,9.9,0,0,1-2.51-1.57,10.65,10.65,0,0,1-3.52-5.63,8.31,8.31,0,0,1-.28-2.11c0-.15,0-.3,0-.45Z" style="fill:#ca65b6"/></g></g></svg>