<svg id="Layer_1" data-name="Layer 1" xmlns="http://www.w3.org/2000/svg" viewBox="0 0 91 91"><circle cx="45.5" cy="45.5" r="45.5" style="fill:#cd0124"/><path d="M25,30.69c-2.06-.17-3.32-1.22-3.53-2.84a3.34,3.34,0,0,1,6.42-1.69H63.13a3.34,3.34,0,0,1,4.18-2,3.35,3.35,0,0,1,2.22,3.67c-.21,1.57-1.48,2.65-3.43,2.82q-3.64,8.49-7.32,17a3.39,3.39,0,0,1,.62,2.38,3.3,3.3,0,0,1-2.48,2.81.75.75,0,0,0-.59.51L50.72,66.49c-.51,1.2-1,2.39-1.54,3.59,0,.11-.09.23-.13.33A3.38,3.38,0,0,1,49,75.3a3.34,3.34,0,0,1-4.7-4.73L35.8,53a3.39,3.39,0,0,1-2.73-5.64Q29.05,39.06,25,30.69ZM38,52l8.47,17.54.37,0,7.33-17.08a3.44,3.44,0,0,1-1.13-4l-6.94-4.82L38.86,48.8a14.75,14.75,0,0,1-.11,1.71A3.06,3.06,0,0,1,38,52Zm24.5-23.29,0-.07H28.77L46,40.61ZM44,42.11,27.89,30.94l-.06.07,7.43,15.37a3.51,3.51,0,0,1,2.11.53Zm12.75,4.3,6.53-15.2-.07-.05-15,10.91,2.6,1.8,3.76,2.61a.55.55,0,0,0,.37.11A4,4,0,0,1,56.72,46.41Z" style="fill:#fff"/></svg>