<svg id="Layer_1" data-name="Layer 1" xmlns="http://www.w3.org/2000/svg" viewBox="0 0 91 91"><path d="M45.5,90.87A45.37,45.37,0,1,0,.13,45.5,45.37,45.37,0,0,0,45.5,90.87Z" style="fill:#070a0e"/><path d="M26.34,60.71a4.58,4.58,0,0,1-2.21-3.89V48A1.9,1.9,0,0,1,27,46.36L47,58a3.8,3.8,0,0,1,1.89,3.29v9.18a2.28,2.28,0,0,1-2.27,2.29h0a2.28,2.28,0,0,1-1.19-.34ZM56.13,43.88A3.81,3.81,0,0,1,58,47.17V65.81a1.52,1.52,0,0,1-.77,1.33L52.9,69.6l-.18.08V59.33a3.83,3.83,0,0,0-1.85-3.28L33.3,45.55V33.86A1.92,1.92,0,0,1,35.24,32a2,2,0,0,1,.89.24Zm8.76-13.76a3.79,3.79,0,0,1,1.9,3.29V60.64A1.58,1.58,0,0,1,66,62l-4.15,2.24v-19A3.83,3.83,0,0,0,60,42L42,31.23V20.14a2,2,0,0,1,.25-.95,1.9,1.9,0,0,1,2.6-.69h0Z" style="fill:#00d395;fill-rule:evenodd"/></svg>