<svg id="Layer_1" data-name="Layer 1" xmlns="http://www.w3.org/2000/svg" xmlns:xlink="http://www.w3.org/1999/xlink" viewBox="0 0 91 91"><defs><clipPath id="clip-path"><rect width="91" height="91" style="fill:none"/></clipPath></defs><g id="Layer_2" data-name="Layer 2"><g id="Layer_1-2" data-name="Layer 1-2"><g style="clip-path:url(#clip-path)"><path d="M49.16,47.65l16,16a3,3,0,0,1,0,4.31l-.29.26a28.83,28.83,0,1,1,.11-45.26,3,3,0,0,1,.41,4.23,1.7,1.7,0,0,1-.22.24l-16,16a3,3,0,0,0-.65,1,2.93,2.93,0,0,0-.23,1.21,2.79,2.79,0,0,0,.24,1.21,2.85,2.85,0,0,0,.65,1ZM45.5,0A45.5,45.5,0,1,0,91,45.5,45.5,45.5,0,0,0,45.5,0Z" style="fill:#69e2dc"/></g></g></g></svg>