<svg id="Layer_1" data-name="Layer 1" xmlns="http://www.w3.org/2000/svg" xmlns:xlink="http://www.w3.org/1999/xlink" viewBox="0 0 91 91"><defs><linearGradient id="linear-gradient" x1="1545.47" y1="-1576.04" x2="1545.47" y2="-1572.72" gradientTransform="translate(-42361.87 43246.09) scale(27.44)" gradientUnits="userSpaceOnUse"><stop offset="0" stop-color="#25376c"/><stop offset="1" stop-color="#1f1f49"/></linearGradient><linearGradient id="linear-gradient-2" x1="1544.75" y1="-1572.72" x2="1544.75" y2="-1576.04" xlink:href="#linear-gradient"/></defs><path d="M45.5,0,6.09,22.75v45.5L45.5,91,84.91,68.25V22.75Z" style="fill:url(#linear-gradient)"/><path d="M45.5,0,6.09,22.75v45.5L45.5,91Z" style="fill:url(#linear-gradient-2)"/><path d="M60.86,19.66H29.93L26.34,35.42H64.66ZM35.42,57.08V46.6l-9.18-5.79L15.86,48.49,30,73.14h5.69l6.69-6.29V63.76Z" style="fill:#fff"/><path d="M55.48,37.82h-20l3.3,8.78-1,9.88H53.19l-1-9.88Z" style="fill:#fff"/><path d="M64.66,40.71,55.58,46.6V57.07l-6.89,6.69v3.09L55.38,73H61L75,48.49Z" style="fill:#fff"/></svg>