<svg width="40" height="40" viewBox="0 0 40 40" fill="none" xmlns="http://www.w3.org/2000/svg">
<circle cx="20" cy="20" r="20" fill="black"/>
<path d="M19.8132 32.0752C17.407 32.0752 14.9965 32.0752 12.5903 32.0752C11.7956 32.0752 11.1853 31.4737 11.137 30.6789C11.0843 29.7393 10.9965 28.7997 10.9306 27.86C10.8823 27.1663 10.8428 26.477 10.7901 25.7832C10.7199 24.8348 10.6452 23.8908 10.5793 22.9424C10.531 22.2574 10.4871 21.5725 10.4388 20.8875C10.3686 19.9391 10.2983 18.9951 10.2281 18.0467C10.1798 17.3836 10.1359 16.7206 10.0876 16.0576C10.0612 15.6932 10.0305 15.3288 10.0042 14.9643C9.96464 14.3101 10.2061 13.792 10.7638 13.4363C12.4893 12.3343 14.2193 11.2409 15.9493 10.1433C16.9109 9.53293 17.8724 8.91822 18.8384 8.30791C19.4838 7.89956 20.1293 7.89517 20.7747 8.30791C23.4092 9.98079 26.0393 11.6712 28.6869 13.3222C29.4465 13.7964 29.6836 14.433 29.5958 15.2673C29.5387 15.7898 29.508 16.3167 29.4685 16.8392C29.3982 17.792 29.328 18.7448 29.2621 19.702C29.2094 20.4177 29.1655 21.129 29.1172 21.8447C29.0514 22.7624 28.9811 23.68 28.9152 24.5977C28.8626 25.3046 28.8186 26.0115 28.766 26.7184C28.7001 27.6493 28.6298 28.5845 28.5596 29.5154C28.5289 29.9544 28.5025 30.3891 28.4586 30.8238C28.3883 31.5263 27.7824 32.0708 27.0755 32.0708C24.6518 32.0708 22.2325 32.0708 19.8088 32.0708L19.8132 32.0752ZM19.8132 29.4978C21.8417 29.4978 23.8658 29.4978 25.8944 29.4978C26.0042 29.4978 26.1139 29.489 26.2193 29.4715C26.4257 29.4319 26.5398 29.2914 26.553 29.0939C26.6189 28.1981 26.6759 27.3024 26.733 26.4067C26.7813 25.691 26.8208 24.9797 26.8691 24.264C26.9394 23.2366 27.014 22.2091 27.0799 21.1817C27.1282 20.4308 27.1677 19.68 27.2204 18.9292C27.2863 17.9237 27.3565 16.9182 27.4312 15.9127C27.4575 15.5746 27.3258 15.3463 27.0404 15.1663C24.7791 13.7349 22.5179 12.3035 20.2654 10.8633C19.9493 10.6614 19.6683 10.657 19.3565 10.8633C18.5618 11.3815 17.7539 11.8864 16.9504 12.3957C15.4838 13.3266 14.0129 14.2618 12.542 15.1926C12.2742 15.3639 12.1688 15.5878 12.1952 15.9127C12.2566 16.646 12.2918 17.3836 12.3401 18.1213C12.3883 18.9029 12.4366 19.68 12.4893 20.4616C12.5552 21.4759 12.6255 22.4857 12.6913 23.5C12.7396 24.264 12.7879 25.0324 12.8362 25.7964C12.9021 26.815 12.9811 27.8337 13.0382 28.8568C13.0689 29.3661 13.1919 29.5022 13.7056 29.5022C15.7385 29.5022 17.7714 29.5022 19.8088 29.5022L19.8132 29.4978Z" fill="#F2A530"/>
<path d="M22.8336 22.938H22.5043C19.9928 22.938 17.4856 22.938 14.9741 22.9424C14.7458 22.9424 14.7019 22.8722 14.6887 22.657C14.6316 21.6164 14.5526 20.5714 14.4823 19.5308C14.434 18.7887 14.3901 18.0423 14.3418 17.3003C14.3331 17.1685 14.3813 17.0895 14.4911 17.0149C16.2167 15.9259 17.9379 14.8326 19.6591 13.735C19.7644 13.6647 19.8435 13.6603 19.9532 13.735C21.6832 14.8414 23.4176 15.9435 25.1563 17.0412C25.2573 17.1071 25.2793 17.1685 25.2705 17.2871C25.2178 17.9721 25.1739 18.657 25.13 19.342C25.1212 19.4474 25.0992 19.5176 24.9675 19.5132C24.3616 19.5088 23.7513 19.5132 23.1453 19.5132C23.119 19.5132 23.0927 19.5 23.0707 19.4957C23.0619 19.4781 23.0575 19.4693 23.0575 19.4649C23.2024 18.9512 22.9697 18.6658 22.5306 18.4067C21.67 17.893 20.849 17.3178 20.0147 16.7646C19.8654 16.668 19.7601 16.6592 19.6064 16.7602C18.6404 17.4056 17.67 18.0467 16.6953 18.679C16.5504 18.7756 16.5109 18.8722 16.5284 19.039C16.5636 19.342 16.5855 19.6493 16.5943 19.9567C16.5987 20.1016 16.6514 20.1499 16.7919 20.1499C17.0202 20.1499 17.2441 20.1499 17.4725 20.1499C19.9093 20.1499 22.3462 20.1499 24.7831 20.1499C25.0905 20.1499 25.0949 20.1499 25.0729 20.4528C24.9851 21.8008 24.8973 23.1488 24.8095 24.4968C24.7524 25.3266 24.6865 26.1565 24.6426 26.9863C24.6338 27.162 24.5855 27.2059 24.4143 27.2059C22.9741 27.2015 21.5295 27.2059 20.0894 27.2059C18.4736 27.2059 16.8534 27.2059 15.2376 27.2059C15.0663 27.2059 14.9917 27.1663 14.9829 26.9819C14.9565 26.477 14.9082 25.9764 14.8775 25.4759C14.8424 24.9139 14.816 24.3519 14.7765 23.7898C14.7633 23.6274 14.816 23.5703 14.9829 23.5703C15.5317 23.5747 16.0806 23.5747 16.6294 23.5703C16.7655 23.5703 16.8226 23.6098 16.8314 23.7547C16.849 24.1191 16.8885 24.4836 16.906 24.848C16.9104 24.9885 16.9543 25.0412 17.0992 25.0412C18.9082 25.0412 20.7129 25.0412 22.5219 25.0324C22.5833 25.0324 22.7019 24.9622 22.7019 24.9139C22.7546 24.2684 22.7897 23.623 22.8336 22.9424V22.938Z" fill="#F2A530"/>
</svg>
