<svg id="Layer_1" data-name="Layer 1" xmlns="http://www.w3.org/2000/svg" viewBox="0 0 91 91"><circle cx="45.5" cy="45.5" r="45.5" style="fill:#008ce3"/><path d="M27.72,66c.51-2.86,1-5.66,1.52-8.48a4.48,4.48,0,0,1,.59-.07h7.74l6.3.06a34.29,34.29,0,0,0,5.46-.31,12.75,12.75,0,0,0,6-2.31,9.83,9.83,0,0,0,3.23-4.47,33.26,33.26,0,0,0,1.55-6,15.57,15.57,0,0,0,.31-3.67A8.34,8.34,0,0,0,59.84,38,6.08,6.08,0,0,0,56,34.68a12.48,12.48,0,0,0-4-.74c-2.71-.08-5.43-.09-8.15-.1-3.24,0-6.49,0-9.74,0h-.59A81.49,81.49,0,0,1,35,25.29c.16,0,.35,0,.53,0,6.29,0,12.58,0,18.86,0A24.62,24.62,0,0,1,62,26.42a11.75,11.75,0,0,1,7,5.44,13.37,13.37,0,0,1,1.61,5.41c.08,1,.11,2,.11,3a33.28,33.28,0,0,1-.61,5.8,34.12,34.12,0,0,1-1.81,6.6,20.81,20.81,0,0,1-7.12,9.62,19.23,19.23,0,0,1-8.07,3.35,34.25,34.25,0,0,1-5.81.48q-9.39,0-18.76,0C28.31,66.08,28.06,66.05,27.72,66Z" style="fill:#fff"/><path d="M20.26,49.94c.15-.69.26-1.27.4-1.85.27-1.07.49-2.16.84-3.21a4.76,4.76,0,0,1,4.35-3.43,13.82,13.82,0,0,1,1.58-.09H45.12l.69,0c0,.1.06.15,0,.19-.4,1.64-.72,3.31-1.22,4.92-.7,2.22-2.4,3.21-4.64,3.41-.34,0-.68,0-1,0H20.26Z" style="fill:#fff"/></svg>