<svg id="Layer_1" data-name="Layer 1" xmlns="http://www.w3.org/2000/svg" xmlns:xlink="http://www.w3.org/1999/xlink" viewBox="0 0 91 91"><defs><linearGradient id="linear-gradient" x1="73.71" y1="4.3" x2="20.6" y2="81.84" gradientUnits="userSpaceOnUse"><stop offset="0" stop-color="#ec4329"/><stop offset="1" stop-color="#d51a20"/></linearGradient></defs><path d="M44.86,0A45.5,45.5,0,1,0,91,45.52,45.54,45.54,0,0,0,44.86,0ZM37.35,19.85a8.15,8.15,0,0,1,16.22-1.3,6.19,6.19,0,0,1,.08,1.05c0,2.77,0,5.54,0,8.31a1.45,1.45,0,0,1-.51,1.23c-1.18,1-2.31,2.09-3.62,3.29,0-.48-.05-.77-.05-1.05q0-5.74,0-11.49a4,4,0,0,0-7.83-1,8.49,8.49,0,0,0-.13,1.67q0,12.47,0,24.92v.93l-.23.13a16,16,0,0,1-2-1.7,7.87,7.87,0,0,1-2-5.25Q37.36,29.69,37.35,19.85ZM15.13,31.27a8.13,8.13,0,0,1,6.49-6.64,7.67,7.67,0,0,1,5.47.83c2.46,1.38,4.9,2.8,7.33,4.24a1.68,1.68,0,0,1,.68.93c.39,1.56.72,3.13,1.1,4.86-.44-.23-.73-.37-1-.53l-9.86-5.69a4,4,0,1,0-4.1,6.8c2.68,1.59,5.39,3.13,8.09,4.69L43.63,49c.22.13.42.28.71.48A6.88,6.88,0,0,1,40,50.65a8.64,8.64,0,0,1-3.93-1.15C30.46,46.21,24.82,43,19.19,39.72A8.18,8.18,0,0,1,15.13,31.27Zm4.64,34.5a8.14,8.14,0,0,1-1-14.21c2.47-1.58,5.07-3,7.63-4.43a1,1,0,0,1,.73-.16c1.63.48,3.25,1,5,1.57-.32.21-.49.35-.68.46-3.41,2-6.83,3.92-10.23,5.93a4,4,0,1,0,4.1,6.8L38,54.45l9.55-5.52c.25-.14.51-.26.81-.41a5.21,5.21,0,0,1-.41,2.93,8.23,8.23,0,0,1-3.54,4.14Q36,60.36,27.7,65.21A8.14,8.14,0,0,1,19.77,65.77Zm33.88,5.5A8.15,8.15,0,0,1,38.3,75.1a7.92,7.92,0,0,1-.95-3.73c0-2.76,0-5.53,0-8.3a1.47,1.47,0,0,1,.54-1.22c1.18-1,2.33-2.12,3.65-3.33v1.07c0,3.82,0,7.65,0,11.48a4,4,0,0,0,4.25,4.16A3.92,3.92,0,0,0,49.38,72a9.34,9.34,0,0,0,.12-1.58V44.54a7,7,0,0,1,.71.34,7.55,7.55,0,0,1,3.42,6.34C53.69,57.91,53.66,64.59,53.65,71.27ZM75.22,61.8A8.1,8.1,0,0,1,64.1,65.62c-2.59-1.38-5.11-2.92-7.65-4.39-.19-.11-.43-.3-.47-.49-.4-1.68-.76-3.36-1.18-5.26l1.06.59c3.32,1.91,6.62,3.85,10,5.73a4,4,0,1,0,3.82-7L56,47l-8.56-5-.79-.49a5.54,5.54,0,0,1,3-1.14A8.55,8.55,0,0,1,55,41.54c5.61,3.29,11.26,6.5,16.88,9.77A8.13,8.13,0,0,1,75.22,61.8ZM71.79,39.74c-2.34,1.36-4.69,2.7-7,4.07a1.36,1.36,0,0,1-1.24.14c-1.5-.5-3-1-4.52-1.44v-.2L64.7,39c1.7-1,3.42-2,5.11-3a3.9,3.9,0,0,0,1.91-4.13,4,4,0,0,0-3.32-3.23,4.25,4.25,0,0,0-2.86.65q-8,4.65-16,9.27l-6,3.44c-.24.15-.5.27-.83.44a4.88,4.88,0,0,1,.37-2.88,8.17,8.17,0,0,1,3.53-4.16c5.66-3.25,11.31-6.53,17-9.79a8.16,8.16,0,1,1,8.23,14.09Z" style="fill:url(#linear-gradient)"/><path d="M44.34,49.49A7,7,0,0,1,40,50.66a8.49,8.49,0,0,1-3.93-1.16C30.46,46.22,24.81,43,19.19,39.73a8.14,8.14,0,0,1,2.43-15.1,7.73,7.73,0,0,1,5.47.83c2.46,1.39,4.9,2.8,7.33,4.25a1.64,1.64,0,0,1,.67.92c.4,1.56.72,3.14,1.11,4.87l-1-.53-9.87-5.69A4,4,0,0,0,20.2,30a3.94,3.94,0,0,0,1,6.07c2.68,1.59,5.4,3.13,8.1,4.69L43.62,49C43.84,49.14,44.05,49.29,44.34,49.49Z" style="fill:#fff"/><path d="M47.91,51.45a8.3,8.3,0,0,1-3.55,4.14Q36,60.38,27.7,65.21a8.12,8.12,0,0,1-7.93.56,8.13,8.13,0,0,1-1-14.2c2.48-1.59,5.08-3,7.63-4.44a1,1,0,0,1,.74-.15c1.63.48,3.24,1,5,1.56-.31.22-.48.35-.67.46-3.41,2-6.84,3.93-10.23,5.93a3.93,3.93,0,0,0-.46,6.61,3.89,3.89,0,0,0,4.56.19L38,54.45l9.56-5.51a8.6,8.6,0,0,1,.81-.42A5.2,5.2,0,0,1,47.91,51.45Z" style="fill:#fff"/><path d="M53.64,71.27A8.15,8.15,0,0,1,38.3,75.1a7.68,7.68,0,0,1-.95-3.72c0-2.77,0-5.54,0-8.3a1.43,1.43,0,0,1,.53-1.22c1.18-1,2.33-2.12,3.65-3.33v1.06c0,3.83,0,7.66,0,11.48a4,4,0,0,0,4.25,4.16A3.91,3.91,0,0,0,49.38,72a9.26,9.26,0,0,0,.11-1.58q0-12.36,0-24.73V44.55a4.17,4.17,0,0,1,.7.34,7.55,7.55,0,0,1,3.43,6.34C53.69,57.91,53.65,64.59,53.64,71.27Z" style="fill:#fff"/><path d="M75.22,61.8A8.09,8.09,0,0,1,64.1,65.62c-2.6-1.38-5.11-2.91-7.66-4.39a1,1,0,0,1-.47-.48c-.4-1.68-.76-3.37-1.18-5.26.48.26.78.42,1.07.59,3.31,1.91,6.61,3.84,9.94,5.72a4,4,0,1,0,3.83-6.95Q62.83,50.91,56,47q-4.29-2.46-8.56-4.94l-.79-.5a5.67,5.67,0,0,1,3-1.14A8.66,8.66,0,0,1,55,41.54c5.6,3.29,11.26,6.5,16.87,9.77A8.13,8.13,0,0,1,75.22,61.8Z" style="fill:#fff"/><path d="M71.78,39.74c-2.33,1.37-4.69,2.7-7,4.07a1.37,1.37,0,0,1-1.24.15c-1.5-.51-3-1-4.52-1.45,0-.06,0-.13,0-.2L64.69,39c1.71-1,3.43-2,5.12-3a4,4,0,0,0-1.41-7.35,4.14,4.14,0,0,0-2.86.65L49.49,38.61l-6,3.44c-.25.14-.51.27-.83.43a4.89,4.89,0,0,1,.37-2.88,8.15,8.15,0,0,1,3.52-4.16c5.67-3.24,11.31-6.52,17-9.78a8.15,8.15,0,1,1,8.22,14.08Z" style="fill:#fff"/><path d="M53.66,27.91a1.46,1.46,0,0,1-.52,1.23c-1.17,1-2.3,2.1-3.62,3.3,0-.49,0-.78,0-1.06,0-3.83,0-7.66,0-11.49a4,4,0,0,0-7.82-1,8.43,8.43,0,0,0-.14,1.67V46.37l-.24.14a17.7,17.7,0,0,1-1.94-1.71,7.86,7.86,0,0,1-2-5.25c0-6.56,0-13.13,0-19.7a8.15,8.15,0,0,1,16.22-1.3,7.55,7.55,0,0,1,.07,1.06C53.65,22.38,53.64,25.15,53.66,27.91Z" style="fill:#fff"/></svg>