<svg id="Layer_1" data-name="Layer 1" xmlns="http://www.w3.org/2000/svg" viewBox="0 0 91 91"><g id="Layer_2" data-name="Layer 2"><g id="Layer_1-2" data-name="Layer 1-2"><g id="Layer_1-3" data-name="Layer 1-3"><circle cx="45.5" cy="45.5" r="45.5" style="fill:#988430"/><circle cx="45.5" cy="45.5" r="44.04" style="fill:#7a6a2a"/><circle cx="45.5" cy="45.5" r="43.11" style="fill:#ba9f33"/><path d="M19.89,40.64c-.25-.23-.53-.47-.78-.71l-.76-.7-.77-.73c-.12-.13-.26-.24-.38-.36l-.4-.35-3-2.89c1,1,2.06,1.89,3.09,2.86l.36.36.39.36.76.7.77.73c.26.26.51.49.76.73ZM6.41,40.5s3.69.38,5.5.64,6.89,1,6.89,1Zm0,0c1,.08,2.07.19,3.11.3l1.55.17.78.08.76.12,3.09.49,1.55.26,1.55.27c-.51,0-1-.13-1.55-.2l-1.55-.22-3.09-.46c-.26,0-.51-.09-.76-.12l-.78-.09c-.51-.05-1-.13-1.55-.19-1-.12-2.08-.25-3.12-.42Zm12,2.64s-4,1-5.28,1.38-5.28,1.57-5.28,1.57l10.56-3Z" style="fill:#cfb66c;fill-rule:evenodd"/><path d="M18.44,43.14l-2.64.74-2.64.71-2.62.76-1.31.36c-.43.13-.87.24-1.32.36.43-.14.87-.29,1.31-.42l1.31-.41c.87-.28,1.75-.53,2.62-.81l2.66-.67c.84-.21,1.73-.42,2.63-.62Zm-10,5.38c.43-.16,5.44-2.5,6.6-3,.59-.27,2.28-.88,2.28-.88Z" style="fill:#cfb66c;fill-rule:evenodd"/><path d="M8.43,48.52c.38-.15.74-.32,1.11-.49l1.09-.51,2.19-1.06c.73-.34,1.43-.72,2.18-1.05.39-.16.77-.29,1.15-.42l.59-.18.58-.16c-.73.34-1.5.64-2.23,1s-1.47.65-2.22,1l-2.22,1-2.22.94Zm.49,2S13.45,47.9,15,47.05c.82-.46,3.46-1.77,3.46-1.77Z" style="fill:#cfb66c;fill-rule:evenodd"/><path d="M8.92,50.56l2.32-1.44,1.17-.7,1.18-.7c.4-.23.78-.47,1.19-.69a4.25,4.25,0,0,1,.6-.31l.62-.31c.82-.39,1.63-.8,2.5-1.15-.78.5-1.59.92-2.39,1.35l-1.2.64c-.4.22-.78.46-1.19.67s-.78.46-1.18.67l-1.2.66L8.92,50.56Zm9.52-4.7S15.62,48,14.7,48.72s-3.6,2.63-3.6,2.63Z" style="fill:#cfb66c;fill-rule:evenodd"/><polygon points="34.62 63.32 33.17 60.59 34.02 57.17 40 54.86 37.45 49.63 38.71 44.35 41.08 39.63 48.38 38.48 53.75 33.36 65.33 34.23 67.61 46.63 63.23 62.23 60.73 70.3 50.62 70.69 45.92 67.43 40.42 65.14 34.62 63.32" style="fill:#e2cc85;fill-rule:evenodd"/><path d="M52.36,63.23a8.52,8.52,0,0,1-3.78.49c-.69-.93-5.53-1.36-5.53-1.36a2.73,2.73,0,0,0-1.67.26,20,20,0,0,1-3,.62c-1,.23-1.9-1-2.62-1.26a10.9,10.9,0,0,1-1.7-.93l-2-.2-4.09-1.73-6.5-6.48-1.77,2.77-.54,3.42,2,4.06,5.3,4.82,10.32,2.62,6.12-1.8,7.66-3.24,1.92-2.06Z" style="fill:#f1d789;fill-rule:evenodd"/><polygon points="15.69 40.33 17 36.36 18.56 33.8 23.59 33.38 22.08 37.78 17.88 45.27 19.62 51.94 16.53 53.49 15.58 52.03 14.81 48.69 14.76 44.93 15.69 40.33" style="fill:#f4ecb4;fill-rule:evenodd"/><path d="M21.33,63l-1-1.35a2.29,2.29,0,0,1-.11-1.2c.15-.57.13-.6.06-.82s-.7-1-.66-1.58,0-.86.42-1.36a1.74,1.74,0,0,0,.35-1.35l.64.4.14-.22a.64.64,0,0,1,.24.47c0-.4-.16-2.24.32-2.66s1.35,2,1.35,2l-.53-3.47-1.36-3.54L18.79,45l-.14-3.57v-.31a12.13,12.13,0,0,0-1.42,3c-.22.93.31,2.06.2,3.39s-.2,1.22.12,1.75,1.11,1.6.8,2.38-1.2.2-1.2.2a2,2,0,0,1-.43.75,1.62,1.62,0,0,0-.36-.73l-.05.29s-.16-.51-.33-1.15c-.22-.85-.45-2-.67-2.58-.09.35-.31,1.4-.31,1.4l.13,1.62.6,2.22.59,1.46L16.88,57l.49,1.2.4.91.35,2,1.67,1.77.89.4.65-.33Z" style="fill:#f3e19d;fill-rule:evenodd"/><path d="M16.57,37.09A14.1,14.1,0,0,0,15,41.19a26.74,26.74,0,0,0-.44,7,29,29,0,0,0,1,5.79,32.21,32.21,0,0,0,2.09,4.91l.05-.11a8.19,8.19,0,0,1-.6-1.51c-.2-.78-.27-1.71-.46-2.13a10,10,0,0,1-.56-1.3A5.75,5.75,0,0,0,15.55,52a3.88,3.88,0,0,1-.42-1.47c-.08-.93,0-2-.05-2.82A11,11,0,0,1,15,44.59c.15-.75.91-2.86,1.39-4.54.3-1.07.12-2,.69-2.91a8.64,8.64,0,0,0,1-2.32c.14-.51-1.51,2.27-1.51,2.27h0Z" style="fill:#f2e8b0;fill-rule:evenodd"/><path d="M22.26,36.27a2.53,2.53,0,0,0-.92.51,13.45,13.45,0,0,0-.81,1.09,8.9,8.9,0,0,0-.75,1.61c-.32.64-1,1.6-1.12,2s-.24,2-.42,2.73a3.58,3.58,0,0,0,.18,1.71l.42-.09a1.32,1.32,0,0,0,.42.91c.42.36.49-1.22.49-1.22l1.57-5.29,2.36-1.61.26-1.29-1.68-1Z" style="fill:#f5eec0;fill-rule:evenodd"/><path d="M23.41,38.68a3.91,3.91,0,0,0-1.66.47c-.22.16-.31.29-.55.49a3.74,3.74,0,0,0-1.09,1.16,8.09,8.09,0,0,0-.67,2.54c-.07.56-.07,1.09-.12,1.54a7.36,7.36,0,0,0-.13,1.46c.08.71.81,1.07.88,1.88l1.51-.77L23,41.85,26,40,24.31,38l-.91.63h0Z" style="fill:#e6db9d;fill-rule:evenodd"/><path d="M15.44,76.41l0-.17c.22-1.89.26-3.33.42-4.23a10.43,10.43,0,0,0,.36-2.22,10.55,10.55,0,0,1,0-1.92c.11-.78.88-1.7.86-2.34a2,2,0,0,0-.49-1.15c-.23-.31-.4-.57-.4-.57s1.51-1,1.49-5.22l.09,0,.74,2.11.51.62L21,65l2.51,2.43,3.71,2.5,2.33,2.53.24,6.75-3,4-.5.9a43.41,43.41,0,0,1-10.76-7.65Z" style="fill:#e5cb7a;fill-rule:evenodd"/><path d="M24.73,82.86a2.08,2.08,0,0,1,.74-1.38.85.85,0,0,1,.17.49,4.38,4.38,0,0,1,3-2,3.07,3.07,0,0,0,2.46-1.8l4.2-3.82,4.81-4.43,5.84-2,2.74-.67a1.48,1.48,0,0,1-.06.64,13.74,13.74,0,0,0,2.81-.71c.47-.18.91-.26,1.15,0A2.54,2.54,0,0,1,53,68.66c.56-.12,1.22-.67,1.74-.62.84.09,1.59,1.08,2.44,1.08,1.13,0,1.64-.69,2.42-1.24.48-.32,1.15-.73,1.54-1,.91-.67,10.57-3.62,10.57-3.62l3.38.22.55,3.64-.29,9.5-.11.11-15.4,8L38.49,88a42.94,42.94,0,0,1-13.65-4.69l-.11-.49Z" style="fill:#d8c173;fill-rule:evenodd"/><path d="M16.74,77.61c.3-.63.57-1.16.62-1.35,0,.38.11,1.22.25,2.11-.3-.25-.59-.5-.87-.76Z" style="fill:#f1d789;fill-rule:evenodd"/><path d="M32.33,86.56l2.76-.77.23.08s.13.07.13.32c.35-.2.64-.16.85-.29.11.23.22,1,.71,1.11a2.18,2.18,0,0,0,1.61-.64,10.68,10.68,0,0,1,1.63-1.2c.17.32.32.64.46,1,.62-.49,1.69-2.5,3.22-2.46a5.75,5.75,0,0,1,2.13-2.57,4.63,4.63,0,0,1,3.42-1,6,6,0,0,1,1.61-1.44,1.43,1.43,0,0,0,1.32.09c.64-.29,1.36-1.43,2.31-1.58a2.25,2.25,0,0,1,1.48.31,23.77,23.77,0,0,1,4.67-3.66c-.07-.22-.22-1,2-2.89.12.11,0,.42.12.43a5,5,0,0,0,1.28-.76,10.48,10.48,0,0,1,2.49-1.5,3.52,3.52,0,0,1,2.4.36,1.23,1.23,0,0,1,.35-.16,5.76,5.76,0,0,0,.67-.14,4.74,4.74,0,0,1,0,1.6,3.64,3.64,0,0,0,.73.31,3.42,3.42,0,0,1-.86,1.3c.39.18.44.39,1,.58a11.29,11.29,0,0,0-.74,1.16c-.16.35-.75,1.78-1,2.33s-.64,1.55-.82,1.75a14.91,14.91,0,0,1-1.31,1.47c.44-.16,2.22-.71,3-.91-.22.33-1.37,2-2.47,3.66a43.21,43.21,0,0,1-35.36,4.09Z" style="fill:#e0cd81;fill-rule:evenodd"/><path d="M23.59,38.48a3,3,0,0,0-.77.08c-.12.09.64.28.88.37a2,2,0,0,1,.87.81c.13.31,4.61,2.12,4.61,2.12l3.16-.17,1.09-1.5-2.07-1.82,1.45-4.3-1.93.31-4.63,2.77L23.92,38l-.33.44Z" style="fill:#dfc57c;fill-rule:evenodd"/><path d="M30.54,39.9a.48.48,0,0,0,.44.23,2,2,0,0,1,1.51.5c.42.53,1.58,2.22,1.58,2.22l2.78,1L37,40.57l-3-2.11-3.46,1.27v.17Z" style="fill:#e5cc7c;fill-rule:evenodd"/><path d="M30,41.11a3,3,0,0,0,1.15-.2c.64-.23,1.7-.74,2.15-.54.64.27.51,1.13,1.2,1.89.42.47,1.19.46,1.62,1S38,43.5,38,43.5l.57,3.06-2.28,2.91-.74,3.62H32.51L29.7,52l-1.38-3.35L29,45.24l1-4.13Z" style="fill:#d2c281;fill-rule:evenodd"/><path d="M35.94,41.26a1,1,0,0,0,.24,0A.6.6,0,0,0,36,42c.07.42.31.95.11,1.27a1.62,1.62,0,0,1,.35.61c.12.36.16.69,1,.74a2.1,2.1,0,0,0-.33.26,5.29,5.29,0,0,1,.86,1A6.63,6.63,0,0,0,39,45.52l.16.11.35-.14s-.32-.13-.09-.91.42-.66.44-.71A8.31,8.31,0,0,0,40,42.79a12.9,12.9,0,0,0,.2-1.54L40,38.68l-1.32-.8-1.08-1-1,1.91-.67.67,0,1.65.08.19Z" style="fill:#e2c270;fill-rule:evenodd"/><path d="M39.13,39.11a8.9,8.9,0,0,1,.33,1.18,1.57,1.57,0,0,0,0-.3s.18,1,.22,1.43c.07,0,.14,0,.16,0A6.35,6.35,0,0,1,40,42.81a3.65,3.65,0,0,1,1.23-1.24,2.18,2.18,0,0,1,1-.4c.57,0,1,.36,1.66.36,1.63,0,3.11-1.2,4.2-1.57a5.44,5.44,0,0,0,2-.91,5,5,0,0,0,1-1.3c.51-.87,1-1.63,1.57-1.73a3,3,0,0,1-.73.06,4.35,4.35,0,0,1,.44-.39,1.68,1.68,0,0,1,1.07-.49c.84,0,1.26.12,1.73.12A2.29,2.29,0,0,0,56,35.2a2.91,2.91,0,0,0,1.6.35c1.11,0,1.86.11,2.44.16s2.53-.16,3.09-.15a2.76,2.76,0,0,1,1.06.26l-1.81-5.24-6.48-5.66L52,27.65l-5.93,5.93-5.74,2.13-1.2,1.35v2Z" style="fill:#ccb360;fill-rule:evenodd"/><path d="M52,36.11a4.87,4.87,0,0,1,.43-.39,1.68,1.68,0,0,1,1.07-.49c.84,0,1.26.12,1.74.12a2.26,2.26,0,0,0,.74-.12,3,3,0,0,0,1.6.34c1.12,0,1.86.12,2.44.17s2.53-.17,3.09-.15a2.59,2.59,0,0,1,1.06.26l-.82-2.36-.95-1.81-2.71-3-3.28-1.92s-1.12-.31-1.12-.31l-3,1.78-2.67,6.91,0,1.46,1.73.81c.43-.72.91-1.31,1.36-1.38-.41,0-.71,0-.71,0h0Z" style="fill:#d5b457;fill-rule:evenodd"/><path d="M52,36.6c-.26,0-.47,0-.53-.22-.22-.62-.4-.71-.58-.71s-.44.4-.59.44-.32-.46-.32-.46l-.16-.07a9.58,9.58,0,0,0-1.62,1.34,13.56,13.56,0,0,1-2.26,2.19,25.54,25.54,0,0,1-2.77.42,3.44,3.44,0,0,0-1.31.64c-.09.1.26.2.31.29s-.57.06-.62.15a2.77,2.77,0,0,0,.24.71,1.14,1.14,0,0,1,.51-.13c.56,0,1,.36,1.65.36,1.64,0,3.12-1.2,4.21-1.57a5.6,5.6,0,0,0,2-.91,5.48,5.48,0,0,0,1-1.3A10.22,10.22,0,0,1,52,36.6Z" style="fill:#d2b257;fill-rule:evenodd"/><path d="M28.54,73a6.24,6.24,0,0,0-1.5-2c-.38-.39-.62-.72-.87-1A11.26,11.26,0,0,0,24.69,69c-1-.74-2.09-.74-2.93-1.66a15.47,15.47,0,0,1-2.49-4.44c-.67-1.78-.86-2.35-.86-2.4s.19-.4.42-.34.24.5.3.61a2.91,2.91,0,0,0,.4.51,5.15,5.15,0,0,1,1.09,1.59,8,8,0,0,0-.26-1.28s1.29.82,2.4,1.67,1.57,1.15,1.89,1.7a25,25,0,0,0,1.46,2.4c.36.42,5.38,2,5.38,2l2.39,1.78,1.19,2.6-.93,1.45-1.78.39-2.9-1.3L28.54,73Z" style="fill:#d2b159;fill-rule:evenodd"/><path d="M22.11,64.08A6.62,6.62,0,0,0,24.19,66a20.11,20.11,0,0,0,5.29,2,15.65,15.65,0,0,0,3.11.47c2.6,0,4.39-.71,6.61-1a32.7,32.7,0,0,0,4.2-.58,22.21,22.21,0,0,0,4.71-1.75c1.15-.53,2.21-.93,3.06-1.44A13.51,13.51,0,0,1,54.26,62,2.61,2.61,0,0,1,53,63.56l1.26-.05s-.7.42-1.95,1.36c-.77.58-1.78,1.57-2.82,2.22-.67.42-1.4.73-1.88,1a8.61,8.61,0,0,0-2.4,1.75c.28,0,.3,0,.3,0a5.61,5.61,0,0,0-1.66.49,2.33,2.33,0,0,0-.84.07c-.34.12-.8.37-1.27.5a1.58,1.58,0,0,1-.89.11l.11.22s-.88,0-1.17,0c.05,0,0,0,0,0l-.15,0a1.51,1.51,0,0,1-.45.2l-.27,0c0,.09.32.58.45.87l-1.77,1.33a.85.85,0,0,1,.13.25,3.75,3.75,0,0,0,.13.51.71.71,0,0,0,.19.26l-.54.13c-.3.07-.66.19-1.17.27a3.59,3.59,0,0,1-.47,0,1.28,1.28,0,0,1-.2,1.5c-.59.71-.78.82-1,1.27a1.49,1.49,0,0,0-.3-.18,1.23,1.23,0,0,1-.56-.4,5.05,5.05,0,0,1-.22.69,8.12,8.12,0,0,0-.51,1.35c-.2-.22-.57-.66-1.08-.57s-.91.78-1,1c0-.12-.09-.22-.11-.07A5.54,5.54,0,0,1,29.12,83c0-.34,0-1.11-.05-1.36a3.65,3.65,0,0,1-1.39.82c-1,.46-.87.91-.87.91a2.26,2.26,0,0,1,.47-1.49c.57-.77.91-1.13.91-1.19a.33.33,0,0,0-.07-.16c-.08-.07-.22-.16-.22-.22A1.49,1.49,0,0,0,28.81,79a2.32,2.32,0,0,0-.62-1.47s.35-.31.3-.4-.51-.39-.57-.58A1.65,1.65,0,0,1,28,76.2a.88.88,0,0,0,.08-.39,3.13,3.13,0,0,0-.3-.74,2.92,2.92,0,0,0,.42,0,3.6,3.6,0,0,1-.34-.69c-.06-.22-.17-.8-.22-.91a1.48,1.48,0,0,0,.43,0c0-.11-.27-.3-.15-.44a.73.73,0,0,1,.42.29,1.61,1.61,0,0,0-.54-.87,1.32,1.32,0,0,1,1.07.07,1.46,1.46,0,0,1,.59.62s.25.2.65.49a7.14,7.14,0,0,0,2,1.24,2.06,2.06,0,0,0,1.07,0,1.54,1.54,0,0,0,.46-.19l.16-.07a4.25,4.25,0,0,0-.27-.46l.27,0s.09-.2-.31-.58c.09-.09.2-.15.2-.3a.89.89,0,0,1-.4-.27c.08,0,.19-.22.31-.27-.11-.09-.38-.46-.51-.5a2.21,2.21,0,0,0,.35-.16,4.34,4.34,0,0,1-.82-.29,5,5,0,0,0-.67-.48c-.18-.07-.51-.11-.64-.25a2.46,2.46,0,0,0,.47,0h.2c0-.05,0-.16.27-.2a1.33,1.33,0,0,0,.4-.12,1.06,1.06,0,0,1-.58-.31,2.32,2.32,0,0,0-.74-.57c-.19,0-.53.13-.75.11a.66.66,0,0,1-.42-.18s-1,.09-3.15-1.24a11,11,0,0,1-2.69-2.16,4,4,0,0,1-.51-.24c-.71-.37-1.69-1.13-1.66-2.13Z" style="fill:#c2a44d;fill-rule:evenodd"/><path d="M49.2,19.89a.94.94,0,0,1,.43.3,1.35,1.35,0,0,1-.22,1.95,1.32,1.32,0,0,0,.71.11,3.49,3.49,0,0,0-.93,1.62.62.62,0,0,0,.27.64A2.43,2.43,0,0,0,49,26a5.36,5.36,0,0,1,.73-.7A19.28,19.28,0,0,1,51.5,24a1.2,1.2,0,0,0,0,.38s1-.78,1.75-.43c.36.16.2.67.2.67a.83.83,0,0,1,.84.16,18.66,18.66,0,0,1,1.09,1.58c.11.16.39.47.69,1a12.72,12.72,0,0,1,1,2.11c0-.38.11-1,1.2-.6a6.68,6.68,0,0,1,3.36,2.77c1,1.58,1.3,3.36,1.82,4a5.73,5.73,0,0,1,1.11,2.2,19.49,19.49,0,0,0,.93,5.92c.31-1.24.78-4,.78-4l.26-2.42.29-7.5-7.82-6.5-6.12-4.44-4,.39.25.56Z" style="fill:#caa13e;fill-rule:evenodd"/><path d="M63.74,31.05s-.11-.73-2-2-3.28-1.22-4.61-2.26c-1-.82-2.07-2.69-2.76-3.31a4.51,4.51,0,0,1-.78-2.38l2.26-1.89,3.36-4.86,2.84-3.13,1.36,1.89,1.9,2.23,1,4.46.38,6.53-3.06,4.69Z" style="fill:#b59544;fill-rule:evenodd"/><path d="M66,38.88A8,8,0,0,0,65.65,36a51.53,51.53,0,0,0-2-5.2c-.2-1.11,0-1.2.16-1.32a3.27,3.27,0,0,0,1.46-2.19A2.09,2.09,0,0,1,67,25.58l.84-.61,1.28,3.18L70.26,31l.35,2.2.25,1.88-.6,4-3,2.69L66,38.88Z" style="fill:#c89d3a;fill-rule:evenodd"/><path d="M24.41,83.11V83a.75.75,0,0,0,.16-.15,1.36,1.36,0,0,1,.12-.18,1.31,1.31,0,0,1,.61-.11,5.3,5.3,0,0,0,.93.22,6,6,0,0,1,2.12-.24c1.48.27,1.82,1.28,2.68,1.84a1.67,1.67,0,0,0,1.27.22h.2s.31-.31.45-.29c.3,0,.33.26.51.27a16.52,16.52,0,0,1,1.7-.11.82.82,0,0,1,.53.53.85.85,0,0,1-.2.82,3.22,3.22,0,0,0-1,1.16c.11.09.22.18.32.28a43,43,0,0,1-10.42-4.18Z" style="fill:#ceb052;fill-rule:evenodd"/><path d="M63.61,68.4a25.48,25.48,0,0,0,1.55-2.29c.4-.78-1.26-10.68-1.26-10.68l3.33-10.91L67.14,41a32.74,32.74,0,0,1,.54-4.69c.46.81,1.88,1.8,2.19,2.32a26.9,26.9,0,0,0,.57-5.37,40.54,40.54,0,0,1,.92,4.64L72,40.71l.85,3,.95,3.19.57,2.2.32.53.28.93.25,1L76,53.93l.43,1.93.35,3.5a4.47,4.47,0,0,1,.16.81,2.94,2.94,0,0,1-.05.67A8,8,0,0,1,77,62.27a2,2,0,0,1-.54,1.45c-.45.42-.74,2.92-.74,2.92l-.82-.55a2.16,2.16,0,0,0-.22-1.42A1.43,1.43,0,0,0,73.1,64a4.58,4.58,0,0,0-1.53.46,8.52,8.52,0,0,1-1.48,1.3,8.75,8.75,0,0,1-2.54.61,7.18,7.18,0,0,0-2.1,1.09,11.17,11.17,0,0,1-1.84,1Z" style="fill:#cca847;fill-rule:evenodd"/><path d="M63.61,84.48l.14.09A43.35,43.35,0,0,0,77.54,74.35c0-1.49-.1-3-.16-3.58-.12-1.2,0-2.42-.07-3.13s-.44-3.59-.62-4.33a1.89,1.89,0,0,0-.64-1.11A8.91,8.91,0,0,0,75.69,64c0,.34-.08,1.18-.08,1.39,0,0-.07-.14-.07-.19a5.21,5.21,0,0,1-.2.54s0-.31,0-.38-.14,0-.12-.22a1.26,1.26,0,0,1,0-.33,3.57,3.57,0,0,0-.39,1.15c-.16.82-.16.84-.22.91s-.34.39-.36.5.28.4.3.51-.26,1-.35,1.45,0,1.24-.14,1.66-.15.6-.4.76l.36.09a2.71,2.71,0,0,1-.4,2,8.61,8.61,0,0,1-.54.76,3.42,3.42,0,0,0-.92,1.57c0-.12,0-.24,0-.36s-.76.89-1.09,1.4-1,.62-1.16.78a.77.77,0,0,0-.15.69c-.14,0-.42.09-.6.66a1.4,1.4,0,0,1-.66.78,3.27,3.27,0,0,1-1,.31,1.1,1.1,0,0,1,.35.11,6,6,0,0,1-1.19.84,2.49,2.49,0,0,0-1,1.18.85.85,0,0,1-.7.55c.14.09.36.29.47.36a1.68,1.68,0,0,0-.93.46c-.51.42-.69.55-.93.58Z" style="fill:#c39d3c;fill-rule:evenodd"/><path d="M53.37,87.9a4.19,4.19,0,0,1,.91-.49,20.31,20.31,0,0,1,2.84-.69,11.2,11.2,0,0,1,1.38-.45c0,.13,0,.25,0,.36a42.22,42.22,0,0,1-5.1,1.27Z" style="fill:#d2ba6b;fill-rule:evenodd"/><path d="M74.55,57.69a9.12,9.12,0,0,1-.66,2.08c-.42.8-.87,1.91-.87,1.91a3.06,3.06,0,0,1,.09-.74,21.84,21.84,0,0,0-2.19,1.38,7.23,7.23,0,0,0-1.07,1.12,23.89,23.89,0,0,0,.76-2.35,46.74,46.74,0,0,0-4.29,3.77l-4,3.24a12.41,12.41,0,0,1-1.43.67c-.69.3-1.51.55-2.11.78a3.28,3.28,0,0,1,.78-1.18,8.84,8.84,0,0,0,1.71-2.19,2,2,0,0,0,0-1.47c-.2.05-.65.07-1,.16a1.89,1.89,0,0,0-.64.42,14.62,14.62,0,0,1,.74-2.62c-.38,0-1,.13-1,.13a9.15,9.15,0,0,1,2.48-2.6,7.56,7.56,0,0,0-1.4.43c-.91.38-1.92.95-2.66,1.26a59.29,59.29,0,0,0,5.12-8.7c1.74-3.91,2.4-4.91,2.78-7a31.13,31.13,0,0,0,.2-4,26.71,26.71,0,0,0,.11-3.4,8.1,8.1,0,0,1,2.22,5.74,22,22,0,0,1-3.42,11c.44.12,1.57.27,2.73-1.75a24.25,24.25,0,0,0,1.57-3.42,3.6,3.6,0,0,1,0,.56,15.39,15.39,0,0,0,2.49-4.63,6.41,6.41,0,0,1-.11,4.13A4.1,4.1,0,0,1,70,52.74,3.66,3.66,0,0,0,71,52.28c.11.27.09.58.27.69s.44.3.47.47a5.4,5.4,0,0,0,.61-.95,19.77,19.77,0,0,0,.14,4.43,1.5,1.5,0,0,0,1.55-1.11A4.62,4.62,0,0,0,74,58.27a3.16,3.16,0,0,0,.58-.58Z" style="fill:#c0993a;fill-rule:evenodd"/><path d="M55.42,17.11a4.28,4.28,0,0,1-1.53.24c-.84,0-.61-.33-1.92-.33-2,0-9.06,1.17-10.3,1.15a25.63,25.63,0,0,0,2.71.35l9,.12,1.8-.14.67-1.37Z" style="fill:#a88f33;fill-rule:evenodd"/><path d="M32.14,34.66a10.34,10.34,0,0,0-1.63,1.54,11.5,11.5,0,0,1-1.3,1.66,1.31,1.31,0,0,0,.39,0s0,.14-.09.18a.51.51,0,0,1,.42.15.74.74,0,0,0-.26,1,1.11,1.11,0,0,0,.8.43s-.12.36.4.33c1.13-.05,2.39-.55,3-.42a1.61,1.61,0,0,1,1.32.91c.44.71.82.82.82.82a4.17,4.17,0,0,0,.2-1.64A4.87,4.87,0,0,0,36.53,38l-.39-2.82L34.47,33l-2.16,1.2-.17.42Z" style="fill:#e3c571;fill-rule:evenodd"/><path d="M34.2,34.24s.16.38.84.41c-.08.17-.08.19,0,.31s0,.31,0,.31a.48.48,0,0,0,.2-.14c0,.16,0,.42,0,.6a1.21,1.21,0,0,0,.11.32.43.43,0,0,0,0-.07,2.61,2.61,0,0,0,.51.73.4.4,0,0,1,0-.15.54.54,0,0,0,.09.26.18.18,0,0,1-.07,0,8.93,8.93,0,0,0,.23,1.77.38.38,0,0,0,.09-.13s0,.33,0,.58a2.53,2.53,0,0,0,0,.62,1.86,1.86,0,0,1,.43-.25,1.6,1.6,0,0,0,.8-1,6.3,6.3,0,0,0,.3-1,1.28,1.28,0,0,1,.14.43c0,.19.36.09.36.09l.08-.8.43-1.82.4-1.12,1.92-3,3.46-2.66,3,.69,2.55-3.46-4.39-2.63-4.15.43-3.77,5.22-3,4.73-.54.78h0Z" style="fill:#d8b65b;fill-rule:evenodd"/><path d="M56,26.68a4.56,4.56,0,0,0-1,.44c-.75.38-1.26.51-1.55,1.07a2.76,2.76,0,0,0-.31,1,8.42,8.42,0,0,1,.8-.3c.31-.07.66-.05.62.08a.79.79,0,0,1-.14.23s.58,0,.56.28a1.47,1.47,0,0,1-.22.74c-.11.15-.56.36-.62.53-.12.35.06.36,0,.64A4.39,4.39,0,0,1,53,33.14a9.53,9.53,0,0,0-1.17,1.58,10.73,10.73,0,0,1-.6-1.38l-.93.51-1.81-6.31,0-.42a1.17,1.17,0,0,0,.2-.57c-.27-.09-.31-.16-.67-.51A4.68,4.68,0,0,0,46.79,25a.81.81,0,0,0-.64-.47l-.71-.16a.79.79,0,0,0,.35-.27,5.32,5.32,0,0,1-1.09.11,4.39,4.39,0,0,0-1,0c-.33.05-.73.2-.88-.31-.16-.12-.51,0-.8.42s-.4.78-1,.95a2,2,0,0,1-.25.71,9.48,9.48,0,0,1-.77.95c-.54.64-.46,1.69-1.33,2.49s.15-2.22.15-2.22l1.4-3.35,4-3.89,6.19-.42.6,3.2,3,1L56,26.69h0Z" style="fill:#d3ae4d;fill-rule:evenodd"/><path d="M56.93,27.39l-2.6-3.75-1.82-1.4s-1.3-2.38-1.38-2.46a17.81,17.81,0,0,0-2.08-.23l.14.36a1,1,0,0,1,.44.29,1.35,1.35,0,0,1-.22,1.95,1.23,1.23,0,0,0,.71.11,3.45,3.45,0,0,0-.93,1.62.6.6,0,0,0,.27.64A2.47,2.47,0,0,0,49,26a5.32,5.32,0,0,1,.73-.69,17.68,17.68,0,0,1,1.8-1.24,1,1,0,0,0,0,.38s1-.78,1.75-.43c.36.16.2.67.2.67a.86.86,0,0,1,.84.16,16.69,16.69,0,0,1,1.09,1.59c.11.16.39.47.69.94a11.73,11.73,0,0,1,1,2.12c0-.3.07-.71.58-.71l-.77-1.38Z" style="fill:#caa13e;fill-rule:evenodd"/><path d="M18,38a2.56,2.56,0,0,1,0-1.34,12.7,12.7,0,0,0,.57-2.62,9.52,9.52,0,0,1,.95-2.95l2.36-1.07,1.68.45L24,32.74,21.9,33.91a1.63,1.63,0,0,1-.71.89c-.6.39-1.42.7-1.62,1.11a3.11,3.11,0,0,0-.26.78,1.09,1.09,0,0,0-1,.27A1.43,1.43,0,0,0,18,38Z" style="fill:#f4efc8;fill-rule:evenodd"/><path d="M22.74,37.44a1,1,0,0,0-.35.43A8.82,8.82,0,0,1,21.88,35c0-1.26-.09-1.57.2-2s1.44-.89,1.27-1.68a1.23,1.23,0,0,0-1.67-.84c-.58.15-1,1.39-1.62,2-.45.47-1,.39-1.15.65s0,.69-.07.92a4.35,4.35,0,0,1-.53,1c-.67,1-1.8,2.32-1.95,3.54a5.74,5.74,0,0,1,.2-1.47l-.11-.18.73-2.39.47-2,1.05-3.29,1.85-3.37,1.81-2,1.88.13.22,2.82,1.07,5.29,2.26,2.79-3.62,2.43-1.44.13h0Z" style="fill:#ebcc73;fill-rule:evenodd"/><path d="M23.86,38.44a.92.92,0,0,1-.42,0c-.11-.06-.22-.12-.18-.2s.23-.19.23-.25a.2.2,0,0,0-.18-.22.19.19,0,0,0-.22.08.82.82,0,0,0-.3-.14l.24,0a2.34,2.34,0,0,0-.64-.18c.18-.11.54-.43.78-.43s.38,0,.35-.17a.76.76,0,0,0-.42-.38c.07-.09.12-.22-.05-.58a.69.69,0,0,1-.06-.69c.06-.11.24-.31.33-.44a1.24,1.24,0,0,1,.31-.38,3.93,3.93,0,0,1,.54-.24c.26-.08.47-.19.62-.08a.2.2,0,0,1,.09.25,1.35,1.35,0,0,1,1,0,7,7,0,0,0,1.57.37l.4.8-2.64,2.26-1.09.54-.22,0Z" style="fill:#e5c66b;fill-rule:evenodd"/><path d="M27.52,34.74a9.77,9.77,0,0,0-1,.75c.11,0,.29.09.22.2a10.8,10.8,0,0,0-.91.85,5.5,5.5,0,0,0-.71,1,3.64,3.64,0,0,1-1.24.85c.61,0,1.82-.74,2.28-.74a.44.44,0,0,0,.38.49,2.89,2.89,0,0,0,2-.45c1-.61.67-1.06,1.09-1.35.81-.53,1.13-1,1.57-1.3a3,3,0,0,1,.67-.36s0-.22.15-.2a.21.21,0,0,1,.16.13A4.44,4.44,0,0,1,33.93,34s0,0,0-.06.07,0,.08-.07.06-.07.09,0,.09.31.16.42c.17-.07.48-.76.48-.76l.74-2.13V29.38l-.58.11-4.37,1.85-2.65,2.75-.31.65Z" style="fill:#e6bd62;fill-rule:evenodd"/><path d="M40.1,25.21a2.77,2.77,0,0,0,.67-.27,3.17,3.17,0,0,1-.47,1,8.4,8.4,0,0,0-.71,1.22c-.31.61-.35,1.47-.64,1.86a1.21,1.21,0,0,1,.42-.13,1.88,1.88,0,0,0-.42.53,2.62,2.62,0,0,1-.89,1.19,6.74,6.74,0,0,0-2,1.38c-.75.8-1.51,1.82-1.89,2.19a5.67,5.67,0,0,0,.54-1.5c.07-.45,0-1,.11-1.6A5.33,5.33,0,0,1,35.57,29a36.42,36.42,0,0,0,1.63-4.72l2.23-.7.67,1.59Z" style="fill:#b6933f;fill-rule:evenodd"/><path d="M38.49,23.86a6.2,6.2,0,0,0-.85,1.82c-.19.85,0,.78-.13,1.2a1.71,1.71,0,0,0,0,.78,2.7,2.7,0,0,1,.93-.91,7.45,7.45,0,0,0,1.45-1,5.44,5.44,0,0,1,1.24-1.35c-.27,0-.65-.16-.73-.14a17.09,17.09,0,0,1,1.92-1.35,7.22,7.22,0,0,1,2.09-1.4c-.44.07-.64,0-1,0,.14-.31.65-.46,1.16-1s-.32-1.26-.32-1.26l-3.88,2.35-1.88,2.2Z" style="fill:#c49937;fill-rule:evenodd"/><polygon points="27.95 22.11 28.04 21.4 29.16 19.62 30.32 16.49 30.32 12.21 30.23 9.74 30.41 8.12 30.55 7.61 30.7 7.41 31.65 7.9 32.96 9.68 33.09 13.12 31.81 18.55 28.18 22.52 27.95 22.11" style="fill:#dfc068;fill-rule:evenodd"/><path d="M30.85,7.21s-.58,0-.71,2.44-.18,3.69-.27,4.89a25.06,25.06,0,0,1-.4,2.64A7.23,7.23,0,0,1,29,19.44a5.29,5.29,0,0,1-1.19,1.76,7.3,7.3,0,0,1-2.22,1.24,11.36,11.36,0,0,0-2.64.61,4,4,0,0,0-1.09.69,14,14,0,0,0-2.93,4c-1.31,2.58-2.62,9.88-2.62,9.88l.3-.5a4.55,4.55,0,0,1,.69-1.8c.64-1.15.46-2.44,1.35-4.64a24.38,24.38,0,0,1,1.31-2.86,10.55,10.55,0,0,1,2.88-3.51,9.07,9.07,0,0,1,3.51-1.4l2-1.31s.35-.67.8-1.43a9.38,9.38,0,0,0,1.64-4c.27-2.59-.39-4.28-.35-5.81s.05-2.66.36-2.93.09-.17.09-.17Z" style="fill:#a88f33;fill-rule:evenodd"/><path d="M30.85,18.77a28.3,28.3,0,0,0,1.27-4.06c.08-.38.22-.77.26-1.07a9.73,9.73,0,0,0,0-3.54,6.19,6.19,0,0,0-1.26-1.89c-.36-.53-.53-.73-.46-.84a.82.82,0,0,1,.64-.27,2.17,2.17,0,0,1,1.57.72,9.49,9.49,0,0,1,1,2.88l.47,2.94,1.2,3.69-4.71,1.44Z" style="fill:#c99e3d;fill-rule:evenodd"/><path d="M39.06,16.53a.79.79,0,0,1-.46,0,.67.67,0,0,1-.29.62,24.21,24.21,0,0,0-3.21.12,2.45,2.45,0,0,1-1.76-2c-.3-1.18.22-2.81,0-3.89A24.18,24.18,0,0,0,32.73,9c0-.49-.07-.61-.07-.92A1.58,1.58,0,0,0,32.24,8c0-.15,0-.27-.13-.53a2.92,2.92,0,0,1,1.4.78,2.35,2.35,0,0,1,.67.85,7.08,7.08,0,0,1,1.39,1.64c.38.76,1.12,3.19,1.29,3.58a2.68,2.68,0,0,0,.44.69c.43.54,1.05,1.41,1.76,1.56Z" style="fill:#b58634;fill-rule:evenodd"/><path d="M34.29,9.1a22.89,22.89,0,0,1,1.2,2.24,10.28,10.28,0,0,0,1.23,2.44c-.29-.86-.81-2.54-1.12-3.13A7.41,7.41,0,0,0,34.29,9.1Z" style="fill:#a88f33;fill-rule:evenodd"/><path d="M29.28,21.2a11.26,11.26,0,0,0-2.13.92c-.45.23-.89.43-1.31.62a24.33,24.33,0,0,1-3.19,1.2l.11.12a.94.94,0,0,0,.2.57c-.11.11-1.58,1.11-1.14,4.46.29-.11.64-.26.69-.26s.11.26.22.26a1.49,1.49,0,0,0,.85-.64,5,5,0,0,0,1,3.55c.22-.26.78-1.11.78-1.11l0-.28a7.36,7.36,0,0,1,.36-1.82,5,5,0,0,1,.91-1.51l3.15-4.49-.47-1.59Z" style="fill:#e6c367;fill-rule:evenodd"/><path d="M26.34,27.81a1.77,1.77,0,0,1-.48.23,1.84,1.84,0,0,1,.31-1.43,18.7,18.7,0,0,0,1.93-2.48A5.36,5.36,0,0,1,30,20.82c1.77-1.58,2.46-2.13,2.46-2.13l2.86-1.43,3.51,1.38-1.75,6.84-1.35,3.2-5.39-1-4,.14Z" style="fill:#dcba5a;fill-rule:evenodd"/><path d="M28.39,26l.67-.84v-.59a3.79,3.79,0,0,0,1.55-1c.8-.82,1.91-2.38,2.89-2.29s1.08,2.13,1.11,2.7A16.83,16.83,0,0,0,35,26.45c.22.7-2.38,3.32-2.38,3.32l-1.77,1.34L28.39,26Z" style="fill:#e9ce77;fill-rule:evenodd"/><path d="M30.47,32.94s.54-.85.14-1a6.63,6.63,0,0,1,.67-1.09,5.61,5.61,0,0,1,1.31-1.71c1-.94,1.62-1.56,1.78-2.2a5.88,5.88,0,0,0,.17-1.26,2.08,2.08,0,0,0,.34.24,2.06,2.06,0,0,1,.82,2,3.26,3.26,0,0,1-.58,1.8,9.59,9.59,0,0,1-.78.7c-.35.23-.47.5-1.06.53a.82.82,0,0,1,.2-.12,1.35,1.35,0,0,0-.93.23c-.32.29-1,1.2-1.35,1.47l-.73.47Z" style="fill:#cdae50;fill-rule:evenodd"/><path d="M55,18.62a8.69,8.69,0,0,0-2.71-.53c-1.55-.05-3.81,0-6,.05-2.38,0-4.55-.82-7.55-1-.49-.3-1.75-1.59-5.66,1.14.23,0,2.84-.6,3.75.54a4.57,4.57,0,0,1,.53,3.49c-.24,1-1,2.5-1.31,3.54s-.24,1.58-.46,2.31-.71,1.09-.42,1.93c.38-.24.58-.24,1.22-1.67s.51-2.46,1.57-3.68a24.5,24.5,0,0,1,3.42-3.31,12.78,12.78,0,0,1,11.34-.55C54,20.78,55,18.62,55,18.62Z" style="fill:#d2a83e;fill-rule:evenodd"/><path d="M35.2,17.62a.75.75,0,0,0,0-.16,1,1,0,0,0-.2-.3A9.69,9.69,0,0,0,33,17c-1.15.12-2.18,1.55-2.67,2.27a13.81,13.81,0,0,1-1.74,2.44.29.29,0,0,0,0-.16s0,.05,0,.12-.07.11,0,.15l.11.11A9.18,9.18,0,0,0,31,20.18a12.34,12.34,0,0,1,3.19-2.27,4.24,4.24,0,0,1,1-.29Z" style="fill:#c29637;fill-rule:evenodd"/><path d="M60.34,12.08s-.24.3-.53.62c-.66.69-1.51,1.47-2.24,2.27s-1.48,1.37-2.35,2.37-1.89,2.11-2.15,2.44a2.33,2.33,0,0,0-.42,1.12l-.27-.18a1.66,1.66,0,0,0,.22.32c.18.26.47.58.62.78a2.37,2.37,0,0,1,.38.84c.09,0,.65.13,1.36-1s1.63-2.43,1.63-2.43L58.07,17,59,15.14l1.16-2.07.18-1Z" style="fill:#ac8132;fill-rule:evenodd"/><path d="M61.85,10.59a10.54,10.54,0,0,0-1.24,1.17c-.35.44-1.17,1.58-1.17,1.58l.3,0L61.23,12l.58-1,0-.34Z" style="fill:#a88f33;fill-rule:evenodd"/><path d="M61.57,69.1a1.54,1.54,0,0,1,.33-1A7,7,0,0,0,64,65.26a17.73,17.73,0,0,0,1-2.44,10.73,10.73,0,0,1-2.47,1.62c.22-.45.34-.78.45-1-.12-.11-.65-.24-.7-.3.29-.29.45-1,1-1.49.77-.58,2.16-1.58,3.25-2.48A21.18,21.18,0,0,0,70,55.59a1.55,1.55,0,0,1,.2.38s-1.08,1.4-1.64,2.29a2.17,2.17,0,0,0-.45,1.2l1-.43s.3,1.09-1,2.74c.59-.22.82-.08,1.15-.27a5.24,5.24,0,0,0-2,2.12A9.07,9.07,0,0,1,64,67.36a27.51,27.51,0,0,0-2.44,1.74Z" style="fill:#a67a2e;fill-rule:evenodd"/><path d="M57.58,19.39a8.11,8.11,0,0,0-.69,2.23c0,.24-.07.42-.07.7a8.56,8.56,0,0,1-.15,2.31,1.3,1.3,0,0,0-.18-.39c-.11.31-.31,1.28-.48,1.64a8.11,8.11,0,0,1-.22-2c0-1,0-1.15,0-1.35a5.33,5.33,0,0,1-.31.93c-.11-.2-.23-.45-.38-.67a3.46,3.46,0,0,1-.3.47c0-.08-.05-.32-.07-.65a8.23,8.23,0,0,1,0-1,4.23,4.23,0,0,1,1-1.69,14.51,14.51,0,0,0,1.82-3c.23-.51,1.23-2.62,1.23-2.62h.77l-1.11,2.53s-.67,1.39-1,1.9-1.07,2-1.4,2.53c.24-.31.44-.47.67-.77a11.05,11.05,0,0,0,.86-1.09Z" style="fill:#8c6228;fill-rule:evenodd"/><path d="M61.86,10.5a3.28,3.28,0,0,1-.58,1.05c-.46.55-1.44,1.28-1.92,1.86a5,5,0,0,0-.91,3.94,6.76,6.76,0,0,1,1.15-2.07,15.81,15.81,0,0,0,1.89-2.71,4.84,4.84,0,0,0,.44-1.44l.14-.18L62,10.53l-.12,0Z" style="fill:#cba94c;fill-rule:evenodd"/><path d="M76.77,59.33a7.44,7.44,0,0,1-.38-1.53c-.09-.73.14-.87-.13-1.71-.16-.5-.46-.43-.53-.5a4.67,4.67,0,0,1-.11-1.26,4.6,4.6,0,0,0-.09-1.2c-.11-.09-.18-.16-.34-.71a8.3,8.3,0,0,0-.37-1c-.08-.16-.34-.31-.34-.47,0-.32.29-.49.29-.58s-.23,0-.29-.09.18-.62.09-.69-.3.27-.36.18-.17-1-.3-1.54-.26-1-.27-1.15-1-3-1.26-3.71a16.21,16.21,0,0,1-.49-1.78,8.66,8.66,0,0,0-.17-1c0,.07,0,.43-.07.42s-.23-1.28-.29-1.48a11,11,0,0,1-.44-1.36c-.07-.49-.24-1.78-.35-2.66s-.16-1.23-.16-1.45a8.65,8.65,0,0,0-.09-1.61,14.23,14.23,0,0,0-.69-2.71c-.49-1.23-1.8-4.4-2-5.19,0-.2.26-.09.26-.09s.64,1.61,1.11,2.85a20,20,0,0,0,1,2.43,9.17,9.17,0,0,1,1.09,3.32c.31,2,.42,3.82.61,5A14.09,14.09,0,0,0,72,40c.2.67.51,1.36.92,2.42a16.38,16.38,0,0,1,.74,2.28c.16.81.16,1.43.26,1.84s.22,1,.53,2,.76,2.29,1.07,3.1a16.64,16.64,0,0,1,1,3.66,36.06,36.06,0,0,1,.28,4Z" style="fill:#a88f33;fill-rule:evenodd"/><path d="M61.9,10.41l0,.09a.16.16,0,0,1,.09.18,4.08,4.08,0,0,1,0,.61c0,.25-.11.45-.12.62a3.11,3.11,0,0,1-.44,1.73,5.85,5.85,0,0,0-.31.67,2.12,2.12,0,0,1-.38.64c.26-.15,1.18-.73,1.65-.64a3.43,3.43,0,0,0-1.12,1,2.22,2.22,0,0,0,.87,0A12.44,12.44,0,0,1,64.59,15c.88,0,.53-1.05.53-1.05l-1-2.23L62.2,10.34l-.3.07Z" style="fill:#be9c44;fill-rule:evenodd"/><path d="M66.89,27.06s-.86-.85-1.2-3.78A66.8,66.8,0,0,1,65.42,16l-.7-1.69a4,4,0,0,0-.5-1.55c-.37-.42-1.08-1.13-1.4-1.47s-.7-.82-.92-.89a2.52,2.52,0,0,1,2.5-1.24,2.66,2.66,0,0,1,2.67,1.42,13.82,13.82,0,0,1,1.42,5.19,25.65,25.65,0,0,1,.28,4.48,25.88,25.88,0,0,1-.59,3.5,8.11,8.11,0,0,1-1.29,3.32Z" style="fill:#a17c34;fill-rule:evenodd"/><path d="M64.21,29.58a1.48,1.48,0,0,0,.82-.19,2.28,2.28,0,0,0,2-.85,1.65,1.65,0,0,1-.16,1.34,3.1,3.1,0,0,1,.5-.3c0,.27.27,1.11-.82,3.15a1.27,1.27,0,0,1,1-.35,3.74,3.74,0,0,1-.33,2.36,1,1,0,0,1-1,.33,1.6,1.6,0,0,0,0-.31,1.67,1.67,0,0,1,0-.53,2.58,2.58,0,0,1-.77-.53,4.84,4.84,0,0,1-1.53-2.4,1,1,0,0,1,.69-1,.78.78,0,0,1-.16-.2,1.12,1.12,0,0,0-.22-.48Z" style="fill:#8c6228;fill-rule:evenodd"/><path d="M58.53,20.31s0,0-.23.19c0-.24.07-.46.08-.67a2.53,2.53,0,0,1,.37-.55,3.17,3.17,0,0,0-.19.42,2.92,2.92,0,0,1,.67-.82c.27-.22.62-.32.77-.53a1.54,1.54,0,0,0,.16-.29,4.72,4.72,0,0,0,.91-.93c.08-.09.19-.18.26-.27s.42-.18.76-.36.77-.47,1-.58c.49-.22,1-.2,1.26-.55.18,0,.38-.6.35-1.07a4.47,4.47,0,0,1,2.15,2.87c.34,1.35-.28,3.43-.53,4.43a6.8,6.8,0,0,1-.66,2.2c-.46.61-1.93,1.46-2.29,1.88s-1.24,1.22-1.2,1.85c0,.48.62.73.74.82s.13.2.37.15.32-.17.42-.17.11,0,.16,0H64s0,.67-1.61.87L62,29.3a.78.78,0,0,0,.49-.36c-.22,0-.85-.07-1-.12a1.88,1.88,0,0,1,.36-.44c.12-.11,0-.14-.13-.08a4.26,4.26,0,0,0-.54.41,4.78,4.78,0,0,1-.64.59A1.41,1.41,0,0,1,60.82,28c-.09,0-.26.27-.42.22a2.38,2.38,0,0,1,.05-.8,3.62,3.62,0,0,1,.57-.92l2.31-4.13.49-3.13-5.29,1Z" style="fill:#92723a;fill-rule:evenodd"/><path d="M58.41,20.49s-.13.09.12.26a3.69,3.69,0,0,1-.23.36c-.13.14-.26.23-.31.36a2.06,2.06,0,0,0-.2.54,2.72,2.72,0,0,1-.35,1.28,5.15,5.15,0,0,0-.32.62,4.64,4.64,0,0,0-.39.72,8.13,8.13,0,0,0-.12,1l.22-.27a2.2,2.2,0,0,1-.32.53c.09-.08.34-.26.78-.64a18.32,18.32,0,0,1,2.69-2,4.4,4.4,0,0,1-.87.16c.18-.18,1.84-2.13,2.71-2.31a.4.4,0,0,0,.07-.24l-.74-.07L59.64,21l-.22-1.16-1,.61Z" style="fill:#b18e3e;fill-rule:evenodd"/><path d="M60.81,27.12a2,2,0,0,0-.39.69,2.54,2.54,0,0,1-.36-.5,1.27,1.27,0,0,0-1.67-.7,3.94,3.94,0,0,1,0-.69,3.93,3.93,0,0,0,1.15-1,4.57,4.57,0,0,0,.89-1.44c.15-.11.4-.29.73-.5s1-.77,1.13-1.26a3,3,0,0,1-1.4.27c.27-.13.69-.26.64-.8l.2-.13a.58.58,0,0,0-.26,0c0-.06,0-.13-.16-.09s-.15,0-.17.09a.77.77,0,0,0-.34.08,4.93,4.93,0,0,1-.61.44c.06-.09.13-.22.13-.22a2.41,2.41,0,0,0-.62.14,14.49,14.49,0,0,0-1.57.75.61.61,0,0,1,.11-.17s.13,0,.13-.05a.53.53,0,0,1,0-.2,6.73,6.73,0,0,1,.59-1,2.05,2.05,0,0,0,.31-.84l1.12-.56,3.17-.73,2.05.12-.26,1.43-1.21,2.48-1,2.26L61.9,26.32l-1.09.8Z" style="fill:#543e26;fill-rule:evenodd"/><path d="M65.94,21a18.49,18.49,0,0,1-1.58,1.76c.22-.47,1.58-3.27,2.07-4.05-.11-.09-.26-.09.09-1.46-.29.69-.4,1.05-.64,1.24s-.27.12-.44.12a.28.28,0,0,0,0-.18s-1-.13-1.75-.13a10.39,10.39,0,0,0-2.89.7,11,11,0,0,0-1.19.41c-.22.19-.34.39-.45.44s-.51.18-.61.32a3.7,3.7,0,0,0-.23.35s0,.09.07.05a6.22,6.22,0,0,0,.62-.35c.42-.23.93-.5,1.3-.67a6,6,0,0,1,1.85-.43,11.25,11.25,0,0,1,1.67-.29,14.74,14.74,0,0,1,1.57,0c-.09.08-.16.16-.13.47a2.14,2.14,0,0,1-.14.4c-.22.6-.64,1.61-.87,2.11-.33.7-.7,1.28-.88,1.64a11.56,11.56,0,0,1-1,1.82,9.3,9.3,0,0,1-.73.92c-.12.12-1,.77-.94,1a5,5,0,0,0,1.92-1.28c.75-.83.89-1.34,1.48-1.8a5,5,0,0,0,1.31-1.86A7,7,0,0,1,65.94,21Z" style="fill:#806031;fill-rule:evenodd"/><path d="M39.28,32.4a2.33,2.33,0,0,1-.53,1c-.36.32-1,.6-1.08,1.15s.64.81.64.81a2.9,2.9,0,0,0-.39,1.15,7.85,7.85,0,0,0,0,1.09.67.67,0,0,0-.14.15,1.15,1.15,0,0,0,.4.76c.36.3.67.47.85.4a1.34,1.34,0,0,1,.07.18s.28-.69.46-1.29.35-.53.42-1.37a7.93,7.93,0,0,1,.87-2.26L41.43,33l-.89-.69-1.26.13Z" style="fill:#b6903c;fill-rule:evenodd"/><path d="M40.94,33.59a4.85,4.85,0,0,0-.51.61c-.24.32-.42.62-.77.74s-.56.13-.54.47.34.5.53.67a.86.86,0,0,1,.27.84.83.83,0,0,0,.49-.5c.19-.4,1.47-2.82,1.47-2.82h-.94Z" style="fill:#685026;fill-rule:evenodd"/><path d="M46,28a.74.74,0,0,0,0-.51c-.11-.22-.78-.3-1.11-.55a1.35,1.35,0,0,0-1.11-.32c.05-.12.25-.4.08-.46a2,2,0,0,0-.92.35c-.17.12-.53.27-.61.36s-.2.26-.27.18-.11-.18-.24-.11a3.12,3.12,0,0,0-.83.86,4.46,4.46,0,0,1-1.12,1.65c-.75.73-1.07,1.2-.85,1.48s.32.07.36.31a1.79,1.79,0,0,1,0,.69c-.08.38-.23.74,0,.82.51.16,1-.15,1.11-.06s-.13.92.4,1.06a1.64,1.64,0,0,0,1.05-.13l1.93-1,1.85-1,1-1.87-.51-1.57L46,28Z" style="fill:#d4b968;fill-rule:evenodd"/><path d="M44.19,32.49a.79.79,0,0,1,.07-.93c.4-.43,1-.62,1.19-.89a.36.36,0,0,0-.16-.11,1.43,1.43,0,0,1,.64-.6.62.62,0,0,0-.42-.2c-.36,0-.58.22-.92.22s-.36-.16-.36-.16.55-.05.5-.3-.15-.25-.15-.25a5.8,5.8,0,0,0,1.24-.67A1.48,1.48,0,0,0,46,28c.12,0,.85-.39,1.15-.22s.08.6.08.6A7,7,0,0,0,48.6,27c.4,0,.58-.27.87-.27s.93.49,1,1.55a6.4,6.4,0,0,1,.07,2,9.51,9.51,0,0,0,.15,2.54c.13.5.42.45.42.45a.85.85,0,0,1-.26.4,1.22,1.22,0,0,0-.2.85c0,.14.07.27.11.4a1.82,1.82,0,0,0-.29.46.52.52,0,0,1-.47.31,1.79,1.79,0,0,0-.33,0c-.23,0-.31.05-.45,0s-.26-.11-.2-.58-1.82-1.57-1.82-1.57l-3.06-1.09h0Z" style="fill:#cca849;fill-rule:evenodd"/><path d="M40.68,37.14s.67.89,3.42.89a7.27,7.27,0,0,0,2-.19A5.65,5.65,0,0,0,48.65,36c1-1.19.78-1.67.78-1.67l-.58-.09L47,34.52,41.35,36.9l-.67.24Z" style="fill:#585136;fill-rule:evenodd"/><path d="M42.73,37.36s-2.38.53-2.38-1a5.27,5.27,0,0,1,1.84-3.3,7,7,0,0,1,1.29-.58h2.2l.42,1.11L45.92,36l-3.19,1.34Z" style="fill:#252211;fill-rule:evenodd"/><path d="M44.93,33s-.45-.42-1.49.15a3.71,3.71,0,0,0-1.93,2.82c0,1,.78,1.65,2.08,1.69a6.64,6.64,0,0,0,1.84-.14L45,36.91l0-3.95Z" style="fill:#c3b378;fill-rule:evenodd"/><path d="M44.48,33.2s-.11-.09-.43.09a7.06,7.06,0,0,0-1,.8,3.15,3.15,0,0,0-.44.36c-.46.54-.84,1.43-.62,1.88s1,1,2.81.6l-.34-3.73Z" style="fill:#e6d89c;fill-rule:evenodd"/><path d="M43.88,34.11a2.39,2.39,0,0,0-.29,1.19,2,2,0,0,0,2,2c1.19.08,2-1.7,2.84-2.4a2,2,0,0,1,1.06-.54A9.69,9.69,0,0,0,47,32.7c-1.77-1-3.75-1.08-4.83.38.51,0,2.15-.46,2.15-.46l.81.26-1.24,1.23Z" style="fill:#252211;fill-rule:evenodd"/><path d="M46.19,35.07c0-.11-.09-.25.13-.29s.31,0,.38.15.15.29,0,.36a.51.51,0,0,1-.55-.22Zm-.34-1s-.08.05,0-.06a.3.3,0,0,1,.35-.29c.23.05.18.31.14.38a.37.37,0,0,1-.38.15.12.12,0,0,1-.09-.15v0Z" style="fill:#6f674d;fill-rule:evenodd"/><path d="M25.92,34.51a2.33,2.33,0,0,0,1.26.42,3.41,3.41,0,0,0,1.92-1.15c.24-.26.44-.53.66-.75a5.13,5.13,0,0,0,.4-.39c.12-.15.25-.42.32-.51a6.59,6.59,0,0,1-.64.49,7.3,7.3,0,0,1-.95.5c-.2.07-2.26,1.16-2.26,1.16l-.71.23Z" style="fill:#ac924c;fill-rule:evenodd"/><path d="M26.81,29.07a2.92,2.92,0,0,1,1-.36,16.6,16.6,0,0,1,1.82-.26l1,.44.39,1.5L30.25,32l-.93.59-1.05-1.7-1.46-1.78Z" style="fill:#9f8e57;fill-rule:evenodd"/><path d="M25.5,30.41l-.35.26a2.13,2.13,0,0,0,.16-.65,6.14,6.14,0,0,1,1-2.39c.56-.69.54-.65.54-.65a.34.34,0,0,0-.29.07,3.53,3.53,0,0,1,1-1c.47-.29.65-.38,1.14-.14s.62.36,1,.34a1.09,1.09,0,0,0,.67-.39s.08.23-.2.78a11,11,0,0,1-1.34,1.65l-2.24,1.53-1.11.64h0Z" style="fill:#eac970;fill-rule:evenodd"/><path d="M27.15,28.88s1.62.22,2.12-.23c0,.05.07.05.07.09a.13.13,0,0,1,0,.07l.16,0a.79.79,0,0,0,.2,0h.17a.27.27,0,0,1-.11.18c.07,0,.14,0,.14.07s0,.24-.07.28a.33.33,0,0,1-.22,0,.8.8,0,0,0,.11.4.82.82,0,0,0,.87.49s.22.53-.71,1.71c-.12.16-.25.38-.42.57a2.16,2.16,0,0,0-.14.43,3.67,3.67,0,0,0,2-2,10.47,10.47,0,0,0,.45-4,1.93,1.93,0,0,0-.16-.8A.7.7,0,0,0,30.5,26a12.74,12.74,0,0,1-1.8,1.88,6,6,0,0,1-1.55,1Z" style="fill:#d7bc6b;fill-rule:evenodd"/><path d="M25.21,30.87a1.38,1.38,0,0,0-.47.87,2.9,2.9,0,0,0,.32,1.85,1.86,1.86,0,0,0,1.42,1,1.59,1.59,0,0,0,.61-.13A3.45,3.45,0,0,0,27.9,34c.36-.27.66-.5.62-.53s-2.22-1.8-2.22-1.8l-.8-.9-.29.1Z" style="fill:#585136;fill-rule:evenodd"/><path d="M27.23,33.8a1.93,1.93,0,0,0,.69-.2c.26-.16-1.51-1.91-1.51-1.91l.13,1.89Z" style="fill:#453a25;fill-rule:evenodd"/><path d="M25.35,30.74a2.57,2.57,0,0,0-.22.53,8.9,8.9,0,0,0,.16,1.85,1.35,1.35,0,0,0,1.19,1,1.65,1.65,0,0,0,.91-.3c0-.07-.55-.14-.69-.42a2.35,2.35,0,0,1-.15-.87,1,1,0,0,1,.07-.58,1.92,1.92,0,0,0,.24-.86l.71-1.31h-.93l-1.11.69Z" style="fill:#84754b;fill-rule:evenodd"/><path d="M25.08,31.14A4,4,0,0,1,26.46,30a1.44,1.44,0,0,1,.95-.09l-.38,1-.55.6,0,.31A1.89,1.89,0,0,0,27,33.15a1.43,1.43,0,0,0,1.18.54,1.55,1.55,0,0,0,1.26-1,2.85,2.85,0,0,0-.05-2.73,2.21,2.21,0,0,0-1.88-1,2.62,2.62,0,0,0-2.41,2.21Z" style="fill:#252211;fill-rule:evenodd"/><path d="M43.77,34.42c-.27-.13,0-.89.26-1.13a2,2,0,0,1,1.22-.54c.22,0,.43.12.4.27a2.22,2.22,0,0,1-.78.93C44.39,34.32,44.08,34.56,43.77,34.42Z" style="fill:#f7f7e7;fill-rule:evenodd"/><path d="M29,30.25a.51.51,0,0,1,.51.36c.05.23-.12.7-.51.7s-.47-.38-.47-.49a.61.61,0,0,1,.08-.26A.4.4,0,0,1,29,30.25Z" style="fill:#f8f6de;fill-rule:evenodd"/><path d="M26.17,30.41a1.77,1.77,0,0,0-.74.73,2,2,0,0,0-.15,1.17,3.14,3.14,0,0,0,.35.8.6.6,0,0,0,.42.26.75.75,0,0,0,.38-.55,3.9,3.9,0,0,1,.26-1.49c.21-.46-.52-.92-.52-.92Z" style="fill:#d4c38b;fill-rule:evenodd"/><path d="M26.25,30.38c-.09.05-.24.12-.2.22s.34.14.46.36a.78.78,0,0,1,.08.57.83.83,0,0,0,.26-.19c.16-.18.36-.43.53-.43s.22.05.33.05.32-.05.34-.22-.31-.42-.51-.38a.48.48,0,0,0-.07-.51c-.16-.15-.67.11-.78.18l-.44.35Z" style="fill:#e2d59d;fill-rule:evenodd"/><path d="M38,45.85,39,45.52l.31.23s.22.47.56.53c-.11.23-.4.43-.38.6a.46.46,0,0,0,.16.29s-1,1.62,1,3.26c-.46.18-1,.43-1.35.58a2.28,2.28,0,0,1,.89.32c.2.18.2.24.39.35s.29.26.25.32-.54-.29-.61-.09-1.82.13-1.82.13l-3,.57a.54.54,0,0,0-.2-.57c-.36-.33-.8,0-1.27-.35s-.64-1-.84-1.22A4.06,4.06,0,0,1,34.7,50a.64.64,0,0,1-.09-.49c.09-.26.46-.42.35-.73.16,0,.23,0,.64-.54s.62-.62.91-.66.47,0,1-.51c.38-.36.25-.67.25-.67s.25-.08.17-.58Z" style="fill:#cbac5a;fill-rule:evenodd"/><path d="M34.73,46c0-.07.07-.11.47-.07s2.92-.24,3.6-.28a22.83,22.83,0,0,1,4.32.24c1.18.25,2.38.54,3,.69s.77.22.75.3a.23.23,0,0,1-.23.12c-.07,0-2-.6-2.59-.73a24.18,24.18,0,0,0-3.79-.43,19.46,19.46,0,0,0-2.36.08,19,19,0,0,1-2.81.2c-.43-.05-.34-.05-.32-.12Z" style="fill:#d6bc6f;fill-rule:evenodd"/><path d="M40.66,51.78a6.06,6.06,0,0,1,2.05,1.82.79.79,0,0,1-.24,1.11s.86,0,.75.47c0,.3-1.47,1.09-2.42,1.51a3.88,3.88,0,0,1-1.4.47c-.46.08-1.71-.14-2,.22a.73.73,0,0,0-.07.81,4.16,4.16,0,0,0,.67.12s-.13.35-1.36.38-1.55.13-1.62.26.23,0,.8.15,1.36.14,1.36.14a2.58,2.58,0,0,1-.93.4,15.81,15.81,0,0,0-2.32.6,2.08,2.08,0,0,0,.58.33,3.45,3.45,0,0,0-.82.29A2.64,2.64,0,0,0,34,61,5,5,0,0,1,33,62c-.36.19-2.44,1.15-3.15,1-1.78-.47-2-2.43-2.44-2.57-.65-.22-1,.22-1.55-.09a3.05,3.05,0,0,1,.68-.42c-.3-.15-1.82-1.11-1.82-1.11-.16-.35-.34-.69-.53-1-.3-.51-.73-1.18-1.06-1.78a14.42,14.42,0,0,0-1.38-2.66c.11-.14.49-.12.49-.12l5.37,1.76,9.52.28,2.47-3.53,1.06.12Z" style="fill:#dfc677;fill-rule:evenodd"/><path d="M26.56,57.17a.74.74,0,0,0,.19.16,3.08,3.08,0,0,1,.65.49c.07-.11.25-.3.58,0s.73.09,1,.17.27.12.27.12a2,2,0,0,1,.47-.26c.2-.07.43-.12.69-.19a3.39,3.39,0,0,1,.67-.13c.16.11.75.73,3.08-.18s2.71-1,3.08-.82c0-.09.07-.26.64-.24a4.41,4.41,0,0,0-.47-1l-2.6-.9H33.37l-4.27.79-2.36,1.34-.18.68Z" style="fill:#c4a859;fill-rule:evenodd"/><path d="M25.14,55.68a1.37,1.37,0,0,0,.64.81,3.63,3.63,0,0,1,.76.67,3.22,3.22,0,0,0,.2-.29c.09-.16.16-.35.31-.4s1,.11,1.11.07.09-.29.22-.29c.31,0,.51.2.62.2s.38,0,.42-.08,0-.67.47-1a1.29,1.29,0,0,1,1.17-.11.34.34,0,0,0,.31.4,1.39,1.39,0,0,1,.58,0c.26.09.56,0,.7.42.13,0,.42-.08.35-.49a2.33,2.33,0,0,0,.58-.62c.08-.11.2-.24.3-.4a1.22,1.22,0,0,1,1,.31c-.13.09-.2.14-.24.23a2.34,2.34,0,0,1,.29.35c.12.15.19.32.33.36a12.47,12.47,0,0,0,1.38,0,2.89,2.89,0,0,1,1.2.36c.08,0,.08-.05.26,0s.32.05.13-.19c.11,0,.23.17.34,0a.7.7,0,0,1,.51-.3c.31,0,.42,0,.55-.31s-.4-.4-.4-.4.26-.24.54-.55a2.4,2.4,0,0,0,.84-1.26.88.88,0,0,0-.76-1.07l-4.5,1.38-5.5-.27-4.69,2.34Z" style="fill:#927d49;fill-rule:evenodd"/><path d="M21.09,42.68a1.61,1.61,0,0,0-.23.62c-.09.43-.05.38-.13.69s-1,3.39-.64,4.43.93,1.42,1.3,2.26a3.83,3.83,0,0,1,.18.45c.13.55,0,1,.16,1.51a1.75,1.75,0,0,0,.39.62c.43.46,1.15.89,1.45,1.2s1.06,1.38,1.84,1.47a2.62,2.62,0,0,0,1.51-.42,13.62,13.62,0,0,1,1.17-.87,4.77,4.77,0,0,1,1-.3,4.59,4.59,0,0,1,1.57-.07,15.2,15.2,0,0,0,2.47.49,6.31,6.31,0,0,0,1.61-.22c1.05-.31,2.32-.84,3.16-1.07a11.22,11.22,0,0,1,1.3-.27,2.83,2.83,0,0,0,1.6-.81c-.22-.25-.49-.65-2-.64-1.67,0-3.6,1-4.55,1.11a3.78,3.78,0,0,1-2.43-.11c-1-.38-1.07-.64-1.07-.64a4.66,4.66,0,0,1-1.55-2.71,4.86,4.86,0,0,1,1.19-4.71.77.77,0,0,0,.23-.66,3,3,0,0,0,.57-2c-.24-1-1.74-.78-1.74-.78l-8.38,1.46Z" style="fill:#6e6342;fill-rule:evenodd"/><path d="M22.35,46a.89.89,0,0,0-.09.39c0,.2.08.46.67,1a1.28,1.28,0,0,1,.4,1.08,1.86,1.86,0,0,0,1-.28c.55-.25.73.2.73.2a1.52,1.52,0,0,1,.51-.16.93.93,0,0,0,.45-.15,6.51,6.51,0,0,0,1.2,1c.51.27.81.46,1.06.27a.72.72,0,0,0,.22-.64,2.88,2.88,0,0,0-.22-.38c-.17-.24-.42-.51-.44-.73,0-.51.38-1.11.29-1.26s-.42-.18-1.23.11-4.5-.46-4.5-.46Z" style="fill:#39331f;fill-rule:evenodd"/><path d="M24.28,49.25s-.42-.4-.27-2.33a3.17,3.17,0,0,1,.53,0A4.17,4.17,0,0,1,24.28,49.25Z" style="fill:#292311;fill-rule:evenodd"/><path d="M21.29,41.21a.77.77,0,0,0,.16-.15,3.7,3.7,0,0,0-.27,3.08,4.09,4.09,0,0,0,3.6,3c1.69.06,2.57-.77,3.59-2,.4-.5.85-1.11,1.26-1.53.6-.66,1.07-.84,1.07-1.48,0-1.29-1.32-1.87-3.27-2.46a7.53,7.53,0,0,0-4.63-.11,2.55,2.55,0,0,0-1.51,1.61Z" style="fill:#252211;fill-rule:evenodd"/><path d="M27.56,49.83l.14-.07s0-.59.28-.57a.47.47,0,0,1,.32.46c0,.11-.07.29-.31.27a.76.76,0,0,1-.43-.09Z" style="fill:#3f3824;fill-rule:evenodd"/><path d="M26.9,47.36s.15-.06.33.12a2.76,2.76,0,0,1,1,.05.81.81,0,0,1,.25.24,2.59,2.59,0,0,1-1.15,0C26.9,47.63,26.9,47.36,26.9,47.36Z" style="fill:#2d2815;fill-rule:evenodd"/><path d="M30.18,47.47a1.81,1.81,0,0,0-.82-.4c-.07,0-.09,0-.14,0s-.06-.12-.06-.12l-.23.12s0,.06.08.15.3.16.35.31a1.34,1.34,0,0,0,.07.22.75.75,0,0,0,.4-.07c.13-.08.36-.2.35-.25h0Z" style="fill:#82764f;fill-rule:evenodd"/><path d="M26.46,49a.61.61,0,0,1,.57-.53.56.56,0,0,1,.6.46l-.29.29s-.22-.32-.88-.22Z" style="fill:#2d2816;fill-rule:evenodd"/><path d="M29.66,46.77a1.51,1.51,0,0,1-.87.39.36.36,0,0,1,0-.46c.16-.24.34-.31.53-.24A.43.43,0,0,1,29.66,46.77Z" style="fill:#574f35;fill-rule:evenodd"/><path d="M30.77,47.13c0-.07,0-.08,0-.12s.24-.11.28-.07a.59.59,0,0,1,0,.14.33.33,0,0,1,0,.2.31.31,0,0,1-.27.09c-.08,0-.09-.13-.09-.15S30.77,47.17,30.77,47.13ZM32,46.34s.13-.11.2-.11.11.09.13.11,0,0,.07,0,.09.19,0,.26a.29.29,0,0,1-.22.11A2.46,2.46,0,0,1,32,46.34Z" style="fill:#82764f;fill-rule:evenodd"/><path d="M29.5,47.3a1.1,1.1,0,0,1,.38.22.91.91,0,0,1-.18.11.54.54,0,0,0-.2-.33Z" style="fill:#6e6342;fill-rule:evenodd"/><path d="M29.14,45.68s.11-.12.2-.11.12.08.22.09.11,0,.15-.07.16,0,.18,0l0,0a.21.21,0,0,1,.07-.15.24.24,0,0,1,.2,0s.09.23.07.27a.31.31,0,0,1-.27.05,3.78,3.78,0,0,0,.22.31s-.16.13-.23.11a3,3,0,0,1-.85-.51Zm1-1.22a.18.18,0,0,0-.08-.09c-.05,0-.22,0-.22.09a2.85,2.85,0,0,0,.31.84,1.88,1.88,0,0,0,.43.53.16.16,0,0,0,.22-.07,3.61,3.61,0,0,0,0-.95,9.54,9.54,0,0,0-.07-1.3.22.22,0,0,0-.24,0,7.57,7.57,0,0,0-.4.91h0Z" style="fill:#585136;fill-rule:evenodd"/><path d="M29.45,48.23a.61.61,0,0,0-.51,0c-.23.11-.22.55-.22.55a.39.39,0,0,0,.33,0,1,1,0,0,0,.4-.46Z" style="fill:#574f35;fill-rule:evenodd"/><path d="M29.94,48.81c0-.14-.15-.14-.15-.22a.17.17,0,0,1,.16-.12c.08,0,.15.09.24.14s.22.15.23.26-.14.42-.32.42-.13-.33-.16-.48Zm1.42-.2s-.3.09-.28,0,.09-.11.19-.11a.25.25,0,0,1,.18-.08.14.14,0,0,1,.11,0s.2-.09.26,0,0,0,.05.11a.43.43,0,0,1,.09.22c0,.06-.22.18-.4.16S31.39,48.65,31.36,48.61Zm1.71-.33s.09,0,0,.11a1.12,1.12,0,0,1-.53.17c-.22,0-.42,0-.42,0s.18-.22.29-.26a.26.26,0,0,1,.19-.09,5.24,5.24,0,0,0,.53-.05c.08,0,.16,0,.11.11s-.19.05-.19.05ZM33.58,46s-.11.23-.24.23-.12-.05-.12-.08.12-.19.11-.22-.13,0-.11-.09.12-.16.23-.15a.48.48,0,0,1,.3-.11c.12,0,.23,0,.23.11a.53.53,0,0,1-.19.27c-.06.06-.14.1-.21,0ZM31.9,50.36s-.14,0-.14.09,0,0,.08,0h.09s0,.09.13.09a.8.8,0,0,0,.26-.09c.08,0,.16-.07.16-.15a.22.22,0,0,0-.22-.18.33.33,0,0,0-.17,0s0-.08-.16,0-.11.07-.07.11,0,.09,0,.09Zm-.83.77s.18-.11.23-.09.2.29.2.32-.18.13-.25.13-.2-.13-.2-.15.09,0,.09-.05-.07-.13-.07-.16Zm-.58-1.08s0,0,.09-.09a.14.14,0,0,1,.11,0,.16.16,0,0,1,.12-.09c.09,0,.16,0,.15,0s.07.18.07.27-.05.2-.23.27a1.55,1.55,0,0,1-.48,0,.26.26,0,0,1,0-.24.61.61,0,0,1,.2-.19Z" style="fill:#82764f;fill-rule:evenodd"/><path d="M30.72,50.1s-.12.08-.12.11a.43.43,0,0,0,0,.11s.16,0,.19,0S30.72,50.14,30.72,50.1Z" style="fill:#6e6342;fill-rule:evenodd"/><path d="M29.63,49.76a1.59,1.59,0,0,1,.29,0c.07,0,.13.11,0,.2s-.14.22-.31.2-.36-.11-.36-.18a.39.39,0,0,1,.09-.26c.07-.06.11,0,.24,0Z" style="fill:#585136;fill-rule:evenodd"/><path d="M29.54,49.83a2,2,0,0,0-.3.27,7.65,7.65,0,0,1-.54.64l.12-.18a.78.78,0,0,0-.31.4c-.08.27.5.42.88.53l.53.14a3.91,3.91,0,0,1-.36-.67c-.15-.34-.22-.38-.13-.54s.19-.28.19-.4A1.16,1.16,0,0,0,29.54,49.83Z" style="fill:#574f35;fill-rule:evenodd"/><path d="M21.15,50.41a.43.43,0,0,0,.16,0,7.54,7.54,0,0,1,2.46-.36,12.54,12.54,0,0,1,2.65.44c1.51.39,3.39,1.18,4.61,1.63.32.13.64.35.87.44a5.3,5.3,0,0,0,1.51.45,5.8,5.8,0,0,0,2-.27c.84-.18,2.27-.27,3.53-.46a6.13,6.13,0,0,0,1.2-.27,6.31,6.31,0,0,1-3.4,1.36,10.65,10.65,0,0,1-2.93,0,8.06,8.06,0,0,1-1.66-.3c-.43-.12-1.32-.45-2.42-.72-.76-.2-1.62-.35-2.6-.53a30.94,30.94,0,0,1-6-1.45Z" style="fill:#252211;fill-rule:evenodd"/><line x1="19.89" y1="41.08" x2="13.76" y2="35.35" style="fill:none"/><path d="M18.44,45.86c-.59.49-1.2,1-1.81,1.42l-1.82,1.4c-.61.46-1.22.93-1.84,1.38s-1.23.89-1.89,1.31c.58-.49,1.2-.95,1.82-1.4s1.26-.88,1.85-1.34l1.82-1.4c.63-.46,1.23-.93,1.87-1.37ZM15.22,51s.65-.54,1.47-1.31a33.15,33.15,0,0,1,2.66-2.38L15.22,51Z" style="fill:#cfb66c;fill-rule:evenodd"/><path d="M15.22,51c.32-.32.67-.64,1-.95l.53-.45c.17-.15.35-.31.51-.47.33-.33.64-.67,1-1a5.79,5.79,0,0,1,.51-.48,1.21,1.21,0,0,1,.29-.19.78.78,0,0,1,.31-.17,2,2,0,0,1-.24.26,1.73,1.73,0,0,0-.23.24c-.16.16-.35.31-.51.45-.35.3-.71.59-1.05.89s-.67.64-1,1L15.22,51Zm4.4-2.94s-2.4,2.35-2.89,2.73Z" style="fill:#cfb66c;fill-rule:evenodd"/><path d="M19.62,48.07a7.71,7.71,0,0,1-.69.71l-.73.69c-.24.23-.46.47-.71.7s-.49.44-.76.65l.7-.7c.24-.23.5-.43.75-.67l.7-.69C19.13,48.52,19.36,48.28,19.62,48.07Zm.11,1.27A15.19,15.19,0,0,1,19,51.15c-.62,1.23-1.54,2.78-1.95,3.57l2.73-5.38Z" style="fill:#cfb66c;fill-rule:evenodd"/><path d="M19.73,49.34a2.05,2.05,0,0,1-.16.75c-.09.23-.19.46-.29.69s-.24.46-.37.67-.27.43-.38.65l-.74,1.31c-.26.44-.51.88-.78,1.3a11.3,11.3,0,0,1,.67-1.35c.26-.43.49-.87.73-1.32q.16-.34.3-.69c.11-.24.22-.46.31-.67s.2-.46.31-.67a5.15,5.15,0,0,1,.4-.67Z" style="fill:#cfb66c;fill-rule:evenodd"/><path d="M22.35,55.38a3.6,3.6,0,0,0-.65,2.19C21.9,56.93,22.15,56,22.35,55.38Zm.69,1s-.25,2.62-.47,3.91A15.43,15.43,0,0,0,23,56.35Zm4.83,4.06a28.44,28.44,0,0,0-1.12,4.09c.24-.91.7-2.78,1.12-4.09Z" style="fill:#dec270;fill-rule:evenodd"/><path d="M30.41,55.18s1.77,2.92,3.1,5.41A12.29,12.29,0,0,0,30.41,55.18Z" style="fill:#cbaf59;fill-rule:evenodd"/><path d="M35.16,59.47a53.2,53.2,0,0,1,2.62,5.3A8.05,8.05,0,0,0,35.16,59.47Z" style="fill:#e3c677;fill-rule:evenodd"/><path d="M49.12,63.77c.3-.18.88-1.18,1.39-1.43a3.48,3.48,0,0,0,1.34-.82,3.29,3.29,0,0,1,1.59-1.27c1.4-.61.43-1.39.43-1.39a5,5,0,0,1,.5-.42,1.38,1.38,0,0,0,.74-1.18,5.13,5.13,0,0,0-1-3.23c.78-.16,2.28-.27,3.21-.51a4.54,4.54,0,0,0,1.56-.65,1.79,1.79,0,0,1,.39-2.11,12.36,12.36,0,0,0,2.42-2.88,7.06,7.06,0,0,0-4.44.56l.42.24a8.49,8.49,0,0,0-2.26,1c-1,.89-1.19,1.62-2.33,2.17s-2.29.4-3.24.84a8.1,8.1,0,0,0-1.43,1c.07.09,0,.23.12.36-.09.12-.6,1-1.12,1,.05.2.49.35.49.35a2.42,2.42,0,0,1-1.15.29,8.34,8.34,0,0,0,1.91,1.61c-.08.18-.45.45-.3.8s.58.82,2.26,1.2a14.32,14.32,0,0,1-3.21,0,5.28,5.28,0,0,0-2.4,0c.09.09.33.09.53.32-.22,0-1.6-.16-2.07.46a3.94,3.94,0,0,0-.67,2.4.63.63,0,0,0-.39.8c.13.46.78.61,1.2.89s.46.42.86.35,1-.51,1.4-.51a.9.9,0,0,1,.61.28s1-.48,1.08-.39,0,.66.11.75a7,7,0,0,0,1.49-.78Z" style="fill:#ecd592;fill-rule:evenodd"/><path d="M70.53,34.31a23.21,23.21,0,0,0-16-14.09H22.09l.13,12.11h6.46v27H22.09V71.44H53.65c7.61,0,13.7-7.64,13.7-7.64,9.76-13.86,3.17-29.49,3.17-29.49ZM53.82,55.65s-2.48,3.57-5.17,3.57H43.26l-.12-26.86h6.91s3.2.67,5.44,7C55.49,39.37,58.46,48.44,53.82,55.65Z" style="fill:#fff;fill-opacity:0.800000011920929;fill-rule:evenodd"/></g></g></g></svg>