<svg id="Layer_1" data-name="Layer 1" xmlns="http://www.w3.org/2000/svg" viewBox="0 0 91 91"><path d="M45.51,0A45.47,45.47,0,1,0,91,45.53,45.47,45.47,0,0,0,45.51,0Z" style="fill:#e0e0e0"/><path d="M45.77,15.24A23,23,0,0,0,22.91,38.1a23.46,23.46,0,0,0,1.21,7.43,3.16,3.16,0,1,0,6-2,15,15,0,0,1-.89-5.82A16.49,16.49,0,1,1,46.68,54.65s-3.21.2-4.81.4a17.43,17.43,0,0,0-1.75.34.22.22,0,0,1-.3,0h0a.2.2,0,0,1,0-.25l.5-2.71,3-13.56a3.13,3.13,0,0,0-6.13-1.31S30,70.74,30,71a3,3,0,0,0,2.16,3.65h.24a3,3,0,0,0,3.66-2.14v0a.11.11,0,0,0,0-.08v-.15c.09-.39,1-4.8,1-4.8a8.15,8.15,0,0,1,6.74-6.41c.69-.1,3.6-.3,3.6-.3a22.84,22.84,0,0,0-1.67-45.54Z" style="fill:#1e1e1e"/><path d="M46.84,68.19a3.8,3.8,0,0,0-4.5,3v0h0a3.85,3.85,0,0,0,2.57,4.46l.33.11h.1A3.74,3.74,0,0,0,49.84,73h0v-.21A3.94,3.94,0,0,0,46.84,68.19Z" style="fill:#e6007a"/></svg>