<svg id="Layer_1" data-name="Layer 1" xmlns="http://www.w3.org/2000/svg" xmlns:xlink="http://www.w3.org/1999/xlink" viewBox="0 0 91 91"><defs><clipPath id="clip-path"><rect width="91.03" height="91" style="fill:none"/></clipPath><clipPath id="clip-path-3"><path d="M46.55,54.62,60.22,74.27l12.29-.14Q62.6,59.94,52.69,45.74l-6.14,8.88" style="fill:none"/></clipPath><linearGradient id="linear-gradient" x1="-102.26" y1="-618.81" x2="-101.91" y2="-618.81" gradientTransform="matrix(0, 87.33, 87.33, 0, 54098.28, 8975.67)" gradientUnits="userSpaceOnUse"><stop offset="0" stop-color="#4f4fba"/><stop offset="1" stop-color="#6a67eb"/></linearGradient></defs><g style="clip-path:url(#clip-path)"><g style="clip-path:url(#clip-path)"><path d="M45.36,91A45.5,45.5,0,1,1,91,45.77,45.5,45.5,0,0,1,45.36,91"/><path d="M58.07,16.74H70.7L30.8,74.31H18.1l40-57.57" style="fill:#fff"/></g><g style="clip-path:url(#clip-path-3)"><rect x="40.82" y="40.94" width="37.42" height="38.14" transform="matrix(0.83, -0.55, 0.55, 0.83, -23.29, 43.1)" style="fill:url(#linear-gradient)"/></g><g style="clip-path:url(#clip-path)"><path d="M18.69,16.66c4.59,0,8.69-.05,13,0C35.78,22.6,39.53,28,43.78,34.11c-2.1,3-4.18,6-6.48,9.3-3.45-4.51-6.06-8.55-9.14-13s-6.3-8.77-9.47-13.78" style="fill:#fff"/></g></g></svg>