<svg id="Layer_1" data-name="Layer 1" xmlns="http://www.w3.org/2000/svg" xmlns:xlink="http://www.w3.org/1999/xlink" viewBox="0 0 91 91"><defs><linearGradient id="linear-gradient" x1="28" y1="45.5" x2="61.49" y2="45.5" gradientUnits="userSpaceOnUse"><stop offset="0" stop-color="#25d86e"/><stop offset="1" stop-color="#bdf027"/></linearGradient></defs><path d="M91,45.5A45.5,45.5,0,1,1,45.5,0,45.5,45.5,0,0,1,91,45.5" style="fill:#181b46"/><path d="M67.62,37.14a1,1,0,0,0-.33-.81l-8.38-8.68L46,14.2l-.49-.54-.26.24-2.3,2.39L29.34,30.36c-1.91,2-3.82,4-5.74,6a.69.69,0,0,0-.23.54q0,11.1,0,22.2a.62.62,0,0,0,.22.53l1.93,1.84L36.11,71.51c.11.1.23.2.35.32l6.21-7.28.1,0c0,.16,0,.3,0,.44q0,5.92,0,11.87a4.07,4.07,0,0,0,0,.47h5.35c0-4.44,0-8.84.06-13.26,1.25,1.26,2.44,2.56,3.65,3.84l3.61,3.9.24-.23c1.16-1.2,2.32-2.39,3.47-3.6,2.67-2.76,5.35-5.52,8-8.29.47-.49.39-.27.39-1Q67.61,47.95,67.62,37.14ZM36.07,63.81l-.26-.23c-1.68-1.59-3.35-3.18-5-4.79-.56-.53-1.13-1.08-1.71-1.61a.85.85,0,0,1-.31-.69c0-3.56,0-7.12,0-10.7v-.61c0-.08,0-.18,0-.27.25.14,12.12,12.41,12.42,12.84Zm6.67-12.54c-.11-.11-.18-.16-.26-.23l-4.9-5.1c-2.26-2.32-4.5-4.65-6.75-7l-1-1.1L42.66,24.52h.07c0,.12,0,.24,0,.36V47.54c0,1.06,0,2.12,0,3.17C42.78,50.88,42.76,51,42.74,51.27Zm5.45-.43V45.33q0-10.14,0-20.28v-.4l.08,0,12.83,13.3L48.29,51.25A.47.47,0,0,1,48.19,50.84ZM62,57.2q-3.06,3.16-6.12,6.36c-.07.07-.16.13-.27.25-1.93-2.08-3.81-4.12-5.75-6.2,4.11-4.24,8.18-8.47,12.32-12.75,0,.16,0,.25,0,.33,0,3.82,0,7.64,0,11.47A.76.76,0,0,1,62,57.2Z" style="fill:url(#linear-gradient)"/><path d="M67.62,37.14a1,1,0,0,0-.33-.81l-8.38-8.68L46,14.2l-.49-.54-.26.24-2.3,2.39L29.34,30.36c-1.91,2-3.82,4-5.74,6a.69.69,0,0,0-.23.54q0,11.1,0,22.2a.62.62,0,0,0,.22.53l1.93,1.84L36.11,71.51c.11.1.23.2.35.32l6.21-7.28.1,0c0,.16,0,.3,0,.44q0,5.92,0,11.87a4.07,4.07,0,0,0,0,.47h5.35c0-4.44,0-8.84.06-13.26,1.25,1.26,2.44,2.56,3.65,3.84l3.61,3.9.24-.23c1.16-1.2,2.32-2.39,3.47-3.6,2.67-2.76,5.35-5.52,8-8.29.47-.49.39-.27.39-1Q67.61,47.95,67.62,37.14ZM36.07,63.81l-.26-.23c-1.68-1.59-3.35-3.18-5-4.79-.56-.53-1.13-1.08-1.71-1.61a.85.85,0,0,1-.31-.69c0-3.56,0-7.12,0-10.7v-.61c0-.08,0-.18,0-.27.25.14,12.12,12.41,12.42,12.84Zm6.67-12.54c-.11-.11-.18-.16-.26-.23l-4.9-5.1c-2.26-2.32-4.5-4.65-6.75-7l-1-1.1L42.66,24.52h.07c0,.12,0,.24,0,.36V47.54c0,1.06,0,2.12,0,3.17C42.78,50.88,42.76,51,42.74,51.27Zm5.45-.43V45.33q0-10.14,0-20.28v-.4l.08,0,12.83,13.3L48.29,51.25A.47.47,0,0,1,48.19,50.84ZM62,57.2q-3.06,3.16-6.12,6.36c-.07.07-.16.13-.27.25-1.93-2.08-3.81-4.12-5.75-6.2,4.11-4.24,8.18-8.47,12.32-12.75,0,.16,0,.25,0,.33,0,3.82,0,7.64,0,11.47A.76.76,0,0,1,62,57.2Z" style="fill:none"/></svg>