<svg id="Layer_1" data-name="Layer 1" xmlns="http://www.w3.org/2000/svg" viewBox="0 0 91 91"><path d="M72.73,18.06a1.57,1.57,0,0,1,0-2.42,2,2,0,0,1,2.63,0,1.57,1.57,0,0,1,0,2.42,2.25,2.25,0,0,1-1.28.5A1.45,1.45,0,0,1,72.73,18.06Z" style="fill:#0d022b;fill-rule:evenodd"/><path d="M68.18,23a1.7,1.7,0,0,1,0-2.41,1.77,1.77,0,0,1,2.42,0,1.71,1.71,0,0,1-1.21,2.91A1.82,1.82,0,0,1,68.18,23Z" style="fill:#0d022b;fill-rule:evenodd"/><path d="M63.2,27.66a1.76,1.76,0,0,1-.5-1.21,1.87,1.87,0,0,1,.5-1.21,1.77,1.77,0,0,1,2.42,0,1.73,1.73,0,0,1,.5,1.21,1.91,1.91,0,0,1-.5,1.21,1.58,1.58,0,0,1-1.21.49A1.74,1.74,0,0,1,63.2,27.66Z" style="fill:#0d022b;fill-rule:evenodd"/><path d="M58.44,32.42a1.51,1.51,0,0,1-.57-1.21A1.62,1.62,0,0,1,58.44,30a2,2,0,0,1,2.63,0,1.57,1.57,0,0,1,0,2.42,1.85,1.85,0,0,1-1.28.5A1.72,1.72,0,0,1,58.44,32.42Z" style="fill:#0d022b;fill-rule:evenodd"/><path d="M53.89,37.18a1.45,1.45,0,0,1-.5-1.21,1.86,1.86,0,0,1,.5-1.21,1.77,1.77,0,0,1,2.42,0A1.5,1.5,0,0,1,56.8,36a1.72,1.72,0,0,1-.49,1.21,1.47,1.47,0,0,1-1.21.5A1.2,1.2,0,0,1,53.89,37.18Z" style="fill:#0d022b;fill-rule:evenodd"/><path d="M48.41,40.74a1.87,1.87,0,0,1,.5-1.21,1.77,1.77,0,0,1,2.42,0,1.57,1.57,0,0,1,.5,1.21,1.86,1.86,0,0,1-.5,1.2,1.7,1.7,0,0,1-1.21.5,1.84,1.84,0,0,1-1.21-.5A1.47,1.47,0,0,1,48.41,40.74Z" style="fill:#0d022b;fill-rule:evenodd"/><path d="M39.53,51.26a1.7,1.7,0,0,1-.5-1.21,1.84,1.84,0,0,1,.5-1.21,1.75,1.75,0,0,1,2.41,0,1.55,1.55,0,0,1,.5,1.21,1.84,1.84,0,0,1-.5,1.21,1.47,1.47,0,0,1-1.2.5A1.27,1.27,0,0,1,39.53,51.26Z" style="fill:#0d022b;fill-rule:evenodd"/><path d="M34.62,56a1.53,1.53,0,0,1-.57-1.21,1.66,1.66,0,0,1,.57-1.21,2,2,0,0,1,2.63,0,1.57,1.57,0,0,1,0,2.42,1.79,1.79,0,0,1-1.28.5A1.54,1.54,0,0,1,34.62,56Z" style="fill:#0d022b;fill-rule:evenodd"/><path d="M30,60.86a1.76,1.76,0,0,1-.5-1.21,1.73,1.73,0,0,1,.5-1.21,1.77,1.77,0,0,1,2.42,0,1.73,1.73,0,0,1,.5,1.21,1.91,1.91,0,0,1-.5,1.21,1.58,1.58,0,0,1-1.21.49A2,2,0,0,1,30,60.86Z" style="fill:#0d022b;fill-rule:evenodd"/><path d="M25.24,65.62a1.46,1.46,0,0,1-.5-1.21,1.84,1.84,0,0,1,.5-1.21,1.77,1.77,0,0,1,2.42,0,1.88,1.88,0,0,1,.49,1.21,1.74,1.74,0,0,1-.49,1.21,1.6,1.6,0,0,1-1.21.5A1.57,1.57,0,0,1,25.24,65.62Z" style="fill:#0d022b;fill-rule:evenodd"/><path d="M20.33,70.38a1.53,1.53,0,0,1-.57-1.21A1.67,1.67,0,0,1,20.33,68a1.85,1.85,0,0,1,2.49,0,1.64,1.64,0,0,1,.57,1.21,1.5,1.5,0,0,1-.57,1.21,2.16,2.16,0,0,1-1.28.5A1.46,1.46,0,0,1,20.33,70.38Z" style="fill:#0d022b;fill-rule:evenodd"/><path d="M15.64,75.15a1.57,1.57,0,0,1-.5-1.21,1.87,1.87,0,0,1,.5-1.21,1.77,1.77,0,0,1,2.42,0,1.57,1.57,0,0,1,.5,1.21,1.91,1.91,0,0,1-.5,1.21,1.74,1.74,0,0,1-1.21.49A1.61,1.61,0,0,1,15.64,75.15Z" style="fill:#0d022b;fill-rule:evenodd"/><path d="M18.06,18.06a1.71,1.71,0,0,0,0-2.42,1.77,1.77,0,0,0-2.42,0,1.55,1.55,0,0,0-.5,1.21,1.89,1.89,0,0,0,.5,1.21,1.73,1.73,0,0,0,1.21.5A1.17,1.17,0,0,0,18.06,18.06Z" style="fill:#0d022b;fill-rule:evenodd"/><path d="M22.82,23a1.56,1.56,0,0,0,0-2.41,2,2,0,0,0-2.63,0,1.56,1.56,0,0,0,0,2.41,2.18,2.18,0,0,0,1.28.5A2.72,2.72,0,0,0,22.82,23Z" style="fill:#0d022b;fill-rule:evenodd"/><path d="M27.66,27.66a1.76,1.76,0,0,0,.49-1.21,1.86,1.86,0,0,0-.49-1.21,1.77,1.77,0,0,0-2.42,0,1.68,1.68,0,0,0-.5,1.21,1.86,1.86,0,0,0,.5,1.21,1.56,1.56,0,0,0,1.21.49A2.07,2.07,0,0,0,27.66,27.66Z" style="fill:#0d022b;fill-rule:evenodd"/><path d="M32.42,32.42a1.75,1.75,0,0,0,.5-1.21,1.89,1.89,0,0,0-.5-1.21A1.77,1.77,0,0,0,30,30a1.71,1.71,0,0,0,0,2.42,1.59,1.59,0,0,0,1.21.5A1.45,1.45,0,0,0,32.42,32.42Z" style="fill:#0d022b;fill-rule:evenodd"/><path d="M37.11,37.18A1.5,1.5,0,0,0,37.68,36a1.64,1.64,0,0,0-.57-1.21,1.85,1.85,0,0,0-2.49,0A1.56,1.56,0,0,0,34.05,36a1.53,1.53,0,0,0,.57,1.21,1.83,1.83,0,0,0,1.28.5A1.2,1.2,0,0,0,37.11,37.18Z" style="fill:#0d022b;fill-rule:evenodd"/><path d="M42.44,40.74a1.82,1.82,0,0,0-.5-1.21,1.75,1.75,0,0,0-2.41,0,1.54,1.54,0,0,0-.5,1.21,1.81,1.81,0,0,0,.5,1.2,1.68,1.68,0,0,0,1.21.5,1.81,1.81,0,0,0,1.2-.5A1.44,1.44,0,0,0,42.44,40.74Z" style="fill:#0d022b;fill-rule:evenodd"/><path d="M46.71,46.78a1.59,1.59,0,0,0,.5-1.21,1.89,1.89,0,0,0-.5-1.21,1.77,1.77,0,0,0-2.42,0,1.59,1.59,0,0,0-.5,1.21,1.89,1.89,0,0,0,.5,1.21,1.71,1.71,0,0,0,2.42,0Z" style="fill:#0d022b;fill-rule:evenodd"/><path d="M51.47,51.26A1.51,1.51,0,0,0,52,50.05a1.62,1.62,0,0,0-.57-1.21,1.85,1.85,0,0,0-2.49,0,1.57,1.57,0,0,0,0,2.42,1.87,1.87,0,0,0,1.28.5A1.33,1.33,0,0,0,51.47,51.26Z" style="fill:#0d022b;fill-rule:evenodd"/><path d="M56.31,56a1.72,1.72,0,0,0,.49-1.21,1.88,1.88,0,0,0-.49-1.21,1.77,1.77,0,0,0-2.42,0,1.84,1.84,0,0,0-.5,1.21,1.82,1.82,0,0,0,.5,1.21,1.54,1.54,0,0,0,1.21.5A1.51,1.51,0,0,0,56.31,56Z" style="fill:#0d022b;fill-rule:evenodd"/><path d="M61.07,60.86a1.76,1.76,0,0,0,.5-1.21,1.73,1.73,0,0,0-.5-1.21,1.77,1.77,0,0,0-2.42,0,1.73,1.73,0,0,0-.5,1.21,1.91,1.91,0,0,0,.5,1.21,1.58,1.58,0,0,0,1.21.49A1.88,1.88,0,0,0,61.07,60.86Z" style="fill:#0d022b;fill-rule:evenodd"/><path d="M65.55,65.62a1.49,1.49,0,0,0,.5-1.21,1.89,1.89,0,0,0-.5-1.21,1.77,1.77,0,0,0-2.42,0,1.89,1.89,0,0,0-.5,1.21,1.75,1.75,0,0,0,.5,1.21,1.71,1.71,0,0,0,2.42,0Z" style="fill:#0d022b;fill-rule:evenodd"/><path d="M70.6,70.38a1.47,1.47,0,0,0,.49-1.21A1.9,1.9,0,0,0,70.6,68a1.77,1.77,0,0,0-2.42,0,1.57,1.57,0,0,0-.5,1.21,1.71,1.71,0,0,0,1.71,1.71A1.47,1.47,0,0,0,70.6,70.38Z" style="fill:#0d022b;fill-rule:evenodd"/><path d="M75.36,75.15a1.67,1.67,0,0,0,.57-1.21,1.64,1.64,0,0,0-.57-1.21,1.85,1.85,0,0,0-2.49,0,1.6,1.6,0,0,0-.57,1.21,1.64,1.64,0,0,0,.57,1.21,2.24,2.24,0,0,0,1.28.49A1.61,1.61,0,0,0,75.36,75.15Z" style="fill:#0d022b;fill-rule:evenodd"/><path d="M29.36,19.41a29.51,29.51,0,0,1,32.14,0L71.73,9.17A42.31,42.31,0,0,0,45.43,0,41.69,41.69,0,0,0,19.2,9.17Z" style="fill:#0d022b;fill-rule:evenodd"/><path d="M19.12,61.42A28.26,28.26,0,0,1,14.29,45.5a27.83,27.83,0,0,1,4.83-15.93L9,19.41A42.64,42.64,0,0,0,9,71.8Z" style="fill:#0d022b;fill-rule:evenodd"/><path d="M61.42,71.59a28.54,28.54,0,0,1-15.92,5,27.3,27.3,0,0,1-16.14-5L19.12,81.83A41.31,41.31,0,0,0,45.5,91a42.56,42.56,0,0,0,26.09-9.17Z" style="fill:#0d022b;fill-rule:evenodd"/><path d="M71.45,29.43a27.82,27.82,0,0,1,4.83,16.21,28.53,28.53,0,0,1-4.83,15.64L81.69,71.45a42,42,0,0,0,0-52.4Z" style="fill:#0d022b;fill-rule:evenodd"/><path d="M82.11,74.79A7.18,7.18,0,1,1,74.93,82,7.21,7.21,0,0,1,82.11,74.79Z" style="fill:#0d022b;fill-rule:evenodd"/><path d="M8.89,74.79A7.18,7.18,0,1,1,1.78,82,7.15,7.15,0,0,1,8.89,74.79Z" style="fill:#0d022b;fill-rule:evenodd"/><path d="M82.25,1.56a7.18,7.18,0,1,1-7.1,7.18A7.15,7.15,0,0,1,82.25,1.56Z" style="fill:#0d022b;fill-rule:evenodd"/><path d="M8.74,1.56a7.19,7.19,0,0,1,7.18,7.11A7.18,7.18,0,1,1,8.74,1.56Z" style="fill:#0d022b;fill-rule:evenodd"/></svg>