<svg id="Layer_1" data-name="Layer 1" xmlns="http://www.w3.org/2000/svg" viewBox="0 0 91 91"><circle cx="45.5" cy="45.5" r="45.5" style="fill:#7866d5"/><path d="M63.92,23.36c1.54.19,3.14.32,4.68.58,3,.57,4.05,2.12,3.53,5.2A2.58,2.58,0,0,1,70,31.38a8.44,8.44,0,0,1-2.18.13c-10,0-20,.06-30,.06a26.1,26.1,0,0,0-4.49.39c-4.94.77-6.87,2.82-7.25,7.83-.2,2.31-.2,2.31,2.18,2.31H69.18a3.66,3.66,0,0,1,1.8.51c1.79,1.16,1.35,3,1.28,4.69A2.44,2.44,0,0,1,70,49.67a8.08,8.08,0,0,1-1.8.13H27.34c-1.48,0-1.48,0-1.35,1.48a22.44,22.44,0,0,0,.51,4A6.15,6.15,0,0,0,31.12,60a33.12,33.12,0,0,0,8.28,1H68.6c1.22,0,2.38.12,3.15,1.28A4.09,4.09,0,0,1,70.4,67.9a2,2,0,0,1-.83.38,22.15,22.15,0,0,1-6.55.9c-9.18.19-18.29.19-27.4,0a45.63,45.63,0,0,1-8.41-1C20.73,66.87,17.46,63.53,16.36,57c-.25-1.48-.38-3-.57-4.56V40.49c.13-1.15.25-2.37.38-3.53.84-7.38,4.17-11,11.43-12.7a63.23,63.23,0,0,1,7.82-1Z" style="fill:#fff"/><path d="M49.29,70.46c-4.62,0-9.18-.06-13.74-.12a43.83,43.83,0,0,1-8.6-1c-7-1.48-10.59-5.2-11.74-12.13A31.16,31.16,0,0,1,14.82,54l-.19-1.41V40.37l.13-1.16c.06-.83.19-1.6.26-2.37.9-7.9,4.62-11.94,12.38-13.67a52.12,52.12,0,0,1,6-.84l1.92-.19H64.11a11.2,11.2,0,0,0,1.41.13,31.7,31.7,0,0,1,3.34.45c3.66.7,5.07,2.76,4.43,6.48a3.75,3.75,0,0,1-3.21,3.21,14.08,14.08,0,0,1-2.38.19c-9.94.07-20,.13-29.9.13a25,25,0,0,0-4.3.38c-4.43.71-5.9,2.31-6.29,6.81,0,.38-.06.77-.06,1.09h42a5,5,0,0,1,2.38.64c2.18,1.41,2,3.53,1.86,5.07,0,.19-.07.45-.07.64a3.56,3.56,0,0,1-3.21,3.4,10.5,10.5,0,0,1-2,.13h-41v.26a19.47,19.47,0,0,0,.51,3.91,5,5,0,0,0,3.79,3.79,29.86,29.86,0,0,0,8,.9c7.57.06,15.27.06,22.78.06h6.42a4.4,4.4,0,0,1,4.1,1.86,5.15,5.15,0,0,1,.65,4A5.3,5.3,0,0,1,71,68.92a5.23,5.23,0,0,1-1.09.52,24.37,24.37,0,0,1-6.87,1C58.53,70.4,53.91,70.46,49.29,70.46ZM16.94,52.37a8.81,8.81,0,0,1,.13,1.34l.39,3.08c1,6,3.91,9,9.94,10.27a44.57,44.57,0,0,0,8.22,1c9.05.19,18.29.19,27.4,0a24,24,0,0,0,6.16-.84c.19-.06.39-.19.58-.26a3.3,3.3,0,0,0,1.35-1.86,2.8,2.8,0,0,0-.39-2.24c-.38-.58-.9-.77-2.12-.77H62.19c-7.45,0-15.21,0-22.79-.07a30.22,30.22,0,0,1-8.6-1,7.12,7.12,0,0,1-5.39-5.52,19.73,19.73,0,0,1-.51-4.3v-.07c-.06-.9-.13-1.54.38-2.11s1.22-.58,2.12-.58H68.22a6.65,6.65,0,0,0,1.6-.13c1-.19,1.29-.64,1.35-1.28,0-.26.06-.45.06-.71.13-1.6.13-2.37-.77-3A2.42,2.42,0,0,0,69.31,43H28.24c-1.41,0-2.25,0-2.89-.64s-.51-1.54-.45-2.89c.45-5.52,2.76-8,8.21-8.86a37.82,37.82,0,0,1,4.69-.45c10,0,20-.06,30-.06a9.94,9.94,0,0,0,2-.13A1.37,1.37,0,0,0,71,28.75c.45-2.57-.2-3.4-2.63-3.91a23.37,23.37,0,0,0-3.08-.39,11.35,11.35,0,0,0-1.42-.13H35.49l-1.93.19a45.75,45.75,0,0,0-5.77.77C21.05,27,18.1,30.23,17.33,37.16c-.07.77-.2,1.54-.26,2.37l-.13,1.09V52.37Z" style="fill:#fff"/></svg>