<svg id="Layer_1" data-name="Layer 1" xmlns="http://www.w3.org/2000/svg" xmlns:xlink="http://www.w3.org/1999/xlink" viewBox="0 0 91 91"><defs><linearGradient id="linear-gradient" x1="12.63" y1="45.5" x2="77.27" y2="45.5" gradientUnits="userSpaceOnUse"><stop offset="0" stop-color="#8098fa"/><stop offset="1" stop-color="#50b4f2"/></linearGradient></defs><path d="M91,43.3v4.38c0,.12-.06.24-.08.36,0,.44-.06.9-.1,1.35a36.88,36.88,0,0,1-.52,4.19,44.89,44.89,0,0,1-3.41,10.87A46.12,46.12,0,0,1,81.82,73a48,48,0,0,1-3.95,4.57,49,49,0,0,1-4,3.61,43.43,43.43,0,0,1-7,4.61A42.71,42.71,0,0,1,61,88.32,44.34,44.34,0,0,1,55,90,40.56,40.56,0,0,1,48,91a.84.84,0,0,0-.3.08H43.23a.84.84,0,0,0-.3-.08c-.45,0-.91-.09-1.35-.11a38.07,38.07,0,0,1-5-.7,45.68,45.68,0,0,1-7-2,45,45,0,0,1-5.86-2.68A44.33,44.33,0,0,1,17,81c-1.13-.95-2.24-1.92-3.31-2.92-.82-.81-1.61-1.7-2.39-2.54a37.37,37.37,0,0,1-3.06-3.91,43.37,43.37,0,0,1-3.79-6.46,44.25,44.25,0,0,1-2.07-5.1,41.32,41.32,0,0,1-2-8.4c-.18-1.47-.32-3-.38-4.43a36.73,36.73,0,0,1,.14-5.74c.18-1.49.34-3,.6-4.45A44.42,44.42,0,0,1,4.94,24.86a43.38,43.38,0,0,1,4.45-7.07,40.81,40.81,0,0,1,5.24-5.74c1.11-1,2.22-1.94,3.38-2.84a45.4,45.4,0,0,1,7.82-4.79A46.63,46.63,0,0,1,35,1.15,42.41,42.41,0,0,1,42.89,0L43.23,0h4.55a1.59,1.59,0,0,0,.3.06c.49,0,1,.06,1.45.13,1.13.12,2.26.22,3.39.4a43.26,43.26,0,0,1,7.39,1.87A45,45,0,0,1,66.45,5a49.94,49.94,0,0,1,5.18,3.14,47.75,47.75,0,0,1,5.29,4.35,41,41,0,0,1,3.79,4.11,44.56,44.56,0,0,1,5.86,9.24,45.16,45.16,0,0,1,3.12,8.68,42.73,42.73,0,0,1,1.23,8.34A2.36,2.36,0,0,0,91,43.3Z" style="fill:url(#linear-gradient)"/><path d="M90.92,42.9a42.73,42.73,0,0,0-1.23-8.34,45.16,45.16,0,0,0-3.12-8.68,44.56,44.56,0,0,0-5.86-9.24,41,41,0,0,0-3.79-4.11,47.75,47.75,0,0,0-5.29-4.35A49.94,49.94,0,0,0,66.45,5a45,45,0,0,0-6.14-2.62A43.26,43.26,0,0,0,52.92.55C51.79.37,50.66.27,49.53.15c-.48-.07-1-.09-1.45-.13a1.59,1.59,0,0,1-.3-.06H43.23L42.89,0A42.41,42.41,0,0,0,35,1.15a46.63,46.63,0,0,0-9.2,3.27A45.4,45.4,0,0,0,18,9.21c-1.16.9-2.27,1.87-3.38,2.84a40.81,40.81,0,0,0-5.24,5.74,43.38,43.38,0,0,0-4.45,7.07A44.42,44.42,0,0,0,.79,37c-.26,1.47-.42,3-.6,4.45a36.73,36.73,0,0,0-.14,5.74c.06,1.47.2,3,.38,4.43a41.32,41.32,0,0,0,2,8.4,44.25,44.25,0,0,0,2.07,5.1,43.37,43.37,0,0,0,3.79,6.46,37.37,37.37,0,0,0,3.06,3.91c.78.84,1.57,1.73,2.39,2.54,1.07,1,2.18,2,3.31,2.92a44.33,44.33,0,0,0,6.68,4.49,45,45,0,0,0,5.86,2.68,45.68,45.68,0,0,0,7,2,38.07,38.07,0,0,0,5,.7c.44,0,.9.07,1.35.11a.84.84,0,0,1,.3.08H47.7A.84.84,0,0,1,48,91,40.56,40.56,0,0,0,55,90a44.34,44.34,0,0,0,6-1.71,42.71,42.71,0,0,0,5.82-2.58,43.43,43.43,0,0,0,7-4.61,49,49,0,0,0,4-3.61A48,48,0,0,0,81.82,73a46.12,46.12,0,0,0,5.07-8.5A44.89,44.89,0,0,0,90.3,53.58a36.88,36.88,0,0,0,.52-4.19c0-.45.06-.91.1-1.35,0-.12.06-.24.08-.36V43.3A2.36,2.36,0,0,1,90.92,42.9ZM43.47,74.42c-2.19-1.51-4.37-3-6.54-4.55-3.07-2.14-6.15-4.29-9.23-6.41a22.15,22.15,0,0,1-3.42-2.75,19,19,0,0,1-4.7-8.16,21.4,21.4,0,0,1-.64-4q-.18-2.12-.18-4.23a18.4,18.4,0,0,1,1.37-6.89c.36-.9.82-1.77,1.23-2.67,0-.09.1-.15.16-.27a14.31,14.31,0,0,0,2.19,8.36c1.92,3.18,3.85,6.37,5.8,9.53,1.39,2.21,2.8,4.43,4.23,6.62,2.36,3.63,4.76,7.23,7.13,10.84,1.09,1.63,2.22,3.24,3.31,4.85a.45.45,0,0,1,.1.3ZM27.7,43.32a.54.54,0,0,1-.16-.14A31.38,31.38,0,0,1,25.36,39a12.28,12.28,0,0,1-.7-3,11.53,11.53,0,0,1,1-6A6.68,6.68,0,0,1,28,27.21c3.25-2.25,6.51-4.51,9.75-6.78,2-1.39,4-2.78,6-4.19l.57-.37C44.22,16.34,28,42.92,27.7,43.32ZM65.38,61.05a6.52,6.52,0,0,1-2.25,2.58c-2,1.43-4.09,2.84-6.13,4.25q-4.83,3.34-9.62,6.72c-.18.12-.39.24-.55.36,0,0-.06,0-.06-.06a.06.06,0,0,1,0,0c.1-.16.18-.32.27-.48q8.15-13.44,16.31-26.87s0,0,.14-.06c.26.47.54.93.78,1.39A19.09,19.09,0,0,1,66,52.49,11.78,11.78,0,0,1,65.38,61.05Zm4.69-5.56-.42.74a.21.21,0,0,1-.1.06c0-.26.06-.5.06-.76a13.21,13.21,0,0,0-.78-4.41,20.76,20.76,0,0,0-2.32-4.61c-2.38-3.83-4.71-7.66-7.09-11.46C57.49,32,55.49,29,53.52,26c-1.57-2.39-3.18-4.77-4.77-7.15C48.18,18,47.6,17.14,47,16.3a.92.92,0,0,1-.23-.45c.12.06.25.15.35.21l10.29,7.17L64.25,28a18.6,18.6,0,0,1,3.83,3.58,18.31,18.31,0,0,1,3.83,8.54c.18,1.11.26,2.24.34,3.35.06.9.06,1.79.08,2.67A19.93,19.93,0,0,1,70.07,55.49Zm-.52.8a.21.21,0,0,0,.1-.06l.42-.74a19.93,19.93,0,0,0,2.26-9.39c0-.88,0-1.77-.08-2.67-.08-1.11-.16-2.24-.34-3.35a18.31,18.31,0,0,0-3.83-8.54A18.6,18.6,0,0,0,64.25,28l-6.8-4.73L47.16,16.06c-.1-.06-.23-.15-.35-.21a.92.92,0,0,0,.23.45c.56.84,1.14,1.67,1.71,2.51,1.59,2.38,3.2,4.76,4.77,7.15,2,3,4,6,5.9,9.09,2.38,3.8,4.71,7.63,7.09,11.46a20.76,20.76,0,0,1,2.32,4.61,13.21,13.21,0,0,1,.78,4.41C69.61,55.79,69.57,56,69.55,56.29Zm-41.85-13c.32-.4,16.52-27,16.58-27.45l-.57.37c-2,1.41-4,2.8-6,4.19C34.47,22.7,31.21,25,28,27.21A6.68,6.68,0,0,0,25.65,30a11.53,11.53,0,0,0-1,6,12.28,12.28,0,0,0,.7,3,31.38,31.38,0,0,0,2.18,4.14A.54.54,0,0,0,27.7,43.32ZM44.28,75a.45.45,0,0,0-.1-.3c-1.09-1.61-2.22-3.22-3.31-4.85C38.5,66.2,36.1,62.6,33.74,59c-1.43-2.19-2.84-4.41-4.23-6.62-2-3.16-3.88-6.35-5.8-9.53a14.31,14.31,0,0,1-2.19-8.36c-.06.12-.12.18-.16.27-.41.9-.87,1.77-1.23,2.67a18.4,18.4,0,0,0-1.37,6.89q0,2.12.18,4.23a21.4,21.4,0,0,0,.64,4,19,19,0,0,0,4.7,8.16,22.15,22.15,0,0,0,3.42,2.75c3.08,2.12,6.16,4.27,9.22,6.41,2.18,1.53,4.36,3,6.55,4.55Zm2.55,0c.16-.12.37-.24.55-.36q4.8-3.37,9.62-6.72c2-1.41,4.09-2.82,6.13-4.25a6.52,6.52,0,0,0,2.25-2.58A11.78,11.78,0,0,0,66,52.49a19.09,19.09,0,0,0-1.74-3.65c-.24-.46-.52-.92-.78-1.39-.1,0-.14,0-.14.06Q55.17,61,47,74.38c-.08.16-.16.32-.26.48a.06.06,0,0,0,0,0S46.79,74.92,46.83,75Z" style="fill:none"/><path d="M21.52,34.55c-.07.11-.12.18-.16.26-.41.89-.86,1.77-1.24,2.68a18.41,18.41,0,0,0-1.35,6.88c0,1.41.05,2.82.16,4.22a22.11,22.11,0,0,0,.66,4,18.58,18.58,0,0,0,4.69,8.15,21.83,21.83,0,0,0,3.43,2.76c3.08,2.13,6.15,4.28,9.22,6.42l6.53,4.54.81.55a.43.43,0,0,0-.09-.31c-1.1-1.61-2.22-3.22-3.3-4.85q-3.59-5.4-7.13-10.83c-1.43-2.2-2.85-4.41-4.23-6.64q-2.94-4.74-5.8-9.52a14.27,14.27,0,0,1-2.2-8.35" style="fill:#fff"/><path d="M69.56,56.39s.08,0,.09-.07c.14-.25.29-.5.42-.76a19.82,19.82,0,0,0,2.26-9.37c0-.89,0-1.79-.08-2.68-.08-1.11-.15-2.24-.34-3.34A18.56,18.56,0,0,0,64.25,28l-6.79-4.72L47.15,16.14l-.33-.21a1.25,1.25,0,0,0,.21.45c.57.84,1.16,1.67,1.72,2.52,1.6,2.38,3.2,4.75,4.77,7.15,2,3,4,6,5.89,9.09,2.4,3.79,4.73,7.62,7.09,11.44a21.31,21.31,0,0,1,2.33,4.62,13.57,13.57,0,0,1,.79,4.41c0,.25,0,.51-.06.78" style="fill:#fff"/><path d="M63.46,47.53c-.08,0-.12,0-.14.06L47,74.47c-.09.15-.18.31-.26.47a0,0,0,0,0,0,0s0,0,.06.05l.55-.37L57,68l6.13-4.25a6.52,6.52,0,0,0,2.25-2.58,11.66,11.66,0,0,0,.6-8.55,18.73,18.73,0,0,0-1.72-3.65c-.25-.47-.53-.92-.8-1.4" style="fill:#fff"/><path d="M44.27,16l-.56.36-6,4.19L28,27.29A6.63,6.63,0,0,0,25.65,30a11.56,11.56,0,0,0-1,6,11.78,11.78,0,0,0,.71,3,29.11,29.11,0,0,0,2.17,4.14.77.77,0,0,0,.16.15C28,43,44.21,16.42,44.27,16" style="fill:#fff"/></svg>