<svg id="Layer_1" data-name="Layer 1" xmlns="http://www.w3.org/2000/svg" viewBox="0 0 91 91"><path d="M45.51,0A45.47,45.47,0,1,0,91,45.53,45.47,45.47,0,0,0,45.51,0Z"/><path d="M66.59,64.48,45.53,77.3,24.41,64.45c.18-.91.37-1.8.55-2.69q.95-4.53,1.87-9.06c.29-1.4.58-2.8.86-4.2q.93-4.44,1.84-8.88c.34-1.68.67-3.36,1-5a1.8,1.8,0,0,1,.34-.76c1.5-2,3-4.1,4.48-6.15,1.13-1.56,2.26-3.13,3.4-4.69l3.33-4.58,3.33-4.58.12-.13.7,1,3.4,4.7L53,24l3.89,5.38c1,1.37,2,2.75,3,4.11a2.94,2.94,0,0,1,.56,1.28c.27,1.37.56,2.74.85,4.11l1.89,9,1.32,6.32q.77,3.7,1.54,7.41c.16.77.33,1.55.48,2.33A3.07,3.07,0,0,1,66.59,64.48ZM34.08,34.8q5.7,17.27,11.41,34.49c.35-.82.62-1.61.88-2.41.82-2.47,1.63-4.95,2.45-7.42.54-1.64,1.09-3.27,1.63-4.91q1.5-4.53,3-9.06l2.79-8.43c.25-.75.5-1.5.75-2.27C53.16,29.54,49.36,24.3,45.53,19Zm24.33,5.34h-.08c-.06.21-.11.42-.18.62l-2.28,6.92-2.25,6.84c-.85,2.56-1.7,5.11-2.54,7.67l-2.67,8.09c-.22.7-.45,1.39-.72,2.19l15.4-9.41Q60.75,51.58,58.41,40.14ZM27.84,63.05l15.4,9.41c-3.58-10.85-7.11-21.58-10.65-32.32h-.07Z" style="fill:#fff"/></svg>