<svg id="Layer_1" data-name="Layer 1" xmlns="http://www.w3.org/2000/svg" viewBox="0 0 91 91"><path d="M45.54,0A45.48,45.48,0,1,0,91,45.51,45.47,45.47,0,0,0,45.54,0Z" style="fill:#e0e0e0"/><g id="layer5"><g id="g1627"><path id="path1599" d="M26.74,50.21l18.84,10,18.68-10c-6.76,10-12.4,18.42-18.68,27.68C39.29,68.65,32.34,58.46,26.74,50.21Zm.72-2.77L45.6,37.76l17.9,9.61L45.61,57.06ZM45.58,34.66,26.74,44.58,45.49,17.12,64.25,44.64l-18.67-10Z" style="fill:#3ab83a"/><path id="path1593" d="M45.58,60.24l18.68-10c-6.76,10-18.68,27.68-18.68,27.68Zm0-22.48,17.9,9.61L45.61,57.06V37.76Zm0-3.1L45.5,17.12,64.26,44.64Z" style="fill:#0b8311"/><path id="path1603" d="M27.46,47.44,45.6,48.93l17.9-1.55L45.61,57.07Z" style="fill:#0b8311"/><path id="path1606" d="M45.6,48.93l17.9-1.55L45.61,57.07V48.93Z" style="fill:#146714"/></g></g></svg>