<svg id="Layer_1" data-name="Layer 1" xmlns="http://www.w3.org/2000/svg" viewBox="0 0 91 91"><path d="M45.54,0A45.48,45.48,0,1,0,91,45.51,45.47,45.47,0,0,0,45.54,0Z" style="fill:#e0e0e0"/><path d="M45.47,61.57l-17.1-8.35,17.08,23L48,72.75V60.32Z" style="fill:#708299"/><path d="M45.45,14.6,25.83,49.8H65.06Z" style="fill:#708299"/><path d="M65.07,49.86,45.45,14.6V49.85H65.07Z" style="fill:#5b6a7c"/><path d="M45.45,40.25l-.08,0L25.84,49.83h0L45.4,59.45l.08,0L48,58.16V41.5Z" style="fill:#3c3c47"/><path d="M45.47,61.57l0,14.64,17.09-23Z" style="fill:#68788e"/><path d="M65,49.83,45.45,40.24l-.08,0,0,19.25.08,0,19.58-9.59h0Z" style="fill:#31313b"/></svg>