<svg id="Layer_1" data-name="Layer 1" xmlns="http://www.w3.org/2000/svg" viewBox="0 0 91 91"><g id="b-logo_1" data-name="b-logo 1"><path id="a-logo_1" data-name="a-logo 1" d="M0-.09H91v91H0Z" style="fill:#fff;fill-rule:evenodd"/></g><path d="M45.5,90.91a45.5,45.5,0,1,1,45.5-45,45.67,45.67,0,0,1-45.5,45" style="fill:#0090ff;fill-rule:evenodd"/><path d="M49.82,40l-1.36,7.28,13,1.82-.9,3.42L47.77,50.65c-.9,3-1.36,6.14-2.5,8.87-1.14,3.18-2.27,6.37-3.64,9.33a12.3,12.3,0,0,1-9.33,7.28A9.15,9.15,0,0,1,25,74.76a3,3,0,0,1-1.36-2.05,3.24,3.24,0,0,1,1.14-2.5,4,4,0,0,1,2.27.23,10,10,0,0,1,1.82,2.5,3.25,3.25,0,0,0,5,.68,13.76,13.76,0,0,0,3.86-6.82c1.37-5.46,2.73-10.69,3.87-16.15v-.91L29.57,47.92,30,44.5l12.51,1.82,1.6-7-13-2.05.45-3.64L45.05,35.4c.45-1.36.68-2.5,1.13-3.64,1.14-4.09,2.28-8.19,5-11.83S57.1,14,61.88,14.25a7.06,7.06,0,0,1,5.46,2.27A1.92,1.92,0,0,1,68,17.66a3.82,3.82,0,0,1-.68,2.73,2.19,2.19,0,0,1-3-.46c-.68-.68-1.13-1.36-1.82-2a3.1,3.1,0,0,0-5-.46,14.54,14.54,0,0,0-3,4.32c-1.59,4.78-2.73,9.79-4.32,14.79l12.51,1.82-.91,3.41L49.82,40" style="fill:#fff;fill-rule:evenodd"/></svg>