<svg id="Layer_1" data-name="Layer 1" xmlns="http://www.w3.org/2000/svg" viewBox="0 0 91 91"><g id="Layer_2" data-name="Layer 2"><g id="Layer_1-2" data-name="Layer 1-2"><g id="g43"><circle id="circle20" cx="45.5" cy="45.41" r="45.5" style="fill:#00ef8b"/><rect id="rect22" x="52.6" y="38.32" width="12.83" height="12.83" style="fill:#fff"/><path id="path24" d="M39.77,56a4.83,4.83,0,1,1-4.83-4.82h4.83V38.32H34.94A17.65,17.65,0,1,0,52.6,56h0V51.15H39.77Z" style="fill:#fff"/><path id="path26" d="M57.42,31.85H71.89V19H57.42A17.67,17.67,0,0,0,39.77,36.68v1.64H52.6V36.68A4.86,4.86,0,0,1,57.42,31.85Z" style="fill:#fff"/><polygon id="polygon28" points="52.6 38.31 52.6 38.31 39.77 38.31 39.77 51.15 52.6 51.15 52.6 38.31" style="fill:#16ff99"/></g></g></g></svg>