<svg id="Layer_1" data-name="Layer 1" xmlns="http://www.w3.org/2000/svg" viewBox="0 0 91 91"><path d="M5,67.33c1.11.58,2.56,1.48,3.6,2.17.38.26.81.49,1.22.74.23.14.37.21.57.35a2.49,2.49,0,0,0,.3.19L11,71l13.29,8.19c.19.1.37.22.57.34L37,86.92l.31.19L43,90.65c.26.14.36.32.66.33V45.91l-1.83-1a4,4,0,0,1-.45-.26L40,43.77c-2-1.07-3.93-2.38-6-3.45-.2-.1-.27-.17-.5-.28l-1.83-1A29.06,29.06,0,0,0,28.8,37.4v7.12l7.5,4.33c.2.12.34.21.53.31a2,2,0,0,0,.57.28V80c-1.31-.88-2.71-1.68-4.06-2.49l-3.26-2c-1.33-.9-2.76-1.64-4.09-2.52l-.4-.24L22.71,70.9a7.19,7.19,0,0,1-.83-.52c-1.06-.71-2.19-1.33-3.27-2-.29-.19-.53-.31-.82-.5-1.59-1.07-3.3-2-4.93-3l-.38-.26-1.26-.78V27.18c-.24-.16-.48-.29-.76-.45l-.76-.45L5.82,24.07c-.29-.15-.52-.33-.8-.47V67.33Z" style="fill:#060606;fill-rule:evenodd"/><path d="M47.42,45.85V63.16l2.29-1.29c1.06-.55,2-1.23,3.08-1.78a2.21,2.21,0,0,0,.39-.24,4.11,4.11,0,0,1,.42-.21V49.44a1.13,1.13,0,0,0,.43-.19c.16-.11.26-.14.41-.23.82-.46,1.61-1,2.44-1.43,1.12-.55,2.19-1.24,3.26-1.88l.8-.47,1.62-.91.4-.25c.71-.36,1.36-.84,2.09-1.22l.79-.47.42-.21,5.3-3.07c1.12-.59,2.16-1.29,3.26-1.88l1.64-1c.55-.33,1.09-.62,1.64-1,.29-.17.54-.29.8-.46l.86-.48V63.89a1.5,1.5,0,0,0-.52.26l-1.52.93-.46.31c-.21.12-.35.23-.52.33s-.3.19-.49.29l-1.53.92c-1.38.79-2.68,1.69-4.06,2.49l-4,2.5-.49.29c-1.81,1.23-3.74,2.25-5.57,3.44-.33.22-.68.41-1,.62L54.5,79.38l-.49.29c-1.5,1-3.07,1.83-4.57,2.82l-2.06,1.26V91a6.08,6.08,0,0,0,1.21-.69c.42-.26.81-.47,1.23-.74,1.15-.78,2.41-1.42,3.57-2.2.23-.13.4-.26.61-.38l3-1.88.57-.34,16.27-10,.6-.38,10.86-6.68a5.06,5.06,0,0,1,.63-.36V23.67a1.75,1.75,0,0,0-.61.31l-.59.33L81.17,26.4c-1.22.66-2.36,1.47-3.6,2.09l-9.66,5.56c-.43.24-.77.47-1.19.71l-1.78,1c-1.26.63-3.09,1.72-4.24,2.45-.21.14-.38.19-.59.33l-3.92,2.28a2.48,2.48,0,0,0-.31.18l-1.23.68c-.72.38-1.36.84-2.09,1.22-.17.09-.17.13-.31.19L51,43.81c-.82.39-3,1.9-3.61,2Z" style="fill:#060606;fill-rule:evenodd"/><path d="M7.43,20.7A2.64,2.64,0,0,1,8,21c.81.44,1.54.95,2.37,1.37L17,26.18c3.12,1.9,6.37,3.59,9.51,5.49l.59.33c.22.12.38.22.59.32l3.57,2.08a2.63,2.63,0,0,1,.26.15c1.67,1,3.43,1.88,5.09,2.94l5.32,3,.57.35a30.36,30.36,0,0,0,3.07,1.73,17.43,17.43,0,0,0,2.72-1.51l.93-.55c.31-.19.59-.31.9-.5l.89-.52,1.82-1.07c.31-.19.58-.33.88-.52l2.74-1.55c.18-.09.3-.17.45-.26l.45-.26,1.83-1.05a4.1,4.1,0,0,1,1-.52c0-.21-.09-.19-.26-.29L54,30.65c-2.34,1.23-4.55,2.66-6.86,3.92a5.69,5.69,0,0,0-.52.33c-.36.22-.69.41-1.07.62l-3.52-2c-1.23-.62-2.35-1.43-3.58-2.07l-.79-.47-7.15-4.11-.4-.24a3.23,3.23,0,0,0-.41-.22l-9.15-5.29a1,1,0,0,0-.43-.2c.19-.28.41-.3.72-.49s.5-.26.78-.41l8-4.3c.17-.1.17-.12.34-.21a2.78,2.78,0,0,0,.42-.22,6.57,6.57,0,0,1,.83-.43L41.1,9.46a4.11,4.11,0,0,0,.39-.24l4-2.16c.23,0,3.29,1.78,4,2.14a4.23,4.23,0,0,1,.47.25,3.38,3.38,0,0,0,.5.27l11,5.92c1,.61,3.9,2.15,4.94,2.66s2.3,1.3,3.47,1.89l6.53,3.54.5.27c.78.47.79.07,2-.62l2.34-1.33a24.52,24.52,0,0,1,2.34-1.31c-.07-.23-.27-.31-.48-.43L80.79,19c-1.19-.6-2.38-1.35-3.57-1.92L74.85,15.8a25.88,25.88,0,0,1-2.38-1.28L60.54,8.08A4.75,4.75,0,0,1,60,7.75l-4.8-2.59-.58-.33-.28-.13L48,1.28A19.72,19.72,0,0,0,45.52,0,18.61,18.61,0,0,0,43.7.93L30.05,8.32c-.23.11-.4.19-.61.31L19.87,13.8c-.22.12-.32.2-.58.32l-.87.47c-.17.09-.17.12-.31.19s-.39.17-.6.31l-1.83,1c-.24.12-.36.22-.59.32l-2.78,1.52c-.1.06-.1,0-.19.09-.4.22-.81.38-1.19.64a5.65,5.65,0,0,1-.6.31L7.65,20.44c-.21.13-.16,0-.22.26Z" style="fill:#060606;fill-rule:evenodd"/></svg>