<?xml version="1.0" encoding="UTF-8"?>
<svg id="Layer_1" data-name="Layer 1" xmlns="http://www.w3.org/2000/svg" xmlns:xlink="http://www.w3.org/1999/xlink" viewBox="0 0 91 91">
  <defs>
    <clipPath id="clippath">
      <circle cx="45.5" cy="45.5" r="45.5" style="fill: none;"/>
    </clipPath>
  </defs>
  <g id="Layer_1-2" data-name="Layer_1">
    <g id="_2167159189632" data-name=" 2167159189632">
      <path d="m91,45.5C91,20.38,70.62,0,45.5,0S0,20.38,0,45.5s20.38,45.5,45.5,45.5,45.5-20.38,45.5-45.5Z" style="fill: #e6bc7b;"/>
      <path d="m91,45.5C91,20.38,70.62,0,45.5,0S0,20.38,0,45.5s20.38,45.5,45.5,45.5,45.5-20.38,45.5-45.5Z" style="fill: none;"/>
      <g id="_路径_3088" data-name="路径 3088">
        <path d="m51.08,33.48h-11.24c-.69,0-1.25-.56-1.25-1.25v-11.39c0-.69.56-1.25,1.25-1.25s1.25.56,1.25,1.25v10.14h8.75v-10.14c0-.69.56-1.25,1.25-1.25s1.25.56,1.25,1.25v11.39c0,.69-.56,1.25-1.25,1.25Z"/>
      </g>
      <g id="_路径_3089" data-name="路径 3089">
        <path d="m51.08,71.26c-.69,0-1.25-.56-1.25-1.25v-10.14h-8.75v10.14c0,.69-.56,1.25-1.25,1.25s-1.25-.56-1.25-1.25v-11.39c0-.69.56-1.25,1.25-1.25h11.24c.69,0,1.25.56,1.25,1.25v11.39c0,.69-.56,1.25-1.25,1.25Z"/>
      </g>
      <g id="_路径_3090" data-name="路径 3090">
        <path d="m63.78,59.87H27.18c-.69,0-1.25-.56-1.25-1.25v-26.39c0-.69.56-1.25,1.25-1.25h36.6c.69,0,1.25.56,1.25,1.25s-.56,1.25-1.25,1.25H28.42v23.9h34.11v-11.03h-22.7c-.69,0-1.25-.56-1.25-1.25s.56-1.25,1.25-1.25h23.94c.69,0,1.25.56,1.25,1.25v13.52c0,.69-.56,1.25-1.25,1.25Z"/>
      </g>
      <g id="_椭圆_164" data-name="椭圆 164">
        <path d="m45.46,83.14c-5.09,0-10.03-1-14.68-2.96-4.49-1.9-8.52-4.62-11.99-8.08-3.46-3.46-6.18-7.5-8.08-11.99-1.97-4.65-2.96-9.59-2.96-14.68s1-10.03,2.96-14.68c1.9-4.49,4.62-8.52,8.08-11.99,3.46-3.46,7.5-6.18,11.99-8.08,4.65-1.97,9.59-2.96,14.68-2.96s10.03,1,14.68,2.96c4.49,1.9,8.52,4.62,11.99,8.08,3.46,3.46,6.18,7.5,8.08,11.99,1.97,4.65,2.96,9.59,2.96,14.68s-1,10.03-2.96,14.68c-1.9,4.49-4.62,8.52-8.08,11.99-3.46,3.46-7.5,6.18-11.99,8.08-4.65,1.97-9.59,2.96-14.68,2.96Zm0-72.93c-19.42,0-35.22,15.8-35.22,35.22s15.8,35.22,35.22,35.22,35.22-15.8,35.22-35.22S64.88,10.21,45.46,10.21Z"/>
      </g>
    </g>
  </g>
</svg>