<svg width="40" height="40" viewBox="0 0 40 40" fill="none" xmlns="http://www.w3.org/2000/svg">
<circle cx="20" cy="20" r="20" fill="#02E2AC"/>
<g clip-path="url(#clip0_16_22)">
<path d="M26.5583 16.5227L30.0112 13.0227L28.722 11.7159L27.4776 12.9773C25.6726 11.4318 23.3969 10.5341 21.0202 10.4545V8.67045C21.0202 8.29545 20.7287 8 20.3587 8C19.9888 8 19.6973 8.29545 19.6973 8.67045V10.4886C18.991 10.5568 18.3072 10.6818 17.6457 10.8864V8.67045C17.6457 8.29545 17.3543 8 16.9843 8C16.6143 8 16.3229 8.29545 16.3229 8.67045V11.375C12.6009 13.0568 10 16.8295 10 21.2273C10 27.1705 14.7758 32.0114 20.639 32.0114H28.1614V27.5455L26.5471 25.9091C27.5673 24.5795 28.1614 22.9432 28.1614 21.2273C28.1614 19.5114 27.5897 17.8523 26.5583 16.5341V16.5227ZM26.3341 21.2159C26.3341 22.4432 25.9529 23.625 25.2578 24.6023L23.3296 22.6477C23.5538 22.2159 23.6883 21.7386 23.6883 21.2273C23.6883 20.7159 23.5538 20.2273 23.3296 19.7955L25.2466 17.8523C25.9417 18.8295 26.3341 19.9886 26.3341 21.2159V21.2159ZM21.8722 21.2159C21.8722 21.9091 21.3229 22.4659 20.639 22.4659C19.9552 22.4659 19.4058 21.9091 19.4058 21.2159C19.4058 20.5227 19.9552 19.9659 20.639 19.9659C21.3229 19.9659 21.8722 20.5227 21.8722 21.2159ZM26.3341 30.1591H20.6278C15.7623 30.1591 11.8049 26.1477 11.8049 21.2159C11.8049 17.8864 13.6323 15 16.3117 13.4659V16.7727C16.3117 17.1477 16.6031 17.4432 16.9731 17.4432C17.343 17.4432 17.6345 17.1477 17.6345 16.7727V12.8409C18.5762 12.5 19.574 12.2727 20.6278 12.2727C22.6682 12.2727 24.6188 13 26.1771 14.2841L22.0291 18.4886C21.6031 18.2614 21.1323 18.125 20.6166 18.125C18.935 18.125 17.5673 19.5114 17.5673 21.2159C17.5673 22.9205 18.935 24.3068 20.6166 24.3068C21.1323 24.3068 21.6031 24.1705 22.0291 23.9432L26.3229 28.2955V30.1591H26.3341Z" fill="black"/>
</g>
<defs>
<clipPath id="clip0_16_22">
<rect width="20" height="24" fill="white" transform="translate(10 8)"/>
</clipPath>
</defs>
</svg>
