<svg id="Layer_1" data-name="Layer 1" xmlns="http://www.w3.org/2000/svg" xmlns:xlink="http://www.w3.org/1999/xlink" viewBox="0 0 91 91"><defs><linearGradient id="linear-gradient" y1="45.5" x2="91" y2="45.5" gradientUnits="userSpaceOnUse"><stop offset="0" stop-color="#00aee9"/><stop offset="1" stop-color="#69fabd"/></linearGradient></defs><circle cx="45.5" cy="45.5" r="45.5" style="fill:url(#linear-gradient)"/><path id="Shape" d="M60.2,19.71A11.16,11.16,0,0,0,49,30.83V43.17c-1.15.07-2.32.12-3.54.12s-2.39.05-3.54.12V30.83a11.16,11.16,0,0,0-22.32,0V60.31a11.16,11.16,0,0,0,22.32,0V48c1.15-.08,2.32-.13,3.54-.13s2.39-.05,3.54-.12V60.31a11.16,11.16,0,0,0,22.32,0V30.83A11.16,11.16,0,0,0,60.2,19.71ZM30.8,24.27a6.57,6.57,0,0,1,6.58,6.56V43.89a38.15,38.15,0,0,0-9.48,2.68,17.58,17.58,0,0,0-3.68,2.2V30.83A6.58,6.58,0,0,1,30.8,24.27Zm6.58,36a6.59,6.59,0,1,1-13.17,0h0v-3c0-2.61,2.07-5.08,5.54-6.62a32.29,32.29,0,0,1,7.63-2.24V60.31ZM60.2,66.87a6.57,6.57,0,0,1-6.58-6.56V47.25a37.72,37.72,0,0,0,9.48-2.68,17.58,17.58,0,0,0,3.68-2.2V60.31a6.58,6.58,0,0,1-6.58,6.56Zm1-26.47a32.75,32.75,0,0,1-7.63,2.23V30.83a6.59,6.59,0,0,1,13.17,0h0v3C66.79,36.39,64.72,38.86,61.25,40.4Z" style="fill:#fff"/></svg>