<svg id="Layer_1" data-name="Layer 1" xmlns="http://www.w3.org/2000/svg" xmlns:xlink="http://www.w3.org/1999/xlink" viewBox="0 0 91 91"><defs><linearGradient id="linear-gradient" x1="17.29" y1="37.64" x2="75.12" y2="53.76" gradientUnits="userSpaceOnUse"><stop offset="0" stop-color="#99f341"/><stop offset="0.51" stop-color="#00c7b2"/><stop offset="1" stop-color="#01c1c4"/></linearGradient></defs><path d="M45.51,0A45.5,45.5,0,1,0,91,45.53,45.5,45.5,0,0,0,45.51,0Z"/><path d="M26.54,52.63a8.7,8.7,0,0,1,8.84-14.94l-1,2.37,7.82-.68c-4-8.13-12.54-6.46-12.54-6.46h0a12.72,12.72,0,0,0-10.9,12h0C18.83,49.47,23,51.62,26.54,52.63ZM59.15,36.79v0c.1,0,8.53,0,12.15,4.13a12.71,12.71,0,0,0-21.58-3.55l0,0h0L38.21,51.08a8.68,8.68,0,0,1-6.69,3.13H31l-.26,0h0l-.56-.07h-.06c-2.65-.35-8.4-1.51-10.86-5.21a12.71,12.71,0,0,0,22,4.75L52.78,39.91A8.67,8.67,0,0,1,59.15,36.79Zm13,8.7c0-.43,0-.87-.06-1.3,0,0,0,0,0,0l-.17-.7a.06.06,0,0,0,0,0c-1-3.33-4.87-4.8-8.06-5.44A8.71,8.71,0,0,1,55.6,53.31l1-2.38-7.82.68c4,8.14,12.54,6.47,12.54,6.47h0A12.74,12.74,0,0,0,72.17,45.49Z" style="fill:url(#linear-gradient)"/></svg>