<svg id="Layer_1" data-name="Layer 1" xmlns="http://www.w3.org/2000/svg" viewBox="0 0 91 91"><circle cx="45.5" cy="45.5" r="45.5" style="fill:#8834ff"/><path d="M36.71,48.54H30.34c-.14,0-.32.06-.41-.15.86-1.89,1.72-3.82,2.59-5.74h4.19a6.85,6.85,0,0,0-.45-1.46c-.19-.44-.42-.86-.65-1.28a9,9,0,0,0-.67-1.06,15,15,0,0,0-1.2-1.44,15.75,15.75,0,0,0-1.69-1.47,18,18,0,0,0-2.26-1.39,13.17,13.17,0,0,0-1.46-.6c-.51-.19-1-.37-1.54-.51s-.89-.17-1.34-.25a2.66,2.66,0,0,0-.39-.07c-.58-.06-1.17-.1-1.75-.15l-.5-.08-2.22-5.17a.64.64,0,0,1,.5-.18h3.18c.12,0,.24.05.36.06.45.06.9.09,1.35.16s.88.15,1.31.24l1.16.25c.35.09.7.17,1,.27s.94.3,1.4.47,1,.4,1.49.62.86.43,1.27.66.86.48,1.27.74,1.06.71,1.57,1.09.84.68,1.24,1a16.28,16.28,0,0,1,1.17,1.18,20.82,20.82,0,0,1,1.51,1.84,17.57,17.57,0,0,1,1.34,2.25,16.17,16.17,0,0,1,.83,2,19.78,19.78,0,0,1,.53,2,.3.3,0,0,0,.32.28h4.13c.22,0,.28-.1.33-.31.1-.43.2-.86.32-1.29s.27-.89.43-1.33A9.19,9.19,0,0,1,49,38.9a15.13,15.13,0,0,1,1.24-2.27,18,18,0,0,1,1.47-1.91c.44-.49.9-1,1.37-1.42a17.34,17.34,0,0,1,2.76-2.15c.61-.39,1.23-.78,1.88-1.12.46-.23.93-.45,1.4-.65s1.24-.51,1.88-.72,1-.24,1.55-.42a9.31,9.31,0,0,1,1.37-.3,15.78,15.78,0,0,1,1.81-.26l.64-.08c.23,0,.46-.06.68-.06h2.72a4.34,4.34,0,0,1,.52.07.69.69,0,0,1-.08.52c-.23.56-.47,1.13-.71,1.69l-1,2.36c-.1.22-.18.44-.28.7a1.89,1.89,0,0,1-.4.08,12.59,12.59,0,0,0-2.12.21c-.45.1-.92.14-1.38.25a10.26,10.26,0,0,0-1.23.37c-.41.15-.81.32-1.2.48a12.74,12.74,0,0,0-2.24,1.21,17.54,17.54,0,0,0-1.69,1.29,15.38,15.38,0,0,0-1.68,1.83,12.39,12.39,0,0,0-2,4h.52l5,0c.14,0,.3,0,.4.14l-.45,1c-.35.78-.7,1.57-1.06,2.36s-.62,1.37-.94,2.06a1.7,1.7,0,0,1-.25.31H54.37a.39.39,0,0,0,0,.16,11.25,11.25,0,0,0,.42,1.15c.19.44.43.88.66,1.31.11.21.26.4.38.6a11.53,11.53,0,0,0,1.72,2.09A13.77,13.77,0,0,0,58.89,55a15.62,15.62,0,0,0,2.24,1.37,16.4,16.4,0,0,0,2.13.87,16.64,16.64,0,0,0,2.05.52,6.45,6.45,0,0,0,1.58.19c.34,0,.69,0,1,.06a.36.36,0,0,1,.32.25c.18.43.38.85.56,1.28s.46,1,.67,1.54.38.91.57,1.36l.36.82a.79.79,0,0,1-.58.18h-3a3,3,0,0,1-.5-.07c-.67-.11-1.35-.13-2-.26-.91-.17-1.81-.37-2.7-.62a12,12,0,0,1-1.35-.46c-.47-.19-.94-.35-1.4-.55a15.07,15.07,0,0,1-2.29-1.19c-.74-.47-1.47-1-2.18-1.46a16.89,16.89,0,0,1-1.35-1.19c-.34-.31-.66-.64-1-1a16.95,16.95,0,0,1-3.4-5.34A11.19,11.19,0,0,1,48,49.22a5.35,5.35,0,0,0-.2-.66l-4.66,0c-.08.27-.14.51-.21.75a12.08,12.08,0,0,1-.35,1.17c-.14.31-.24.64-.36,1a14.36,14.36,0,0,1-1,2.16,17.11,17.11,0,0,1-1.62,2.34,18.39,18.39,0,0,1-2.08,2.15,20.32,20.32,0,0,1-2.42,1.81,24,24,0,0,1-3.16,1.7,6,6,0,0,1-1.18.44c-.09,0-.16.1-.25.12-.68.2-1.36.41-2,.59-.45.13-.9.23-1.36.33s-.73.13-1.1.18l-1.71.2h-3a2.82,2.82,0,0,1-.57-.09s-.07,0-.11-.08l1.08-2.56c.33-.78.68-1.55,1-2.34a.56.56,0,0,1,.58-.37,10,10,0,0,0,2-.19c.44-.11.9-.13,1.34-.25a16.45,16.45,0,0,0,2.48-.84,17.69,17.69,0,0,0,2.56-1.41c.41-.26.77-.6,1.16-.9a11.1,11.1,0,0,0,1.74-1.82,11.24,11.24,0,0,0,2.05-3.81A.8.8,0,0,0,36.71,48.54Z" style="fill:#fff"/></svg>