<svg id="Layer_1" data-name="Layer 1" xmlns="http://www.w3.org/2000/svg" xmlns:xlink="http://www.w3.org/1999/xlink" viewBox="0 0 91 91"><defs><linearGradient id="linear-gradient" x1="-238.02" y1="-558.63" x2="-206.74" y2="-527.1" gradientTransform="translate(295.03 584.93)" gradientUnits="userSpaceOnUse"><stop offset="0.21" stop-color="#f15a24"/><stop offset="0.68" stop-color="#fbb03b"/></linearGradient><linearGradient id="linear-gradient-2" x1="-261.05" y1="-520.23" x2="-292.33" y2="-551.77" gradientTransform="translate(295.03 584.93)" gradientUnits="userSpaceOnUse"><stop offset="0.21" stop-color="#ed1e79"/><stop offset="0.89" stop-color="#522785"/></linearGradient></defs><path d="M68.9,22.69c-5.07,0-10.63,2.77-16.49,8.22a72.6,72.6,0,0,0-7,7.56s2.84,3.28,6,6.8a70.41,70.41,0,0,1,6.92-7.63c5.2-4.88,8.6-5.86,10.56-5.86a13.73,13.73,0,0,1,0,27.44,6.63,6.63,0,0,1-1.27-.15,16.2,16.2,0,0,0,6.6,1.7c13.39,0,16-9.26,16.18-9.92a24.25,24.25,0,0,0,.61-5.3C91,32.94,81.08,22.69,68.9,22.69Z" style="fill:url(#linear-gradient)"/><path d="M22.1,68.31c5.07,0,10.63-2.77,16.49-8.22a72.6,72.6,0,0,0,7-7.56s-2.84-3.28-6-6.8a70.41,70.41,0,0,1-6.92,7.63c-5.2,4.82-8.63,5.86-10.56,5.86a13.73,13.73,0,0,1,0-27.44,6.63,6.63,0,0,1,1.27.15,16.2,16.2,0,0,0-6.6-1.7C3.4,30.2.76,39.46.61,40.15A24.25,24.25,0,0,0,0,45.45C0,58.06,9.89,68.31,22.1,68.31Z" style="fill:url(#linear-gradient-2)"/><path d="M32.3,37.84c-1.48-1.42-8.63-7.23-15.48-7.43C4.59,30.1,1,39,.68,40.12A22.4,22.4,0,0,1,22.12,22.69c8.45,0,17,8.3,23.32,15.78l0,0s2.84,3.27,6,6.8c0,0,3.56,4.18,7.31,7.86,1.47,1.42,8.6,7.15,15.45,7.36,12.56.35,16-9,16.21-9.74A22.34,22.34,0,0,1,68.93,68.26c-8.45,0-17-8.3-23.34-15.78,0,0,0,0,0,.05s-2.84-3.28-6-6.8C39.63,45.73,36.08,41.52,32.3,37.84ZM.68,40.22a.07.07,0,0,1,0-.07A.07.07,0,0,0,.68,40.22Z" style="fill:#29abe2;fill-rule:evenodd"/></svg>