<svg width="40" height="40" viewBox="0 0 40 40" fill="none" xmlns="http://www.w3.org/2000/svg">
<path d="M40 20C40 8.9543 31.0457 -1.35705e-06 20 -8.74228e-07C8.9543 -3.91405e-07 -1.35705e-06 8.9543 -8.74228e-07 20C-3.91405e-07 31.0457 8.9543 40 20 40C31.0457 40 40 31.0457 40 20Z" fill="#F7F7F7"/>
<path d="M23.7881 33.348C22.9064 33.1507 22.0433 32.8679 21.1925 32.5664C19.0373 31.8031 17.0416 30.5004 15.6251 28.6814C14.4446 27.1655 13.7911 25.2366 13.9099 23.3257C13.9369 22.8901 14.0044 22.4556 14.1145 22.027C14.6213 20.0572 15.8404 18.2914 17.0775 16.7086C17.548 16.1067 17.4469 15.398 16.9907 14.7854C16.3728 13.9003 15.7546 13.0153 15.1367 12.1302C14.1278 10.6854 13.128 9.23572 12.1334 7.78101C12.1195 7.76071 12.1055 7.74041 12.0915 7.71978C12.0842 7.7088 12.0692 7.70614 12.0586 7.71346C8.15027 10.3587 5.48706 14.8959 5.48706 19.9701C5.48706 25.3447 8.36887 30.0463 12.6718 32.6136C12.6981 32.6293 12.7227 32.5914 12.6974 32.5741C9.09457 30.1215 6.75045 26.1313 6.75045 21.6261C6.75045 18.5686 7.83018 15.7487 9.6499 13.4854C9.65988 13.4728 9.67951 13.4738 9.6885 13.4874L11.3478 16.0125C11.5209 16.2757 11.5092 16.6188 11.3202 16.871C10.5965 17.8356 10.0119 18.9163 9.60565 20.0516C9.00207 21.7389 8.82971 23.5749 9.28057 25.3214C9.82425 27.4276 11.3039 29.3143 12.9137 30.732C14.3797 32.023 16.1282 32.963 18.0035 33.5044C19.3431 33.8913 20.7389 34.0817 22.1331 34.087C22.5493 34.0887 22.9646 34.071 23.3799 34.0424C23.5682 34.0294 23.8197 34.0065 23.9801 33.891C24.2257 33.714 24.046 33.4056 23.7885 33.348H23.7881Z" fill="url(#paint0_radial_8_175)"/>
<path d="M16.2117 6.65205C17.0935 6.84936 17.9566 7.13218 18.8074 7.43364C20.9625 8.19693 22.9583 9.49959 24.3747 11.3186C25.5553 12.8346 26.2088 14.7634 26.09 16.6743C26.063 17.1099 25.9955 17.5444 25.8853 17.973C25.3786 19.9428 24.1594 21.7086 22.9223 23.2914C22.4518 23.8933 22.553 24.6021 23.0092 25.215C23.6271 26.1 24.2453 26.9851 24.8632 27.8702C25.872 29.3149 26.8719 30.7646 27.8664 32.2194C27.8804 32.2397 27.8944 32.26 27.9084 32.2806C27.9157 32.2916 27.9307 32.2942 27.9413 32.2869C31.8496 29.6417 34.5128 25.1045 34.5128 20.0303C34.5128 14.6556 31.631 9.9541 27.3281 7.38672C27.3018 7.37109 27.2772 7.40935 27.3024 7.42632C30.9053 9.87891 33.2494 13.8691 33.2494 18.3743C33.2494 21.4318 32.1697 24.2517 30.35 26.515C30.34 26.5276 30.3203 26.5266 30.3114 26.513L28.652 23.9878C28.479 23.7246 28.4906 23.3816 28.6796 23.1294C29.4033 22.1648 29.9879 21.0841 30.3942 19.9488C30.9978 18.2615 31.1702 16.4255 30.7193 14.6789C30.1756 12.5727 28.6959 10.6861 27.0862 9.26834C25.6201 7.97733 23.8716 7.03735 21.9963 6.496C20.6567 6.10903 19.2609 5.9187 17.8668 5.91338C17.4505 5.91171 17.0353 5.92935 16.62 5.95796C16.4317 5.97094 16.1801 5.9939 16.0198 6.10936C15.7742 6.28637 15.9539 6.59482 16.2114 6.65238L16.2117 6.65205Z" fill="url(#paint1_radial_8_175)"/>
<defs>
<radialGradient id="paint0_radial_8_175" cx="0" cy="0" r="1" gradientUnits="userSpaceOnUse" gradientTransform="translate(14.8219 9.29229) scale(21.3379 21.3379)">
<stop stop-color="#0FFAE3"/>
<stop offset="0.47" stop-color="#2ABDFD"/>
<stop offset="1" stop-color="#1A627A"/>
</radialGradient>
<radialGradient id="paint1_radial_8_175" cx="0" cy="0" r="1" gradientUnits="userSpaceOnUse" gradientTransform="translate(25.1779 30.7077) rotate(180) scale(21.3379 21.3379)">
<stop stop-color="#0FFAE3"/>
<stop offset="0.47" stop-color="#2ABDFD"/>
<stop offset="1" stop-color="#1A627A"/>
</radialGradient>
</defs>
</svg>
