<svg id="Layer_1" data-name="Layer 1" xmlns="http://www.w3.org/2000/svg" viewBox="0 0 91 91"><polygon points="84.89 68.24 84.89 22.76 45.5 0.01 6.11 22.76 6.11 68.24 45.5 90.98 84.89 68.24"/><path d="M16.89,32.89,46,16.07,73.51,31.74,66.16,36,46,24.48l-14.55,8.4,8.15,4.72c1.24-.72,2.46-1.41,3.67-2.13a.84.84,0,0,1,1,0c2.07,1.2,4.15,2.38,6.38,3.66l-4.16,2.44,4.78,2.77,3.42-2,6.83,3.91-3.4,2,17.05,9.86L46,74.93,15.83,57.7V49.25L46,66.52l14.55-8.41-9.75-5.63-3.66,2.1-6.83-3.91L44,48.53,39.2,45.77l-2.91,1.66-6.83-3.92,2.89-1.69Z" style="fill:#fff"/></svg>