<svg id="Layer_1" data-name="Layer 1" xmlns="http://www.w3.org/2000/svg" viewBox="0 0 91 91"><path d="M45.51,0A45.47,45.47,0,1,0,91,45.53,45.47,45.47,0,0,0,45.51,0Z"/><path d="M56,19.45a3.58,3.58,0,1,1,3.55,3.6A3.55,3.55,0,0,1,56,19.45Z" style="fill:#fff"/><path d="M63.57,66.12A3.56,3.56,0,1,1,60,69.61,3.53,3.53,0,0,1,63.57,66.12Z" style="fill:#fff"/><path d="M18.05,51.59A3.55,3.55,0,1,1,21.63,48,3.54,3.54,0,0,1,18.05,51.59Z" style="fill:#fff"/><path d="M25.73,45.5a3,3,0,0,1,0-6.08,3,3,0,1,1,0,6.08Z" style="fill:#fff"/><path d="M60.6,25.83a3,3,0,0,1-.05,6.07,3,3,0,1,1,.05-6.07Z" style="fill:#fff"/><path d="M22.72,38a3,3,0,1,1,0-6,3,3,0,1,1,0,6Z" style="fill:#fff"/><path d="M71.52,30a3,3,0,1,1-3-3A3,3,0,0,1,71.52,30Z" style="fill:#fff"/><path d="M47,72.12a3,3,0,0,1,3-3,3,3,0,0,1,0,6A3,3,0,0,1,47,72.12Z" style="fill:#fff"/><path d="M57.86,65.92a3,3,0,1,1-3-3A2.94,2.94,0,0,1,57.86,65.92Z" style="fill:#fff"/><path d="M62.19,37a2.65,2.65,0,1,1-2.59-2.71A2.64,2.64,0,0,1,62.19,37Z" style="fill:#fff"/><path d="M33.14,41.9a2.59,2.59,0,0,1-2.59-2.63,2.64,2.64,0,0,1,2.61-2.57,2.6,2.6,0,0,1,2.6,2.62A2.56,2.56,0,0,1,33.14,41.9Z" style="fill:#fff"/><path d="M76.48,40.47a2.6,2.6,0,1,1-2.59-2.64A2.59,2.59,0,0,1,76.48,40.47Z" style="fill:#fff"/><path d="M45.87,60.93a2.6,2.6,0,1,1,2.57,2.64A2.55,2.55,0,0,1,45.87,60.93Z" style="fill:#fff"/><path d="M30.18,29.3a2.57,2.57,0,0,1,2.55,2.6,2.6,2.6,0,1,1-2.55-2.6Z" style="fill:#fff"/><path d="M67.51,35.42A2.59,2.59,0,1,1,64.94,38,2.55,2.55,0,0,1,67.51,35.42Z" style="fill:#fff"/><path d="M46.12,67.35a2.57,2.57,0,0,1-2.61,2.54,2.59,2.59,0,1,1,2.61-2.54Z" style="fill:#fff"/><path d="M38.25,69a2.58,2.58,0,0,1,0,5.15,2.58,2.58,0,1,1,0-5.15Z" style="fill:#fff"/><path d="M31.57,25.15a2.51,2.51,0,1,1-2.48-2.52A2.48,2.48,0,0,1,31.57,25.15Z" style="fill:#fff"/><path d="M59.45,43.35a2.22,2.22,0,1,1-2.2-2.24A2.22,2.22,0,0,1,59.45,43.35Z" style="fill:#fff"/><path d="M71.52,44.65a2.22,2.22,0,1,1-2.22,2.21A2.2,2.2,0,0,1,71.52,44.65Z" style="fill:#fff"/><path d="M39.11,30.7a2.22,2.22,0,1,1-2.22-2.23A2.23,2.23,0,0,1,39.11,30.7Z" style="fill:#fff"/><path d="M38,23.94a2.22,2.22,0,1,1-2.22-2.21A2.2,2.2,0,0,1,38,23.94Z" style="fill:#fff"/><path d="M39.92,35.9a2.22,2.22,0,1,1-2.25,2.2A2.24,2.24,0,0,1,39.92,35.9Z" style="fill:#fff"/><path d="M46.28,55.77a2.21,2.21,0,1,1-2.2-2.24A2.2,2.2,0,0,1,46.28,55.77Z" style="fill:#fff"/><path d="M65.2,46.63A2.19,2.19,0,0,1,63,44.44a2.21,2.21,0,0,1,4.42,0A2.19,2.19,0,0,1,65.2,46.63Z" style="fill:#fff"/><path d="M39.13,64.26a2.21,2.21,0,0,1,0-4.41,2.23,2.23,0,0,1,2.23,2.22A2.2,2.2,0,0,1,39.13,64.26Z" style="fill:#fff"/><path d="M33.81,64.18a2.2,2.2,0,1,1-2.2,2.16A2.16,2.16,0,0,1,33.81,64.18Z" style="fill:#fff"/><path d="M62,47.4a1.92,1.92,0,1,1,0,3.83,1.92,1.92,0,0,1,0-3.83Z" style="fill:#fff"/><path d="M41.61,22.34a1.92,1.92,0,1,1-1.92,1.88A1.91,1.91,0,0,1,41.61,22.34Z" style="fill:#fff"/><path d="M36.45,58.79A1.91,1.91,0,0,1,36.51,55a1.91,1.91,0,1,1-.06,3.82Z" style="fill:#fff"/><path d="M56,48.19a1.9,1.9,0,1,1-1.91-1.88A1.9,1.9,0,0,1,56,48.19Z" style="fill:#fff"/><path d="M42.69,32.88a1.89,1.89,0,1,1,0-3.78,1.89,1.89,0,1,1,0,3.78Z" style="fill:#fff"/><path d="M31.18,63.08a1.9,1.9,0,1,1,1.91-1.88A1.89,1.89,0,0,1,31.18,63.08Z" style="fill:#fff"/><path d="M45.7,40.32a1.9,1.9,0,1,1,1.91-1.87A1.87,1.87,0,0,1,45.7,40.32Z" style="fill:#fff"/><path d="M39.54,50.53a1.88,1.88,0,1,1,1.86,1.92A1.87,1.87,0,0,1,39.54,50.53Z" style="fill:#fff"/><path d="M68.35,53.64a1.88,1.88,0,0,1,.06-3.75,1.88,1.88,0,1,1-.06,3.75Z" style="fill:#fff"/><path d="M66.52,55.18a1.68,1.68,0,1,1-1.71-1.67A1.69,1.69,0,0,1,66.52,55.18Z" style="fill:#fff"/><path d="M40.22,47.41a1.65,1.65,0,1,1,1.64-1.64A1.62,1.62,0,0,1,40.22,47.41Z" style="fill:#fff"/><path d="M52.18,51.65a1.68,1.68,0,0,1-1.64,1.67,1.66,1.66,0,1,1,0-3.32A1.69,1.69,0,0,1,52.18,51.65Z" style="fill:#fff"/><path d="M60.12,52.75a1.65,1.65,0,1,1-1.64-1.65A1.62,1.62,0,0,1,60.12,52.75Z" style="fill:#fff"/><path d="M30,58a1.65,1.65,0,0,1-1.63-1.67A1.67,1.67,0,0,1,30,54.75a1.64,1.64,0,0,1,1.59,1.64A1.62,1.62,0,0,1,30,58Z" style="fill:#fff"/><path d="M35.26,53.74a1.64,1.64,0,1,1,1.66-1.62A1.62,1.62,0,0,1,35.26,53.74Z" style="fill:#fff"/><path d="M49.06,32.39A1.6,1.6,0,0,1,47.36,34,1.63,1.63,0,0,1,45.8,32.3a1.66,1.66,0,0,1,1.66-1.59A1.62,1.62,0,0,1,49.06,32.39Z" style="fill:#fff"/><path d="M46.37,27.22a1.61,1.61,0,1,1,0-3.21,1.61,1.61,0,1,1,0,3.21Z" style="fill:#fff"/><path d="M52.11,39.81a1.6,1.6,0,1,1-1.57-1.64A1.61,1.61,0,0,1,52.11,39.81Z" style="fill:#fff"/><path d="M50,29.1a1.45,1.45,0,1,1,1.47-1.41A1.47,1.47,0,0,1,50,29.1Z" style="fill:#fff"/><path d="M53.45,55a1.42,1.42,0,1,1,2.83.08A1.42,1.42,0,1,1,53.45,55Z" style="fill:#fff"/><path d="M35.22,46.48a1.42,1.42,0,0,1,0,2.84,1.42,1.42,0,1,1,0-2.84Z" style="fill:#fff"/><path d="M29.88,50.78a1.41,1.41,0,1,1-1.38,1.41A1.42,1.42,0,0,1,29.88,50.78Z" style="fill:#fff"/><path d="M52.53,34.36a1.4,1.4,0,0,1-1.37,1.42,1.41,1.41,0,1,1,0-2.81A1.4,1.4,0,0,1,52.53,34.36Z" style="fill:#fff"/><path d="M61.23,58.68a1.35,1.35,0,0,1-1.32-1.33,1.33,1.33,0,1,1,1.32,1.33Z" style="fill:#fff"/><path d="M59,58.46a1.23,1.23,0,0,1-1.23,1.21,1.25,1.25,0,0,1-1.18-1.22,1.22,1.22,0,0,1,1.24-1.19A1.2,1.2,0,0,1,59,58.46Z" style="fill:#fff"/><path d="M30.63,49.9a1.19,1.19,0,0,1-1.2-1.17,1.22,1.22,0,0,1,1.21-1.22,1.2,1.2,0,0,1,1.19,1.18A1.16,1.16,0,0,1,30.63,49.9Z" style="fill:#fff"/><path d="M52.74,28.87a1.15,1.15,0,0,1,1.16,1.18,1.19,1.19,0,0,1-1.17,1.19A1.21,1.21,0,0,1,51.53,30,1.17,1.17,0,0,1,52.74,28.87Z" style="fill:#fff"/></svg>