<svg id="Layer_1" data-name="Layer 1" xmlns="http://www.w3.org/2000/svg" xmlns:xlink="http://www.w3.org/1999/xlink" viewBox="0 0 91 91"><defs><linearGradient id="linear-gradient" x1="78.85" y1="14.1" x2="8.58" y2="80.41" gradientUnits="userSpaceOnUse"><stop offset="0.01" stop-color="#f6931e"/><stop offset="0.24" stop-color="#ed8e1d"/><stop offset="0.94" stop-color="#d67f1a"/></linearGradient></defs><path d="M35.67,60.59a8.13,8.13,0,0,0-.92,2.71c-.5,2.92,2.78,4.68,5,3.47A6.16,6.16,0,0,0,42.52,64c1.5-3.22,1.82-6.64,1.79-10.43C41.3,54.22,37.68,57.09,35.67,60.59ZM91,49.16V42.09l-2.71-.6c-.06-1.19-.11-2.32-.15-3.32L90.48,37c-.66-2.27-1.3-4.44-1.94-6.63H86c-.34-.73-.66-1.44-1-2.14l2.11-1.85-3.54-6.16L81,21l-1.71-2.31,1.52-2.18L76,11.46l-2.29,1.45-2.8-2.37.9-2.42L65.62,4.54c-.68.74-1.17,1.27-1.74,1.91L61,5.24c.1-.91.19-1.61.29-2.56L54.51.77c-.47.88-.82,1.51-1.24,2.29l-3.64-.6c-.21-.89-.38-1.59-.56-2.3h-7l-.62,2.38-3.23.24c-.41-.72-.74-1.28-1.14-2a30.14,30.14,0,0,0-6.83,1.86c.08.83.13,1.48.2,2.31l-2.4.93-1.62-1.8c-1.12.6-2.18,1.14-3.21,1.73s-2,1.2-2.95,1.79c.24.86.42,1.49.65,2.28l-2.39,1.75-2-1.5-4.84,5.61,1,1.48c-.82,1-1.6,1.93-2.34,2.83L8.13,19.3c-1,2.22-2.63,4-3.42,6.14l1.55,1.77C5.83,28.15,5.41,29.07,5,30H2.7C2.05,32.2,1.41,34.44.78,36.62l2.16,1.25c-.24,1.31-.45,2.52-.66,3.7L0,42.15C0,44,0,45.74,0,47.51c0,.51.1,1,.17,1.62l2.24.55c.12,1.15.23,2.23.34,3.35l-2,1,1.87,6.89,2.28-.18,1,2.39L4.13,64.75l3.51,6.07,2.18-.67,1.8,2.26c-.42.79-.76,1.42-1.16,2.15l4.8,5.15L17.4,78.4l2.84,2.29c-.18.48-.32.81-.44,1.15s-.21.67-.36,1.14l6.11,3.52,1.68-1.85L30,86c-.08.88-.13,1.53-.2,2.38a30.87,30.87,0,0,0,6.88,1.74l1-1.8c1.36,0,2.69-.31,3.89.58.14.67.27,1.3.42,2h7l.61-2.36,3.23-.34,1.14,2a29.65,29.65,0,0,0,6.87-1.64c-.08-.9-.15-1.62-.23-2.53L63.09,85,64.75,87l6.1-3.43c-.27-1-.45-1.7-.67-2.56l2.23-1.69,2.16,1.4a33.64,33.64,0,0,0,5.08-5c-.52-.76-.93-1.36-1.45-2.1l2.33-2.89,2.39,1.08c1.17-2.22,2.77-4.06,3.51-6.33l-1.87-1.71c.44-1,.85-1.89,1.27-2.8l2.57.26c.67-2.3,1.33-4.55,2-6.86l-2.5-1.17c.19-1.25.36-2.45.53-3.6ZM45.51,83c-19,.65-37.69-15.4-37.63-37.63C7.94,24,25.81,7.66,46,7.86c19.56.2,37.4,16.2,37.29,37.89C83.17,67.73,64.52,83.77,45.51,83Zm.05-71.95C27.41,10.48,11.28,26,11,44.84A34.63,34.63,0,1,0,80.2,46.13C80.55,26.33,63.76,10.4,45.56,11.08Zm1.08,3.66a5.73,5.73,0,0,1,5.42,5.68,5.58,5.58,0,0,1-11.16-.09A5.76,5.76,0,0,1,46.64,14.74Zm23.13,24.1-17.55,10a5,5,0,0,0-.2.91c-.12,4.15-.25,8.3-.33,12.45-.22,10.87-10.57,13.52-17.11,11.4a9.07,9.07,0,0,1-6.23-7.91c-.43-4.87,2-8.35,5.4-11.38A38.39,38.39,0,0,1,43.84,48V37.31l-11.41,5c0-1.05-.09-1.81-.14-2.78C38.68,35.85,45,32,51.84,28.35c.62,5.39-.63,10.39,0,15.68l17.94-8.45Z" style="fill:url(#linear-gradient)"/></svg>