<svg id="Layer_1" data-name="Layer 1" xmlns="http://www.w3.org/2000/svg" viewBox="0 0 91 91"><circle cx="45.5" cy="45.5" r="45.5" style="fill:#eaeaea"/><path d="M25.8,63.59l3,9.07L49.59,45.5,28.83,18.34l-3.17,8.87L39.45,45.5Z" style="fill:#ff564f;isolation:isolate;opacity:0.200000002980232"/><path d="M70.07,72.65H60.21L39.44,45.5,60.21,18.34h9.86L49.59,45.5Z" style="fill:#f08179"/><path d="M20.92,18.34h7.9V72.65h-7.9Z" style="fill:#ff564f"/><path id="_0" data-name="0" d="M70.08,72.65H60.22L39.45,45.5,60.22,18.34h9.86L49.6,45.5Z" style="fill:#ff564f"/><path id="_0-2" data-name="0" d="M70.08,72.65H60.22L39.45,45.5,60.22,18.34h9.86L49.6,45.5Z" style="fill:#ff564f"/><path id="_0-3" data-name="0" d="M70.08,72.65H60.22L39.45,45.5,60.22,18.34h9.86L49.6,45.5Z" style="fill:#ff564f"/><path id="_0-4" data-name="0" d="M70.08,72.65H60.22L39.45,45.5,60.22,18.34h9.86L49.6,45.5Z" style="fill:#ff564f"/></svg>