<svg width="40" height="40" viewBox="0 0 40 40" fill="none" xmlns="http://www.w3.org/2000/svg">
<g clip-path="url(#clip0_17_30)">
<path d="M20.0006 40.0011C31.0466 40.0011 40.0011 31.0466 40.0011 20.0006C40.0011 8.95456 31.0466 0 20.0006 0C8.95456 0 0 8.95456 0 20.0006C0 31.0466 8.95456 40.0011 20.0006 40.0011Z" fill="black"/>
<path d="M31.0818 10.4593L21.708 19.9455L31.1805 29.418C33.3274 26.8728 34.624 23.5865 34.624 19.996C34.624 16.4055 33.2872 13.0205 31.0818 10.4604V10.4593Z" fill="url(#paint0_linear_17_30)"/>
<path d="M29.3295 8.7346C26.9014 6.72077 23.8101 5.48035 20.4319 5.38281L13.041 25.217L29.3295 8.7346Z" fill="url(#paint1_linear_17_30)"/>
<path d="M5.40679 19.1055C5.38958 19.4004 5.37695 19.6965 5.37695 19.9948C5.37695 23.5979 6.68278 26.8934 8.84234 29.442L17.0216 7.48956L5.40679 19.1055Z" fill="url(#paint2_linear_17_30)"/>
<path d="M10.9491 30.8316L10.7632 31.3296C13.2819 33.3847 16.496 34.6183 20.0004 34.6183C23.5048 34.6183 26.8945 33.3147 29.443 31.1575L19.9797 21.6942L10.9491 30.8327V30.8316Z" fill="url(#paint3_linear_17_30)"/>
</g>
<defs>
<linearGradient id="paint0_linear_17_30" x1="29.2412" y1="5.17744" x2="27.0943" y2="35.2322" gradientUnits="userSpaceOnUse">
<stop stop-color="#FF8800"/>
<stop offset="1" stop-color="#BB0446"/>
</linearGradient>
<linearGradient id="paint1_linear_17_30" x1="22.0648" y1="4.66564" x2="19.9179" y2="34.7204" gradientUnits="userSpaceOnUse">
<stop stop-color="#FF8800"/>
<stop offset="1" stop-color="#BB0446"/>
</linearGradient>
<linearGradient id="paint2_linear_17_30" x1="11.8832" y1="3.93811" x2="9.73623" y2="33.9929" gradientUnits="userSpaceOnUse">
<stop stop-color="#FF8800"/>
<stop offset="1" stop-color="#BB0446"/>
</linearGradient>
<linearGradient id="paint3_linear_17_30" x1="22.0016" y1="4.66102" x2="19.8547" y2="34.7158" gradientUnits="userSpaceOnUse">
<stop stop-color="#FF8800"/>
<stop offset="1" stop-color="#BB0446"/>
</linearGradient>
<clipPath id="clip0_17_30">
<rect width="40" height="40" fill="white"/>
</clipPath>
</defs>
</svg>
