<svg id="Layer_1" data-name="Layer 1" xmlns="http://www.w3.org/2000/svg" viewBox="0 0 91 91"><path d="M40.75,45.5,74.61,64.89a1.77,1.77,0,0,0,2.44-.6h0a1.69,1.69,0,0,0,.25-.93V27.63a1.77,1.77,0,0,0-1.74-1.8h0a1.77,1.77,0,0,0-1,.27Z" style="fill:#31cb9e"/><path d="M74.08,17.51,50.94.49a1.84,1.84,0,0,0-2.58.34h0a1.64,1.64,0,0,0-.32.63L39.59,39.38l34.29-19a1.7,1.7,0,0,0,.74-2.29,1.61,1.61,0,0,0-.54-.62" style="fill:#31cb9e"/><path d="M50.91,90.5l23.17-17a1.73,1.73,0,0,0,.43-2.41h0a1.63,1.63,0,0,0-.61-.53l-34.3-19L48,89.49a1.82,1.82,0,0,0,2.19,1.35h0a1.86,1.86,0,0,0,.67-.31" style="fill:#31cb9e"/><path d="M32,44.8,40.8,3.63a1.75,1.75,0,0,0-2.71-1.77L15.52,19.15a4.63,4.63,0,0,0-1.83,3.72V66.75a4.63,4.63,0,0,0,1.83,3.78L38,87.77A1.75,1.75,0,0,0,40.66,86Z" style="fill:#31cb9e"/></svg>