<svg id="Layer_1" data-name="Layer 1" xmlns="http://www.w3.org/2000/svg" viewBox="0 0 91 91"><circle cx="45.5" cy="45.5" r="45.5"/><path d="M73.61,28.13a7.76,7.76,0,0,0-4.18-2c-2-.26-3.94,1.05-5.29,1.91s-3.88,3.41-4.93,4.19-3.74,1.49-8.07,4.09-21.32,13.5-21.32,13.5l4.42.06L14.53,60h2l-2.84,2.15a6.4,6.4,0,0,0,4.61-.66v.61s23.47-9.25,28-6.86l-2.76.82c.24,0,4.7.29,4.7.29a6.34,6.34,0,0,0,2.84,4.57c2.69,1.77,2.74,2.74,2.74,2.74s-1.4.58-1.4,1.29a14.74,14.74,0,0,1,4-.57,15.54,15.54,0,0,1,3.59.57s-.14-.77-2-1.29-3.7-2.54-4.6-3.64a5.17,5.17,0,0,1-.76-5c.65-1.68,2.9-2.6,7.54-5,5.47-2.84,6.72-4.94,7.5-6.58s1.91-4.9,2.56-6.43a8.33,8.33,0,0,1,2.63-3.65,33.45,33.45,0,0,1,4.52-2S74.52,28.85,73.61,28.13Z" style="fill:#fff"/></svg>