<svg id="Layer_1" data-name="Layer 1" xmlns="http://www.w3.org/2000/svg" viewBox="0 0 91 91"><path d="M45.51,0A45.47,45.47,0,1,0,91,45.53,45.47,45.47,0,0,0,45.51,0Z" style="fill:#e0e0e0"/><path d="M74.19,42.47a6.26,6.26,0,0,1-1.61,4.28c-.86,1-1.8,1.89-2.72,2.81-1.69,1.7-3.39,3.38-5.08,5.08l-5.05,5-6.51,6.52L44,75.42,42.47,77c-.28.28-.37.28-.65.05A11.59,11.59,0,0,1,39,73.84a6.31,6.31,0,0,1-.82-3.9A7.85,7.85,0,0,1,39.59,66a8.47,8.47,0,0,1,.87-1l20-20L68,37.45l2.06-2.05c.29-.29.32-.3.63,0a10.1,10.1,0,0,1,3.46,6.13,2.58,2.58,0,0,1,0,.29C74.19,42,74.19,42.25,74.19,42.47Z" style="fill:#2143fb"/><path d="M27.51,60a7.73,7.73,0,0,1,2.36-5.82Q37,47.14,44.05,40L59.17,24.91c.08-.08.17-.16.24-.24s.32-.15.5,0a9.71,9.71,0,0,1,3.52,6.4,6.39,6.39,0,0,1-1.81,5.21c-1.09,1.15-2.23,2.24-3.34,3.36q-2,2-4,4L35.68,62.24l-3.81,3.83-.25.23a.27.27,0,0,1-.42,0A10.15,10.15,0,0,1,27.83,62,5,5,0,0,1,27.51,60Z" style="fill:#4e7bfd"/><path d="M49,13.82a13,13,0,0,1,2.4,2.8,9.43,9.43,0,0,1,1.16,2.79,6.62,6.62,0,0,1-.95,5.22,14.19,14.19,0,0,1-1.82,2.05c-1.69,1.68-3.36,3.38-5,5.06-1.52,1.51-3,3-4.55,4.53-1.78,1.77-3.54,3.56-5.31,5.34l-8,7.94-5.8,5.81-.39.37-1.36-1.25c-.11-.1-.2-.22-.3-.32a6.94,6.94,0,0,1-2.19-5.56A7.6,7.6,0,0,1,19,43.69c2.84-2.81,5.65-5.64,8.47-8.47,1.8-1.8,3.58-3.61,5.38-5.41L48.65,14.09Z" style="fill:#7eb6ff"/></svg>