<svg id="Layer_1" data-name="Layer 1" xmlns="http://www.w3.org/2000/svg" viewBox="0 0 91 91"><path d="M45.54,0A45.48,45.48,0,1,0,91,45.51,45.47,45.47,0,0,0,45.54,0Z" style="fill:#e0e0e0"/><path d="M45.56,19.5c-7.76,4.41-15.41,9-23.26,13.5-.15,9,0,18,0,27.06,1,.62,1.95,1.18,2.88,1.72L44.63,73a8,8,0,0,1,.75.55h.54a17.58,17.58,0,0,1,1.5-1.11l20-11.63c.46-.27.91-.58,1.39-.89v-27C61.14,28.48,53.42,24,45.56,19.5ZM58.51,54.08l-3.18,1.85-9.82,5.7L32.57,54.17c0-1.61,0-3.21,0-4.8,0-3.42,0-6.92,0-10.41l4.84-2.83,8.16-4.76,13,7.47V54.08Z" style="fill:#2d60e0"/></svg>