<svg width="40" height="40" viewBox="0 0 40 40" fill="none" xmlns="http://www.w3.org/2000/svg">
<circle cx="20" cy="20" r="20" fill="#20CF6A"/>
<path d="M26.8335 21.169C26.643 21.169 26.3183 21.0688 25.9936 20.9816C25.4957 20.8508 24.9978 20.6983 24.4697 20.7332C24.0237 20.7637 23.6427 20.938 23.344 21.2606C22.5214 22.1454 21.7075 23.0346 20.8936 23.9239C18.8674 26.1338 16.8456 28.3481 14.8194 30.5624C14.5164 30.8937 14.3865 30.9024 14.0531 30.5929C13.395 29.9827 12.7456 29.3725 12.0832 28.7622C11.9923 28.6794 11.975 28.6227 12.0356 28.5094C12.2478 28.1389 12.5768 27.873 12.8539 27.5592C14.9406 25.2359 17.0837 22.9649 19.1575 20.6329C19.7593 19.9573 20.5299 19.796 21.4001 19.9224C22.1188 20.0227 22.8375 20.1578 23.5691 20.0139C24.0887 19.9093 24.5216 19.6739 24.8939 19.2947C26.4655 17.6994 27.9591 16.0256 29.4571 14.3648C29.7212 14.0684 29.9896 13.7764 30.2624 13.4887C30.4832 13.2577 30.6087 13.2446 30.8598 13.4364C31.3707 13.8243 31.8123 14.2994 32.2842 14.731C32.4531 14.8879 32.6262 15.0448 32.7908 15.2017C33.0592 15.4502 33.0678 15.5679 32.8254 15.8381C32.1067 16.6227 31.375 17.3899 30.665 18.1832C30.0026 18.9199 29.3013 19.6216 28.6778 20.3888C28.3098 20.8421 27.5608 21.169 26.8205 21.169H26.8335Z" fill="#FEFEFE"/>
<path d="M4.95023 15.1959C5.34456 15.1959 5.92089 15.3264 6.50156 15.3525C7.55456 15.4004 8.44289 15.0827 9.16655 14.2821C11.6885 11.4974 14.2192 8.7257 16.7542 5.95401C17.5862 5.04461 18.4312 4.14392 19.2545 3.22148C19.5059 2.943 19.5795 2.9256 19.8569 3.17796C20.4245 3.68705 20.9835 4.21354 21.5425 4.73568C21.6422 4.82706 21.7505 4.91408 21.8502 5.00545C22.0409 5.1795 22.0495 5.26652 21.8762 5.45798C21.0529 6.37607 20.2295 7.29852 19.3932 8.20791C17.4345 10.3487 15.4672 12.4851 13.5042 14.6259C13.2399 14.9131 12.9842 15.2046 12.7329 15.5092C11.9702 16.436 10.9995 16.6057 9.90322 16.2924C9.44389 16.1618 8.99755 16.0052 8.51222 16.0226C7.97056 16.0444 7.49822 16.2228 7.12556 16.6274C6.01623 17.8457 4.9069 19.0597 3.8019 20.278C3.5289 20.5783 3.33823 20.5957 3.03923 20.3172C2.41957 19.7428 1.7999 19.1685 1.18024 18.5941C0.950573 18.3809 0.941906 18.2635 1.14557 18.0285C1.8129 17.2496 2.51057 16.4969 3.22123 15.7572C3.64157 15.3177 4.1659 15.1698 4.94156 15.1959H4.95023Z" fill="#FEFEFE"/>
<path d="M29.4316 22.5334C30.0399 22.5472 30.609 22.6486 31.1869 22.6901C32.1949 22.7685 33.0204 22.3951 33.6982 21.6069C34.5237 20.6436 35.3666 19.694 36.1965 18.7353C36.5049 18.3804 36.5875 18.3619 36.922 18.68C37.5564 19.2838 38.2038 19.8738 38.8077 20.5145C39.0597 20.7819 39.064 20.8971 38.8207 21.169C38.2863 21.7729 37.7432 22.3675 37.2305 22.9897C36.5658 23.801 35.7359 23.9946 34.7757 23.7318C34.3282 23.612 33.8763 23.5152 33.4201 23.4184C32.7771 23.2755 32.2253 23.4875 31.7908 23.9807C30.5265 25.4096 29.2708 26.857 28.0195 28.2997C25.6516 31.0284 23.2837 33.7571 20.9158 36.4905C20.8332 36.5873 20.755 36.6841 20.6768 36.7855C20.477 37.0482 20.3336 37.0713 20.099 36.8454C19.5602 36.3338 19.0301 35.8129 18.4957 35.2967C18.4175 35.2183 18.335 35.1446 18.2481 35.0754C17.9439 34.8173 17.9179 34.5868 18.1786 34.2826C18.9563 33.3746 19.734 32.4665 20.5161 31.5631C22.7971 28.9266 25.0825 26.2946 27.3678 23.6627C27.4764 23.5382 27.5764 23.4092 27.685 23.2847C28.1629 22.727 28.7451 22.4458 29.4359 22.538L29.4316 22.5334Z" fill="#FEFEFE"/>
<path d="M12.0775 17.5546C12.781 17.6026 13.3326 17.6113 13.8754 17.6811C15.0046 17.8249 15.9166 17.4805 16.6897 16.6348C17.8145 15.4098 18.948 14.1891 20.0771 12.9685C21.5016 11.4252 22.8696 9.83403 24.3419 8.33437C24.5721 8.09896 24.6242 8.0946 24.8891 8.29949C25.4407 8.73544 25.914 9.25858 26.4439 9.71632C26.5568 9.81659 26.674 9.91686 26.787 10.0171C27.0519 10.2438 27.0736 10.4618 26.8304 10.7234C26.2007 11.4122 25.5579 12.0879 24.9282 12.7767C23.3343 14.5161 21.7405 16.2555 20.1597 18.0037C19.5473 18.6837 18.8177 18.9235 17.9361 18.7143C17.5365 18.6184 17.1283 18.5486 16.7374 18.4309C15.8862 18.1781 15.1783 18.4309 14.5964 19.0499C13.7582 19.9436 12.9504 20.8591 12.1252 21.7615C10.9787 23.0171 9.83218 24.2726 8.68131 25.5281C8.52496 25.6981 8.38599 25.7156 8.21227 25.5586C7.53477 24.9483 6.85728 24.338 6.18847 23.7189C5.94092 23.4879 5.94092 23.4617 6.16675 23.1958C6.92242 22.3065 7.71718 21.4564 8.50325 20.5976C9.19811 19.839 9.88864 19.0805 10.5835 18.3219C11.0265 17.838 11.5563 17.5285 12.0818 17.5546H12.0775Z" fill="#FEFEFE"/>
</svg>
