<svg id="Layer_1" data-name="Layer 1" xmlns="http://www.w3.org/2000/svg" viewBox="0 0 91 91"><path d="M45.5,91.36A45.86,45.86,0,1,1,91.36,45.52,45.87,45.87,0,0,1,45.5,91.36ZM25.39,73.65a1.12,1.12,0,0,0,.47,0H64.34A1.77,1.77,0,0,0,66,72.42a.28.28,0,0,1,0-.12c.71-2.47,1.43-4.93,2.14-7.4a1.89,1.89,0,0,0,.08-.4,1.25,1.25,0,0,0-1-1.34,2.69,2.69,0,0,0-.57,0h-25a1.6,1.6,0,0,1-.23,0c.08-.43,4.63-15.76,4.77-16.07l.3-.1,4.81-1.4,2-.58c.15,0,.25-.11.27-.27l0-.12c.46-1.54.91-3.07,1.36-4.61,0-.09,0-.18.08-.31l-.23,0-1.39.42-5.23,1.59a.74.74,0,0,1-.38.07c0-.14.06-.26.1-.38l5.46-18.6,2.1-7.15a2.77,2.77,0,0,0,.11-.48,1.26,1.26,0,0,0-1.11-1.4,2.88,2.88,0,0,0-.41,0c-3.14,0-6.28,0-9.41,0a1.88,1.88,0,0,0-2,1.45c-1.2,4.14-2.43,8.26-3.66,12.39L33.67,46c0,.09-.07.18-.1.28L26.3,48.46c-.53,1.69-1.05,3.37-1.56,5.06,0,0,0,0,0,.09l.31-.08,1.7-.52,4.87-1.48c.09,0,.18-.09.29,0-.27.91-.55,1.84-.82,2.76L30.32,57c-.27.93-.55,1.85-.82,2.78l-.81,2.74c-.27.93-.55,1.85-.82,2.78s-.55,1.85-.82,2.78-.55,1.83-.81,2.74S25.64,72.71,25.39,73.65Z" style="fill:#345d9d"/><path d="M25.39,73.65c.25-.94.55-1.86.81-2.78s.55-1.83.81-2.74.55-1.85.82-2.78.55-1.85.82-2.78l.81-2.74c.27-.93.55-1.85.82-2.78l.81-2.74c.27-.92.55-1.85.82-2.76-.11-.11-.2,0-.29,0L26.75,53l-1.7.52-.31.08,0-.09q.77-2.53,1.56-5.06l7.27-2.21a1.9,1.9,0,0,0,.1-.28l5.46-18.43c1.22-4.13,2.45-8.26,3.66-12.39a1.9,1.9,0,0,1,2-1.45c3.14,0,6.28,0,9.41,0a2.75,2.75,0,0,1,.41,0,1.26,1.26,0,0,1,1.11,1.4,2,2,0,0,1-.11.48l-2.1,7.15L48,41.37l-.1.38a.65.65,0,0,0,.38-.07l5.23-1.59,1.39-.42.23,0c0,.13-.05.22-.08.31-.45,1.54-.91,3.07-1.36,4.61a.53.53,0,0,0,0,.12.32.32,0,0,1-.27.27l-2,.58-4.81,1.4-.3.1c-.14.31-4.69,15.63-4.77,16.07l.23,0h25a2.16,2.16,0,0,1,.57.05,1.25,1.25,0,0,1,1,1.34,1.77,1.77,0,0,1-.08.4c-.71,2.47-1.43,4.93-2.14,7.4a.56.56,0,0,1,0,.12,1.76,1.76,0,0,1-1.66,1.27H25.83A1.25,1.25,0,0,1,25.39,73.65Z" style="fill:#fefeff"/></svg>