<svg id="Layer_1" data-name="Layer 1" xmlns="http://www.w3.org/2000/svg" viewBox="0 0 91 91"><circle cx="45.5" cy="45.5" r="45.5" style="fill:#172852"/><path d="M36.65,20.33A26.52,26.52,0,0,1,53.4,20,26.93,26.93,0,0,1,69.55,34.19a16.6,16.6,0,0,1,1.77,6,61.89,61.89,0,0,0-12.69-5.16c-7-2.51-14.29-4.26-20.9-7.72-1.53-.92-3.5-1.86-3.91-3.77-.17-1.66,1.58-2.58,2.83-3.23" style="fill:#ffd83d"/><path d="M20.57,36.44a26,26,0,0,1,7.5-10.95,33.74,33.74,0,0,0,9,19.35,32.31,32.31,0,0,0,23.46,10c3.48.11,6.89-.7,10.29-1.35C67.46,65.59,54.22,73.61,42,71.68A26.63,26.63,0,0,1,20.57,36.44Z" style="fill:#ffd83d"/><path d="M58.63,35.05a61.89,61.89,0,0,1,12.69,5.16l.27.14a27.64,27.64,0,0,1,.14,8.37,24.34,24.34,0,0,1-5.31-3.65c-3.26-2.71-6.58-5.81-7.79-10" style="fill:#ff6f03"/></svg>