<svg id="Layer_1" data-name="Layer 1" xmlns="http://www.w3.org/2000/svg" viewBox="0 0 91 91"><path d="M45.51,0A45.5,45.5,0,1,0,91,45.53,45.5,45.5,0,0,0,45.51,0Z" style="fill:#dc2626"/><path d="M70.23,44.61c1,.17,1,1.06,0,1.24C54,48.68,56.06,60.75,53.14,73.74a.53.53,0,0,1-1,0c-2.91-13-.84-25.06-17.07-27.89-1-.18-1-1.07,0-1.24C51.26,41.77,49.19,29.7,52.1,16.71h0a.53.53,0,0,1,1,0C56.06,29.7,54,41.77,70.23,44.61Z" style="fill:#fff"/><path d="M39.52,28.27c.32.06.32.34,0,.4-5.19.9-4.52,4.76-5.45,8.9a.17.17,0,0,1-.34,0c-.93-4.14-.26-8-5.45-8.9-.32-.06-.32-.34,0-.4,5.19-.9,4.52-4.75,5.45-8.9h0a.18.18,0,0,1,.34,0C35,23.52,34.33,27.37,39.52,28.27Z" style="fill:#fff"/><path d="M32.69,58.3c.43.08.43.45,0,.52-6.8,1.19-5.93,6.24-7.15,11.68a.22.22,0,0,1-.43,0C23.89,65.06,24.75,60,18,58.82c-.43-.07-.43-.44,0-.52,6.79-1.18,5.93-6.24,7.15-11.67h0a.22.22,0,0,1,.43,0C26.76,52.06,25.89,57.12,32.69,58.3Z" style="fill:#fff"/></svg>