<svg id="Layer_1" data-name="Layer 1" xmlns="http://www.w3.org/2000/svg" xmlns:xlink="http://www.w3.org/1999/xlink" viewBox="0 0 91 91"><defs><linearGradient id="linear-gradient" x1="577.63" y1="15.96" x2="577.47" y2="15.8" gradientTransform="matrix(400, 0, 0, -400, -230973.57, 6397.67)" gradientUnits="userSpaceOnUse"><stop offset="0" stop-color="#ff2d55"/><stop offset="1" stop-color="#ffbc5b"/></linearGradient><linearGradient id="linear-gradient-2" x1="571.86" y1="18.03" x2="571.86" y2="17.8" gradientTransform="matrix(125, 0, 0, -150, -71436.22, 2734.2)" gradientUnits="userSpaceOnUse"><stop offset="0" stop-color="#a524b3"/><stop offset="1" stop-color="#ff2d55"/></linearGradient><linearGradient id="linear-gradient-3" x1="567.94" y1="19.63" x2="567.94" y2="19.4" gradientTransform="matrix(91.7, 0, 0, -110, -52008.25, 2207.24)" xlink:href="#linear-gradient-2"/></defs><circle cx="45.5" cy="45.5" r="45.5" style="fill:url(#linear-gradient)"/><path d="M32.24,29.58V63.7H60.67Z" style="fill-rule:evenodd;fill:url(#linear-gradient-2)"/><path d="M3.8,63.7H32.24V29.58Z" style="fill:#fff;fill-rule:evenodd"/><path d="M9.1,72.8a46.15,46.15,0,0,0,9.1,9.1H72.8a46.15,46.15,0,0,0,9.1-9.1Z" style="fill:#fc9965;fill-rule:evenodd"/><path d="M18.2,81.9a45.5,45.5,0,0,0,54.6,0Z" style="fill:#ff2d55;fill-rule:evenodd"/><path d="M61,47.77v25H81.9Z" style="fill-rule:evenodd;fill:url(#linear-gradient-3)"/><path d="M61,63.7H3.8a45.56,45.56,0,0,0,5.3,9.1h52V63.7Z" style="fill:#ffbc5b;fill-rule:evenodd"/><path d="M40.2,72.8H61v-25Z" style="fill:#fff;fill-rule:evenodd"/><circle cx="61.04" cy="29.58" r="11.37" style="fill:#ffc95b"/><circle cx="32.24" cy="17.06" r="5.69" style="fill:#ffc95b"/></svg>