<svg width="40" height="40" viewBox="0 0 40 40" fill="none" xmlns="http://www.w3.org/2000/svg">
<g clip-path="url(#clip0_2_2)">
<path d="M20 40C31.0457 40 40 31.0457 40 20C40 8.95431 31.0457 0 20 0C8.95431 0 0 8.95431 0 20C0 31.0457 8.95431 40 20 40Z" fill="#1C68F3"/>
<path fill-rule="evenodd" clip-rule="evenodd" d="M32 15.3333V22H12V22.0001L11.1395 22.0001C12.0503 26.0451 15.6647 29.0667 19.9848 29.0667C23.5565 29.0667 26.6457 27.0015 28.1237 24.0001L32 24.0001V29.6C32 30.9255 30.9255 32 29.6 32H10.4C9.07452 32 8 30.9255 8 29.6V15.3333H32ZM25.8218 24.0001C24.549 25.861 22.4095 27.0821 19.9848 27.0821C17.5602 27.0821 15.4207 25.861 14.1479 24.0001H25.8218ZM14.8667 16.9333C12.9859 16.9333 11.4299 18.3241 11.1711 20.1334L13.2169 20.1334C13.4419 19.437 14.0954 18.9333 14.8667 18.9333C15.6379 18.9333 16.2915 19.437 16.5164 20.1334L18.5622 20.1334C18.3034 18.3241 16.7475 16.9333 14.8667 16.9333V16.9333ZM25.1333 16.9333C23.2525 16.9333 21.6966 18.3241 21.4378 20.1334L23.4836 20.1334C23.7085 19.437 24.3621 18.9333 25.1333 18.9333C25.9046 18.9333 26.5581 19.437 26.7831 20.1334L28.8289 20.1334C28.5701 18.3241 27.0141 16.9333 25.1333 16.9333ZM29.6 8C30.9255 8 32 9.07452 32 10.4V13.3333H8V10.4C8 9.07452 9.07452 8 10.4 8H29.6Z" fill="white"/>
</g>
<defs>
<clipPath id="clip0_2_2">
<rect width="40" height="40" fill="white"/>
</clipPath>
</defs>
</svg>
