<svg id="Layer_1" data-name="Layer 1" xmlns="http://www.w3.org/2000/svg" viewBox="0 0 91 91"><circle cx="45.5" cy="45.5" r="45.5" style="fill:#8247e5"/><path d="M61.18,35.07a4.09,4.09,0,0,0-3.82,0l-8.91,5.26L42.4,43.67l-8.76,5.25a4,4,0,0,1-3.82,0L23,44.78a3.88,3.88,0,0,1-1.91-3.34v-8A3.93,3.93,0,0,1,23,30.14l6.85-4a4,4,0,0,1,3.82,0l6.85,4.14a3.88,3.88,0,0,1,1.91,3.34v5.25l6.05-3.5V30a3.93,3.93,0,0,0-1.92-3.35L33.8,19.15a4,4,0,0,0-3.82,0L16.92,26.79A3.51,3.51,0,0,0,15,30v15a3.94,3.94,0,0,0,1.91,3.35l12.9,7.48a4,4,0,0,0,3.82,0l8.76-5.1,6.05-3.5,8.75-5.09a4,4,0,0,1,3.82,0l6.85,4a3.88,3.88,0,0,1,1.91,3.34v8a3.93,3.93,0,0,1-1.91,3.34l-6.69,4a4,4,0,0,1-3.82,0l-6.85-4a3.88,3.88,0,0,1-1.91-3.34V52.27l-6.05,3.5V61a3.93,3.93,0,0,0,1.92,3.35l12.89,7.48a4,4,0,0,0,3.82,0l12.9-7.48A3.9,3.9,0,0,0,76,61V45.9a3.94,3.94,0,0,0-1.91-3.35Z" style="fill:#fff"/></svg>