<svg id="Layer_1" data-name="Layer 1" xmlns="http://www.w3.org/2000/svg" xmlns:xlink="http://www.w3.org/1999/xlink" viewBox="0 0 91 91"><defs><linearGradient id="linear-gradient" x1="-1082.67" y1="2061.8" x2="-1082.67" y2="1970.8" gradientTransform="matrix(1, 0, 0, -1, 1128.17, 2061.8)" gradientUnits="userSpaceOnUse"><stop offset="0" stop-color="#4fa89b"/><stop offset="1" stop-color="#6acebb"/></linearGradient></defs><g id="Layer_2" data-name="Layer 2"><g id="Layer_1-2" data-name="Layer 1-2"><circle cx="45.5" cy="45.5" r="45.5" style="fill:url(#linear-gradient)"/><path d="M23,59.33V37.91L39.35,50.14v9.19H43.8v-10a2.41,2.41,0,0,0-1-1.94L22.57,32.52a2.54,2.54,0,0,0-3.49.5,2.42,2.42,0,0,0-.5,1.44V59.33Zm44.5,0V37.91L51.21,50.14v9.19H46.77v-10a2.4,2.4,0,0,1,1-1.95L68,32.52a2.55,2.55,0,0,1,3.49.51A2.4,2.4,0,0,1,72,34.46V59.33Z" style="fill:#fff"/></g></g></svg>