<svg id="Layer_1" data-name="Layer 1" xmlns="http://www.w3.org/2000/svg" xmlns:xlink="http://www.w3.org/1999/xlink" viewBox="0 0 90.94 90.94"><defs><linearGradient id="linear-gradient" x1="22.59" y1="45.47" x2="68.35" y2="45.47" gradientUnits="userSpaceOnUse"><stop offset="0" stop-color="#640ecd"/><stop offset="0.36" stop-color="#f34b70"/><stop offset="0.64" stop-color="#fa6c54"/><stop offset="1" stop-color="#fc9b2f"/></linearGradient></defs><path d="M45.48,0A45.47,45.47,0,1,0,90.94,45.5,45.47,45.47,0,0,0,45.48,0Z" style="fill:#e0e0e0"/><path d="M27.71,27.26a2.55,2.55,0,1,0-5.1,0q0,16.54,0,33.09c0,1.17,0,2.33,0,3.49a2.55,2.55,0,0,0,5.09.12,8.75,8.75,0,0,0,0-.89V45.5h0C27.72,39.42,27.73,33.34,27.71,27.26ZM41.23,36.8a3.6,3.6,0,0,0-.2-1.31A2.5,2.5,0,0,0,38.28,34a2.53,2.53,0,0,0-2.12,2.6c0,3.31,0,6.62,0,9.93,0,2.59,0,5.18,0,7.78a2.54,2.54,0,1,0,5.07.12c0-3,0-6,0-8.94S41.25,39.69,41.23,36.8ZM54.8,40.38a2.53,2.53,0,0,0-2.53-2.58,2.48,2.48,0,0,0-2.54,2.55q0,5.1,0,10.2A2.86,2.86,0,0,0,50.15,52a2.44,2.44,0,0,0,2.71,1.09,2.5,2.5,0,0,0,1.93-2.4c0-1.73,0-3.46,0-5.19h0C54.8,43.78,54.82,42.08,54.8,40.38ZM68.35,27.66a5.35,5.35,0,0,0-.07-1.06,2.49,2.49,0,0,0-2.47-2.06,2.46,2.46,0,0,0-2.48,2A7.43,7.43,0,0,0,63.24,28l0,32.2c0,1.19,0,2.39,0,3.58a2.55,2.55,0,0,0,2.94,2.6,2.59,2.59,0,0,0,2.15-2.84q0-9,0-18.06h0C68.35,39.53,68.36,33.6,68.35,27.66Z" style="fill:url(#linear-gradient)"/></svg>