<svg id="Layer_1" data-name="Layer 1" xmlns="http://www.w3.org/2000/svg" viewBox="0 0 91 91"><circle cx="45.5" cy="45.5" r="45.5"/><path d="M59.33,24.92,49.75,39.13a1,1,0,0,0,1.53,1.33l9.42-8.2a.37.37,0,0,1,.61.3V58.18a.38.38,0,0,1-.66.26L32.13,24.31a4.72,4.72,0,0,0-3.72-1.73h-1a4.88,4.88,0,0,0-4.83,4.89V63.53a4.89,4.89,0,0,0,9.06,2.55L41.2,51.87a1,1,0,0,0-1.53-1.33l-9.42,8.15a.37.37,0,0,1-.62-.3V32.82a.39.39,0,0,1,.67-.26L58.82,66.69a4.79,4.79,0,0,0,3.72,1.73h1a4.89,4.89,0,0,0,4.88-4.89V27.47a4.92,4.92,0,0,0-9.11-2.55Z" style="fill:#fff"/></svg>