<svg width="40" height="40" viewBox="0 0 40 40" fill="none" xmlns="http://www.w3.org/2000/svg">
<path d="M20 40C31.0457 40 40 31.0457 40 20C40 8.9543 31.0457 0 20 0C8.9543 0 0 8.9543 0 20C0 31.0457 8.9543 40 20 40Z" fill="#253A7E"/>
<path d="M25.6964 14.8492C27.245 12.3947 26.7835 9.266 24.6456 7.50979C24.1231 7.08072 23.4976 6.77628 22.9195 6.41461H22.782C22.698 6.62186 22.6229 6.83351 22.5287 7.03602C21.95 8.28054 21.7827 9.5745 22.1342 10.903C22.6432 12.8272 23.9595 14.0216 25.6967 14.8492H25.6964Z" fill="white"/>
<path d="M15.5977 19.7182C13.3548 18.3108 9.49122 18.3765 7.59007 21.89C7.48509 22.0843 7.35844 22.2669 7.24194 22.4548V22.592C11.1746 24.9357 14.8448 22.34 15.5977 19.7182Z" fill="white"/>
<path d="M24.3313 16.2096C21.0844 11.2088 15.0531 11.196 11.834 14.4944C14.2062 18.8872 20.424 19.7586 24.3313 16.2096Z" fill="white"/>
<path d="M15.2967 33.5854C19.5596 31.3074 20.8728 25.2422 17.0072 21.1429C12.0603 24.4789 12.0481 30.2498 15.2967 33.5854Z" fill="white"/>
<path d="M20.5049 25.2781C21.4324 25.2923 22.3586 25.358 23.2794 25.3116C27.0749 25.1196 30.292 21.9665 30.6012 18.2018C30.6463 17.6515 30.4739 17.4568 29.9192 17.3792C24.9465 16.6857 20.8026 20.0755 20.5049 25.2778V25.2781Z" fill="white"/>
<path d="M20.5039 27.1502C21.5219 30.6257 24.7593 32.3771 27.9439 31.2271C28.3564 31.0781 28.4678 30.9108 28.3354 30.4797C27.354 27.2839 23.6025 25.6612 20.5039 27.1502V27.1502Z" fill="white"/>
<path d="M26.5325 25.8741C28.502 27.8237 31.6033 27.6286 32.7584 25.5196C31.0527 23.616 28.2365 23.7623 26.5325 25.8741Z" fill="white"/>
<path d="M20.5327 11.4137C20.7427 8.84605 18.2502 6.64147 15.9695 7.3384C15.7019 9.77868 17.9445 11.8072 20.5327 11.4137Z" fill="white"/>
<path d="M8.16818 29.5145C10.7117 29.6696 12.745 27.3655 12.2367 24.8578C9.44385 24.9581 7.48581 27.224 8.16818 29.5145Z" fill="white"/>
</svg>
