<svg width="40" height="40" viewBox="0 0 40 40" fill="none" xmlns="http://www.w3.org/2000/svg">
<g clip-path="url(#clip0_3_86)">
<path d="M19.9987 39.9974C31.0437 39.9974 39.9974 31.0437 39.9974 19.9987C39.9974 8.95372 31.0437 0 19.9987 0C8.95372 0 0 8.95372 0 19.9987C0 31.0437 8.95372 39.9974 19.9987 39.9974Z" fill="#151515"/>
<path d="M32.3381 14.8189C32.3118 14.9214 32.2907 15.0239 32.2618 15.1265C32.0094 16.0047 31.0944 16.5621 30.203 16.3807C29.288 16.1966 28.6623 15.35 28.7622 14.4323C28.8621 13.5095 29.6561 12.81 30.5817 12.8337C31.452 12.8574 32.1593 13.4674 32.3091 14.3245C32.3144 14.3561 32.3302 14.3876 32.3407 14.4166V14.8189H32.3381Z" fill="white"/>
<path d="M21.7893 9.29466C21.7972 10.2807 21.0005 11.0931 20.0198 11.101C19.0285 11.1089 18.2187 10.3175 18.2108 9.33673C18.2003 8.34021 18.997 7.52775 19.9882 7.51986C20.9716 7.5146 21.7814 8.31129 21.7919 9.29466H21.7893Z" fill="white"/>
<path d="M18.208 19.854C18.208 18.868 19.0126 18.0687 19.9986 18.0687C20.9898 18.0687 21.7944 18.8786 21.7892 19.8724C21.7839 20.8558 20.9741 21.6551 19.9907 21.6499C19.0073 21.6446 18.208 20.84 18.2106 19.854H18.208Z" fill="white"/>
<path d="M9.44455 12.8311C10.4332 12.8258 11.2378 13.6225 11.243 14.6085C11.2483 15.605 10.4437 16.4149 9.45244 16.4122C8.46907 16.4122 7.66449 15.6077 7.66187 14.6243C7.66187 13.6383 8.45592 12.839 9.44455 12.8311Z" fill="white"/>
<path d="M12.9731 17.1958C12.9784 16.2045 13.7751 15.4131 14.7663 15.4157C15.755 15.4183 16.5543 16.2177 16.5543 17.2037C16.5543 18.1923 15.7339 19.0074 14.7506 18.9969C13.7619 18.9863 12.9705 18.1818 12.9758 17.1958H12.9731Z" fill="white"/>
<path d="M12.9731 11.9713C12.9705 10.9827 13.7619 10.1833 14.7505 10.1728C15.7339 10.1623 16.5542 10.9827 16.5516 11.9687C16.549 12.9573 15.7523 13.7513 14.761 13.754C13.7698 13.754 12.9757 12.9625 12.9705 11.9713H12.9731Z" fill="white"/>
<path d="M19.9986 12.8311C20.9872 12.8311 21.7892 13.6304 21.7892 14.6164C21.7892 15.6077 20.9741 16.4228 19.9881 16.4123C18.9968 16.4018 18.2054 15.6024 18.208 14.6138C18.208 13.6278 19.01 12.8285 19.9986 12.8311V12.8311Z" fill="white"/>
<path d="M27.0951 17.1985C27.0978 18.1845 26.3011 18.989 25.3151 18.9969C24.3291 19.0048 23.514 18.1897 23.5166 17.1985C23.5192 16.2072 24.3159 15.4158 25.3046 15.4158C26.2958 15.4158 27.0899 16.2072 27.0951 17.1985Z" fill="white"/>
<path d="M27.0953 11.9608C27.0979 12.9494 26.3039 13.7488 25.3126 13.7514C24.3161 13.7566 23.5115 12.9521 23.5142 11.9582C23.5194 10.9695 24.3214 10.1676 25.3047 10.1702C26.2881 10.1702 27.0901 10.9722 27.0927 11.9608H27.0953Z" fill="white"/>
<path d="M30.5713 20.8585C29.8325 20.8532 29.2514 20.2616 29.2566 19.5201C29.2619 18.7944 29.8614 18.2028 30.5844 18.2081C31.318 18.2134 31.907 18.8128 31.9017 19.5491C31.8965 20.2748 31.3022 20.8611 30.5713 20.8558V20.8585Z" fill="white"/>
<path d="M9.48134 20.8585C8.74512 20.8558 8.15615 20.259 8.16141 19.5228C8.16667 18.7997 8.77142 18.2055 9.49185 18.2107C10.2254 18.216 10.8118 18.8128 10.8065 19.5517C10.8013 20.2826 10.2123 20.8637 9.47871 20.8611L9.48134 20.8585Z" fill="white"/>
<path d="M20.0382 23.4536C20.7771 23.4536 21.3608 24.0479 21.3555 24.7867C21.3502 25.5124 20.7534 26.104 20.0277 26.1014C19.2967 26.0987 18.7051 25.4966 18.7078 24.7604C18.713 24.0321 19.3046 23.4484 20.0356 23.451L20.0382 23.4536Z" fill="white"/>
<path d="M14.7215 20.869C15.4551 20.869 16.0546 21.4684 16.0493 22.1968C16.0441 22.9251 15.4498 23.5167 14.7268 23.5193C13.9984 23.5193 13.3937 22.9172 13.399 22.1863C13.4042 21.4579 13.9932 20.8716 14.7215 20.869V20.869Z" fill="white"/>
<path d="M26.593 22.1836C26.5983 22.9093 26.0119 23.5062 25.2836 23.5167C24.5579 23.5272 23.9479 22.9277 23.9427 22.1968C23.9374 21.4685 24.5369 20.8663 25.2705 20.869C26.0014 20.869 26.5878 21.4553 26.5904 22.1863L26.593 22.1836Z" fill="white"/>
<path d="M26.1644 26.2328C26.146 26.7245 25.728 27.1215 25.2468 27.1058C24.7604 27.09 24.3607 26.6693 24.3739 26.1855C24.3896 25.6991 24.8156 25.2941 25.2941 25.3126C25.7858 25.331 26.1855 25.7543 26.1671 26.2328H26.1644Z" fill="white"/>
<path d="M13.8276 26.2065C13.8276 25.7201 14.2431 25.3099 14.7269 25.3125C15.2133 25.3125 15.6209 25.7279 15.6209 26.2117C15.6209 26.6955 15.2054 27.1083 14.7216 27.1057C14.2378 27.1057 13.825 26.6903 13.8276 26.2065Z" fill="white"/>
<path d="M10.3779 23.5614C10.3753 24.0531 9.97037 24.4528 9.48131 24.4475C8.98963 24.4423 8.5926 24.0373 8.59523 23.5456C8.59786 23.0566 9.0054 22.6543 9.49446 22.6569C9.98351 22.6596 10.3805 23.0645 10.3779 23.5588V23.5614Z" fill="white"/>
<path d="M29.6877 23.5614C29.6851 23.0671 30.0795 22.6622 30.5685 22.6569C31.0576 22.6517 31.4651 23.0539 31.4677 23.543C31.4704 24.0373 31.076 24.4396 30.5843 24.4449C30.0952 24.4501 29.6877 24.0505 29.6851 23.5588L29.6877 23.5614Z" fill="white"/>
<path d="M20.9243 28.8726C20.919 29.3643 20.5194 29.7614 20.0251 29.7561C19.536 29.7535 19.139 29.3485 19.1416 28.8542C19.1442 28.3625 19.5465 27.9681 20.0408 27.9708C20.5352 27.976 20.9269 28.3757 20.9217 28.87L20.9243 28.8726Z" fill="white"/>
<path d="M31.0366 26.7245C31.0313 26.9769 30.8236 27.1767 30.5712 27.1741C30.3135 27.1715 30.1111 26.9585 30.1163 26.6956C30.1216 26.4431 30.3319 26.2407 30.5817 26.2433C30.8394 26.2459 31.0418 26.4615 31.0339 26.7218L31.0366 26.7245Z" fill="white"/>
<path d="M15.1897 29.3696C15.1897 29.6273 14.974 29.8324 14.7137 29.8271C14.464 29.8218 14.2589 29.6141 14.2615 29.3643C14.2615 29.1093 14.4824 28.899 14.7374 28.9042C14.9898 28.9121 15.1923 29.1198 15.1897 29.3696V29.3696Z" fill="white"/>
<path d="M9.02908 26.7035C9.03171 26.4511 9.23942 26.2486 9.48921 26.2486C9.74426 26.2486 9.9546 26.4642 9.94934 26.7219C9.94408 26.9743 9.739 27.1767 9.48921 27.1767C9.23154 27.1767 9.02645 26.9638 9.02908 26.7035Z" fill="white"/>
<path d="M25.2705 28.9042C25.5203 28.9042 25.7306 29.1093 25.7359 29.359C25.7411 29.6141 25.5282 29.8271 25.2705 29.8271C25.0181 29.8271 24.813 29.6272 24.8077 29.3748C24.8025 29.1172 25.0128 28.9042 25.2705 28.9042Z" fill="white"/>
<path d="M19.5754 32.0226C19.5754 31.7597 19.7779 31.5598 20.0408 31.5625C20.2959 31.5651 20.4931 31.7649 20.4931 32.02C20.4931 32.2829 20.288 32.4854 20.0277 32.4827C19.7726 32.4801 19.5754 32.2803 19.5754 32.0252V32.0226Z" fill="white"/>
</g>
<defs>
<clipPath id="clip0_3_86">
<rect width="40" height="40" fill="white"/>
</clipPath>
</defs>
</svg>
