<svg id="Layer_1" data-name="Layer 1" xmlns="http://www.w3.org/2000/svg" viewBox="0 0 91 91"><g id="Path-raw"><circle id="Oval" cx="45.5" cy="20.6" r="20.6" style="fill:#88bdf3"/><circle id="Oval-Copy" cx="45.5" cy="70.4" r="20.6" style="fill:#3075ee"/><circle id="Oval-Copy-2" cx="70.4" cy="45.5" r="20.6" style="fill:#5795f1"/><circle id="Oval-Copy-3" cx="20.6" cy="45.5" r="20.6" style="fill:#205fec"/><path id="Combined-Shape" d="M40.65,40.65A20.6,20.6,0,0,1,25.5,25.5,20.73,20.73,0,0,1,40.65,40.65Z" style="fill:#134bef"/><path id="Combined-Shape-2" d="M25.45,65.55A20.61,20.61,0,0,1,40.61,50.39,20.75,20.75,0,0,1,25.45,65.55Z" style="fill:#0932e8"/><path id="Combined-Shape-3" d="M50.35,50.35A20.6,20.6,0,0,1,65.5,65.5,20.73,20.73,0,0,1,50.35,50.35Z" style="fill:#164bea"/><path id="Combined-Shape-4" d="M65.55,25.45A20.61,20.61,0,0,1,50.39,40.61,20.75,20.75,0,0,1,65.55,25.45Z" style="fill:#3170f1"/></g></svg>