<svg id="Layer_1" data-name="Layer 1" xmlns="http://www.w3.org/2000/svg" viewBox="0 0 91 91"><path d="M39.85.29C20.22,3,4.43,17.72.81,36.8A45.92,45.92,0,0,0,7.93,71.24,57.22,57.22,0,0,0,19.82,83.17a48.6,48.6,0,0,0,16.93,7.08,56.5,56.5,0,0,0,17.51,0A45.18,45.18,0,0,0,76.7,78.65,44.9,44.9,0,0,0,89.83,55.81,45.61,45.61,0,0,0,78.45,14.08,46.81,46.81,0,0,0,54.19.8,58.35,58.35,0,0,0,39.85.29ZM50.06,3.9a42.39,42.39,0,0,1,27.77,15A40.94,40.94,0,0,1,86.25,36a31.19,31.19,0,0,1,1,9.12c0,6.35-.66,10.25-2.74,15.51C73.52,88.83,37.22,96.45,16,75A41.52,41.52,0,0,1,6.8,29.69,42.64,42.64,0,0,1,24.34,9.44,41.41,41.41,0,0,1,50.06,3.9Z"/><path d="M22.42,35.45c5.93,0,9.42,4.43,9.42,10.12,0,5.53-3.49,10-9.42,10S13,51.1,13,45.57C13,39.88,16.49,35.45,22.42,35.45Zm0,16.53c3.78,0,5.2-3.22,5.2-6.41,0-3.35-1.42-6.57-5.2-6.57s-5.21,3.22-5.21,6.57c0,3.19,1.42,6.42,5.21,6.42Z"/><path d="M34.71,35.91h5.93l4.48,13.18h.05l4.24-13.18h5.93V55.07H51.4V41.49h-.06L46.65,55.07H43.4L38.7,41.63h-.05V55.07H34.71Z"/><path d="M72.89,52.9a6.5,6.5,0,0,1-5.26,2.63c-5.93,0-9.42-4.43-9.42-10s3.49-10.12,9.42-10.12c3.92,0,7.62,2.42,8.08,6.77h-4A3.94,3.94,0,0,0,67.63,39c-3.78,0-5.21,3.22-5.21,6.57,0,3.19,1.43,6.41,5.21,6.41a4.12,4.12,0,0,0,4.53-3.69,3.25,3.25,0,0,0,0-.44H68V44.71h8V55.07H73.32Z"/></svg>