<svg id="Layer_1" data-name="Layer 1" xmlns="http://www.w3.org/2000/svg" viewBox="0 0 91 91"><circle cx="45.5" cy="45.5" r="45.49"/><path d="M45.5,6A39.49,39.49,0,1,1,6,45.5,39.52,39.52,0,0,1,45.5,6m0-6A45.49,45.49,0,1,0,91,45.5,45.49,45.49,0,0,0,45.5,0Z" style="fill:#dbb04f"/><path d="M39.44,22.53l8.84.87L48,30,46,29.84,44.13,56.36h2.51l-.52,10.48L33.57,68.45a6.16,6.16,0,0,1-6.85-7.12L32.28,28A6.6,6.6,0,0,1,39.44,22.53Z" style="fill:#fff"/><path d="M63.39,40.06a49,49,0,0,0-12-.3l.27-9.61-2-.11L50,23.57l7.69.75a5.67,5.67,0,0,1,5.1,5.32Z" style="fill:#fff"/><path d="M57.86,65.33l-10,1.28.51-10.25H51l.41-14.64A46.57,46.57,0,0,1,63.5,42l.86,15.48A7.45,7.45,0,0,1,57.86,65.33Z" style="fill:#fff"/></svg>