<svg id="Layer_1" data-name="Layer 1" xmlns="http://www.w3.org/2000/svg" viewBox="0 0 91 91"><path d="M21.67,49.87l2.4-18.09L3.19,17.28l19.08,6.46,4.51-6.91L43.23,6.62l36.27,20,1.88,30.49L65.22,79.54l-12.77,2,6.6-12.09V57.77l-4.8-9.09-4.88-3.23-7.5,7.74v8.18L36,66.86l-7.44.9-3.3,1.87L19.86,67.9l-2.25-8.11,4.06-5.7Z" style="fill:#fff"/><path d="M55,17.13a37.76,37.76,0,0,0-8.33-.61s-1.43,6.61-10.28,8.34A15.91,15.91,0,0,0,55,17.13Z" style="fill:#94a6c3"/><path d="M58.62,77.06a29,29,0,0,0,10.06-14.8c.08-.22.75-.6,1.2-.9.75-.45,1.51-.82,1.65-1.43A31.17,31.17,0,0,0,72,54.6c0-.67-.68-1.35-1.35-2-.53-.45-1.06-1-1.06-1.35a28.52,28.52,0,0,0-8.93-17.87l-.53.53a28,28,0,0,1,8.72,17.42,3.82,3.82,0,0,0,1.27,1.8c.53.45,1.13,1.13,1.13,1.43a30.09,30.09,0,0,1-.45,5.17c-.07.3-.74.61-1.27.91-.75.37-1.43.74-1.57,1.35A27.8,27.8,0,0,1,56.52,77.52c1-2.1,4-8.94,5.7-12.4L61.93,54l-9.54-9.23L47,45.53,41,55.14s2.78,3.53-1.13,7.66-6.84,5-6.84,5l-2.78-1.51a30.68,30.68,0,0,1,3.76-3.68c2.18-1.8,4.35-2,4.35-3.9.09-4.07-4.27-3-4.27-3l-1.58,1.51-.67,5.56-3.3,4.13-.37-.07-5.41-1.2s3.31-1.73,3.84-3.68-1.06-8.11-1.14-8.49a8.16,8.16,0,0,1,2.26,3.45C29,53.62,30.54,50.47,31,50.17s6.53-3.52,6.53-3.52l-2,5.33L37,51.15l3.61-8.86a17.65,17.65,0,0,1,6.15-1.72c4.72-.08,11.72-5.86,8.56-16.22.9.37,16.52,8.19,19.22,23.51C76.56,59.64,69.88,70.67,58.62,77.06Z" style="fill:#94a6c3"/><path d="M40.75,18.77c1.72-2,1-5,1-5l-5,7.44C36.69,21.18,38.56,21.26,40.75,18.77Z" style="fill:#1b314f"/><path d="M23.84,59.4l.61-3s-2.49,4.35-2.71,5,.16,1.88,1.12,1.8A3,3,0,0,0,25,60.62,1.08,1.08,0,0,0,23.84,59.4Z" style="fill:#1b314f"/><path d="M68.45,11.64s3.76.16,7.66.61C67.32,5.33,59,3.31,52.23,3.31a32.55,32.55,0,0,0-16,4.06l2.93-4.66S27.45,1.57,23.32,14a61.15,61.15,0,0,1-2-6.46,13.57,13.57,0,0,0-3.23,14.2c-7-2.55-17-6.09-17.35-6.16s-.68.16-.68.16-.16.22.29.6c.84.66,16.61,12.31,20.07,14.57-.74,2.7-.74,4,0,5.25a5.21,5.21,0,0,1,1,3.9c-.15,1.27-1.51,12.32-1.8,13.67s-3.45,6.16-3.31,7.58,2.1,7.51,3.84,8.19a24.11,24.11,0,0,0,6.52,1.43,2.66,2.66,0,0,0,1.73-.45C29.62,69.33,30,69.1,30.9,69.1h.22c.37,0,.82.08,1.35.08a5.72,5.72,0,0,0,3.9-1.28c1.65-1.65,4.51-3.9,5.41-5a7,7,0,0,0,1.43-5.33c-.24-1.81.74-3.39,1.88-5,1.42-1.88,4-5.25,4-5.25a20.47,20.47,0,0,1,8.42,16.42C57.56,75.55,47.35,85,34.73,85a24.21,24.21,0,0,1-5.7-.67,44.36,44.36,0,0,0,14.65,2.71c8.49,0,13-3.08,13-3.08a37.76,37.76,0,0,1-4.13,4.35h.08c14-2,20.88-13.52,20.88-13.52s-.53,3.76-1.2,6.31C91,67.07,87.83,49.49,87.75,48.9c.16.22,2,2.47,3,3.68C93.76,21.63,68.45,11.64,68.45,11.64ZM39.69,61.07c-.29.37-1.57,1.5-2.47,2.33S35.34,65,34.59,65.8a2.59,2.59,0,0,1-1.8.45H30.54a40.35,40.35,0,0,1,5.56-5.7c1.35-.9,2-1.8,1.2-3.37s-3-1.2-3-1.2a7.38,7.38,0,0,1,2.4-.53,4.62,4.62,0,0,0-4.05.83c-.9.82-.75,3.76-1.12,5.62s-1.65,2.94-3.61,4.74a3.68,3.68,0,0,1-2.4,1.27,25,25,0,0,1-3.84-1,21.48,21.48,0,0,1-2.18-5.57,29.61,29.61,0,0,1,1.58-3.23,14.28,14.28,0,0,0,1.58-3.6c.29-1.28,1.27-9.17,1.65-12.46,1,1.27,2.33,3.38,2,4.73a6.34,6.34,0,0,0-.16-7.28,8.27,8.27,0,0,1-.82-6.16c.75-2.55,3.45-9.61,3.45-9.61S29.7,25.34,31,25,42.54,9.26,42.54,9.26s2.78,6.08-.16,10.52S36.45,25,36.45,25a11.22,11.22,0,0,0,7.95-2c1.57,3.68,3.08,7.5,3.16,8-.23.53-3.23,7.74-3.53,8.19a7.52,7.52,0,0,1-2,.6,10.93,10.93,0,0,0-2.33.83c-.52.45-2.93,7.05-4.05,10.28A6.26,6.26,0,0,0,32,53.56a10.56,10.56,0,0,1,3.38-.75c1.06-.07,4.28,1.65,5.11,4.88v.16A4.62,4.62,0,0,1,39.69,61.07Zm-7,.9a7.05,7.05,0,0,0,.68-3.16c.08-.53.22-1.5.82-1.65s2,.08,2,1.12-1.06,1.2-1.81,1.88C33.83,60.68,32.78,61.81,32.64,62Zm30-14.36a35.86,35.86,0,0,0,.61-9.83,27.6,27.6,0,0,1,5.25,13.51,3.83,3.83,0,0,0,1.28,1.81c.53.45,1.13,1,1.13,1.43a30.29,30.29,0,0,1-.45,5.18c-.08.22-.75.61-1.28.91-.74.37-1.42.74-1.57,1.35a27.88,27.88,0,0,1-9.91,14.49C64.63,69.18,68,57.15,62.59,47.61ZM57.87,77.13A28.92,28.92,0,0,0,68.16,62.19c.07-.22.74-.61,1.19-.91.75-.37,1.51-.82,1.65-1.42a31.34,31.34,0,0,0,.45-5.33c0-.67-.68-1.36-1.35-2-.37-.45-1-1-1-1.35A29.39,29.39,0,0,0,63,36.21c-1.51-9-7.51-11.8-7.66-11.87.15.23,4,5.85,1.35,12.46s-9.91,5.64-10.52,5.7-2.92,3-5.86,8.56a8.14,8.14,0,0,0-3.76-.22c1.36-3.76,3.39-9.09,3.76-9.54a12.21,12.21,0,0,1,2-.67c1.43-.37,2.1-.6,2.33-.9s.9-1.95,1.65-3.76a16.5,16.5,0,0,0,2.54-.23,27.19,27.19,0,0,0,1.59-4.27c0-.38-2.94-7.66-4.06-10.44a17.31,17.31,0,0,0,1.57-2.18,30.72,30.72,0,0,1,9.93,58.28Z" style="fill:#1b314f"/><path d="M37.89,36.58a3.27,3.27,0,0,0-2-5.25c.68-1.57,1.65-4.73,1.65-4.73s-7.66,12-8.33,12.24-1.35-2.4-1.35-2.4c-1.43,5.48,2.41,6.23,2.86,4.5A19.19,19.19,0,0,0,37.89,36.58Z" style="fill:#1b314f"/><path d="M31.35,39.5l3.9-6.68S37.5,34,36.37,35.75C35,37.85,31.35,39.5,31.35,39.5Z" style="fill:#ffd923"/><path d="M79.64,70.45A43,43,0,0,1,75.74,75c9.68-18.62.45-35.67.08-36.34.68.68,1.35,1.43,2,2.1A23.77,23.77,0,0,1,79.64,70.45Z" style="fill:#d82122"/><path d="M88.65,46.49c-3.38-9.09-8.19-16.82-18.77-23.8A38.28,38.28,0,0,0,48.1,16.53h-.16a5.29,5.29,0,0,1,1.12-.29,48.22,48.22,0,0,1,8.35-1.73,24.71,24.71,0,0,1,21.48,7.35l.16.16C85.28,28.62,88.51,36.87,88.65,46.49Z" style="fill:#d82122"/><path d="M67.47,9.31c-11.18-2.1-18.39-1.05-23.58.9a23.61,23.61,0,0,0-1.13-2.78C41.2,9.31,39.54,11.56,38.49,13a15.37,15.37,0,0,0-4.05,3.84A15.64,15.64,0,0,1,46.76,5.94a30.27,30.27,0,0,1,5.41-.45A35.24,35.24,0,0,1,67.47,9.31Z" style="fill:#d82122"/><path d="M26.1,23.73c-8.78-.3-5.86-10.52-5.71-11.11C20.39,12.7,21,20.65,26.1,23.73Z" style="fill:#d82122"/><path d="M34.73,5.33c-6.75,4.06-5.4,13.74-5.4,13.74C22.86,9.25,34.21,5.56,34.73,5.33Z" style="fill:#d82122"/><path d="M23.62,26.43a1.52,1.52,0,0,1,.38,2c-.3.53-.75.45-1.43.15-.9-.45-6.31-3.6-11.19-6.83,5.56,1.95,11.19,4.05,12.09,4.5Z" style="fill:#fff"/></svg>