<svg id="Layer_1" data-name="Layer 1" xmlns="http://www.w3.org/2000/svg" viewBox="0 0 91 91"><path d="M71.48,68.36v1.3l-.19-.18L55.94,54.12,28.61,26.78l-.09-.1.12-.11a26,26,0,0,1,3-2.08,29.09,29.09,0,0,1,11.76-4.15A24.27,24.27,0,0,1,46,20.17a19.48,19.48,0,0,1,2.29.09c.83.08,1.66.19,2.48.35a22.46,22.46,0,0,1,6.06,2.1,25.63,25.63,0,0,1,9,7.71A28.22,28.22,0,0,1,70,38.73a28.75,28.75,0,0,1,1.22,5.94q.11,1.08.15,2.16c0,1,0,2,0,3l0,9.46c0,3,0,5.93,0,8.9A1.36,1.36,0,0,0,71.48,68.36Z" style="fill:#27bdff"/><path d="M19.52,43.71v-.83c0-.21,0-.42,0-.62v-21L62.36,64.39l0,0-.11.09a29.89,29.89,0,0,1-4.66,3,28.2,28.2,0,0,1-10.23,3.19c-.84.09-1.68.14-2.53.15s-1.59-.06-2.39-.12a19.25,19.25,0,0,1-2.82-.45,23.62,23.62,0,0,1-6.44-2.51,25.64,25.64,0,0,1-7.32-6.28,28.93,28.93,0,0,1-6.15-15.4c-.07-.7-.08-1.4-.12-2.1Z" style="fill:#27bdff"/></svg>