<svg id="Layer_1" data-name="Layer 1" xmlns="http://www.w3.org/2000/svg" viewBox="0 0 91 91"><path d="M45.51,0A45.47,45.47,0,1,0,91,45.53,45.47,45.47,0,0,0,45.51,0Z" style="fill:#fe0420"/><path d="M23.58,59.19a7.64,7.64,0,0,1-5.68-8,38.4,38.4,0,0,1,2.62-12c1.88-4.86,5.59-7.51,10.75-8.1a15.75,15.75,0,0,1,8.17.93,8.23,8.23,0,0,1,5.1,9.08,75.71,75.71,0,0,1-2.25,10C40.42,57,36.07,59.74,30.05,60A16.86,16.86,0,0,1,23.58,59.19Zm2-9.46c-.06,3.21,1.1,4.38,3.77,4.36a5.57,5.57,0,0,0,5.72-4.36c.72-2.58,1.23-5.22,1.76-7.84a7.84,7.84,0,0,0,0-2.27,2.93,2.93,0,0,0-2.58-2.68,5.71,5.71,0,0,0-6.52,3.52A40.09,40.09,0,0,0,25.62,49.73Z" style="fill:#fff"/><path d="M55.05,49.8c-.58,2.77-1.12,5.39-1.68,8C53,59.44,52.71,59.68,51,59.7c-1.3,0-2.59,0-3.89,0s-1.68-.33-1.39-1.69q1.52-7.28,3.07-14.54c.7-3.32,1.39-6.64,2.1-10,.44-2.06.64-2.21,2.78-2.21H63.2a14.59,14.59,0,0,1,5.5,1A6.44,6.44,0,0,1,73,39.77c-.52,3.55-1.94,6.6-5.21,8.46a13.13,13.13,0,0,1-6.44,1.56C59.31,49.82,57.26,49.8,55.05,49.8Zm1.14-5.7c1.77,0,3.36.07,5,0a4.36,4.36,0,0,0,4.23-4.73c-.05-1.3-.61-2.1-1.88-2.17-1.91-.12-3.82,0-5.85,0Z" style="fill:#fff"/></svg>