<svg width="40" height="40" viewBox="0 0 40 40" fill="none" xmlns="http://www.w3.org/2000/svg">
<circle cx="20" cy="20" r="20" fill="black"/>
<path d="M14.6047 10.3031L20.194 16.8518L23.9443 14.6451C23.9443 14.6451 19.416 8.59417 18.2135 9.02163C17.0812 9.44909 14.6047 10.3031 14.6047 10.3031Z" fill="white"/>
<path d="M24.0857 14.6451C24.0857 14.6451 24.9349 13.15 25.3595 11.157C25.3595 11.157 29.6047 12.865 27.9775 17.1367L24.0857 14.6451V14.6451Z" fill="white"/>
<path d="M27.9775 17.1367L28.3309 21.6212L29.9581 21.4075C29.9581 21.4075 30.3827 21.265 30.3114 20.4823C30.2402 19.6283 30.0987 17.8482 30.0987 17.8482C30.0987 17.8482 30.1699 17.4207 29.1792 17.2792C27.9766 17.0655 27.9766 17.1367 27.9766 17.1367H27.9775Z" fill="white"/>
<path d="M28.3308 21.6213L25.0764 24.2554L26.5621 27.1745C26.5621 27.1745 26.9154 28.3134 27.9774 27.032C28.9682 25.7505 29.3928 25.5368 29.3216 24.7541C29.2513 23.9704 29.0385 22.12 28.3308 21.6222V21.6213Z" fill="white"/>
<path d="M25.0063 24.2554L20.5484 22.2625L16.6566 30.1638C16.6566 30.1638 16.3735 30.7328 17.3643 30.8041C18.355 30.9466 19.9822 31.3028 20.8314 30.4479C21.6807 29.6651 25.0063 24.2544 25.0063 24.2544V24.2554Z" fill="white"/>
<path d="M20.5483 22.1912L20.1237 16.923L10.5011 17.5642C10.5011 17.5642 9.93496 17.6354 10.0062 18.7031C10.0774 20.127 10.218 21.6925 10.218 21.6925C10.218 21.6925 10.1477 22.3327 11.4206 22.404C12.6945 22.4752 20.4068 22.4752 20.5483 22.1902V22.1912Z" fill="white"/>
</svg>
