<svg id="Layer_1" data-name="Layer 1" xmlns="http://www.w3.org/2000/svg" viewBox="0 0 91 91"><path d="M45.51,0A45.47,45.47,0,1,0,91,45.53,45.47,45.47,0,0,0,45.51,0Z" style="fill:#0645f7"/><path d="M45,55.93h8.38a2.56,2.56,0,0,1,1.88.77Q61.54,63,67.87,69.34a2.43,2.43,0,0,1,.8,1.8,2.22,2.22,0,0,1-3.81,1.43L63.2,70.9,52.91,60.6a.8.8,0,0,0-.61-.26H37.62a.79.79,0,0,0-.62.25c-2.27,2.29-4.56,4.57-6.84,6.86a2.69,2.69,0,0,1-1.13.74,2.14,2.14,0,0,1-2.46-.86,2.18,2.18,0,0,1,.12-2.61,2.35,2.35,0,0,1,.3-.33q3.84-3.84,7.67-7.69a2.51,2.51,0,0,1,1.88-.78Z" style="fill:#fff"/><path d="M55.71,45.38q0-4.17,0-8.35a2.64,2.64,0,0,1,.83-2c2.53-2.51,5-5,7.56-7.57a2.76,2.76,0,0,1,1.25-.79A2.17,2.17,0,0,1,68,28.37a2.14,2.14,0,0,1-.51,1.89l-.33.35L60.4,37.39a.88.88,0,0,0-.28.69q0,7.32,0,14.63a.9.9,0,0,0,.28.69q5.91,5.88,11.79,11.78a2.87,2.87,0,0,1,.75,1.16,2.16,2.16,0,0,1-.88,2.43,2.19,2.19,0,0,1-2.61-.12c-.12-.1-.22-.2-.33-.31Q62.84,62,56.53,55.75a2.7,2.7,0,0,1-.83-2Q55.72,49.55,55.71,45.38Z" style="fill:#fff"/><path d="M34.23,45.44v8.18a5.69,5.69,0,0,1,0,.83,2.18,2.18,0,0,1-.64,1.18l-1.6,1.6-6.15,6.16a2.65,2.65,0,0,1-1.26.76,2.19,2.19,0,0,1-2.67-2.05,2.31,2.31,0,0,1,.74-1.76l6.92-6.91a1,1,0,0,0,.31-.75q0-7.29,0-14.56a.9.9,0,0,0-.3-.7l-6.85-6.84a2.75,2.75,0,0,1-.75-1.2,2.19,2.19,0,0,1,1.57-2.69,2.14,2.14,0,0,1,2,.5l.21.19,7.75,7.75a2.32,2.32,0,0,1,.69,1.2,4.53,4.53,0,0,1,.06.82Z" style="fill:#fff"/><path d="M45,34.43H36.45a2.23,2.23,0,0,1-1.69-.69L27,25.92a2.5,2.5,0,0,1-.71-1.35,2.21,2.21,0,0,1,2-2.49,2.28,2.28,0,0,1,1.86.74l6.78,6.78c.5.5.3.42,1,.42H52.24a.91.91,0,0,0,.75-.31l6.8-6.81A2.72,2.72,0,0,1,61,22.14a2.2,2.2,0,0,1,2.13,3.63L63,26l-7.68,7.69a2.42,2.42,0,0,1-1.24.73,2.92,2.92,0,0,1-.51,0Z" style="fill:#fff"/><path d="M44.27,66.8h-.4c-1.08,0-2.15,0-3.22,0a.66.66,0,0,0-.53.22L36.05,71.1a2.7,2.7,0,0,1-1.18.73,2.2,2.2,0,0,1-2.17-3.61s.1-.11.16-.16l4.92-4.94A2.28,2.28,0,0,1,39,62.46a3.16,3.16,0,0,1,.69-.06h4.24l.37,0a2.09,2.09,0,0,1,0,.35q0,1.83,0,3.66C44.3,66.54,44.28,66.66,44.27,66.8Z" style="fill:#fff"/><path d="M46.41,66.8a42.45,42.45,0,0,1,0-4.37,3.11,3.11,0,0,1,.32,0h4.34a2.5,2.5,0,0,1,1.87.79Q55.32,65.6,57.72,68a2.55,2.55,0,0,1,.78,1.39,2.21,2.21,0,0,1-2,2.52,2.31,2.31,0,0,1-1.79-.74c-1.34-1.35-2.69-2.69-4-4a.94.94,0,0,0-.78-.31c-1,0-2.05,0-3.08,0Z" style="fill:#fff"/><path d="M44.27,23.55c0,.17,0,.28,0,.4,0,1.21,0,2.42,0,3.63v.19a.19.19,0,0,1-.2.2h-.29c-1.39,0-2.78,0-4.17,0a2.54,2.54,0,0,1-1.91-.79c-1.59-1.61-3.2-3.21-4.8-4.8a2.41,2.41,0,0,1-.8-1.65,2.09,2.09,0,0,1,1.21-2,2.12,2.12,0,0,1,2.39.27,4,4,0,0,1,.37.35c1.34,1.34,2.67,2.67,4,4a.71.71,0,0,0,.53.22h3.64Z" style="fill:#fff"/><path d="M46.38,23.55h3.67a.59.59,0,0,0,.47-.2l4-4.06a2.79,2.79,0,0,1,1-.71,2.14,2.14,0,0,1,2.5.81A2.16,2.16,0,0,1,58,22a3.59,3.59,0,0,1-.32.35C56.13,24,54.53,25.56,53,27.17A2.64,2.64,0,0,1,51,28c-1.39,0-2.79,0-4.18,0-.46,0-.46,0-.46-.45V24C46.35,23.86,46.37,23.73,46.38,23.55Z" style="fill:#fff"/><path d="M27.75,49.2c0,.68,0,1.36,0,2A2.42,2.42,0,0,1,27,53.06c-1.62,1.59-3.23,3.2-4.84,4.8a2.67,2.67,0,0,1-1.22.72,2.17,2.17,0,0,1-2.2-3.49c.11-.13.23-.25.35-.37,1.32-1.31,2.63-2.62,4-3.92a.88.88,0,0,0,.29-.7c0-1,0-2.06,0-3.09v-.25a.17.17,0,0,1,.18-.18h4c.16,0,.22.08.22.24V49.2Z" style="fill:#fff"/><path d="M62.19,46.6l.35,0h3.7c.34,0,.36,0,.37.39,0,1.06,0,2.12,0,3.18a.8.8,0,0,0,.26.64c1.37,1.34,2.72,2.69,4.08,4a2.41,2.41,0,0,1,.65,1,2.16,2.16,0,0,1-.72,2.34,2.14,2.14,0,0,1-2.47.18,3,3,0,0,1-.6-.47L62.91,53a2.28,2.28,0,0,1-.72-1.74c0-1.43,0-2.87,0-4.3Z" style="fill:#fff"/><path d="M23.35,44.5c0-.18,0-.31,0-.43,0-1,0-2.1,0-3.15a.71.71,0,0,0-.24-.59l-4-4a2.84,2.84,0,0,1-.72-1.14A2.15,2.15,0,0,1,20,32.48,2.18,2.18,0,0,1,22,33l.43.42c1.52,1.51,3,3,4.57,4.53a2.49,2.49,0,0,1,.81,1.93c0,1.38,0,2.76,0,4.14a1.21,1.21,0,0,1,0,.19c0,.23,0,.25-.26.26H23.35Z" style="fill:#fff"/><path d="M66.57,44.48H62.23a2.48,2.48,0,0,1,0-.27q0-2.33,0-4.65a2,2,0,0,1,.48-1.26,3.31,3.31,0,0,1,.26-.27l4.84-4.8a2.64,2.64,0,0,1,1.37-.76,2.19,2.19,0,0,1,2.53,2.19,2.1,2.1,0,0,1-.56,1.42c-.13.15-.28.29-.42.43-1.26,1.25-2.51,2.5-3.78,3.74a.93.93,0,0,0-.32.75c0,1,0,2,0,3.06A3.19,3.19,0,0,1,66.57,44.48Z" style="fill:#fff"/><path d="M41.75,21.69a2.19,2.19,0,0,1-2.17-2.17,2.19,2.19,0,1,1,4.37,0A2.17,2.17,0,0,1,41.75,21.69Z" style="fill:#fff"/><path d="M41.78,73.5A2.18,2.18,0,1,1,44,71.31,2.16,2.16,0,0,1,41.78,73.5Z" style="fill:#fff"/><path d="M48.18,73.5a2.18,2.18,0,1,1,2.19-2.18A2.19,2.19,0,0,1,48.18,73.5Z" style="fill:#fff"/><path d="M48.16,21.69a2.19,2.19,0,1,1,2.2-2.16A2.15,2.15,0,0,1,48.16,21.69Z" style="fill:#fff"/><path d="M21.27,42.19A2.18,2.18,0,1,1,19.08,40,2.17,2.17,0,0,1,21.27,42.19Z" style="fill:#fff"/><path d="M21.27,48.64a2.16,2.16,0,0,1-2.19,2.17,2.19,2.19,0,0,1,0-4.37A2.16,2.16,0,0,1,21.27,48.64Z" style="fill:#fff"/><path d="M73,48.62a2.16,2.16,0,0,1-2.18,2.18A2.18,2.18,0,1,1,73,48.62Z" style="fill:#fff"/><path d="M70.85,44.38A2.18,2.18,0,1,1,73,42.22,2.17,2.17,0,0,1,70.85,44.38Z" style="fill:#fff"/><path d="M71.93,69.37a2.15,2.15,0,0,1,2.16,2.16,2.18,2.18,0,0,1-2.16,2.15,2.16,2.16,0,0,1-2.15-2.18A2.14,2.14,0,0,1,71.93,69.37Z" style="fill:#fff"/></svg>