<svg id="Layer_1" data-name="Layer 1" xmlns="http://www.w3.org/2000/svg" xmlns:xlink="http://www.w3.org/1999/xlink" viewBox="0 0 91 91"><defs><linearGradient id="linear-gradient" x1="68.01" y1="61.45" x2="67.85" y2="68.26" gradientUnits="userSpaceOnUse"><stop offset="0" stop-color="#751ff0"/><stop offset="1" stop-color="#fb3886"/></linearGradient></defs><path d="M45.51,0A45.47,45.47,0,1,0,91,45.53,45.47,45.47,0,0,0,45.51,0Z" style="fill:#e0e0e0"/><path d="M35.49,51.56l-1.21,3.28a68.73,68.73,0,0,1-3.91,9.58,10.15,10.15,0,0,1-2.72,3.28c-1.47,1.11-4.24.83-4.92-1.27a4.88,4.88,0,0,1,.32-3.71c.66-1.39,1.43-2.73,2.17-4.08L31,48.14a103.54,103.54,0,0,1,6-10.2,13.54,13.54,0,0,1,3.26-3.53,1.83,1.83,0,0,1,1.5-.35A1.76,1.76,0,0,1,43,36.44c-.49,1.66-1.08,3.29-1.73,4.89s-1.43,3.13-2.14,4.7a4.88,4.88,0,0,0-.21.53,8.91,8.91,0,0,0,3.39-.21,14.51,14.51,0,0,0,10.61-10,7.3,7.3,0,0,0-.85-6.47,7.08,7.08,0,0,0-3.54-2.64,15.38,15.38,0,0,0-6.35-.81,17.86,17.86,0,0,0-6.36,1.44,12.23,12.23,0,0,0-5.38,5c-.8,1.28-1.53,2.6-2.37,3.86a4,4,0,0,1-2.67,2,3.53,3.53,0,0,1-2.86-.5,2.91,2.91,0,0,1-1-2.72,9.74,9.74,0,0,1,2.77-5.71,23,23,0,0,1,8.44-6,27.44,27.44,0,0,1,7.65-2.06A22.64,22.64,0,0,1,52.6,23.25,12.44,12.44,0,0,1,59.38,30a12.27,12.27,0,0,1,.81,5.2,12.44,12.44,0,0,1-2.41,6.66,22.27,22.27,0,0,1-8.36,7,27.11,27.11,0,0,1-7.37,2.62l-.32.09c.19.74.35,1.47.57,2.19a19.69,19.69,0,0,0,3.26,6.62,11.77,11.77,0,0,0,1.07,1.17,4,4,0,0,0,3,1.07A12.19,12.19,0,0,0,59.08,58a6.91,6.91,0,0,1,1.15-1.08,1.58,1.58,0,0,1,2.5,1.72,5.16,5.16,0,0,1-1.45,2.68,22.77,22.77,0,0,1-8.16,5.53,12.23,12.23,0,0,1-5.58.81,7.75,7.75,0,0,1-4.32-2.07A19.18,19.18,0,0,1,39,59.86,51.5,51.5,0,0,1,35.78,52c0-.15-.1-.3-.15-.44Z" style="fill:#691cff"/><path d="M67.71,68.1a2.83,2.83,0,0,1-2.81-3.57,3.62,3.62,0,0,1,4.25-2.59A2.63,2.63,0,0,1,71,64.87a3.72,3.72,0,0,1-2.38,3A7.36,7.36,0,0,1,67.71,68.1Z" style="fill:url(#linear-gradient)"/></svg>