<svg id="Layer_1" data-name="Layer 1" xmlns="http://www.w3.org/2000/svg" viewBox="0 0 91 91"><path d="M45.51,0A45.47,45.47,0,1,0,91,45.53,45.47,45.47,0,0,0,45.51,0Z" style="fill:#0f3158"/><path d="M69.09,30.94l1.3.77v1.74L52.81,43.6l-.73-.86L28.31,56.46l-.66-.89-7,4c-.26-.64.18-.79.51-1L27.34,55,54.25,39.48,68.38,31.3C68.59,31.18,68.82,31.08,69.09,30.94Z" style="fill:#fff"/><path d="M70.39,34.69V38L52.66,48.23,52,47.32,28.25,61l-.67-.88c-1.12.65-2.24,1.28-3.36,1.91-.3.17-.62.44-1.08-.06Z" style="fill:#fff"/><path d="M32.23,63.28l-.66-.92-3.42,2c-.31.18-.63.46-1.09-.07l43.3-25v3.29L52.67,52.77,52,51.86Z" style="fill:#fff"/><path d="M65.15,28.66,68,30.3,52.78,39.09l-.68-.9c-7.94,4.58-15.85,9.14-23.8,13.74L27.66,51l-7,4c-.32-.59.12-.75.44-.94l4.73-2.74L61.26,30.89Z" style="fill:#fff"/><path d="M70.4,43.77v3.28L52.68,57.3l-.7-.89L36.17,65.53l-.66-.9-3.46,2c-.47.27-.47.27-1.14,0Z" style="fill:#fff"/><path d="M61.21,26.39,64.05,28,48.87,36.8l-.69-.88L28.32,47.38l-.66-.91-7,4c-.27-.62.15-.77.46-1l5.22-3L53.42,30.88Z" style="fill:#fff"/><path d="M70.43,51.57,52.66,61.84l-.66-.9L40.11,67.79l-.66-.8-4.19,2.12s-.14-.1-.37-.28L70.32,48.36a1.74,1.74,0,0,1,.11.35C70.44,49.64,70.43,50.56,70.43,51.57Z" style="fill:#fff"/><path d="M57.28,24.13l2.84,1.62-15.3,8.86-.68-.9L28.3,42.86l-.63-.92-7,4c-.3-.62.12-.76.45-.95C23,44,24.82,42.87,26.67,41.81L50.76,27.88Z" style="fill:#fff"/><path d="M70.39,52.85v3.29L52.66,66.38,52,65.47l-8,4.61-.66-.91L40,71.11c-.53.31-.53.31-1.22,0Z" style="fill:#fff"/><path d="M53.37,21.86l2.82,1.64L40.91,32.33l-.71-.89L28.33,38.3l-.68-.89-7,4c-.23-.61.14-.76.45-.94l7.63-4.42,23.7-13.7Z" style="fill:#fff"/><path d="M70.4,57.38v3.29L52.67,70.91,52,70l-4,2.31-.68-.81c-1.38.73-2.74,1.46-4.1,2.16-.06,0-.21-.09-.54-.24Z" style="fill:#fff"/><path d="M37,30.08l-.67-.91-8,4.57-.71-.85-7,4c-.27-.62.16-.75.49-1L29,31.38l20.07-11.6.38-.18,2.82,1.62Z" style="fill:#fff"/><path d="M33.05,27.79l-.7-.88-4.06,2.31-.64-.89-7,4c-.25-.64.19-.79.51-1l6.35-3.67L44.36,18l1.15-.65L48.33,19Z" style="fill:#fff"/></svg>