<svg width="40" height="40" viewBox="0 0 40 40" fill="none" xmlns="http://www.w3.org/2000/svg">
<g clip-path="url(#clip0_7_125)">
<path d="M20 40C31.0457 40 40 31.0457 40 20C40 8.9543 31.0457 0 20 0C8.9543 0 0 8.9543 0 20C0 31.0457 8.9543 40 20 40Z" fill="black"/>
<path fill-rule="evenodd" clip-rule="evenodd" d="M29.6038 16.1075C29.675 16.0362 29.8163 16.0363 29.955 16.0363C32.0638 16.0363 33.75 17.8213 33.75 19.965C33.75 21.965 32.275 23.5363 30.3775 23.8925H29.955C29.2525 23.8925 28.55 23.6787 27.9175 23.3212C27.7122 23.1767 27.466 23.1018 27.215 23.1075C26.9337 23.1075 26.6525 23.1787 26.4425 23.3212C25.95 23.6075 25.74 24.1075 25.74 24.6788V25.3212C25.6659 26.2036 25.2899 27.0335 24.6754 27.6711C24.0609 28.3086 23.2453 28.7148 22.3662 28.8212H21.945C21.2425 28.8212 20.54 28.6075 19.9075 28.25C19.6262 28.1075 19.4162 28.0363 19.135 28.0363C18.8537 28.0363 18.5725 28.1075 18.3613 28.25C17.87 28.5363 17.6587 29.0363 17.6587 29.6075V30.25C17.5187 32.1075 16.0425 33.5362 14.2163 33.75H13.865C11.7562 33.75 10.07 31.9638 10.07 29.8213C10.14 27.8213 11.545 26.1787 13.4425 25.9637H13.865C14.5675 25.9637 15.27 26.1788 15.9025 26.5363C16.1078 26.6808 16.354 26.7557 16.605 26.75C16.8863 26.75 17.1675 26.6788 17.3775 26.5363C17.87 26.25 18.08 25.75 18.08 25.1787C17.94 23.1075 19.4163 21.25 21.4538 21.0363H21.875C22.5775 21.0363 23.28 21.25 23.9125 21.6075C24.1937 21.75 24.405 21.8213 24.6863 21.8213C24.9663 21.8213 25.2488 21.75 25.4588 21.6075C25.95 21.3212 26.1613 20.8213 26.1613 20.25C26.0213 18.1788 27.5663 16.3212 29.6038 16.1075V16.1075ZM21.525 11.1787C21.665 11.1075 21.7362 11.1075 21.9462 11.1075C24.055 11.1075 25.7413 12.8925 25.7413 15.0363C25.6713 17.0363 24.2662 18.6788 22.3675 18.8925H21.9462C21.2437 18.8925 20.5413 18.6787 19.9088 18.3212C19.7035 18.1767 19.4573 18.1018 19.2062 18.1075C18.925 18.1075 18.6437 18.1787 18.4337 18.3212C17.9412 18.6075 17.73 19.1075 17.73 19.6788V20.3212C17.59 22.1775 16.115 23.6062 14.2875 23.8212H13.9363C11.8288 23.8212 10.1412 22.0362 10.1412 19.8925C10.1412 17.965 11.5475 16.3925 13.4438 16.1075H13.8663C14.5688 16.1075 15.2712 16.3213 15.9037 16.6788C16.109 16.8233 16.3552 16.8982 16.6062 16.8925C16.8875 16.8925 17.1687 16.8213 17.3787 16.6788C17.8712 16.3925 18.0813 15.8925 18.0813 15.3212C17.9413 13.25 19.4875 11.3925 21.525 11.1787V11.1787ZM13.795 6.25C15.89 6.25 17.5888 7.9775 17.5888 10.1075C17.5888 12.2375 15.8888 13.9637 13.795 13.9637C11.6988 13.9637 10 12.2375 10 10.1075C10 7.9775 11.7 6.25 13.795 6.25Z" fill="#FFD800"/>
</g>
<defs>
<clipPath id="clip0_7_125">
<rect width="40" height="40" fill="white"/>
</clipPath>
</defs>
</svg>
