<svg id="Layer_1" data-name="Layer 1" xmlns="http://www.w3.org/2000/svg" viewBox="0 0 91 91"><path d="M45.51,0A45.47,45.47,0,1,0,91,45.53,45.47,45.47,0,0,0,45.51,0Z" style="fill:#e0e0e0"/><path d="M45.8,71.87A25.38,25.38,0,0,0,64,53a24.09,24.09,0,0,0,.23-13.23,17.91,17.91,0,0,0-5.62-9A12.77,12.77,0,0,0,42,30.62a17.81,17.81,0,0,0-6.33,11.46,19.94,19.94,0,0,0,3.63,15.43,25.47,25.47,0,0,0,2.23,2.42,5.12,5.12,0,0,1,.71.69,6.87,6.87,0,0,1-4.07-.12c-4.08-1.21-6.64-4.07-8.28-7.84A19,19,0,0,1,28.6,43a25.67,25.67,0,0,1,5.24-13.41,20.38,20.38,0,0,1,12.91-8.08,19.36,19.36,0,0,1,16.63,4.69,24.33,24.33,0,0,1,8.46,17.21,25.49,25.49,0,0,1-8,21.13A25.49,25.49,0,0,1,46.2,71.89,2.68,2.68,0,0,1,45.8,71.87Z" style="fill:#0093f9"/><path d="M48.77,30.21a9.83,9.83,0,0,1,6.71,1.37A14.5,14.5,0,0,1,62,40.82,22.68,22.68,0,0,1,61,54.28,23.12,23.12,0,0,1,50,67.54a19.89,19.89,0,0,1-22.39-2.79A25.13,25.13,0,0,1,19.22,48.1,26.42,26.42,0,0,1,40,19.62a26.78,26.78,0,0,1,2.66-.43,14.49,14.49,0,0,1,2.72,0l-1,.3A23.81,23.81,0,0,0,30.15,30.5,27.5,27.5,0,0,0,26.06,47c.44,5.85,2.72,10.86,7.76,14.22a12.71,12.71,0,0,0,15.85-1.45,18.59,18.59,0,0,0,5.82-12.06,19.86,19.86,0,0,0-3.8-14.33A39.92,39.92,0,0,0,48.77,30.21Z" style="fill:#0093f9"/></svg>