<svg id="Layer_1" data-name="Layer 1" xmlns="http://www.w3.org/2000/svg" viewBox="0 0 91 91"><path d="M45.5,91A45.5,45.5,0,1,0,0,45.5,45.5,45.5,0,0,0,45.5,91Z" style="fill-rule:evenodd"/><path d="M33.83,21.92h6.55a.45.45,0,0,1,.45.45h0V32a.46.46,0,0,0,.46.45H49.7a.45.45,0,0,0,.45-.45h0V22.37a.45.45,0,0,1,.45-.45h6.56a.45.45,0,0,1,.45.45h0V32a.45.45,0,0,0,.45.45h8a.46.46,0,0,1,.45.46v6.53a.45.45,0,0,1-.45.45h-8a.47.47,0,0,0-.46.46V50.47a.45.45,0,0,0,.45.45h8a.45.45,0,0,1,.45.45h0v6.53a.46.46,0,0,1-.45.46h-8a.45.45,0,0,0-.46.44h0V68.4a.45.45,0,0,1-.45.45H50.61a.45.45,0,0,1-.46-.44h0V58.82a.45.45,0,0,0-.45-.45H41.29a.45.45,0,0,0-.45.45h0V68.4a.45.45,0,0,1-.45.45H33.83a.45.45,0,0,1-.45-.45V58.82a.45.45,0,0,0-.45-.45h-8a.47.47,0,0,1-.46-.46V51.38a.45.45,0,0,1,.44-.46h8a.45.45,0,0,0,.46-.44h0V40.3a.47.47,0,0,0-.46-.46h-8a.45.45,0,0,1-.46-.44h0V32.86a.47.47,0,0,1,.46-.46h8a.45.45,0,0,0,.46-.44h0V22.37a.44.44,0,0,1,.43-.45ZM50.16,50.47V40.3a.48.48,0,0,0-.46-.46H41.29a.46.46,0,0,0-.45.46V50.47a.45.45,0,0,0,.45.45H49.7a.45.45,0,0,0,.46-.44Z" style="fill:#fff;fill-rule:evenodd"/></svg>