<svg id="Layer_1" data-name="Layer 1" xmlns="http://www.w3.org/2000/svg" viewBox="0 0 91 91"><path d="M45.51,0A45.47,45.47,0,1,0,91,45.53,45.47,45.47,0,0,0,45.51,0Z" style="fill:#e0e0e0"/><path d="M38.68,30.2c1,.08,5.47.67,9.67,1.26,4.82.68,8.69,1.25,9.33,1.39,0,.78-.86,6.47-2.14,15.1-1,6.71-2,13.21-2.26,14.93Z" style="fill:#eb4e3f"/><path d="M28.39,74.24c.76-3.54,1.54-7.14,2.3-10.62.29-1.3.57-2.6.85-3.9,1.15-5.25,2.25-10.36,3.18-14.66l.08-.32c1-4.51,2-9.16,3.06-13.75l5.4,32.57Z" style="fill:#384088"/><polygon points="43.82 63.39 38.49 31.22 52.77 63.51 43.82 63.39" style="fill:#384088"/><path d="M57.51,32c-1.26-.14-2.49-.31-3.68-.48-.73-.11-1.49-.22-2.24-.31l-4-.56-2.08-.29-4.21-.58-1.35-.18c2.57-.91,14.54-4.63,15.86-4.92Z" style="fill:#f79436"/><path d="M58.33,33.58a24.21,24.21,0,0,1,2.46,3L54.3,60.6Z" style="fill:#384088"/><polygon points="50.44 21.68 55.44 23.86 39.58 29 50.44 21.68" style="fill:#384088"/><polygon points="55.13 19.49 62.61 21.7 56.21 23.39 55.13 19.49" style="fill:#f79436"/><path d="M38.86,28.71c.13-.22.25-.45.37-.67.37-.69.77-1.43,1.28-2.4a.88.88,0,0,1,.47-.48L46.59,23l2.12-.83L38.8,28.81Z" style="fill:#eb4e3f"/><path d="M44.94,18.57A22.15,22.15,0,0,1,48.13,17l4.22,4.77Z" style="fill:#fd5040"/><polygon points="41.8 21.9 48.2 21.69 40.87 24.57 41.8 21.9" style="fill:#384088"/><path d="M42.17,21.22c.35-.45.72-.85,1.09-1.24s.61-.66.9-1l4.48,2c-1.15.12-2.28.14-3.47.17C44.19,21.13,43.19,21.15,42.17,21.22Z" style="fill:#eb4e3f"/><path d="M49.58,17.62l4.51,2c-.16.59-.38,1.14-.6,1.72-.08.21-.17.41-.25.63Z" style="fill:#f49539"/><polygon points="49.23 16.76 52.28 16.76 53.98 18.6 49.23 16.76" style="fill:#fd5040"/><polygon points="53.85 22.45 54.6 20.23 55.34 23.17 53.85 22.45" style="fill:#fd5040"/></svg>