<?xml version="1.0" encoding="UTF-8"?>
<svg id="Layer_1" data-name="Layer 1" xmlns="http://www.w3.org/2000/svg" viewBox="0 0 91 91">
  <path d="m45.5,0C20.37,0,0,20.37,0,45.5s20.37,45.5,45.5,45.5,45.5-20.37,45.5-45.5S70.63,0,45.5,0" style="fill: #e5e5e5;"/>
  <g>
    <path d="m42.65,22.39c-1.41,0-2.76.56-3.75,1.55l-15.62,15.62c-.59.59-.89,1.37-.89,2.14,0,.78.3,1.55.89,2.14l10.24,10.24v-18.13c0-1.35,1.09-2.45,2.44-2.45h21.52l11.13-11.13h-25.96Z" style="fill: #4a20ef;"/>
    <path d="m33.52,57.48h21.51c1.35,0,2.45-1.1,2.45-2.45v-18.13l10.24,10.24c.59.59.89,1.37.89,2.14s-.3,1.55-.89,2.14l-15.62,15.62c-.99.99-2.34,1.55-3.75,1.55h-25.96s11.13-11.13,11.13-11.13Z" style="fill: #4a20ef;"/>
  </g>
</svg>