<svg id="Layer_1" data-name="Layer 1" xmlns="http://www.w3.org/2000/svg" viewBox="0 0 91 91"><g id="Group_938" data-name="Group 938"><g id="Group_931" data-name="Group 931"><path id="Path_8573" data-name="Path 8573" d="M65.86,8a58,58,0,0,0-6.4,7.59l-.6-.2a43.67,43.67,0,0,0-10.71-2.08c-1.09-.08-5.17-.08-6.51,0A38,38,0,0,0,31,15.41l-.39.14A57.58,57.58,0,0,0,24,8a45.94,45.94,0,0,1,37.44-2c1.3.49,2.58,1.06,3.83,1.68Z" style="fill:#f00500"/><path id="Path_8574" data-name="Path 8574" d="M87.56,61.19A44,44,0,0,1,79.71,75a49.79,49.79,0,0,1-6.14,6,45.34,45.34,0,0,1-17.71,8.74,46.53,46.53,0,0,1-21.76,0A45.2,45.2,0,0,1,16.39,81a49.79,49.79,0,0,1-6.14-6A43.3,43.3,0,0,1,2.4,32.78,46.89,46.89,0,0,1,6,25.07c.66-1.12,1.47-2.38,1.86-2.9,1.35,5.79,3,10.88,3.62,12.72a2.29,2.29,0,0,1-.16.31A50.87,50.87,0,0,0,5.85,55c0,.08,0,.18,0,.26a11.94,11.94,0,0,0,.28,4.28c1,4,4.29,8.4,9.36,12.72C23.8,79.3,35.07,84.41,43.61,85c8.9.6,22-4.6,30.79-12.2a44.4,44.4,0,0,0,3.87-3.89,22.54,22.54,0,0,0,2.06-2.74s0,0,0-.06.09-.07.06-.1,0-.05,0-.07.07,0,.06-.07,0-.05.06-.07a.06.06,0,0,0,0-.08,0,0,0,0,1,0-.06s0,0,0-.07,0-.07.06-.07a.05.05,0,0,0,0,0,1.77,1.77,0,0,1,.19-.33c.21-.32,1-1.82,1.16-2.07a19.33,19.33,0,0,0,1.54-5,13.27,13.27,0,0,0,.13-2.52s0-.15,0-.31,0-.7-.07-1.12c0-.63-.08-1.51-.13-1.95a41,41,0,0,0-5.31-17.07,5.75,5.75,0,0,1-.31-.59.51.51,0,0,1-.05-.12h0c.43-1.3,2.21-6.75,3.63-13l0,0,.21.28c.36.49,1.33,1.95,1.76,2.65a44.13,44.13,0,0,1,4.62,10.3A43.83,43.83,0,0,1,87.56,61.19Z" style="fill:#f00500"/><path id="Path_8575" data-name="Path 8575" d="M69.36,44.44A4.72,4.72,0,0,1,68,45.82a23.35,23.35,0,0,1-8.91,3.37c-2,.36-4,.42-4.62.12-.39-.19-.45-.35-.31-.85a6.85,6.85,0,0,1,2.74-3.28c.76-.55,3.83-2.41,5.26-3.2a18.42,18.42,0,0,1,5.55-2.24,2.76,2.76,0,0,1,1.05,0c.25.1.53.84.64,1.74A22.28,22.28,0,0,1,69.36,44.44Z"/><path id="Path_8576" data-name="Path 8576" d="M36.33,49.08a1.54,1.54,0,0,1-1,.42,16.67,16.67,0,0,1-2.76-.07A29.27,29.27,0,0,1,24.16,47a10.55,10.55,0,0,1-2.9-2l-.39-.4-.05-.54a14.78,14.78,0,0,1,.06-2.9A3.83,3.83,0,0,1,21.31,40c.12-.14.12-.14.62-.14a6,6,0,0,1,2,.36,38.57,38.57,0,0,1,7.42,3.7c2.58,1.54,3.54,2.3,4.29,3.34A2.79,2.79,0,0,1,36.33,49.08Z"/><path id="Path_8577" data-name="Path 8577" d="M56.18,68.59s-.16.72-.38,1.52-.37,1.44-.37,1.47a2.27,2.27,0,0,1-.45,0h-.45l-.62,1.46c-.33.8-.64,1.54-.68,1.65l-.09.2-.29-.48-.3-.47V70.06l-.11,0c-.24.06-1.93.28-2.68.35a38.36,38.36,0,0,1-9.21-.19c-.49-.07-.91-.13-.92-.12s0,.92,0,2l.05,2-.24.37c-.13.19-.26.36-.26.38s-.18-.19-.5-.83a9.9,9.9,0,0,1-.79-2.13l-.09-.41-.44,0-.43,0-.11-.52c-.06-.28-.13-.71-.16-.95l0-.45-.37-.32c-.21-.18-.42-.37-.46-.39a.33.33,0,0,1-.1-.24v-.17h1.76l1.75,0,.05.18.06.18.6,0,2.36.07,1.75,0,.45-.7.46-.7h.59V66.22l0-1.46-.77-.33c-2.48-1.1-3.94-2.34-4.48-3.86-.12-.31-.12-.42-.14-1.82a5.37,5.37,0,0,1,.08-1.82,2,2,0,0,1,1.44-1.43,33.49,33.49,0,0,1,4.18-.07h3.9l.43.21a2.5,2.5,0,0,1,1.06.83,2.35,2.35,0,0,1,.43,1.65,12.08,12.08,0,0,1-.21,2.69,5.72,5.72,0,0,1-.81,1.62,7.58,7.58,0,0,1-3.14,2.2l-.34.12v1.48l0,1.47.31,0,.31,0,.42.64.4.63h1.88c1,0,1.95,0,2,0s.17,0,.31-.22l.17-.25h1.61A5.12,5.12,0,0,1,56.18,68.59Z"/><path id="Path_8578" data-name="Path 8578" d="M48.78,72.62c-.27.15-.45.22-.49.19s-.24-.18-.45-.33l-.38-.31-.39.42c-.86.92-.88,1-1.14,1s-.47,0-1-.74l-.45-.68-.39,0-.39,0-.18.38-.19.38-.32-.1a6.74,6.74,0,0,1-.74-.3l-.42-.21v-.8l3.73,0h3.73v.38C49.38,72.28,49.4,72.27,48.78,72.62Z"/></g><path id="Path_8579" data-name="Path 8579" d="M83.83,55.51s0-.15,0-.31A29.82,29.82,0,0,0,61.92,62S59,48.8,45.58,48.8,27.13,62,27.13,62C19.59,53.86,9.5,54.45,5.85,55c0,.08,0,.18,0,.26a11.94,11.94,0,0,0,.28,4.28c1,4,4.29,8.4,9.36,12.72C23.8,79.3,35.07,84.41,43.61,85c8.9.6,22-4.6,30.79-12.2a44.4,44.4,0,0,0,3.87-3.89,22.54,22.54,0,0,0,2.06-2.74s0,0,0-.06.09-.07.06-.1,0-.05,0-.07.07,0,.06-.07,0-.05.06-.07a.06.06,0,0,0,0-.08,0,0,0,0,1,0-.06s0,0,0-.07,0-.07.06-.07a.05.05,0,0,0,0,0,1.77,1.77,0,0,1,.19-.33c.21-.32,1-1.82,1.16-2.07a19.33,19.33,0,0,0,1.54-5A15.72,15.72,0,0,0,83.83,55.51Zm-35,17.11c-.27.15-.45.22-.49.19s-.24-.18-.45-.33l-.38-.31-.39.42c-.86.92-.88,1-1.14,1s-.47,0-1-.74l-.45-.68-.39,0-.39,0-.18.38-.19.38-.32-.1a6.74,6.74,0,0,1-.74-.3l-.42-.21v-.8l3.73,0h3.73v.38C49.38,72.28,49.4,72.27,48.78,72.62Zm7-2.53c-.21.8-.38,1.45-.38,1.47a2.23,2.23,0,0,1-.45,0h-.45l-.6,1.47c-.33.8-.64,1.54-.68,1.65l-.09.2-.29-.48-.3-.47V70.06l-.11,0c-.24.06-1.93.28-2.68.35a38.36,38.36,0,0,1-9.21-.19c-.49-.07-.91-.13-.92-.12s0,.92,0,2l.05,2-.24.37c-.13.19-.26.36-.26.38s-.18-.19-.5-.83a9.9,9.9,0,0,1-.79-2.13l-.09-.41-.44,0-.43,0-.11-.52c-.06-.28-.13-.71-.16-.95l0-.45-.37-.32c-.21-.18-.42-.37-.46-.39a.33.33,0,0,1-.1-.24v-.17h1.76l1.75,0,.05.18.06.18.6,0,2.36.07,1.75,0,.45-.7.46-.7h.59V66.22l0-1.46-.77-.33c-2.48-1.1-3.94-2.34-4.48-3.86-.12-.31-.12-.42-.14-1.82a5.37,5.37,0,0,1,.08-1.82,2,2,0,0,1,1.44-1.43,33.49,33.49,0,0,1,4.18-.07h3.9l.43.21a2.5,2.5,0,0,1,1.06.83,2.35,2.35,0,0,1,.43,1.65,12.08,12.08,0,0,1-.21,2.69,5.72,5.72,0,0,1-.81,1.62,7.58,7.58,0,0,1-3.14,2.2l-.34.12v1.48l0,1.47.31,0,.31,0,.42.64.4.63h1.88c1,0,1.95,0,2,0s.17,0,.31-.22l.17-.25h1.61a7.46,7.46,0,0,1,1.62,0A8.77,8.77,0,0,0,55.79,70.09Z" style="fill:#fff"/><path id="Path_8580" data-name="Path 8580" d="M5.82,55a12.39,12.39,0,0,0-1.4.26" style="fill:none"/><path id="Path_8581" data-name="Path 8581" d="M85.05,55.39s-.45-.1-1.25-.19" style="fill:none"/><path id="Path_8582" data-name="Path 8582" d="M83.72,54.08c0-.63-.09-1.51-.13-1.95a41.14,41.14,0,0,0-5.31-17.07,4.28,4.28,0,0,1-.31-.59s0-.09-.06-.12h0c.44-1.3,2.22-6.75,3.64-13C83.47,12.89,84.69,3,81,0c0,0-6.45-.48-15.09,8a57.19,57.19,0,0,0-6.39,7.59l-.6-.2a43.75,43.75,0,0,0-10.72-2.08c-1.09-.08-5.17-.08-6.5,0a37.85,37.85,0,0,0-10.61,2.09l-.4.14A57.5,57.5,0,0,0,24.05,8C15.06-.49,8.37,0,8.37,0c-3.95,3.07-2.6,13.41-.56,22.16,1.35,5.79,3,10.88,3.62,12.72,0,.1-.1.21-.15.31A50.71,50.71,0,0,0,5.82,55c3.66-.53,13.74-1.14,21.3,7,0,0,5-13.17,18.45-13.17S61.9,62,61.9,62A29.89,29.89,0,0,1,83.79,55.2C83.78,54.92,83.75,54.5,83.72,54.08ZM14.08,29.6S8.84,16.49,10.18,9h0A7.23,7.23,0,0,1,11.49,5.8S17.43,6.38,27,17a27.24,27.24,0,0,0-4.26,2.76,0,0,0,0,1,0,0,33.64,33.64,0,0,0-8.65,9.78ZM36.33,49.08a1.54,1.54,0,0,1-1,.42,16.67,16.67,0,0,1-2.76-.07A29.27,29.27,0,0,1,24.16,47a10.55,10.55,0,0,1-2.9-2l-.39-.4-.05-.54a14.78,14.78,0,0,1,.06-2.9A3.83,3.83,0,0,1,21.31,40c.12-.14.12-.14.62-.14a6,6,0,0,1,2,.36,38.57,38.57,0,0,1,7.42,3.7c2.58,1.54,3.54,2.3,4.29,3.34A2.79,2.79,0,0,1,36.33,49.08Zm33-4.64A4.72,4.72,0,0,1,68,45.82a23.35,23.35,0,0,1-8.91,3.37c-2,.36-4,.42-4.62.12-.39-.19-.45-.35-.31-.85a6.85,6.85,0,0,1,2.74-3.28c.76-.55,3.83-2.41,5.26-3.2a18.42,18.42,0,0,1,5.55-2.24,2.76,2.76,0,0,1,1.05,0c.25.1.53.84.64,1.74A22.28,22.28,0,0,1,69.36,44.44ZM67,19.8h0A26,26,0,0,0,62.88,17c9.27-10.66,15-11.25,15-11.25A7.72,7.72,0,0,1,79.15,9h0c1.3,7.49-3.76,20.61-3.76,20.61A33.34,33.34,0,0,0,67,19.8Z" style="fill:#ffa409"/><path id="Path_8583" data-name="Path 8583" d="M59.46,15.6s0,.07-.07.09" style="fill:none"/><path id="Path_8584" data-name="Path 8584" d="M77.9,34.34c-.07.2-.1.3-.1.3" style="fill:none"/><g id="Group_934" data-name="Group 934"><g id="Group_933" data-name="Group 933"><g id="Group_932" data-name="Group 932"><path id="Path_8585" data-name="Path 8585" d="M79.16,9C78.07,8.85,72.9,8.82,67,19.8h0A26,26,0,0,0,62.88,17c9.27-10.66,15-11.25,15-11.25A7.47,7.47,0,0,1,79.16,9Z" style="fill:#ff9300"/></g><path id="Path_8586" data-name="Path 8586" d="M75.41,29.6A33.43,33.43,0,0,0,67,19.8c5.87-11,11-11,12.13-10.81h0C80.47,16.49,75.41,29.6,75.41,29.6Z" style="fill:#ff8300"/><path id="Path_8587" data-name="Path 8587" d="M79.37,9l-.21,0Z" style="fill:#ff8300"/></g></g><path id="Path_8588" data-name="Path 8588" d="M31.07,16.14l-.43-.59" style="fill:none"/><path id="Path_8589" data-name="Path 8589" d="M11.43,34.89c.15.47.25.73.25.73" style="fill:none"/><g id="Group_937" data-name="Group 937"><g id="Group_936" data-name="Group 936"><g id="Group_935" data-name="Group 935"><path id="Path_8590" data-name="Path 8590" d="M27,17a27.24,27.24,0,0,0-4.26,2.76h0C16.66,8.81,11.32,8.85,10.17,9a7.16,7.16,0,0,1,1.3-3.21S17.43,6.37,27,17Z" style="fill:#ff9300"/></g><path id="Path_8591" data-name="Path 8591" d="M22.75,19.8a33.63,33.63,0,0,0-8.67,9.8S8.84,16.49,10.18,9h0C11.32,8.85,16.67,8.82,22.75,19.8Z" style="fill:#ff8300"/><path id="Path_8592" data-name="Path 8592" d="M10.18,9,10,9Z" style="fill:#ff8300"/></g></g><path id="Path_8593" data-name="Path 8593" d="M61.22,36.88s-4.49.28-3.93-3.23,4.07-3.92,5.05-3.78,4.91,1.54,4.2,4.48-1.68,2.39-2.24,2.53A22.19,22.19,0,0,1,61.22,36.88Z" style="fill:#fff"/><path id="Path_8594" data-name="Path 8594" d="M28.13,36.88s-4.49.28-3.93-3.23,4.07-3.92,5.05-3.78,4.91,1.54,4.21,4.48-1.69,2.39-2.25,2.53A22.19,22.19,0,0,1,28.13,36.88Z" style="fill:#fff"/></g></svg>