<svg id="Layer_1" data-name="Layer 1" xmlns="http://www.w3.org/2000/svg" viewBox="0 0 91 91"><path d="M91,45.51A45.5,45.5,0,1,1,45.55,0,45.48,45.48,0,0,1,91,45.51ZM19.26,17.86V73.41h48v-6h-42V23.86h42v-6Zm60,20.94a1.79,1.79,0,0,0,0-.27c0-.18,0-.35,0-.52a9.56,9.56,0,0,0-4-7.28,12.87,12.87,0,0,0-6.68-2.38A16.53,16.53,0,0,0,59,30.06a8.46,8.46,0,0,0-4.7,6.22c-.65,4,1,7,4.25,9.16a28.92,28.92,0,0,0,6.75,3.06c1.54.54,3.07,1.14,4.56,1.8a4.68,4.68,0,0,1,1.59,1.2,3.72,3.72,0,0,1-2.13,6,10.1,10.1,0,0,1-5.56-.13A4.67,4.67,0,0,1,60.24,53c0-.26-.05-.51-.08-.8h-7c0,.28,0,.52,0,.75a9.71,9.71,0,0,0,3.49,7,14,14,0,0,0,7.14,3.13,18.28,18.28,0,0,0,10-1,9,9,0,0,0,3.42-14.36,13,13,0,0,0-4.9-3.41c-1.81-.75-3.67-1.36-5.52-2a16,16,0,0,1-4-1.85,3.33,3.33,0,0,1,.06-5.69,5.47,5.47,0,0,1,1.64-.72,8.65,8.65,0,0,1,4.17,0,4.47,4.47,0,0,1,3.64,4.16c0,.17,0,.34.06.55Z"/><path d="M19.26,17.86H67.31v6h-42V67.38h42v6h-48Z" style="fill:#fff"/><path d="M79.3,38.8h-7c0-.21,0-.38-.06-.55a4.47,4.47,0,0,0-3.64-4.16,8.65,8.65,0,0,0-4.17,0,5.47,5.47,0,0,0-1.64.72,3.33,3.33,0,0,0-.06,5.69,16,16,0,0,0,4,1.85c1.85.66,3.71,1.27,5.52,2a13,13,0,0,1,4.9,3.41,9,9,0,0,1-3.42,14.36,18.28,18.28,0,0,1-10,1A14,14,0,0,1,56.63,60a9.71,9.71,0,0,1-3.49-7c0-.23,0-.47,0-.75h7c0,.29.05.54.08.8a4.67,4.67,0,0,0,3.53,4.38,10.1,10.1,0,0,0,5.56.13,3.72,3.72,0,0,0,2.13-6,4.68,4.68,0,0,0-1.59-1.2c-1.49-.66-3-1.26-4.56-1.8a28.92,28.92,0,0,1-6.75-3.06c-3.24-2.2-4.9-5.17-4.25-9.16A8.46,8.46,0,0,1,59,30.06a16.53,16.53,0,0,1,9.6-1.71,12.87,12.87,0,0,1,6.68,2.38,9.56,9.56,0,0,1,4,7.28c0,.17,0,.34,0,.52A1.79,1.79,0,0,1,79.3,38.8Z" style="fill:#fff"/></svg>