<svg id="Layer_1" data-name="Layer 1" xmlns="http://www.w3.org/2000/svg" viewBox="0 0 91 91"><path d="M44.67,91h-.11C25.5,90.94,16.37,81.82,12,74.23A36.34,36.34,0,0,1,7.59,51.18a49.58,49.58,0,0,1,7.93-20.65,63.34,63.34,0,0,1,10.15-12,25.67,25.67,0,0,1,6.91-5,59,59,0,0,1-1-7.3V6.06c-.06-2.91,3.19-4.22,4.28-4.68A19.43,19.43,0,0,1,42.67,0a26.7,26.7,0,0,1,6.62.57c1.2.29,4.79,1.08,4.85,4.17L54.31,10a19.16,19.16,0,0,1-.17,2.63C64.35,16.21,73,27,76.56,32.81h0A53,53,0,0,1,83,49.41c1.82,9.53.28,18-4.63,25.39C68.29,89.8,50.2,91,44.67,91ZM34.52,19.46c-2.29,1.26-8.9,6.79-13.81,14.44C15.86,41.37,9,56.2,17.46,71.2c5,8.9,14.43,13.64,27.15,13.7h.12c4.73,0,20.19-1,28.46-13.47,9.76-14.6.12-32-1.94-35.31h0a56.38,56.38,0,0,0-9.81-11.64L42.79,21.63l-14.15,2.8,7.47-4.22a6.51,6.51,0,0,1-.85-.4A4.32,4.32,0,0,1,34.52,19.46Zm17-.11,7,2.74a26.32,26.32,0,0,0-5.88-3.37c-.28.17-.57.34-.91.52A.32.32,0,0,1,51.57,19.35ZM35,19.24m2.74-12a46,46,0,0,0,.85,5.41A3.93,3.93,0,0,0,41,15.18l2.28.92L45.18,15A6.81,6.81,0,0,0,47,13.53l.23-.34.11-.06A4.54,4.54,0,0,0,48,10.22V6.63a19.77,19.77,0,0,0-5.19-.46A14,14,0,0,0,37.77,7.26Z" style="fill:#0b4431"/><path d="M75.7,73.09C66.35,87.18,49,87.92,44.56,87.92c-5.59,0-21.62-.69-29.84-15.23-7.87-13.92-4.16-28.92,3.37-40.51,5.87-9.07,14.31-15.91,16.48-16a7.57,7.57,0,0,1,2,.86,12.64,12.64,0,0,0,6.79,1.14,19.09,19.09,0,0,0,7.07-1.65c1.37-.69,1.71-1.26,2.28-1,9.82,3.31,18.14,14.09,21.17,19C77.13,39.83,86,57.63,75.7,73.09Z" style="fill:#77baa1"/><path d="M19.85,42.4s-4.27,10.44-3.36,18.25c.85,7.53,5.93,18.71,18.37,21.45s20.48-.46,27.38-3.54S73.82,69,74.51,62.93s.74-15-2.69-22.25" style="fill:#f3acbb"/><path d="M50.2,23.23c-.4,1.42-6.9,2.79-9.87,2S37.2,22.54,36.51,17a12.64,12.64,0,0,0,6.79,1.14,19,19,0,0,0,7.07-1.65A29.09,29.09,0,0,1,50.2,23.23Z" style="fill:#89b772"/><path d="M34.74,75.6a4.68,4.68,0,0,1-.28-2.51c.4-3.08,2.57-11.24,13.8-17.4,14.09-7.76,21.51-1.2,21.51-1.2s4.45,3.94,1.08,13.29S51,80.5,51,80.5,37.88,83.53,34.74,75.6Z" style="fill:#f08fa2"/><path d="M21.17,58.54c-.92,0-1-3.59.17-5.19,1.82-2.57,5-.17,5-.17S23.56,58.54,21.17,58.54Z" style="fill:#f08fa2"/><path d="M71.82,40.68c0-1.36-11.63-2.45-26-2.45s-26,2.8-26,4.17,11.64,3.76,26,3.76S71.82,42.05,71.82,40.68Z" style="fill:#f8d0d9"/><path d="M34.57,6s1,6,1.37,7.7c.34,1.43,2.57,4.51,6.68,5,4.39.46,6.9-3.36,6.9-3.36a6.93,6.93,0,0,0,1.65-5.19C51.06,6.57,51,4.86,51,4.86S41.76,5.72,34.57,6Z" style="fill:#dd8843"/><path d="M51,4.86C51,4,47.18,3,42.73,3.09S34.52,5.14,34.57,6s3.82,2.17,8.27,2.05S51,5.72,51,4.86Z" style="fill:#ebb646"/><path d="M22,44.05a1.88,1.88,0,0,1-1.09-.8c-.8-1.25-1.94-4.56,2.63-10.89,5.93-8.33,9.12-5.54,9.12-5.54s3.94,2-.34,9c-.06,0-.06.11-.11.17C31.78,37,27.56,45.59,22,44.05Z" style="fill:#fff"/><path d="M64.29,77.65a1.7,1.7,0,0,1-1.42-2,8.58,8.58,0,0,1,2.91-4.79c3.08-2.74,5.3-.28,5.82.4a1.81,1.81,0,0,1,.22.52c.12.57.06,1.71-1.48,3.42C68.57,77.14,66.4,78.05,64.29,77.65Z" style="fill:#fff"/><path d="M78.56,52.38c.57,1.48-3.66-4.05-4.23-4.11-.85-.11-5.19,10.38-6.27,10.67-1.37.34-12.49-7.76-14.89-7.53-4.28.28-13.06,13.18-14.2,13.41-1.37.22-11.19-11.53-14.72-12-1.2-.18-9.47,9.86-10.16,9.12-.34-.34-1.14-8.33-1-10.55C13.18,50,14.15,57,14.55,57c.68.06,8.27-7.53,9.87-7.42,1.42.12,12.66,10.1,13.75,9.87s12-11,14.32-11.29C54.31,47.93,64,55,66.63,54.49c1.6-.23,6.51-8.9,7.36-9.13C74.73,45.31,77.93,50.78,78.56,52.38Z" style="fill:#a5d4c1"/></svg>