<svg id="Layer_1" data-name="Layer 1" xmlns="http://www.w3.org/2000/svg" xmlns:xlink="http://www.w3.org/1999/xlink" viewBox="0 0 91 91"><defs><linearGradient id="linear-gradient" x1="-3785.65" y1="7184.58" x2="-3785.65" y2="7063.24" gradientTransform="matrix(0.2, 0, 0, -0.2, 802.63, 1438.91)" gradientUnits="userSpaceOnUse"><stop offset="0" stop-color="#090220"/><stop offset="1" stop-color="#170659"/></linearGradient></defs><circle cx="45.5" cy="45.5" r="45.5" style="fill:url(#linear-gradient)"/><path d="M31.5,34.16a2,2,0,0,0-1.6-.74H17a.43.43,0,0,1-.28-.11.37.37,0,0,1-.1-.24V24.4a.37.37,0,0,1,.1-.24.33.33,0,0,1,.28-.11H30.6a11.56,11.56,0,0,1,8.89,4.21l3.31,4-6.45,7.85Zm21.43-6.08a10.79,10.79,0,0,1,8.39-4H74.08a.35.35,0,0,1,.24.08.31.31,0,0,1,.07.26v8.7a.39.39,0,0,1-.07.23.31.31,0,0,1-.24.1H61.83a1.91,1.91,0,0,0-1.52.71l-9,11,9.07,11.06a1.94,1.94,0,0,0,1.46.66H74.08a.28.28,0,0,1,.24.1.45.45,0,0,1,.07.28V65.9a.4.4,0,0,1-.07.24.28.28,0,0,1-.24.1H61.33A10.55,10.55,0,0,1,53,62l-7.42-9.59L38.13,62a10.65,10.65,0,0,1-8.4,4.19H17a.31.31,0,0,1-.24-.1.35.35,0,0,1-.07-.28V57.16a.39.39,0,0,1,.07-.23.23.23,0,0,1,.24-.1H29.1a2,2,0,0,0,1.5-.72l8.76-11Z" style="fill:#00d1ff"/></svg>