<svg id="Layer_1" data-name="Layer 1" xmlns="http://www.w3.org/2000/svg" xmlns:xlink="http://www.w3.org/1999/xlink" viewBox="0 0 91 91"><defs><linearGradient id="linear-gradient" x1="-1577.64" y1="1831.22" x2="-1530.94" y2="1877.92" gradientTransform="matrix(1, 0, 0, -1, 1599.71, 1901.02)" gradientUnits="userSpaceOnUse"><stop offset="0" stop-color="#cb4ee8"/><stop offset="1" stop-color="#10f4b1"/></linearGradient></defs><path d="M64.27,33.94a1.66,1.66,0,0,1-1.19.5H20.81a1.71,1.71,0,0,1-1.69-1.73,1.69,1.69,0,0,1,.48-1.17l6.94-7.18a1.66,1.66,0,0,1,1.21-.52H70.17a1.71,1.71,0,0,1,1.69,1.73,1.67,1.67,0,0,1-.5,1.19Zm0,32.09a1.71,1.71,0,0,1-1.19.49H20.81a1.67,1.67,0,0,1-1.21-2.83l6.94-7a1.72,1.72,0,0,1,1.21-.5H70.17a1.67,1.67,0,0,1,1.64,1.7A1.69,1.69,0,0,1,71.36,59ZM63.08,40a1.71,1.71,0,0,1,1.19.49l7.09,7a1.67,1.67,0,0,1-1.19,2.85H27.75a1.72,1.72,0,0,1-1.21-.5l-6.94-7A1.66,1.66,0,0,1,20.81,40Z" style="fill:#00ffad"/><path id="SVGID" d="M45.5,0A45.5,45.5,0,1,1,0,45.5,45.5,45.5,0,0,1,45.5,0Z"/><path d="M21,41.16H63.1a2,2,0,0,1,1.4.58l6.66,6.71A2,2,0,0,1,71,51.28a2.06,2.06,0,0,1-1.27.52H27.7a1.92,1.92,0,0,1-1.39-.59l-6.66-6.7A2,2,0,0,1,21,41.16Zm-1.39-8.89,6.66-6.71A2,2,0,0,1,27.7,25H69.8a2,2,0,0,1,1.39,3.35L64.54,35a2,2,0,0,1-1.4.59H21a2,2,0,0,1-1.85-2.14,2.06,2.06,0,0,1,.5-1.18ZM71.19,60.69l-6.66,6.7a2,2,0,0,1-1.39.59H21a2,2,0,0,1-1.39-3.35l6.66-6.71a2,2,0,0,1,1.39-.58H69.8a2,2,0,0,1,1.39,3.35Z" style="fill-rule:evenodd;fill:url(#linear-gradient)"/></svg>