<svg id="Layer_1" data-name="Layer 1" xmlns="http://www.w3.org/2000/svg" xmlns:xlink="http://www.w3.org/1999/xlink" viewBox="0 0 91 91"><defs><clipPath id="clip-path"><rect width="91" height="91" style="fill:none"/></clipPath><clipPath id="clip-path-4"><circle cx="45.5" cy="45.5" r="45.5" style="fill:none"/></clipPath><clipPath id="clip-path-7"><rect x="69.35" y="20.75" width="1.28" height="1.28" style="fill:none"/></clipPath><clipPath id="clip-path-8"><rect x="69.87" y="44.8" width="0.23" height="1.28" style="fill:none"/></clipPath><clipPath id="clip-path-9"><rect x="69.35" y="45.32" width="1.28" height="0.23" style="fill:none"/></clipPath><clipPath id="clip-path-10"><rect x="45.46" y="68.9" width="0.23" height="1.28" style="fill:none"/></clipPath><clipPath id="clip-path-11"><rect x="44.94" y="69.42" width="1.28" height="0.23" style="fill:none"/></clipPath><clipPath id="clip-path-12"><rect x="21.07" y="44.86" width="0.23" height="1.28" style="fill:none"/></clipPath><clipPath id="clip-path-13"><rect x="20.55" y="45.39" width="1.28" height="0.23" style="fill:none"/></clipPath><clipPath id="clip-path-14"><rect x="21.07" y="68.9" width="0.23" height="1.28" style="fill:none"/></clipPath><clipPath id="clip-path-15"><rect x="20.55" y="69.42" width="1.28" height="0.23" style="fill:none"/></clipPath></defs><g style="clip-path:url(#clip-path)"><g style="clip-path:url(#clip-path)"><g style="clip-path:url(#clip-path)"><path d="M91,45.5A45.5,45.5,0,1,1,45.5,0,45.5,45.5,0,0,1,91,45.5" style="fill:#221b47"/></g><g style="clip-path:url(#clip-path-4)"><g style="opacity:0.100005999207497"><g style="clip-path:url(#clip-path)"><line x1="6.57" x2="6.57" y2="91" style="fill:none;stroke:#fff;stroke-miterlimit:10;stroke-width:0.25px"/><line x1="11.44" x2="11.44" y2="91" style="fill:none;stroke:#fff;stroke-miterlimit:10;stroke-width:0.25px"/><line x1="16.32" x2="16.32" y2="91" style="fill:none;stroke:#fff;stroke-miterlimit:10;stroke-width:0.25px"/><line x1="21.2" x2="21.2" y2="91" style="fill:none;stroke:#fff;stroke-miterlimit:10;stroke-width:0.25px"/><line x1="26.07" x2="26.07" y2="91" style="fill:none;stroke:#fff;stroke-miterlimit:10;stroke-width:0.25px"/><line x1="30.95" x2="30.95" y2="91" style="fill:none;stroke:#fff;stroke-miterlimit:10;stroke-width:0.25px"/><line x1="35.82" x2="35.82" y2="91" style="fill:none;stroke:#fff;stroke-miterlimit:10;stroke-width:0.25px"/><line x1="40.7" x2="40.7" y2="91" style="fill:none;stroke:#fff;stroke-miterlimit:10;stroke-width:0.25px"/><line x1="45.57" x2="45.57" y2="91" style="fill:none;stroke:#fff;stroke-miterlimit:10;stroke-width:0.25px"/><line x1="50.45" x2="50.45" y2="91" style="fill:none;stroke:#fff;stroke-miterlimit:10;stroke-width:0.25px"/><line x1="55.33" x2="55.33" y2="91" style="fill:none;stroke:#fff;stroke-miterlimit:10;stroke-width:0.25px"/><line x1="60.2" x2="60.2" y2="91" style="fill:none;stroke:#fff;stroke-miterlimit:10;stroke-width:0.25px"/><line x1="65.08" x2="65.08" y2="91" style="fill:none;stroke:#fff;stroke-miterlimit:10;stroke-width:0.25px"/><line x1="69.95" x2="69.95" y2="91" style="fill:none;stroke:#fff;stroke-miterlimit:10;stroke-width:0.25px"/><line x1="74.83" x2="74.83" y2="91" style="fill:none;stroke:#fff;stroke-miterlimit:10;stroke-width:0.25px"/><line x1="79.7" x2="79.7" y2="91" style="fill:none;stroke:#fff;stroke-miterlimit:10;stroke-width:0.25px"/><line x1="84.58" x2="84.58" y2="91" style="fill:none;stroke:#fff;stroke-miterlimit:10;stroke-width:0.25px"/><line x1="91" y1="2.13" y2="2.13" style="fill:none;stroke:#fff;stroke-miterlimit:10;stroke-width:0.25px"/><line x1="91" y1="6.95" y2="6.95" style="fill:none;stroke:#fff;stroke-miterlimit:10;stroke-width:0.25px"/><line x1="91" y1="11.76" y2="11.76" style="fill:none;stroke:#fff;stroke-miterlimit:10;stroke-width:0.25px"/><line x1="91" y1="16.57" y2="16.57" style="fill:none;stroke:#fff;stroke-miterlimit:10;stroke-width:0.25px"/><line x1="91" y1="21.39" y2="21.39" style="fill:none;stroke:#fff;stroke-miterlimit:10;stroke-width:0.25px"/><line x1="91" y1="26.2" y2="26.2" style="fill:none;stroke:#fff;stroke-miterlimit:10;stroke-width:0.25px"/><line x1="91" y1="31.01" y2="31.01" style="fill:none;stroke:#fff;stroke-miterlimit:10;stroke-width:0.25px"/><line x1="91" y1="35.83" y2="35.83" style="fill:none;stroke:#fff;stroke-miterlimit:10;stroke-width:0.25px"/><line x1="91" y1="40.64" y2="40.64" style="fill:none;stroke:#fff;stroke-miterlimit:10;stroke-width:0.25px"/><line x1="91" y1="45.46" y2="45.46" style="fill:none;stroke:#fff;stroke-miterlimit:10;stroke-width:0.25px"/><line x1="91" y1="50.27" y2="50.27" style="fill:none;stroke:#fff;stroke-miterlimit:10;stroke-width:0.25px"/><line x1="91" y1="55.08" y2="55.08" style="fill:none;stroke:#fff;stroke-miterlimit:10;stroke-width:0.25px"/><line x1="91" y1="59.9" y2="59.9" style="fill:none;stroke:#fff;stroke-miterlimit:10;stroke-width:0.25px"/><line x1="91" y1="64.71" y2="64.71" style="fill:none;stroke:#fff;stroke-miterlimit:10;stroke-width:0.25px"/><line x1="91" y1="69.52" y2="69.52" style="fill:none;stroke:#fff;stroke-miterlimit:10;stroke-width:0.25px"/><line x1="91" y1="74.34" y2="74.34" style="fill:none;stroke:#fff;stroke-miterlimit:10;stroke-width:0.25px"/><line x1="91" y1="79.15" y2="79.15" style="fill:none;stroke:#fff;stroke-miterlimit:10;stroke-width:0.25px"/><line x1="91" y1="83.45" y2="83.45" style="fill:none;stroke:#fff;stroke-miterlimit:10;stroke-width:0.25px"/><line x1="91" y1="87.76" y2="87.76" style="fill:none;stroke:#fff;stroke-miterlimit:10;stroke-width:0.25px"/></g></g></g><g style="clip-path:url(#clip-path)"><g style="opacity:0.440001994371414"><g style="clip-path:url(#clip-path-7)"><line x1="69.99" y1="20.75" x2="69.99" y2="22.03" style="fill:none;stroke:#fff;stroke-miterlimit:10;stroke-width:0.5px"/><line x1="70.62" y1="21.39" x2="69.35" y2="21.39" style="fill:none;stroke:#fff;stroke-miterlimit:10;stroke-width:0.5px"/></g></g><g style="opacity:0.440001994371414"><g style="clip-path:url(#clip-path-8)"><line x1="69.99" y1="44.8" x2="69.99" y2="46.07" style="fill:none;stroke:#fff;stroke-miterlimit:10;stroke-width:0.5px"/></g></g><g style="opacity:0.440001994371414"><g style="clip-path:url(#clip-path-9)"><line x1="70.62" y1="45.44" x2="69.35" y2="45.44" style="fill:none;stroke:#fff;stroke-miterlimit:10;stroke-width:0.5px"/></g></g><g style="opacity:0.440001994371414"><g style="clip-path:url(#clip-path-10)"><line x1="45.58" y1="68.9" x2="45.58" y2="70.17" style="fill:none;stroke:#fff;stroke-miterlimit:10;stroke-width:0.5px"/></g></g><g style="opacity:0.440001994371414"><g style="clip-path:url(#clip-path-11)"><line x1="46.22" y1="69.54" x2="44.94" y2="69.54" style="fill:none;stroke:#fff;stroke-miterlimit:10;stroke-width:0.5px"/></g></g><g style="opacity:0.440001994371414"><g style="clip-path:url(#clip-path-12)"><line x1="21.19" y1="44.86" x2="21.19" y2="46.14" style="fill:none;stroke:#fff;stroke-miterlimit:10;stroke-width:0.5px"/></g></g><g style="opacity:0.440001994371414"><g style="clip-path:url(#clip-path-13)"><line x1="21.82" y1="45.5" x2="20.55" y2="45.5" style="fill:none;stroke:#fff;stroke-miterlimit:10;stroke-width:0.5px"/></g></g><g style="opacity:0.440001994371414"><g style="clip-path:url(#clip-path-14)"><line x1="21.19" y1="68.9" x2="21.19" y2="70.17" style="fill:none;stroke:#fff;stroke-miterlimit:10;stroke-width:0.5px"/></g></g><g style="opacity:0.440001994371414"><g style="clip-path:url(#clip-path-15)"><line x1="21.82" y1="69.54" x2="20.55" y2="69.54" style="fill:none;stroke:#fff;stroke-miterlimit:10;stroke-width:0.5px"/></g></g><path d="M36.17,18.72c0,.12,0,.23,0,.35v2.25c0,.13,0,.25,0,.38v1.74c0,.14,0,.29,0,.43s0,.28,0,.42a1.15,1.15,0,0,0,0,.41l.24,0H37.6l.34,0c0,.14,0,.27,0,.41l-.42,0H35.78c0-.14,0-.28,0-.42V19.58c0-.1,0-.21,0-.31a1.54,1.54,0,0,0-.05-.17l-.21,0H19.3v-.34H36.17" style="fill:#c4c3fd"/><path d="M36.2,23.44V21.7H37v0l0,.39a.63.63,0,0,0,.05.42c.25,0,.5.09.77.07h.3c.12,0,.17.06.17.18s0,.1-.05.15A1.56,1.56,0,0,0,38,23a.26.26,0,0,0-.11.07l0,.4H36.2" style="fill:#fdd655"/><path d="M22.33,18.64H36.18a.06.06,0,0,1,0,.06H19.3a.17.17,0,0,1,0-.07h3" style="fill:#9694f8"/><path d="M72.15,67.58v.13c0,.12,0,.23,0,.35V70.3a.46.46,0,0,1,0,.32H67.37c0-.11,0-.23,0-.34,0-.5,0-1,0-1.51a.37.37,0,0,0-.06-.28,1.47,1.47,0,0,0-.42,0H65.22c0-.11,0-.23,0-.34v-1a2.45,2.45,0,0,0,0-.27s0-.07-.06-.07H63c0-.21,0-.42,0-.62,0-.37,0-.74,0-1.11a.94.94,0,0,0,0-.41c-.06-.08-.15-.06-.22-.06-.36,0-.72,0-1.07,0l-.41,0c0-.41,0-.81,0-1.21,0-.15,0-.3,0-.45s0-.28.06-.41a.81.81,0,0,1,.35,0h0l0,0v1.41a2.48,2.48,0,0,0,0,.27.44.44,0,0,0,.15,0h1.55v1.7c0,.13,0,.25,0,.38a.67.67,0,0,0,.12.06,2.43,2.43,0,0,0,.27,0h1.75c0,.29,0,.58,0,.86s0,.53,0,.8c0,.08.14.07.21.07h1.92c0,.14,0,.28,0,.42V70c0,.08,0,.17.06.22.27,0,1.25,0,1.66,0h2.07s0,0,.06,0a.32.32,0,0,0,0-.09V66.61c0-.09,0-.19-.08-.27l-.23,0H69.54c0-.13,0-.25,0-.38V64.56c0-.13,0-.25,0-.38a.34.34,0,0,0-.26-.06H67.78V62.56c0-.06,0-.11,0-.17l0-.42.4,0c0,.09,0,.18,0,.27v1.14c0,.1,0,.2,0,.3a1,1,0,0,0,.45,0h.41l.84,0c0,.12,0,.22,0,.32v1.49c0,.1,0,.2,0,.32l.28,0h1.52l.28,0a.17.17,0,0,1,.07.17c0,.23,0,.46,0,.69v.84" style="fill:#bebdf9"/><path d="M72.15,71.32v.62c0,.12,0,.25,0,.36a.56.56,0,0,1-.35.06H67.65a.32.32,0,0,1-.25-.08.48.48,0,0,1,0-.25v-.9c0-.43,0-.43.44-.44H72a1.15,1.15,0,0,1,.17.06,2.63,2.63,0,0,1,0,.56" style="fill:#161336"/><path d="M19.29,18.66a.17.17,0,0,0,0,.07v.34c0,.12,0,.25,0,.38V30.33c0,.15,0,.3,0,.45s0,.23,0,.35v3.31c0,.23,0,.46,0,.69h-.42c0-1.17,0-2.34,0-3.5,0-.15,0-.3,0-.45v-.35c0-.1,0-.21,0-.31V26.8c0-.11,0-.21,0-.31v-.42c0-.09,0-.19,0-.28V22.4c0-.09,0-.19,0-.28V21.7c0-.14,0-.28,0-.42V19.1a.9.9,0,0,1,0-.39l.15-.05a1.92,1.92,0,0,1,.24,0" style="fill:#544f7f"/><path d="M37.05,22.1l0-.39h.47l0,.4v0l-.45,0" style="fill:#716261"/><path d="M35.78,25.16H37.5v5.26c0,.19,0,.37,0,.55a.54.54,0,0,0,0,.15.68.68,0,0,0,.39.05h1.7c0,.12,0,.23,0,.35v4.92c0,.11,0,.23,0,.34H38.36c-.44,0-.44,0-.44-.44V33.44c0-.11,0-.21,0-.31a.75.75,0,0,0,0-.16.9.9,0,0,0-.39,0h-3.7a.48.48,0,0,1-.18-.05.76.76,0,0,1,0-.36c0-.43,0-.87,0-1.31a1.29,1.29,0,0,0,.44,0l.2-.26a.93.93,0,0,1,.43,0,2.51,2.51,0,0,0,.72-.06c.37,0,.36-.15.36-.44v-2.6a1.93,1.93,0,0,0,0-.24.21.21,0,0,0-.1-.17,1.49,1.49,0,0,0-.92-.23c-.07,0-.14,0-.2,0a2.11,2.11,0,0,1-.62-.09.27.27,0,0,1-.22-.24,2.53,2.53,0,0,1,0-.28v-3a1.48,1.48,0,0,1,0-.21c0-.06,0-.13,0-.18l0,0,.07,0c.22-.06.25-.08.25-.3V21.51c0-.06,0-.13,0-.18a1.3,1.3,0,0,0-.43,0H31.69V19.14H35a.26.26,0,0,1,.22.08s0,.08,0,.14v5.26c0,.11,0,.23,0,.34a.2.2,0,0,0,.2.2h.28" style="fill:#7774f9"/><path d="M19.3,30.78c0-.15,0-.3,0-.45V19.45c0-.13,0-.26,0-.38h.41a.17.17,0,0,0,0,.07c0,.14,0,.28,0,.41V30.78h-.4" style="fill:#bebdf9"/><path d="M19.72,19.15v-.07h15.8l.21,0a1.54,1.54,0,0,1,.05.17c0,.1,0,.21,0,.31v5.16c0,.14,0,.28,0,.42H35.5a.2.2,0,0,1-.2-.2c0-.11,0-.23,0-.34V19.36c0-.06,0-.11,0-.14a.26.26,0,0,0-.22-.08H19.72" style="fill:#9694f8"/><path d="M39.64,31.2h-1.7a.79.79,0,0,1-.39-.06.54.54,0,0,1,0-.15c0-.18,0-.37,0-.55V25.18l.42,0v.41c0,.58,0,1.16,0,1.73s0,.9,0,1.35v1.27c0,.22,0,.43,0,.65a.89.89,0,0,0,.06.2c.56,0,1.11,0,1.66,0v.41" style="fill:#9694f8"/><path d="M37.92,23.84h-.38l-1.35,0c0-.14,0-.29,0-.43h1.7c0,.13,0,.27,0,.41" style="fill:#bd9356"/><path d="M37.94,24.75h.4l0,.78v.07h-.43v-.42c0-.14,0-.27,0-.41" style="fill:#878787"/><path d="M41.81,23a.31.31,0,0,1,.26-.07h1.39l.07-.07,0-.75h.85v.5a.48.48,0,0,0-.37,0c0,.11-.06.22-.1.33a.7.7,0,0,1-.14,0,5.49,5.49,0,0,1-.58,0H41.81" style="fill:#716261"/><path d="M38.75,22.12v.41h-.31l-.06,0a2.14,2.14,0,0,0-.12-.28H37.8a.53.53,0,0,1-.3-.05v0h1.24" style="fill:#8b734d"/><path d="M37.5,22.14a.53.53,0,0,0,.3.05h.46a2.14,2.14,0,0,1,.12.28l.06,0h.31a.69.69,0,0,1,0,.45,1.43,1.43,0,0,1-.41,0h-.41A.26.26,0,0,1,38,23a1.56,1.56,0,0,1,.25,0c0-.05,0-.1.05-.15s-.05-.17-.17-.18h-.3c-.27,0-.52-.08-.77-.07a.63.63,0,0,1-.05-.42l.45,0" style="fill:#bd9356"/><path d="M63.47,64.18H61.92a.44.44,0,0,1-.15,0h1.34a.37.37,0,0,0,.28-.06.24.24,0,0,0,0-.11c0-.43,0-.87,0-1.3a.33.33,0,0,0-.05-.15l-.08,0-1.55,0,0,0a.66.66,0,0,0,0-.44c0-.16,0-.32,0-.48,0-.31,0-.62,0-.93a.32.32,0,0,0-.07-.24,2.46,2.46,0,0,0-.67-.09c-.47,0-.94,0-1.41,0V58.79c0-.09,0-.19-.06-.26a12.87,12.87,0,0,0-2.09,0H57l-1.31,0c0-.13,0-.27,0-.41h1.41c.09,0,.19,0,.26-.06s0,0,0-.06c0-.54,0-1.07,0-1.61h2.15c0,.5,0,1,0,1.51a3.63,3.63,0,0,0,.11.59l.08,0,2,0h0v1.44a.31.31,0,0,0,.07.26,11.14,11.14,0,0,0,1.61,0s0,0,0,0v1.88a.27.27,0,0,0,.08.22l.06,0h2s0,0,0,.07v1.34a.42.42,0,0,0,0,.27l.06,0,1.62,0h.41v2.2H63.88a2.43,2.43,0,0,1-.27,0,.67.67,0,0,1-.12-.06h1.8a.44.44,0,0,0,.31-.06.53.53,0,0,0,0-.12c0-.46,0-.92,0-1.38a2.21,2.21,0,0,0-.08-.46.19.19,0,0,0-.1,0h-2" style="fill:#615ee8"/><path d="M71.67,68.06v2a.32.32,0,0,1,0,.09s0,0-.06,0H69.51c0-.16,0-.32,0-.48,0-.55,0-1.1,0-1.65h2.14" style="fill:#615ee8"/><path d="M63.47,64.18h2a.19.19,0,0,1,.1,0,2.21,2.21,0,0,1,.08.46c0,.46,0,.92,0,1.38a.53.53,0,0,1,0,.12.44.44,0,0,1-.31.06h-1.8c0-.13,0-.25,0-.38,0-.57,0-1.13,0-1.7" style="fill:#3835c1"/><path d="M67.79,66.32c0-.71,0-1.42,0-2.14H69.5c0,.13,0,.25,0,.38v1.37c0,.13,0,.25,0,.38l0,0H67.79Z" style="fill:#7774f9"/><path d="M69.53,68.06c0,.55,0,1.1,0,1.65,0,.16,0,.32,0,.48-.41,0-1.39,0-1.66,0-.07-.05-.06-.14-.06-.22V68.48c0-.14,0-.28,0-.42h1.75Z" style="fill:#3835c1"/><path d="M71.67,68.06H69.52c0-.57,0-1.14,0-1.72l0,0h1.82l.23,0c.1.08.08.18.08.27v1.45" style="fill:#7774f9"/><path d="M65.22,68.47h-2a.89.89,0,0,1-.2-.06c0-.29,0-.56,0-.83a.78.78,0,0,0,0-.34A.5.5,0,0,1,63,67c0-.15.05-.21.2-.21h2a2.45,2.45,0,0,1,0,.27v1c0,.11,0,.23,0,.34" style="fill:#161336"/><path d="M65.63,66.33h2.16v.44c0,.33,0,.65,0,1,0,.08,0,.16-.07.22l-.1,0h-2c0-.27,0-.53,0-.8s0-.57,0-.86" style="fill:#3835c1"/><path d="M65.65,68h2l.1,0c.08-.06.07-.14.07-.22,0-.32,0-.64,0-1v-.44h1.72c0,.58,0,1.15,0,1.72H65.86c-.07,0-.16,0-.21-.07" style="fill:#615ee8"/><path d="M63,66.74h-1.7a1.3,1.3,0,0,0,0-.34,2.2,2.2,0,0,1,0-.57V65H63c0,.37,0,.74,0,1.11,0,.2,0,.41,0,.62" style="fill:#161336"/><path d="M61.74,62.43l1.55,0,.08,0a.33.33,0,0,1,.05.15c0,.43,0,.87,0,1.3a.24.24,0,0,1,0,.11.37.37,0,0,1-.28.06H61.77a2.48,2.48,0,0,1,0-.27V62.43" style="fill:#3835c1"/><path d="M61.68,62.41a.81.81,0,0,0-.35,0c-.1.13,0,.27-.06.41h-.42l-.44,0H59.13l0-.33,0-.13h.42l2.12,0" style="fill:#878787"/><path d="M61.68,62.41l-2.12,0c0-.15,0-.29,0-.44L60,62h1.76a.66.66,0,0,1,0,.44Z" style="fill:#7c79f7"/><path d="M67.37,70.62H67.1c-.09,0-.14-.06-.18-.14a11.9,11.9,0,0,0,0-1.58.67.67,0,0,0,0-.42,2,2,0,0,1,.42,0,.37.37,0,0,1,.06.28c0,.5,0,1,0,1.51,0,.11,0,.23,0,.34" style="fill:#544f7f"/><path d="M66.08,61.55a10.68,10.68,0,0,1,2.1,0,.63.63,0,0,1,0,.36l-.4,0-.38,0H66.08v-.4" style="fill:#878787"/><path d="M66.08,62h1.34l.38,0,0,.42H65.63c0-.14,0-.28,0-.42h.44" style="fill:#9694f8"/><path d="M67.3,62.4h.47c0,.06,0,.11,0,.17v1.56h-.41V62.76a.65.65,0,0,0-.07-.36" style="fill:#7c79f7"/><path d="M63,65H61.27c0-.13,0-.27,0-.4l0,0H63A.94.94,0,0,1,63,65" style="fill:#2e2952"/><path d="M60.85,62.87h.42c0,.15,0,.3,0,.45,0,.4,0,.8,0,1.21l0,.07h-.43V62.87" style="fill:#2e2952"/><path d="M61.28,64.59l0-.07.41,0c.35,0,.71,0,1.07,0,.07,0,.16,0,.22.06H61.28" style="fill:#878787"/><path d="M69.5,64.18H67.78v-.06h1.46a.34.34,0,0,1,.26.06" style="fill:#7c79f7"/><path d="M44.85,55h-2.7l-.34,0V53.89a1,1,0,0,0,0-.11.75.75,0,0,0-.16,0l-.58,0h-1v-.34a.4.4,0,0,1,.21-.07h.2a.93.93,0,0,0,.44,0,.62.62,0,0,0,0-.38l0-.38a.28.28,0,0,1,.21-.08h.23a1.05,1.05,0,0,0,0,.43.78.78,0,0,0,.37,0,1.94,1.94,0,0,1,.24,0,.47.47,0,0,1,.15.06,6.69,6.69,0,0,1,0,.77c0,.22,0,.44,0,.65a1.42,1.42,0,0,0,0,.2,6,6,0,0,0,.84,0h.24l.15,0a4.68,4.68,0,0,0,0-.83.69.69,0,0,0,0-.38.81.81,0,0,0-.37-.05.64.64,0,0,1,.05-.38l.33-.08.06-.38a.58.58,0,0,1,.41,0,.52.52,0,0,0,0,.42,1.17,1.17,0,0,0,.37,0c.09.12,0,.27,0,.41h0a1.05,1.05,0,0,0-.43,0,.85.85,0,0,0,0,.38,3,3,0,0,0,0,.85,1,1,0,0,0,.42,0h.45c0,.14,0,.27,0,.41" style="fill:#fdd655"/><path d="M60.85,64.6H59.19a.78.78,0,0,1-.07-.33c0-.48,0-1,0-1.43h1.28l.44,0V64.6" style="fill:#161336"/><path d="M37.92,53.3c0-.14,0-.28,0-.42h2.55l0,0c0,.13,0,.26,0,.39h-.2a.33.33,0,0,0-.21.07.32.32,0,0,0-.25-.06c-.34,0-.67,0-1,0h-.9" style="fill:#8b734d"/><path d="M37.78,52.48H36.6l-.4,0,0-.46v-.41l0,0c.21,0,.41,0,.62,0a.48.48,0,0,1,.17.05c.09.24,0,.49.09.73l.24,0,.61,0a.13.13,0,0,1,0,.06h-.13" style="fill:#f4c153"/><path d="M27.11,53.3v-.41l.43,0,.83,0a.68.68,0,0,1,0,.4l-.51,0h-.78" style="fill:#716261"/><path d="M19.3,30.78h.43a1,1,0,0,0,0,.42c0,.15,0,.3,0,.45,0,1,0,2,0,3a.15.15,0,0,0,.14.09h5.26l.15,0a.27.27,0,0,1,0,.35l-.26,0-.12,0a1.38,1.38,0,0,0-.2,0H23a1,1,0,0,0-.17,0l-.45,0,0,0-.21,0H20l-.2,0-.51,0h0c0-.23,0-.46,0-.69V31.13c0-.12,0-.23,0-.35" style="fill:#9694f8"/><path d="M18.86,35.56c0-.14,0-.28,0-.42h.42v.41Z" style="fill:#2e2952"/><path d="M21.91,40.75a1.52,1.52,0,0,1-.42,0,.83.83,0,0,1,0-.15,1.56,1.56,0,0,1,0-.31v-.34h.45l0,.35v.47" style="fill:#716261"/><path d="M31.69,21.28h1.87V22.7a.37.37,0,0,1-.08.29l-.14,0H26a1.36,1.36,0,0,0-.22.07v2.08H24a.43.43,0,0,0-.32.07.49.49,0,0,0,0,.14c0,.11,0,.21,0,.31v7.23H22s0,0-.07,0a.4.4,0,0,1,0-.22v-.76a4,4,0,0,0-.07-.92,1.09,1.09,0,0,0-.05-.17l-.36,0V21.5a1.09,1.09,0,0,1,.05-.17.78.78,0,0,1,.21,0h10" style="fill:#9694f8"/><path d="M31.69,21.28h-10a.78.78,0,0,0-.21,0,1.09,1.09,0,0,0-.05.17v9.27H19.7V19.56c0-.13,0-.27,0-.41h12v2.14" style="fill:#7c79f7"/><path d="M25.79,25.17V23.09A1.36,1.36,0,0,1,26,23h7.33l.14,0a.37.37,0,0,0,.08-.29V21.29a1.28,1.28,0,0,1,.43,0c0,.05,0,.12,0,.18v1.21c0,.22,0,.24-.25.3l-.07,0,0,0c0,.05,0,.11,0,.18a1.48,1.48,0,0,0,0,.21v3a2.53,2.53,0,0,0,0,.28.27.27,0,0,0,.22.24,2.1,2.1,0,0,0,.61.09c.07,0,.15,0,.21,0a1.49,1.49,0,0,1,.92.23.21.21,0,0,1,.1.17,1.93,1.93,0,0,1,0,.24v2.6c0,.29,0,.44-.36.44a2.51,2.51,0,0,1-.72.06,1.07,1.07,0,0,0-.43,0l-.2.27a1.29,1.29,0,0,1-.44,0H31.89c0-.14,0-.27,0-.4h1.66c.14,0,.3,0,.42,0A4.41,4.41,0,0,0,34,29.36a.38.38,0,0,0-.07-.28,1.14,1.14,0,0,0-.42,0H31.83V25.38c0-.06,0-.11,0-.17a.74.74,0,0,0-.18,0H25.79Z" style="fill:#7c79f7"/><path d="M32,31.2h1.59c0,.44,0,.88,0,1.31a.76.76,0,0,0,0,.36.48.48,0,0,0,.18.05h3.7a.9.9,0,0,1,.39,0,.75.75,0,0,1,0,.16c0,.1,0,.2,0,.31v2.93c0,.44,0,.44.44.44h1.28l0,0V39H37.9l-.42,0H32.3l-.41,0a.81.81,0,0,1,.41,0h5.05c.09,0,.14-.06.15-.16s0,0,0-.07c0-.54,0-1.08,0-1.62a.59.59,0,0,0,0-.19,1.06,1.06,0,0,0-.39,0H33.74a.16.16,0,0,1-.16-.16,3,3,0,0,1,0-.31V33.52c0-.11,0-.21,0-.31A.76.76,0,0,0,33.5,33a10.15,10.15,0,0,0-1.67,0,.17.17,0,0,1,0-.07c0-.1,0-.21,0-.31a7.74,7.74,0,0,1,.06-1.36L32,31.2" style="fill:#615ee8"/><path d="M39.66,36.86l0,0c0-.11,0-.23,0-.34V31.55c0-.12,0-.23,0-.35v-.41h.42c0,.11,0,.22,0,.34,0,.47,0,.95,0,1.43,0,.13,0,.25,0,.38s0,.2,0,.3v3.2a.49.49,0,0,0,.06.35,1.46,1.46,0,0,0,.22,0h.72a.52.52,0,0,1,.3,0H39.66" style="fill:#bebdf9"/><path d="M37.92,25.58h.42c0,.13,0,.27,0,.4a8.31,8.31,0,0,0,0,1.32,4.83,4.83,0,0,0,0,.85c0,.15,0,.3,0,.45l-.4,0c0-.45,0-.9,0-1.35s0-1.15,0-1.72" style="fill:#bebdf9"/><path d="M40.05,30.78h-.41c-.55,0-1.1,0-1.66,0a.89.89,0,0,1-.06-.2c0-.22,0-.43,0-.65l.4,0a.81.81,0,0,0,0,.35l.08,0,1.61,0,0,.41h-.05" style="fill:#c4c3fd"/><path d="M38.33,30l-.4,0c0-.42,0-.85,0-1.27l.4,0s0,0,0,0v1.28a.05.05,0,0,1,0,0" style="fill:#878787"/><path d="M38.36,25.52l0,.06-.07,0h0Z" style="fill:#2e2952"/><path d="M52.65,35.15a1,1,0,0,0,0,.42H51.2a.26.26,0,0,1-.24-.08.89.89,0,0,0,0-.15c0-.2,0-.21-.23-.24l-.2,0c-.12-.25,0-.52-.1-.75,0,0-.07,0-.1,0h-.55a.58.58,0,0,0-.17.06c0,.27,0,.54,0,.8l-.59,0a.26.26,0,0,1-.21-.08c-.07-.21,0-.48-.06-.72a1,1,0,0,0-.39,0c0-.13,0-.27-.05-.38a.64.64,0,0,0-.36,0l-.46,0c0-.27,0-.53,0-.8h.71l.16-.05a.85.85,0,0,0,0-.42v-.41a7.22,7.22,0,0,0,0-1.23l0-.07a7,7,0,0,0-.8,0,2.63,2.63,0,0,1,0-.79,1.77,1.77,0,0,1,.21,0h.42a.61.61,0,0,0,.18-.05,1.27,1.27,0,0,0,0-.43h.42a1,1,0,0,0,.05.43A4.55,4.55,0,0,0,50,30H50l0,.82c0,.23,0,.46,0,.69a.75.75,0,0,0,0,.16l.11,0,.28,0,.39,0H52.6a.82.82,0,0,1,0,.44l-.72,0s0,0-.07,0a.72.72,0,0,0,0,.36.57.57,0,0,0,.05.4c.26,0,.52,0,.77,0v.88H52a.58.58,0,0,0-.19,0,.42.42,0,0,0,0,.33l.08,0h.72c0,.15,0,.3,0,.45s0,.3,0,.45" style="fill:#feeb95"/><path d="M50.9,45v-.32a.73.73,0,0,0,0-.46.81.81,0,0,0-.38,0h-.42l-.38,0H48.22c-.1,0-.21,0-.3-.05a.58.58,0,0,1,0-.37h1.45a.35.35,0,0,0,.26-.06h.44a.81.81,0,0,0,.35,0,.42.42,0,0,0,.06-.28c0-.31,0-.62,0-.93h.41v.83a2.72,2.72,0,0,0,0,.28.2.2,0,0,0,.19.2h.49a.68.68,0,0,0,.17,0,4.17,4.17,0,0,0,0-.86h0l.73,0s0,0,.06,0c.06-.19.06-.19,0-.36s-.49,0-.75,0h0v-.91l.72,0,.08,0s0-.08,0-.12c0-.46,0-.92,0-1.39a.31.31,0,0,0-.05-.12c-.24-.08-.49,0-.71-.07a.45.45,0,0,1-.06-.31h.59a.37.37,0,0,0,.23,0l0-.2,0-.23h1.26c0,.14,0,.29,0,.43a.07.07,0,0,0,0,0v2.07a.28.28,0,0,0,.11.08l.27,0a1.24,1.24,0,0,1,0,.69l-.3.07a.09.09,0,0,0-.07.1c0,.4,0,.79,0,1.19l-.64,0a.84.84,0,0,0-.18,0c-.06.14,0,.28-.08.36s-.25,0-.36.11a1.52,1.52,0,0,0,0,.43l0,.34H51.28l-.38,0" style="fill:#fdd655"/><path d="M48.73,29.46h-.41c0-.21,0-.42,0-.62a1.06,1.06,0,0,0-.06-.19,4.76,4.76,0,0,0-.84,0v-.34a.15.15,0,0,0-.13-.13.26.26,0,0,0-.26.07.85.85,0,0,0,0,.39h-.43a1.93,1.93,0,0,0,0-.24,1.66,1.66,0,0,0-.06-.16,2.47,2.47,0,0,0-.77,0s0,.06,0,.08,0,.21,0,.31a1.92,1.92,0,0,0-.24,0,.43.43,0,0,0-.16.05,1.93,1.93,0,0,0,0,.72.66.66,0,0,0,.39.05v1.3h-.43v-.62a.94.94,0,0,0,0-.16,4.53,4.53,0,0,1-.75-.15c0-.12-.06-.23-.08-.32a.44.44,0,0,0-.29-.05.16.16,0,0,0-.15.16v1.14h-.24a.94.94,0,0,1-.15-.06c-.07-.41,0-.81-.06-1.2a.76.76,0,0,0-.39-.06c0-.13,0-.27,0-.41a.84.84,0,0,0,0-.41c-.21,0-.41,0-.61,0a.25.25,0,0,1-.21-.06q0-.16,0-.36v-.07a2.38,2.38,0,0,0-.07-.79l-.35,0v-.42h3.88c0,.13,0,.27,0,.4l0,0a1.92,1.92,0,0,0-.24,0,.94.94,0,0,0-.15.06,2.22,2.22,0,0,0,0,.63.17.17,0,0,0,.07.1.21.21,0,0,0,.33-.15c0-.08,0-.16,0-.24h.68a.53.53,0,0,0,.17,0l.06-.31c.93,0,1,0,1.21.06q.06.35.12.72a2.19,2.19,0,0,0,.72.05h.07v1.24" style="fill:#fdd655"/><path d="M43.12,24.28l0-.36a.09.09,0,0,0,0-.05.57.57,0,0,0,0-.39.7.7,0,0,0-.35,0l-.89,0V23h1.41a5.49,5.49,0,0,0,.58,0A1,1,0,0,0,44,23l.09-.33a.48.48,0,0,1,.37,0c0,.11,0,.23,0,.34a.18.18,0,0,0,.15.07l.27,0a1.31,1.31,0,0,1,.39,0c0,.12,0,.25,0,.37a.7.7,0,0,0,0,.38.69.69,0,0,0,.37,0,.86.86,0,0,1,0,.39.67.67,0,0,1-.19.05H43.12" style="fill:#bd9356"/><path d="M53.94,38.2v-.91c.12,0,.25,0,.36,0a.29.29,0,0,0,0-.27s0-.09-.08-.09h-.31c0-.29,0-.59,0-.89l.83,0c0,.32,0,.65,0,1,0,.1,0,.2,0,.3s0,.41,0,.61a.8.8,0,0,0,0,.18.77.77,0,0,0,.39.05h.81a.13.13,0,0,1,0,.06h-.38a1.09,1.09,0,0,0-.4,0,.79.79,0,0,0,0,.37h0a.68.68,0,0,0-.41.07,3.86,3.86,0,0,0,0,.76h-.89c0-.14,0-.29,0-.43v-.42h.7a.15.15,0,0,0,.14-.13c0-.11,0-.23-.08-.32a1.61,1.61,0,0,0-.58,0,.52.52,0,0,0-.16.06" style="fill:#bd9356"/><path d="M45.68,26.9H40.34a1.2,1.2,0,0,1-.24,0c0-.14,0-.26-.05-.38H45.3a.6.6,0,0,1,.37.05.81.81,0,0,1,0,.38" style="fill:#bd9356"/><path d="M38.34,27.32a8.31,8.31,0,0,1,0-1.32h1.7a.25.25,0,0,1,0,.07v.41H39c-.14,0-.2.08-.21.22s0,.26,0,.38,0,.13-.06.21l-.35,0" style="fill:#fdd655"/><path d="M55.24,27.32a.17.17,0,0,1,0,.07h-.31s0,0-.06,0a.21.21,0,0,0,0,.28.66.66,0,0,0,.34,0v.41a.63.63,0,0,1-.35,0l-.1-.28-.83-.09v-.42a.71.71,0,0,0,.38,0,.66.66,0,0,0,0-.37l0,0,.44,0c0,.12,0,.24,0,.37a1.81,1.81,0,0,0,.4,0" style="fill:#bd9356"/><path d="M56.09,39.44h-.85c0-.28,0-.56,0-.83h.83v.83" style="fill:#bd9356"/><path d="M56.09,39.44v-.83a.75.75,0,0,0,0-.42.13.13,0,0,0,0-.06h.38l.08,0a.37.37,0,0,1,0,.15,7.34,7.34,0,0,1,0,1.05c-.13.09-.26,0-.38.08l-.06,0" style="fill:#4d4d50"/><path d="M53.94,41.58l.82,0s0,0,0,.06a2.29,2.29,0,0,1,0,.78.18.18,0,0,1-.16.05h-.48l-.16,0h0c0-.05,0-.09.07-.1l.3-.07a1.24,1.24,0,0,0,0-.69l-.27,0a.28.28,0,0,1-.11-.08" style="fill:#bd9356"/><path d="M48.73,29.46l.58,0h.21s0,0,.07,0a3.6,3.6,0,0,1,0,.36.7.7,0,0,0,.38,0L50,30a4.55,4.55,0,0,1-1.17-.07,1,1,0,0,1-.05-.43" style="fill:#f4c153"/><path d="M53.94,27.73l.83.09.1.28a.63.63,0,0,0,.35,0,.14.14,0,0,1,0,.07h-.55c-.24,0-.48,0-.71,0a1,1,0,0,1,0-.45" style="fill:#8b734d"/><path d="M50.91,31.2l0,.39s0,.05,0,.07l-.39,0c0-.27,0-.55,0-.83,0,0,0,0,0,0l.4,0c0,.13,0,.27,0,.41" style="fill:#fdae36"/><path d="M54.78,36,54,36v-.42a3.87,3.87,0,0,1,.83,0,.53.53,0,0,1,0,.41" style="fill:#716261"/><path d="M46.17,27.31l.43,0s0,0,0,.05l-.06.31a.53.53,0,0,1-.17,0H45.7V27.4l0-.07.43,0" style="fill:#feeb95"/><path d="M41.81,23v.76s0,0,0,.06v0l-.42,0V23h.42" style="fill:#4d4d50"/><path d="M55.25,38.61c0,.28,0,.55,0,.83h-.41a3.85,3.85,0,0,1,0-.76c.14-.1.27-.06.41-.07" style="fill:#fdd655"/><path d="M50.46,29.94c0,.28,0,.56,0,.83,0,0,0,0,0,0l-.41,0L50,30l.42,0" style="fill:#716261"/><path d="M55.25,38.13a.77.77,0,0,1-.39-.05.8.8,0,0,1,0-.18c0-.2,0-.41,0-.61h.35l0,.06c0,.26,0,.51,0,.77" style="fill:#fdd655"/><path d="M54.8,26.91l-.44,0c0-.13,0-.26,0-.4a.94.94,0,0,1,.44,0,.69.69,0,0,1,0,.4" style="fill:#8b734d"/><path d="M59.53,44.21c0-.12,0-.24,0-.37a.75.75,0,0,1,.44,0l0,.42-.43,0,0,0" style="fill:#8b734d"/><path d="M59.1,44.64l0-.41.4,0,0,0v.39h-.2a.31.31,0,0,0-.21.07l0-.07" style="fill:#8b734d"/><path d="M54.34,26.48c0,.14,0,.27,0,.4l0,0H54l0-.42h.41" style="fill:#bd9356"/><path d="M45.68,23.85a.69.69,0,0,1-.37,0,.7.7,0,0,1,0-.38l.32,0c.12.13.08.27.08.4" style="fill:#4d4d50"/><path d="M60,44.22l0-.42.43,0c0,.13,0,.27,0,.41v0H60" style="fill:#fdd655"/><path d="M44.85,23l-.27,0a.18.18,0,0,1-.15-.07h.41a.43.43,0,0,0,0,.05" style="fill:#716261"/><path d="M55.23,37.36l0-.06h.06v.07" style="fill:#bd9356"/><path d="M45.74,27.33l0,.06,0-.07,0,0s0,0,0,0" style="fill:#fdd655"/><path d="M40.05,26h-1.7c0-.13,0-.27,0-.4l.07,0,.54,0h.89l.2,0a.82.82,0,0,1,0,.38" style="fill:#f4c153"/><path d="M43.53,22.88l-.07.07.07-.07" style="fill:#29224c"/><path d="M66.93,68.9a11.9,11.9,0,0,1,0,1.58H65.68a.4.4,0,0,1-.44-.39,8.13,8.13,0,0,1,0-1.1.3.3,0,0,1,.28-.11h1.42" style="fill:#161336"/><path d="M47.9,43.79a.58.58,0,0,0,0,.37c.09.08.2.05.3.05h1.45l.38,0c0,.13,0,.27,0,.41s0,.3,0,.46,0,.52,0,.8a.74.74,0,0,0,.18,0h1.24l.29,0a1.11,1.11,0,0,1,0,.17c0,.25,0,.51,0,.76s0,.23,0,.34a.06.06,0,0,0,0,.06v.39a.73.73,0,0,0,0,.36s0,0,.06,0l2.06,0c0,.44,0,.88,0,1.32,0,.11,0,.23,0,.34s.05,0,.07.06l.1,0h2l0,.34v1.44c0,.11,0,.22,0,.34a.17.17,0,0,0,.15.05H57.8c0,.12,0,.25,0,.37,0,.44,0,.88,0,1.31,0,.16,0,.32,0,.48l-.43,0c0-.14,0-.27,0-.41,0-.36,0-.72,0-1.07a.26.26,0,0,0-.08-.24,1.37,1.37,0,0,0-.36,0H55.68c0-.13,0-.25,0-.38V50.66a.72.72,0,0,0,0-.35l-.12,0h-2V48.84a.38.38,0,0,0-.09-.3c-.67,0-1.37,0-2.07,0V46.66a.28.28,0,0,0-.09-.27c-.53,0-1.08,0-1.63,0,0-.16,0-.32,0-.48v-1c0-.23,0-.27-.29-.27h-1.9c0-.18,0-.35,0-.52v-.93a.26.26,0,0,0-.08-.24,1.06,1.06,0,0,0-.2,0h-.76l-.69,0V41.07a.34.34,0,0,0-.07-.27.57.57,0,0,0-.32,0H44a1,1,0,0,1,0-.42h1.89a.8.8,0,0,1,.18,0,.59.59,0,0,1,.06.36v1.41a.4.4,0,0,0,.09.33c.39,0,.81,0,1.23,0h.42l0,.45a4.93,4.93,0,0,0,0,.86" style="fill:#c4c3fd"/><path d="M66.08,62h-.44c0-.21,0-.42,0-.64s0-.45,0-.67a1,1,0,0,0,0-.24.5.5,0,0,0-.06-.17c-.7,0-1.39,0-2.08,0,0,0,0,0,0,0v-.59c0-.29,0-.57,0-.86,0-.08,0-.17-.06-.23a6.51,6.51,0,0,0-1.61,0h0v-.42h2.13c0,.11,0,.23,0,.34v1.11a1.5,1.5,0,0,0,0,.22.24.24,0,0,0,.2.06H66a.18.18,0,0,1,.07.18v1.2c0,.12,0,.23,0,.35V62" style="fill:#bebdf9"/><path d="M62.17,58.08h-.41c0-.12,0-.25,0-.37,0-.37,0-.74,0-1.11a.24.24,0,0,0-.07-.22,1.11,1.11,0,0,0-.37,0H59.55c0-.58,0-1.15,0-1.73V54.2a.83.83,0,0,1,.47,0v1.44a1.49,1.49,0,0,0,0,.21.11.11,0,0,0,.11.06H62l.11.06c0,.23,0,.46,0,.69v1.39" style="fill:#c4c3fd"/><path d="M53.92,48.11l-2.06,0s0,0-.06,0a.73.73,0,0,1,0-.36h1a.34.34,0,0,0,.27-.07.88.88,0,0,0,0-.33l.23,0a.44.44,0,0,0,.13-.05c.08-.12,0-.25.13-.35h.32c0,.18,0,.36,0,.54s0,.47,0,.71" style="fill:#fdd655"/><path d="M60,54.22a.83.83,0,0,0-.47,0l-.27,0H57.85c0-.16,0-.32,0-.48l.82,0h1l.28,0a1.09,1.09,0,0,1,.05.17c0,.1,0,.2,0,.3" style="fill:#544f7f"/><path d="M59.14,46v-.91l.37.12s0,.1,0,.15.11.22.25.22h.62a1,1,0,0,1,0,.39l-.16,0H59.14" style="fill:#bd9356"/><path d="M62.17,58.08v-.46a.8.8,0,0,0,.34,0h1.33a.64.64,0,0,1,0,.17,1.92,1.92,0,0,1,0,.24H62.17" style="fill:#878787"/><path d="M60,44.22h.44l0,.42,0,.49a.57.57,0,0,0-.36-.07,1.21,1.21,0,0,1-.42-.05,1.18,1.18,0,0,0,0-.2l-.07-.18,0-.39.42,0" style="fill:#bd9356"/><path d="M53.92,43.75a.14.14,0,0,1-.1.07l-.27,0a.85.85,0,0,0,0,.38l0,.41a4,4,0,0,0-.85.09,1.52,1.52,0,0,1,0-.43c.11-.09.24,0,.36-.11s0-.22.08-.36a.84.84,0,0,1,.18,0l.64,0" style="fill:#716261"/><path d="M59.54,44.63l.07.18a1.18,1.18,0,0,1,0,.2,1.21,1.21,0,0,0,.42.05.57.57,0,0,1,.36.07c0,.13,0,.27,0,.4h-.61c-.14,0-.24,0-.26-.22s0-.1,0-.15l-.37-.12c0-.11,0-.22,0-.34a.31.31,0,0,1,.21-.07h.2" style="fill:#f4c153"/><path d="M50.05,45.11c0-.16,0-.31,0-.46s.27,0,.4-.09,0-.21,0-.32a.81.81,0,0,1,.38,0,.73.73,0,0,1,0,.46.43.43,0,0,0-.35,0c-.12.09,0,.25-.13.36a1,1,0,0,1-.36,0" style="fill:#8b734d"/><path d="M59.58,46H60c0,.2,0,.4,0,.6s0,.16-.08.21h-.39l0-.82" style="fill:#716261"/><path d="M59.58,46l0,.82h-.4V46h.44" style="fill:#fdd655"/><path d="M53.91,46.86h-.32c-.12.1-.05.23-.13.35a.44.44,0,0,1-.13.05l-.23,0H51.79a.06.06,0,0,1,0-.06h1l.28,0c0-.12,0-.23.07-.33a.16.16,0,0,1,.15-.06l.55,0c.05,0,.09,0,.11.06" style="fill:#bd9356"/><path d="M62,55.94h-1.9a.11.11,0,0,1-.11-.06h1.89c.09,0,.19,0,.24.09H62" style="fill:#544f7f"/><path d="M56.07,49.85h-2l-.1,0H55.8l.27,0" style="fill:#544f7f"/><path d="M50.9,45l.38,0h1.33s-.08.06-.12.06H51A.14.14,0,0,1,50.9,45" style="fill:#8b734d"/><path d="M57.8,52H56.27a.17.17,0,0,1-.15-.06h1.42c.09,0,.18,0,.26.05" style="fill:#544f7f"/><path d="M59.14,46.77h.79a1.6,1.6,0,0,1-.72.06s-.05,0-.07-.07" style="fill:#8b734d"/><path d="M62,55.94h.12s0,0,0,0L62,55.94" style="fill:#bebdf9"/><path d="M59.55,56.34H61.3a1.11,1.11,0,0,1,.37,0c.08.06.07.15.07.23,0,.36,0,.73,0,1.1,0,.12,0,.25,0,.37v.42l-2,0-.08,0a3.63,3.63,0,0,1-.11-.59c0-.5,0-1,0-1.51" style="fill:#7774f9"/><path d="M57.39,58.5a12.87,12.87,0,0,1,2.09,0c.08.07.06.17.06.26v1.44h-2l-.13,0c0-.57,0-1.15,0-1.72" style="fill:#3835c1"/><path d="M59.54,54.61v1.73H57.39V54.62l0,0h2.13" style="fill:#7774f9"/><path d="M65.61,60.65c0,.22,0,.45,0,.67s0,.43,0,.64v.42h-2l-.06,0a.27.27,0,0,1-.08-.22V60.65h2.12" style="fill:#7774f9"/><path d="M61.71,62H60l-.38,0c0-.31,0-.62,0-.93,0-.12,0-.25,0-.37v-.42h0c.47,0,.94,0,1.41,0a2.46,2.46,0,0,1,.67.09.32.32,0,0,1,.07.24c0,.31,0,.62,0,.93,0,.16,0,.32,0,.48" style="fill:#3835c1"/><path d="M57.4,56.35c0,.54,0,1.07,0,1.61,0,0,0,0,0,.06a.34.34,0,0,1-.26.06H55.68c0-.14,0-.28,0-.42,0-.43,0-.87,0-1.31H57.4" style="fill:#3835c1"/><path d="M67.3,62.4a.65.65,0,0,1,.07.36v1.35l-1.62,0-.06,0a.42.42,0,0,1,0-.27V62.45l.06-.06h1.6" style="fill:#7774f9"/><path d="M61.76,58.5a6.51,6.51,0,0,1,1.61,0c.07.06.06.15.06.23,0,.29,0,.57,0,.86v.59a11.14,11.14,0,0,1-1.61,0,.31.31,0,0,1-.07-.26V58.5" style="fill:#7774f9"/><path d="M55.65,56.35c0,.44,0,.88,0,1.32,0,.13,0,.27,0,.41v.41l-.41,0c0-.12,0-.23,0-.35V57a.2.2,0,0,0-.08-.18H53.09c0-.41,0-.82,0-1.24,0-.14,0-.27,0-.41a.08.08,0,0,0,0-.07l0-.42h.4c0,.14,0,.27,0,.41v1.1a.22.22,0,0,0,.06.2,2.23,2.23,0,0,0,.37,0h1.71Z" style="fill:#c4c3fd"/><path d="M65.61,60.65H63.49c0-.14,0-.27,0-.4.69,0,1.38,0,2.08,0a.5.5,0,0,1,.06.17,1,1,0,0,1,0,.24" style="fill:#7c79f7"/><path d="M57.39,58.5c0,.57,0,1.15,0,1.72,0,.14,0,.28,0,.42H57V59.16A.88.88,0,0,0,57,59a.17.17,0,0,0,0-.07c0-.14,0-.27,0-.41h.41" style="fill:#c4c3fd"/><path d="M57,58.51c0,.14,0,.27,0,.41H55.24c0-.13,0-.27,0-.4l.41,0,1.31,0" style="fill:#9694f8"/><path d="M65.7,62.39l-.06.06s0,0,0-.07h.07" style="fill:#7c79f7"/><path d="M57,62.45v-1a.41.41,0,0,1,.08-.32h1.72l.34,0c0,.42,0,.83,0,1.25l0,.13H57.42a2,2,0,0,1-.44-.07" style="fill:#161336"/><path d="M59.14,62.38c0-.42,0-.83,0-1.25v-.48h.42c0,.12,0,.25,0,.37,0,.31,0,.62,0,.93,0,.15,0,.29,0,.44h-.42" style="fill:#c4c3fd"/><path d="M21.91,40.75v-.47a1.53,1.53,0,0,1,.37,0,1.83,1.83,0,0,0,.47,0v.4l0,0h-.46l-.36,0" style="fill:#bd9356"/><path d="M22.27,40.77h.46c0,.27,0,.54,0,.82h-.41v-.5a.7.7,0,0,0-.06-.32" style="fill:#4d4d50"/><path d="M30.58,47.21l0-.34s-.06-.07-.1-.08h-1.2V43.22c0-.1,0-.21,0-.31h1.28c0,.12,0,.25,0,.38,0,.47,0,.94,0,1.41a.51.51,0,0,0,0,.3l0,0,.34,0c0,.21,0,.43,0,.65a1.16,1.16,0,0,0,0,.18.65.65,0,0,0,.39,0h1.06a.25.25,0,0,1,.21.09s0,.11,0,.17,0,.25,0,.38a.84.84,0,0,0,.05.2h.53a.31.31,0,0,1,.23.08q0,.18.06.39h0a3.75,3.75,0,0,0-.82,0,1,1,0,0,0,0,.39l0,.41a.79.79,0,0,1-.4,0c-.06-.25,0-.51-.07-.76a1.19,1.19,0,0,0-.42,0v0a.32.32,0,0,0-.23,0h-1" style="fill:#fdae36"/><path d="M29.25,46.79h1.2s.07.06.11.08a3.3,3.3,0,0,0-.83,0,.68.68,0,0,0,0,.15,4.39,4.39,0,0,0,0,1.08c.25.07.52,0,.78.06a.28.28,0,0,1,0,.12c0,.63,0,1.25,0,1.87a1,1,0,0,1,0,.11,1.18,1.18,0,0,1-.2,0,1.89,1.89,0,0,1-.58,0c-.07-.26,0-.51-.07-.78l-.19,0h-1a1,1,0,0,1,0-.17,1.94,1.94,0,0,1,0-.24c0-.13,0-.27-.06-.39s-.26,0-.37-.09,0-.39,0-.58v-.83c0-.08,0-.17.08-.22a.73.73,0,0,1,.33,0h.73a.18.18,0,0,0,.15-.07Z" style="fill:#bd9356"/><path d="M33.58,48.08l0-.39c0-.14,0-.28,0-.42h1.07a.91.91,0,0,1,.21,0l0,.21c0,.12,0,.25,0,.38s0,.1,0,.17l.25,0,.58,0c0,.21,0,.42,0,.64s0,.43,0,.64h-.91c0-.14,0-.28,0-.41V48.6a.15.15,0,0,0-.14-.07h-.27c0-.13,0-.27-.05-.38a1,1,0,0,0-.37,0l-.45,0" style="fill:#fdd655"/><path d="M34.87,49.42H36c.16,0,.2,0,.23-.2a.33.33,0,0,1,.1-.21A6.25,6.25,0,0,1,37,49c0,.28,0,.56,0,.84-.2,0-.39,0-.59,0a2.39,2.39,0,0,0-.6,0,.66.66,0,0,0,0,.39l0,.41a1.85,1.85,0,0,0-.41,0,1.71,1.71,0,0,1-.45,0l0-.41v-.07a.68.68,0,0,0,0-.37.88.88,0,0,0-.36,0v-.42h.41" style="fill:#fdae36"/><path d="M34.89,50.73a1.71,1.71,0,0,0,.45,0,1.85,1.85,0,0,1,.41,0l.2,0a.27.27,0,0,1,.23.14c0,.22,0,.47,0,.73l0,0H35.6l-.72,0c0-.28,0-.55,0-.83" style="fill:#fdd655"/><path d="M28.37,52.89l-.83,0c0-.12,0-.25-.06-.36a.78.78,0,0,0-.37,0,3.84,3.84,0,0,1,0-.83c.13,0,.26,0,.37,0l.09.33.31.07a2.66,2.66,0,0,1,.11.28.91.91,0,0,0,.36,0,1.15,1.15,0,0,1,0,.49" style="fill:#f4c153"/><path d="M28.83,46.77h.4a.18.18,0,0,1-.15.07h-.73a.73.73,0,0,0-.33,0,.24.24,0,0,0-.08.22v.83c0,.19,0,.39,0,.58h-.4c0-.44,0-.89,0-1.33,0-.1,0-.21-.05-.29s-.26,0-.35-.11h1.71" style="fill:#716261"/><path d="M28.35,52.4a.91.91,0,0,1-.36,0l-.11-.28L27.57,52l-.09-.33c-.11-.07-.24,0-.37,0s0,0,.05,0a.16.16,0,0,1,.1,0l1,0,.08,0a2.41,2.41,0,0,1,0,.76" style="fill:#bd9356"/><path d="M25,49.41a1.79,1.79,0,0,1-.4,0s-.06-.07-.06-.1c0-.35,0-.71,0-1.06a.24.24,0,0,1,0-.08.58.58,0,0,1,.39,0,.13.13,0,0,0,0,.06c0,.13,0,.26,0,.39a1.08,1.08,0,0,0,0,.4,3.29,3.29,0,0,1,.05.44" style="fill:#8b734d"/><path d="M34.88,51.56h1.29V52H35c-.11-.14-.06-.28-.07-.41" style="fill:#4d4d50"/><path d="M34.46,49.43v.42a.74.74,0,0,0,0,.36,1.11,1.11,0,0,0,.36,0v.07a4.64,4.64,0,0,1-.83-.06,2.11,2.11,0,0,1,0-.79.75.75,0,0,1,.44,0" style="fill:#8b734d"/><path d="M31.81,47.69v-.41a1.19,1.19,0,0,1,.42,0c.08.25,0,.51.07.76a.79.79,0,0,0,.4,0,.6.6,0,0,1-.11.06,1,1,0,0,1-.24,0l-.48-.09s0-.09-.05-.14,0-.16,0-.24" style="fill:#4d4d50"/><path d="M25,49.41a3.29,3.29,0,0,0-.05-.44,1.08,1.08,0,0,1,0-.4.75.75,0,0,0,.42,0l.09.34.17,0,.2.06c-.13,0-.27,0-.39.06a.54.54,0,0,0,0,.1,2.26,2.26,0,0,0,0,.26l0,0-.39,0" style="fill:#bd9356"/><path d="M26.2,49.83a1.19,1.19,0,0,1,0,.42.53.53,0,0,1-.16,0,2.58,2.58,0,0,1-.62,0,.32.32,0,0,1,0-.37,2.33,2.33,0,0,0,.38,0,2.12,2.12,0,0,1,.44,0" style="fill:#8b734d"/><path d="M25.8,49l-.2-.06-.17,0-.09-.34s0,0,0,0c.27,0,.53,0,.8,0a.88.88,0,0,1,0,.45l-.4,0" style="fill:#8b734d"/><path d="M27.53,48.52h.4c.11.09.25,0,.37.09s.05.26.06.39l-.72,0s0,0-.07,0,0-.27,0-.42" style="fill:#4d4d50"/><path d="M34.86,48.6V49l-.7,0-.08,0a1,1,0,0,1,0-.42h.41a.51.51,0,0,0,.15.07h.26" style="fill:#716261"/><path d="M26.2,49.83a2.12,2.12,0,0,0-.44,0,2.33,2.33,0,0,1-.38,0l0-.47,0,0h.81v.41" style="fill:#bd9356"/><path d="M28,46.78h-.43V46a.63.63,0,0,1,.38,0,3.38,3.38,0,0,1,.05.78" style="fill:#4d4d50"/><path d="M27.52,46v.82h-.4a3.3,3.3,0,0,1,0-.83Z" style="fill:#bd9356"/><path d="M26.2,49.42h-.81a2.26,2.26,0,0,1,0-.26.54.54,0,0,1,0-.1c.12-.08.26,0,.39-.06l.4,0v.41" style="fill:#f4c153"/><path d="M27.11,52.47a.78.78,0,0,1,.37,0c.07.11,0,.24.06.36l-.43,0a.75.75,0,0,1,0-.42" style="fill:#bd9356"/><path d="M25.37,48.53s0,0,0,0a.75.75,0,0,1-.42,0c0-.13,0-.26,0-.39h.44l0,.35" style="fill:#fdd655"/><path d="M34.45,48.52H34c0-.11,0-.22,0-.34v-.07a1,1,0,0,1,.37,0c.09.11.05.25.05.38" style="fill:#bd9356"/><path d="M27.52,46h-.41v-.21a.22.22,0,0,1,.34-.18.16.16,0,0,1,.06.08c0,.1,0,.21,0,.31" style="fill:#4d4d50"/><path d="M31.81,47.26l-.51,0h-.72a.08.08,0,0,1,0-.07h1a.32.32,0,0,1,.23,0" style="fill:#bd9356"/><path d="M25.35,48.18h-.44a.13.13,0,0,1,0-.06h.36a.08.08,0,0,1,.09.07" style="fill:#bd9356"/><path d="M34,48.11v.07l-.3,0c-.06,0-.11,0-.14-.08l.45,0" style="fill:#716261"/><path d="M50.05,54.62h-.62l-.24,0a3.57,3.57,0,0,1,0-.86V53.3c0-.11,0-.23.11-.34h1.62c0,.4,0,.8,0,1.2,0,.16,0,.32,0,.48,0,0,0,0,0,0h-.83" style="fill:#161336"/><path d="M45.71,53.39l0,.81h-.42c0-.1,0-.2,0-.3a.75.75,0,0,0,0-.16,5.19,5.19,0,0,0-.78,0h0V53.3h.38a.88.88,0,0,0,.4,0,.25.25,0,0,0,0-.11c0-.18,0-.36,0-.55s0-.1,0-.15c-.25-.09-.5,0-.73-.08a.82.82,0,0,1,0-.38h.45a1.2,1.2,0,0,1,.33,0,2,2,0,0,0,.48,0v.32a.2.2,0,0,0,.19.11h.7v.33a.29.29,0,0,1-.22.07h-.48a.83.83,0,0,0-.15,0,1,1,0,0,0,0,.46" style="fill:#fdd655"/><path d="M40.08,53.71h1l.58,0a.75.75,0,0,1,.16,0,1,1,0,0,1,0,.11V55H41.5l-.08,0c-.08-.36,0-.74-.06-1.13a.83.83,0,0,0-.15,0h-1a.18.18,0,0,1-.18-.08" style="fill:#716261"/><path d="M45.71,53.39a1,1,0,0,1,0-.46.83.83,0,0,1,.15,0h.48a.29.29,0,0,0,.22-.07v.08c0,.13,0,.27,0,.4l-.33,0a1.59,1.59,0,0,0-.53.08" style="fill:#8b734d"/><path d="M46.57,53.29c0-.13,0-.27,0-.4H47c0,.12,0,.23,0,.35a.26.26,0,0,1-.19.07h-.24" style="fill:#4d4d50"/><path d="M45.27,54.21h.42a.7.7,0,0,1,0,.38c-.13.07-.27,0-.4.05l0,0,0-.4" style="fill:#bd9356"/><path d="M44.85,55c0-.14,0-.27,0-.41h.38l0,0c0,.13,0,.25,0,.38a.82.82,0,0,1-.41,0" style="fill:#bd9356"/><path d="M44.43,52a.82.82,0,0,0,0,.38c.23.1.48,0,.73.08,0,.05,0,.1,0,.15s0,.37,0,.55a.25.25,0,0,1,0,.11.88.88,0,0,1-.4,0h-.38c0-.14,0-.29,0-.41s0-.29-.05-.43a.56.56,0,0,0-.36,0,.58.58,0,0,0-.41,0l-.06.38-.33.08a.64.64,0,0,0-.05.38v.42h0l-.9,0a6.69,6.69,0,0,0,0-.77A.47.47,0,0,0,42,52.9a1.94,1.94,0,0,0-.24,0v-.44a.48.48,0,0,0,.4-.06,4.38,4.38,0,0,0,0-.81h.69a.67.67,0,0,0,.19,0,2.51,2.51,0,0,0,0-.82,4.75,4.75,0,0,0-.77,0s0,0,0,.07a.88.88,0,0,0,0,.17c0,.19,0,.39,0,.58H41.8a3.32,3.32,0,0,1,0-.83l.36-.1a.87.87,0,0,0,0-.39c.66,0,.66,0,.86-.06a.63.63,0,0,0,0-.36c0-.13,0-.27.06-.39a.73.73,0,0,1,.36,0v.37a.88.88,0,0,0,.06.42,1.38,1.38,0,0,0,.2,0l.55,0s0,0,.06,0a.77.77,0,0,0,0-.37.81.81,0,0,1,0-.35l.08,0,.72,0c0,.13,0,.25,0,.38a1,1,0,0,0,0,.42l.31.08c.1.11,0,.25.13.33a4.38,4.38,0,0,0,1.24,0,.14.14,0,0,1,0,.06l-.34,0H45.61l-.34,0h-.41a.7.7,0,0,0-.4,0,4.07,4.07,0,0,0,0,.78V52" style="fill:#fdae36"/><path d="M41.39,52.41h-.23a.28.28,0,0,0-.21.08l-.46,0h-.42v-.9h1.3c0,.27,0,.55,0,.83" style="fill:#fdae36"/><path d="M42.22,53.73h.9v.9a6,6,0,0,1-.84,0,1.42,1.42,0,0,1,0-.2c0-.21,0-.43,0-.65" style="fill:#feeb95"/><path d="M45.25,54.61h-.83v-.89a5.19,5.19,0,0,1,.78,0,.75.75,0,0,1,0,.16c0,.1,0,.2,0,.3l0,.4" style="fill:#fdae36"/><path d="M41.39,52.41c0-.28,0-.56,0-.83h.42v1.31a.78.78,0,0,1-.37,0,1.05,1.05,0,0,1,0-.43" style="fill:#f4c153"/><path d="M44.43,53.72v.89a1,1,0,0,1-.42,0,3,3,0,0,1,0-.85h.48" style="fill:#feeb95"/><path d="M43.11,54.62c0-.3,0-.6,0-.91h.41a4.68,4.68,0,0,1,0,.83l-.15,0h-.24" style="fill:#fdae36"/><path d="M44,52.43a.56.56,0,0,1,.36,0c.09.14,0,.28.05.43a1.17,1.17,0,0,1-.37,0,.52.52,0,0,1,0-.42" style="fill:#feeb95"/><path d="M44.43,53.72H44a.85.85,0,0,1,0-.38,1.05,1.05,0,0,1,.43,0v.42" style="fill:#fdae36"/><path d="M40.48,53.29c0-.13,0-.26,0-.39l.42,0a.62.62,0,0,1,0,.38.93.93,0,0,1-.44,0" style="fill:#bd9356"/><path d="M40.92,52.87l-.42,0,0,0c0-.14,0-.27,0-.41l.46,0,0,.38" style="fill:#8b734d"/><path d="M43.53,53.73h-.41V53.3a.81.81,0,0,1,.37.05.69.69,0,0,1,0,.38" style="fill:#feeb95"/><path d="M57,59a.88.88,0,0,1,0,.17v1.49H55.24c0-.55,0-1.11,0-1.66H57" style="fill:#161336"/><path d="M54.83,58.91v-.42c0-.44,0-.89,0-1.34a.35.35,0,0,0-.06-.26l-.06,0-1.61,0,0-.06h2.09a.2.2,0,0,1,.08.18v1.21c0,.12,0,.23,0,.35s0,.27,0,.4h-.41" style="fill:#2e2952"/><path d="M57,59h-1.7v-.07H57A.17.17,0,0,1,57,59" style="fill:#2e2952"/><path d="M59.12,60.65v.48l-.34,0H57.06a.39.39,0,0,1-.08-.2v-.27h2.14" style="fill:#544f7f"/><path d="M40.08,51.58v.9c0,.11,0,.22,0,.34H37.93l0-.29h0v0l0-.05h0a.13.13,0,0,0,0-.06H39a.21.21,0,0,0,.21-.08c.09-.2,0-.47.08-.71a3.07,3.07,0,0,1,.8,0" style="fill:#fdd655"/><path d="M37.93,52.82h2.13l0,.06H37.93a.06.06,0,0,1,0-.06" style="fill:#f4c153"/><path d="M37.78,52.48h.13a.14.14,0,0,0,0,.07h0l-.12-.05" style="fill:#29224c"/><path d="M40.08,52.88l0-.06c0-.12,0-.23,0-.34h.42c0,.14,0,.27,0,.41h-.4" style="fill:#29224c"/><path d="M40.08,51.58a3.07,3.07,0,0,0-.8,0c-.1.24,0,.51-.08.71a.21.21,0,0,1-.21.08H37.92l-.61,0-.24,0c-.1-.24,0-.49-.09-.73a.48.48,0,0,0-.17-.05l-.62,0c0-.26,0-.51,0-.73a.27.27,0,0,0-.22-.14l-.21,0,0-.41H37a.89.89,0,0,0,.45-.06,1.36,1.36,0,0,0,0-.2c0-.28,0-.57,0-.86,0,0,0-.06,0-.08A1.48,1.48,0,0,0,37,49a4.69,4.69,0,0,0-.75,0,.33.33,0,0,0-.1.21c0,.15-.07.19-.23.2h-.17c0-.22,0-.43,0-.64s0-.43,0-.64l0,0a.82.82,0,0,1,.38,0c0,.11.05.22.07.32a.53.53,0,0,0,.32.05l1.45,0a2,2,0,0,1,.71.12c.06.1,0,.22,0,.33s0,.24.06.33a.26.26,0,0,0,.24,0,.14.14,0,0,0,.12-.11c0-.07,0-.14,0-.2a1.34,1.34,0,0,1,.09-.46.53.53,0,0,1,.32-.05H41a.57.57,0,0,0,.35-.07l.08-.33c.22,0,.42,0,.63,0h.79a.25.25,0,0,0,.22-.07c.07-.21,0-.48.07-.73l.24,0q.32,0,.63,0c.32,0,.43,0,.38-.42a1.71,1.71,0,0,1,.81,0,.72.72,0,0,1,0,.32v1.48c0,.09,0,.18.06.26a.45.45,0,0,0,.3.05h1.14A.26.26,0,0,1,47,49H45.56c-.09,0-.19,0-.26.06a1,1,0,0,0,0,.34l-.72,0-.08,0a.81.81,0,0,0,0,.35.67.67,0,0,1-.44,0c0-.11,0-.22-.06-.31l-.09,0h-.3a.73.73,0,0,0-.36,0c-.09.12-.05.26-.06.39h-.88a.85.85,0,0,0,0-.38.37.37,0,0,0-.34,0,1.46,1.46,0,0,0,0,.75.87.87,0,0,0,.36,0h0a.87.87,0,0,1,0,.39l-.36.1a3.32,3.32,0,0,0,0,.83H40.08" style="fill:#feeb95"/><path d="M31.83,33a10.15,10.15,0,0,1,1.67,0,.76.76,0,0,1,.06.18c0,.1,0,.2,0,.31v2.87a3,3,0,0,0,0,.31.16.16,0,0,0,.16.16h3.32a1.06,1.06,0,0,1,.39,0,.59.59,0,0,1,0,.19c0,.54,0,1.08,0,1.63,0,0,0,0,0,.06s-.06.16-.15.16H32.3a.81.81,0,0,0-.41,0h-.05c0-.13,0-.25,0-.38V37.22c0-.11,0-.22,0-.34a.49.49,0,0,0-.16-.05H26a.2.2,0,0,1-.18-.07.82.82,0,0,1,0-.32c0-.5,0-1,0-1.52a.21.21,0,0,0-.08-.2l-.15,0h-5.4a1.38,1.38,0,0,1-.45,0c0-1,0-2,0-3,0-.15,0-.3,0-.45.52,0,1,0,1.56,0l.08,0a.34.34,0,0,1,.06.27v1a2.72,2.72,0,0,0,0,.28c0,.16.07.22.24.23h5.63a.48.48,0,0,1,.17,0,.77.77,0,0,1,0,.36c0,.31,0,.62,0,.93a.4.4,0,0,0,.06.29.67.67,0,0,0,.35,0l.41,0h3.3a.67.67,0,0,0,.15-.06.6.6,0,0,0,0-.12V33Z" style="fill:#3835c1"/><path d="M27.94,34.66a.67.67,0,0,1-.35,0,.4.4,0,0,1-.06-.29c0-.31,0-.62,0-.93a.77.77,0,0,0,0-.36.48.48,0,0,0-.17,0H21.68c-.17,0-.23-.07-.24-.23a2.72,2.72,0,0,1,0-.28v-1a.34.34,0,0,0-.06-.27.19.19,0,0,0-.08,0,13.53,13.53,0,0,0-1.56,0,1,1,0,0,1,0-.42h1.7l.36,0a1.09,1.09,0,0,1,.05.17,4,4,0,0,1,.07.92v.76a.4.4,0,0,0,0,.22s.05,0,.07,0h5.7a.59.59,0,0,1,.19.05.7.7,0,0,1,0,.12v1.55" style="fill:#615ee8"/><path d="M19.71,34.63a1.38,1.38,0,0,0,.45,0h5.4l.15,0a.21.21,0,0,1,.08.2c0,.51,0,1,0,1.52a.82.82,0,0,0,0,.32.2.2,0,0,0,.18.07h5.64a.49.49,0,0,1,.16.05H26.51l-1.14,0c0-.26,0-.51,0-.76a1.64,1.64,0,0,0-.08-.54l-.28-.1a.49.49,0,0,1,0-.29l.26,0a.27.27,0,0,0,0-.35l-.15,0H19.85a.15.15,0,0,1-.14-.09" style="fill:#7c79f7"/><path d="M19.29,35.55v-.41l.51,0,.24,0h2l.24,0,0,0v.41l-.35,0h-2.7Z" style="fill:#544f7f"/><path d="M25,35.16a.49.49,0,0,0,0,.29l.28.1a1.64,1.64,0,0,1,.08.54c0,.25,0,.5,0,.76a.79.79,0,0,0,0,.43h-.48c0-.14,0-.28,0-.41V35.81a.25.25,0,0,0-.1-.24c-.22,0-.48,0-.73,0v-.41l.38,0,.41,0,.12,0" style="fill:#544f7f"/><path d="M22.3,35.11l-.24,0H20l-.24,0,.2,0h2.09l.21,0" style="fill:#7c79f7"/><path d="M22.34,35.55v-.41l.45,0s0,0,0,0v.41h-.4" style="fill:#878787"/><path d="M24.86,35.11l-.41,0-.38,0a8.44,8.44,0,0,0-1.33,0s0,0,0,0a1,1,0,0,1,.17,0h1.71a1.38,1.38,0,0,1,.2,0" style="fill:#7c79f7"/><path d="M19.28,35.56h2.17c0,.14,0,.28,0,.42a.78.78,0,0,0,0,.37c0,.32,0,.63,0,.94l-2,0-.06,0a.4.4,0,0,1,0-.26V35.56" style="fill:#161336"/><path d="M21.43,37.3c0-.32,0-.64,0-.95a.78.78,0,0,1,0-.37h.44c0,.1,0,.2,0,.3,0,.34,0,.68,0,1v.83c0,.16,0,.32,0,.49l-.44,0c0-.14,0-.27,0-.41,0-.3,0-.6,0-.89" style="fill:#8b734d"/><path d="M21.46,38.6l.44,0h0c0,.16,0,.31,0,.47s0,.24,0,.36h-.41a3.45,3.45,0,0,1,0-.85" style="fill:#716261"/><path d="M21.47,39.45h.45c0,.14,0,.28,0,.42l0,.07h-.42a1.11,1.11,0,0,1,0-.48" style="fill:#8b734d"/><path d="M21.88,39.93l0-.07h.83a.31.31,0,0,0,.21.06h.23c0,.14,0,.29,0,.43h-.44a1.83,1.83,0,0,1-.47,0,1.53,1.53,0,0,0-.37,0l0-.35" style="fill:#f4c153"/><path d="M27.94,34.66V33.11a.7.7,0,0,0,0-.12.59.59,0,0,0-.19-.05H23.64V25.69c0-.1,0-.2,0-.31a.49.49,0,0,1,0-.14.43.43,0,0,1,.32-.07h1.79v5.15a1.93,1.93,0,0,0,0,.24.78.78,0,0,0,.05.18.9.9,0,0,0,.39,0h2.87a.79.79,0,0,1,.56.14c0,.2,0,.39,0,.59,0,.37,0,.75,0,1.13,0,.09,0,.18.06.26a8.62,8.62,0,0,0,1.67,0h.41a.17.17,0,0,0,0,.07h-.25a.59.59,0,0,0-.14.06,1,1,0,0,0,0,.12v1.49H28.35l-.41,0" style="fill:#7c79f7"/><path d="M29.67,30.92a.79.79,0,0,0-.56-.14H26.24a.9.9,0,0,1-.39,0,.78.78,0,0,1-.05-.18,1.93,1.93,0,0,1,0-.24V25.17H31.6a.74.74,0,0,1,.18,0c0,.06,0,.11,0,.17V29H29.67V27.32a1.93,1.93,0,0,0,0-.24.53.53,0,0,0-.05-.15l-.12,0H27.73a.54.54,0,0,0-.15,0,9,9,0,0,0,0,1.81,1.81,1.81,0,0,0,0,.23.64.64,0,0,0,.38.05h1.74v1.87" style="fill:#9694f8"/><path d="M29.67,29.05h3.88v1.73h-2l-.15.06a.6.6,0,0,0,0,.12c0,.65,0,1.31,0,2a8.62,8.62,0,0,1-1.67,0c-.08-.07-.06-.17-.06-.26V31.51c0-.2,0-.39,0-.59V29.05Z" style="fill:#c4c3fd"/><path d="M31.41,32.93c0-.65,0-1.31,0-2a.6.6,0,0,1,0-.12l.15-.06h.31c0,.13,0,.26,0,.4v.06a7.74,7.74,0,0,0-.06,1.36c0,.11,0,.21,0,.31Z" style="fill:#9694f8"/><path d="M33.56,30.78V29.05a1.14,1.14,0,0,1,.42,0,.38.38,0,0,1,.07.28A4.41,4.41,0,0,1,34,30.74a1,1,0,0,1-.42,0" style="fill:#9694f8"/><path d="M31.89,31.26V31.2H32l-.07.06" style="fill:#7774f9"/><path d="M31.84,39h.05l.41,0h5.18c0,.11,0,.23,0,.34v1.1a.28.28,0,0,0,.07.24,1.06,1.06,0,0,0,.36,0h1.72v2a1,1,0,0,0,0,.17.35.35,0,0,0,.26.07h1.17a.32.32,0,0,1,.26.07.39.39,0,0,1,0,.3h-1.9l-.18,0a.77.77,0,0,1-.05-.36V41.4c0-.15-.07-.21-.22-.22H37.29a.26.26,0,0,1-.23-.08.73.73,0,0,1,0-.33v-1a.29.29,0,0,0-.08-.25,1.18,1.18,0,0,0-.38,0c-1.32,0-2.63,0-4,0h-.38l-.83,0c0-.14,0-.28,0-.41l.11,0h.31" style="fill:#c4c3fd"/><path d="M39.66,36.86h1.72V39H39.65V36.86" style="fill:#7774f9"/><path d="M39.65,40.77H37.93c0-.18,0-.35,0-.52,0-.4,0-.8,0-1.2h1.76c0,.59,0,1.17,0,1.75" style="fill:#3835c1"/><path d="M37.9,39c0,.4,0,.8,0,1.2,0,.17,0,.34,0,.52a1.06,1.06,0,0,1-.36,0,.28.28,0,0,1-.07-.24v-1.1c0-.11,0-.23,0-.34l.42,0" style="fill:#7c79f7"/><path d="M47.44,42.47c-.43,0-.85,0-1.24,0a.4.4,0,0,1-.09-.33V40.74a.59.59,0,0,0-.06-.36.8.8,0,0,0-.18,0H44c0-.15,0-.3,0-.45s0-.57,0-.86a.6.6,0,0,0,0-.37.67.67,0,0,0-.31,0H42.49a.29.29,0,0,1-.23-.06.62.62,0,0,1,0-.33V36.76a.32.32,0,0,0-.09-.28l-.25,0H40.81l-.73,0v-3.2c0-.1,0-.2,0-.31h.66a.66.66,0,0,0,.15,0c0-.12.05-.21.08-.31a.35.35,0,0,1,.34,0c.11.11,0,.25.15.35a4.37,4.37,0,0,0,.64,0h1.17c.08,0,.17,0,.23.08a2.42,2.42,0,0,1,0,.54.25.25,0,0,0,.09.24c.17,0,.36,0,.56,0a.74.74,0,0,1,.17,0c.09.12,0,.26.13.37l.18,0h.38a1,1,0,0,1,.17,0c.08.27,0,.55.06.78a.43.43,0,0,0,.3.06h.76a.25.25,0,0,1,.21.09.74.74,0,0,1,0,.31c0,.34,0,.69,0,1a.79.79,0,0,0,0,.2l.38.07c.12,0,.26,0,.35.06s0,.26.13.36.51,0,.77.08a1.59,1.59,0,0,1,0,.75c-.27.08-.54,0-.78.07a.55.55,0,0,0-.06.32V40c0,.18,0,.35,0,.52a.49.49,0,0,1-.05.16l-.18,0-.41,0a.54.54,0,0,0-.15,0,1.3,1.3,0,0,0,0,.74c.23.08.49,0,.74.1a2.08,2.08,0,0,1,0,.23c0,.2,0,.4,0,.59" style="fill:#fff"/><path d="M47.44,42.47c0-.19,0-.39,0-.59a2.08,2.08,0,0,0,0-.23c-.25-.11-.51,0-.74-.1a1.3,1.3,0,0,1,0-.74.54.54,0,0,1,.15,0l.41,0,.18,0a.49.49,0,0,0,.05-.16c0-.17,0-.34,0-.52V38.48a.55.55,0,0,1,.06-.32c.24-.07.51,0,.78-.07a1.59,1.59,0,0,0,0-.75c-.26-.09-.54,0-.77-.08s0-.24-.13-.36-.23,0-.35-.06l-.38-.07a.79.79,0,0,1,0-.2c0-.35,0-.7,0-1a.74.74,0,0,0,0-.31.25.25,0,0,0-.21-.09h-.76a.43.43,0,0,1-.3-.06c-.07-.23,0-.51-.06-.78a1,1,0,0,0-.17,0h-.38l-.18,0c-.11-.11,0-.25-.13-.37a.74.74,0,0,0-.17,0c-.2,0-.39,0-.56,0a.25.25,0,0,1-.09-.24,2.42,2.42,0,0,0,0-.54c-.06-.09-.15-.08-.23-.08H42.12a4.37,4.37,0,0,1-.64,0c-.11-.1,0-.24-.15-.35a.35.35,0,0,0-.34,0c0,.1-.05.19-.08.31a.66.66,0,0,1-.15,0H40.1c0-.12,0-.24,0-.37,0-.48,0-1,0-1.43,0-.12,0-.23,0-.34h.05l.39,0,.38,0h1.07a.34.34,0,0,1,.26.07s0,.08,0,.14,0,.23,0,.34c0,.3,0,.33.34.34h2.77a.44.44,0,0,1,.31.06c.07.1,0,.24.06.36a.47.47,0,0,0,.06.42c.53,0,1.08,0,1.63,0l0,.08c0,.11,0,.22,0,.33s0,0,0,0H47a.61.61,0,0,0-.4,0,3.93,3.93,0,0,0,0,.84.72.72,0,0,0,0,.41.81.81,0,0,0,.38,0,1.09,1.09,0,0,0,.44,0l.05,0c0,.12,0,.25,0,.35s.25,0,.34.13l0,.12,0,.16a.38.38,0,0,0,.4.09c.12,0,.25,0,.38.08l0,.37c-.13,0-.28,0-.41.08a2.23,2.23,0,0,1,0,.23.56.56,0,0,1,0,.08L48,36a.33.33,0,0,0,0,.32l.32.18.08.28c.11.1.25,0,.33.12s0,.24.14.35a6.7,6.7,0,0,0,.79,0c0,.91,0,1-.06,1.23s-.52,0-.79.08a6,6,0,0,0,0,.85v.4c0,.16,0,.32,0,.47s0,.23-.07.32-.25,0-.35.1v0a1,1,0,0,0-.24,0,.44.44,0,0,0-.15,0,1.24,1.24,0,0,0,0,.18,12,12,0,0,1-.06,1.47h-.41" style="fill:#feeb95"/><path d="M40.08,36.43l.73,0h1.07l.25,0a.32.32,0,0,1,.09.28v1.45a.62.62,0,0,0,0,.33.28.28,0,0,0,.23.06H43.6a.65.65,0,0,1,.31,0A.6.6,0,0,1,44,39l-.42,0H41.81V36.88l-.06,0-.35,0v0a.52.52,0,0,0-.3,0h-.72a1.46,1.46,0,0,1-.22,0,.49.49,0,0,1-.06-.35" style="fill:#c4c3fd"/><path d="M38.34,27.32l.35,0c0-.08.05-.14.06-.21s0-.25,0-.38.07-.21.21-.22h1.08c0,.12,0,.24.05.38a1.18,1.18,0,0,0,.25,0H41.8v.42H41c-.23,0-.46,0-.69,0a1.08,1.08,0,0,0-.2.06c0,.26,0,.51,0,.76h-.83c0-.12,0-.25-.06-.37a.45.45,0,0,0-.39,0l-.09.34-.36,0a4,4,0,0,1,0-.85" style="fill:#fdae36"/><path d="M38.34,28.17l.36,0,.09-.34a.45.45,0,0,1,.39,0c.08.12,0,.25.06.37l0,.09a.51.51,0,0,0-.4,0c0,.13,0,.25-.07.38l-.39,0s0,0,0,0,0-.3,0-.45" style="fill:#bd9356"/><path d="M40.06,30.37l-1.61,0-.08,0a.81.81,0,0,1,0-.35.05.05,0,0,0,0,0,.76.76,0,0,0,.42,0h1A.34.34,0,0,1,40,30c0,.12,0,.26.06.39h0" style="fill:#feeb95"/><path d="M40.49,30.76l-.39,0,0-.41h0c.12,0,.25,0,.35.07a.93.93,0,0,1,0,.33" style="fill:#f4c153"/><path d="M38.36,29.53h.4l0,.36a.75.75,0,0,1-.42,0v-.4" style="fill:#4d4d50"/><path d="M49.61,37.3a6.7,6.7,0,0,1-.79,0c-.12-.11-.06-.25-.14-.35s-.22,0-.33-.12l-.08-.28L48,36.34A.33.33,0,0,1,48,36l.29-.07a.56.56,0,0,0,0-.08,2.23,2.23,0,0,0,0-.23c.13-.11.28-.06.41-.08a3.35,3.35,0,0,0,.77,0,.84.84,0,0,0,0-.41c0-.26,0-.53,0-.8a.58.58,0,0,1,.17-.06h.55s.06,0,.1,0c.11.23,0,.5.1.75l.2,0c.18,0,.19,0,.23.24a.89.89,0,0,1,0,.15.26.26,0,0,0,.24.08h1.41V36h-.38a1,1,0,0,0-.41,0,1,1,0,0,0,0,.17c0,.06-.05.12-.07.19h-.35l-.9,0h-.34l-.06.05c0,.14,0,.28,0,.42l0,.41h-.41M49.52,36a1.85,1.85,0,0,0-.66,0c-.06,0-.1,0-.12.11v.07c0,.16,0,.22.19.23h.41c.19,0,.23-.06.22-.26a.46.46,0,0,0,0-.13" style="fill:#fdd655"/><path d="M47.4,32.51c-.55,0-1.09,0-1.63,0a.47.47,0,0,1-.06-.42c.6,0,.63,0,.84-.06a.91.91,0,0,0,0-.33,1.81,1.81,0,0,0,.23,0l.16-.05a4.73,4.73,0,0,0,0-.84h.45a7,7,0,0,1,.8,0l0,.07a7.22,7.22,0,0,1,0,1.23h-.65a.59.59,0,0,0-.19,0c0,.13,0,.24-.05.36" style="fill:#fdd655"/><path d="M47.44,30.77H47l-.42,0c0-.27,0-.54,0-.82h0a.68.68,0,0,0,.42-.05c.12,0,.26,0,.37-.06a.68.68,0,0,0,0-.37h.9a1.27,1.27,0,0,1,0,.43.61.61,0,0,1-.18.05h-.42a1.77,1.77,0,0,0-.21,0,2.63,2.63,0,0,0,0,.79" style="fill:#f4c153"/><path d="M49.56,35.11a.84.84,0,0,1,0,.41,3.35,3.35,0,0,1-.77,0c0-.12,0-.25,0-.37s-.26,0-.38-.08c0-.29,0-.57,0-.86h0a1,1,0,0,1,.38,0c.08.24,0,.51.06.72a.25.25,0,0,0,.21.08l.59,0" style="fill:#fdae36"/><path d="M47.4,32.51c0-.12,0-.23.05-.36a.59.59,0,0,1,.19,0h.65v.41h-.68a.29.29,0,0,0-.18.07l0-.08" style="fill:#bd9356"/><path d="M47,33h.39s0,0,0,.06c0,.27,0,.53,0,.8l0,0H47s0,0,0,0c0-.29,0-.57,0-.86" style="fill:#fdae36"/><path d="M50.06,30.78l.41,0c0,.28,0,.56,0,.83l-.28,0-.11,0a.94.94,0,0,1,0-.16c0-.23,0-.46,0-.69" style="fill:#f4c153"/><path d="M52.61,32.1v.42h-.82a.72.72,0,0,1,0-.36s0,0,.07,0l.72,0" style="fill:#fdd655"/><path d="M51.79,32.52h.82v.42c-.25,0-.51,0-.77,0a.57.57,0,0,1-.05-.4" style="fill:#fdae36"/><path d="M52.61,33.82v.43h-.72s0,0-.07,0a.38.38,0,0,1,0-.33.58.58,0,0,1,.19,0h.61" style="fill:#fdae36"/><path d="M47.49,34.26l-.05,0,0-.41,0,0,.46,0c0,.14,0,.27,0,.41l-.4,0" style="fill:#fdae36"/><path d="M47.83,32.52h.46a.85.85,0,0,1,0,.42l-.4,0a.52.52,0,0,0-.06-.4" style="fill:#716261"/><path d="M47.89,34.24c0-.14,0-.27,0-.41a.64.64,0,0,1,.36,0c.08.11,0,.25.06.38h-.43Z" style="fill:#f4c153"/><path d="M51,31.62h1.42a.37.37,0,0,1,.23.05H50.92l0,0" style="fill:#29224c"/><path d="M47.89,32.92l.4,0a1.24,1.24,0,0,1-.16,0l-.71,0s0,0,0-.06,0,0,0,0h.45" style="fill:#bd9356"/><path d="M51,31.62l0,0h-.05s0-.05,0-.07,0,0,.07,0" style="fill:#f4c153"/><path d="M54,26.91h.39a.66.66,0,0,1,0,.37.71.71,0,0,1-.38,0c0-.14,0-.27,0-.4" style="fill:#fdd655"/><path d="M55.23,27.73a.78.78,0,0,1-.34,0,.21.21,0,0,1,0-.28s0,0,.06,0h.31v.34" style="fill:#fdd655"/><path d="M51.78,39.52a.45.45,0,0,0,.06.31c.22.08.47,0,.71.07a.31.31,0,0,1,.05.12c0,.47,0,.93,0,1.39,0,0,0,.09,0,.12l-.08,0-.72,0h0c0-.21,0-.41,0-.62a.59.59,0,0,0-.05-.19,4.76,4.76,0,0,0-.84,0h0c0-.3,0-.59,0-.89,0-.14,0-.29,0-.43h0l.82,0,.07.06" style="fill:#fdae36"/><path d="M49.61,43.73v-1c0-.07,0-.16,0-.22a.13.13,0,0,0,0-.06.3.3,0,0,0,.08-.22c0-.21,0-.41,0-.62v-.82l.45,0,.81,0h0v.83h0l-.41,0a.52.52,0,0,0-.4,0,5.72,5.72,0,0,0,0,.83v1.25h-.44" style="fill:#fdae36"/><path d="M51.78,41.59v.91h-.9v-.9h.9Z" style="fill:#fdae36"/><path d="M51.78,42.9a4.17,4.17,0,0,1,0,.86.68.68,0,0,1-.17,0h-.49a.2.2,0,0,1-.19-.2,2.72,2.72,0,0,1,0-.28v-.41h.9" style="fill:#fdae36"/><path d="M53.92,38.61V39H52.66l0-.38a.61.61,0,0,1,.3,0Z" style="fill:#f4c153"/><path d="M50.05,43.74V42.49h.42c0,.31,0,.62,0,.93a.43.43,0,0,1-.06.28.81.81,0,0,1-.35,0" style="fill:#f4c153"/><path d="M50.88,41.59v.9h-.41c0-.3,0-.59,0-.88l.4,0" style="fill:#feeb95"/><path d="M51.78,42.9h-.9v-.42h.89v.42h0" style="fill:#feeb95"/><path d="M51.77,42.91v-.42c.26,0,.51,0,.75,0s.1.17,0,.36c0,0,0,0-.06,0l-.73,0" style="fill:#fdae36"/><path d="M50.47,44.24c0,.11,0,.22,0,.32s-.27.07-.4.09c0-.14,0-.28,0-.41h.42" style="fill:#bd9356"/><path d="M51.78,39.52l-.07-.06.07,0,.82,0a.37.37,0,0,1-.23,0h-.59" style="fill:#f4c153"/><path d="M46.59,31.7a.8.8,0,0,1-.05.34c-.2.08-.23.08-.83.05,0-.12,0-.26-.06-.36a.44.44,0,0,0-.31-.06H42.57c-.31,0-.34,0-.34-.34,0-.11,0-.23,0-.34s0-.11,0-.14a.34.34,0,0,0-.26-.07H40.87l-.38,0a.93.93,0,0,0,0-.33c-.1-.1-.23-.06-.35-.07s0-.27-.06-.39a.34.34,0,0,0-.27-.07h-1l0-.36a.7.7,0,0,1,.38,0h3.67l.31,0a.74.74,0,0,1,.38.06c.09.39,0,.79.06,1.2a.94.94,0,0,0,.15.06h2l0,0a2.49,2.49,0,0,0,0,.86,4.61,4.61,0,0,0,.83,0s0,0,0,0" style="fill:#fdae36"/><path d="M45.26,30.77H44c0-.33,0-.66,0-1v-.14a.16.16,0,0,1,.15-.16.44.44,0,0,1,.29.05c0,.09,0,.2.08.32a4.53,4.53,0,0,0,.75.15.94.94,0,0,1,0,.16v.62" style="fill:#feeb95"/><path d="M46.58,29.94c0,.28,0,.55,0,.82,0,0,0,0,0,0h-.83l0,0c0-.27,0-.54,0-.81h.9" style="fill:#feeb95"/><path d="M48.32,29.47h-.9v-.84h0a4.76,4.76,0,0,1,.84,0,1.06,1.06,0,0,1,.06.19c0,.2,0,.41,0,.62" style="fill:#feeb95"/><path d="M41,27.32h.83l.35,0a2.38,2.38,0,0,1,.07.79l-.31,0-.07,0c0-.08-.05-.16-.08-.26a4.38,4.38,0,0,0-.79-.1v-.41" style="fill:#bd9356"/><path d="M46.61,27.38s0,0,0-.05h1.58l.1,0c.06.12,0,.25,0,.37s0,.27,0,.39l.3.09a2.19,2.19,0,0,1-.72-.05q-.06-.37-.12-.72c-.22-.08-.28-.08-1.21-.06" style="fill:#bd9356"/><path d="M46.58,29.94h-.9c0-.17,0-.33,0-.49h.89v.47Z" style="fill:#fdae36"/><path d="M41,27.73a4.38,4.38,0,0,1,.79.1c0,.1.06.18.08.26l.07,0,.31,0v.07H40.55c.1-.11.27,0,.38-.14a1,1,0,0,0,0-.35Z" style="fill:#8b734d"/><path d="M45.69,28.64c0-.11,0-.21,0-.31s0,0,0-.08a2.47,2.47,0,0,1,.77,0,1.66,1.66,0,0,1,.06.16,1.93,1.93,0,0,1,0,.24h-.89Z" style="fill:#fdae36"/><path d="M45.69,29.46a.66.66,0,0,1-.39-.05,1.93,1.93,0,0,1,0-.72.43.43,0,0,1,.16-.05,1.92,1.92,0,0,1,.24,0h0v.82Z" style="fill:#fdae36"/><path d="M46.58,28.63H47v.83h-.42v-.84Z" style="fill:#f4c153"/><path d="M45.68,27.32l0,.07v.33c0,.08,0,.16,0,.24a.21.21,0,0,1-.33.15.17.17,0,0,1-.07-.1,2.22,2.22,0,0,1,0-.63.94.94,0,0,1,.15-.06,1.92,1.92,0,0,1,.24,0" style="fill:#fdae36"/><path d="M47,28.62a.85.85,0,0,1,0-.39.26.26,0,0,1,.26-.07.15.15,0,0,1,.13.13v.34H47Z" style="fill:#feeb95"/><path d="M48.66,28.21l-.3-.09c-.07-.12,0-.26,0-.39l.36,0a.89.89,0,0,1,0,.45h-.07" style="fill:#716261"/><path d="M50.46,36.41l.9,0h.35c0-.07,0-.13.07-.19a1,1,0,0,1,0-.17,1,1,0,0,1,.41,0h.38a3.29,3.29,0,0,1,0,.83h-.82c0-.11,0-.23-.09-.34l-.25,0h-.69a.63.63,0,0,1-.3,0" style="fill:#fdae36"/><path d="M51.78,39.44l-.07,0-.82,0,0-.82h.85a.65.65,0,0,1,0,.18c0,.21,0,.43,0,.65" style="fill:#bd9356"/><path d="M50.46,36.41a.63.63,0,0,0,.3,0h.69l.25,0c.11.11.06.23.09.34l0,.07a3,3,0,0,0-.31,0l-1,0h-.42c0-.14,0-.28,0-.42l.06-.05h.34" style="fill:#bd9356"/><path d="M50.05,36.88h.42c0,.42,0,.83,0,1.25h-.41l0-.85,0-.41" style="fill:#8b734d"/><path d="M51.77,36.89l0-.07h.82a1,1,0,0,1,0,.49h-.81c0-.14,0-.27,0-.4" style="fill:#fdd655"/><path d="M53.94,38.2a.52.52,0,0,1,.16-.06,1.61,1.61,0,0,1,.58,0c.11.09.09.21.08.32a.15.15,0,0,1-.14.13h-.7v-.14l0-.27" style="fill:#f4c153"/><path d="M50.05,38.14h.41l.4,0c.08.15,0,.3.06.44h-.05a2.54,2.54,0,0,1-.78-.12.86.86,0,0,1,0-.35" style="fill:#f4c153"/><path d="M53.94,36.88h.31s.07,0,.08.09a.29.29,0,0,1,0,.27c-.11.07-.24,0-.36,0s0-.27,0-.41" style="fill:#fdd655"/><path d="M53.92,38.47v.14h-1a.61.61,0,0,0-.3,0,.2.2,0,0,1,.19-.11h.75a.66.66,0,0,0,.36-.07" style="fill:#29224c"/><path d="M51.79,37.29h.82a.43.43,0,0,1-.13.05H51.9s-.08,0-.11-.06" style="fill:#29224c"/><path d="M43.1,23.87a.09.09,0,0,1,0,.05h-1a.43.43,0,0,1-.29-.06v0h.51l.79,0" style="fill:#29224c"/><path d="M43.1,23.87l-.79,0h-.44l0-.06v-.36l.89,0a.7.7,0,0,1,.35,0,.57.57,0,0,1,0,.39" style="fill:#8b734d"/><path d="M56.07,38.19a.75.75,0,0,1,0,.42h-.84a.79.79,0,0,1,0-.37,1.07,1.07,0,0,1,.4,0h.38" style="fill:#fdd655"/><path d="M41.82,23.78l0,.06H41.8s0,0,0-.06" style="fill:#716261"/><path d="M53.51,50.26h2l.12,0a.72.72,0,0,1,0,.35v1.41c0,.13,0,.25,0,.38l0,0H53.52c0-.59,0-1.19,0-1.78,0-.14,0-.27,0-.41Z" style="fill:#7774f9"/><path d="M44,40.75H45.3a.68.68,0,0,1,.32,0,.37.37,0,0,1,.07.28v1.82l0,0H43.54v-.42c0-.57,0-1.14,0-1.72H44" style="fill:#7774f9"/><path d="M47.43,44.63h1.9c.24,0,.28,0,.29.27v1c0,.16,0,.32,0,.48l0,0-.41,0H47.42v-.48c0-.41,0-.82,0-1.23Z" style="fill:#7774f9"/><path d="M55.68,52.45H57a1.37,1.37,0,0,1,.36,0,.26.26,0,0,1,.08.24c0,.35,0,.71,0,1.07,0,.13,0,.27,0,.41s0,.27,0,.4l0,0H55.67c0-.12,0-.23,0-.35V52.47Z" style="fill:#7774f9"/><path d="M49.63,46.37c.55,0,1.1,0,1.63,0a.3.3,0,0,1,.09.27v1.87h0l-.37,0H49.63V46.77c0-.13,0-.25,0-.38Z" style="fill:#7774f9"/><path d="M51.35,48.53c.7,0,1.4,0,2.07,0a.42.42,0,0,1,.09.3v1.42h0l-.37,0H51.36V48.92c0-.13,0-.25,0-.38h0" style="fill:#7774f9"/><path d="M45.69,42.89l.69,0h.76a1.06,1.06,0,0,1,.2,0,.26.26,0,0,1,.08.24v.93c0,.17,0,.34,0,.52l0,0H45.69c0-.19,0-.39,0-.58,0-.38,0-.76,0-1.13Z" style="fill:#7774f9"/><path d="M48.32,40.77c0,.45,0,.91,0,1.37,0,.19,0,.39,0,.58a.62.62,0,0,1,0,.18l-.38,0,0-.45A14.45,14.45,0,0,0,47.91,41a1.24,1.24,0,0,1,0-.18l.15-.06a1.92,1.92,0,0,1,.24,0" style="fill:#bd9356"/><path d="M57.41,54.6c0-.13,0-.27,0-.4l.43,0h1.42l.27,0v.41H57.41" style="fill:#bebdf9"/><path d="M44,40.75h-.42V39L44,39c0,.29,0,.57,0,.86s0,.3,0,.45a1,1,0,0,0,0,.42" style="fill:#9694f8"/><path d="M51.79,47.3H53.1a.88.88,0,0,1,0,.33.34.34,0,0,1-.27.07h-1V47.3" style="fill:#f4c153"/><path d="M59.12,60.65H57.39c0-.14,0-.28,0-.42l.13,0h2v.42h-.42" style="fill:#bebdf9"/><path d="M55.67,54.61h1.72v1.73H55.66V54.62h0" style="fill:#615ee8"/><path d="M55.66,52.47v1.79c0,.12,0,.23,0,.35h-4.3c0-.14,0-.28,0-.42H53.3a.64.64,0,0,0,.18-.06.65.65,0,0,0,0-.11c0-.52,0-1,0-1.56h2.15" style="fill:#615ee8"/><path d="M53.5,54.62h2.16v1.74H53.94a2.23,2.23,0,0,1-.37,0,.22.22,0,0,1-.06-.2V55c0-.14,0-.27,0-.41" style="fill:#3835c1"/><path d="M53.06,55.11c0,.14,0,.27,0,.41,0,.42,0,.83,0,1.24h-2a1.05,1.05,0,0,1-.19,0,.74.74,0,0,1,0-.12c0-.5,0-1,0-1.49h2.18" style="fill:#161336"/><path d="M51.37,54.62H53.1l0,.42h-1.8l-.38,0c0-.13,0-.26,0-.39s0,0,0,0h.45" style="fill:#9694f8"/><path d="M50.89,55l.38,0h1.8a.08.08,0,0,1,0,.07H50.88s0-.06,0-.09" style="fill:#2e2952"/><path d="M29.27,42.49c0-.16,0-.32,0-.48s0-.23,0-.34-.12-.06-.18-.06l-.67,0V40.35c.22,0,.44,0,.65,0a.59.59,0,0,0,.19,0,2.78,2.78,0,0,0,0-.76v0h.41a1.93,1.93,0,0,1,0,.24.18.18,0,0,0,.18.17,2.25,2.25,0,0,0,.58,0,3.48,3.48,0,0,1,.55,0,.92.92,0,0,1,0,.34c-.12.11-.26,0-.35.15a.57.57,0,0,0,0,.32V42.5c0,.14,0,.28,0,.42l-.88,0a1.76,1.76,0,0,0,0-.23.44.44,0,0,0-.06-.17h-.34" style="fill:#fdd655"/><path d="M27.5,39H25.7c-.34,0-.39-.05-.39-.38v-1a.42.42,0,0,1,0-.25.4.4,0,0,1,.31-.07H27.5V39" style="fill:#161336"/><path d="M25.39,37.28a.79.79,0,0,1,0-.43l1.14,0h4.88c0,.57,0,1.13,0,1.7H31c0-1,0-1.05-.06-1.28a1.08,1.08,0,0,0-.19,0H27.5l-1.26,0h-.85" style="fill:#c4c3fd"/><path d="M31,39.86a3.48,3.48,0,0,0-.55,0,2.25,2.25,0,0,1-.58,0,.18.18,0,0,1-.18-.17,1.93,1.93,0,0,0,0-.24s0,0,0-.06V38.19a.14.14,0,0,0,0-.06,3.94,3.94,0,0,1,.84,0c0,.14,0,.26.07.38a.79.79,0,0,0,.4.05h0v1.26Z" style="fill:#fdae36"/><path d="M24.07,35.56c.25,0,.51,0,.73,0a.25.25,0,0,1,.1.24v1.07c0,.13,0,.27,0,.41H24v-.43c0-.11,0-.22,0-.33,0-.33,0-.65,0-1" style="fill:#161336"/><path d="M23.18,39.93H23a.31.31,0,0,1-.21-.06c0-.14,0-.28,0-.42h0a.77.77,0,0,0,.42,0,4.17,4.17,0,0,0,0-.79h.05l.8,0a1.09,1.09,0,0,1,.05.17v.72a1,1,0,0,0-.54-.06.31.31,0,0,0-.27.07s0,.08,0,.12.05.21.2.22H24v.07h-.86" style="fill:#bd9356"/><path d="M27.5,37.3h.44c0,.27,0,.55,0,.82v.49c0,.28,0,.55,0,.83a.82.82,0,0,1-.38,0c-.08-.13,0-.27-.06-.4V37.36s0,0,0-.06" style="fill:#8b734d"/><path d="M24.07,37.29c0,.16,0,.32,0,.48s0,.23,0,.34l-.88,0v-.85h.91Z" style="fill:#fdd655"/><path d="M29.25,39.52a2.78,2.78,0,0,1,0,.76.59.59,0,0,1-.19,0c-.21,0-.43,0-.65,0a1.34,1.34,0,0,1,0-.4c.13-.11.3,0,.45-.12l.08-.22.06,0,.26,0" style="fill:#bd9356"/><path d="M23.18,39.93H24a.63.63,0,0,1,0,.38l-.23,0-.59,0c0-.14,0-.29,0-.43" style="fill:#8b734d"/><path d="M29.26,39h-.87v-.41l.86,0V39" style="fill:#29224c"/><path d="M22.74,41.59c0-.27,0-.55,0-.82l0,0,.4,0a3.54,3.54,0,0,1,0,.86l-.42,0" style="fill:#bd9356"/><path d="M29.26,39V38.6c0-.13,0-.27.05-.39a.78.78,0,0,1,.37,0V39Z" style="fill:#161336"/><path d="M28.39,38.62V39a2.88,2.88,0,0,1,0,.39.57.57,0,0,1-.15,0h-.27c0-.28,0-.55,0-.83h.44Z" style="fill:#fdd655"/><path d="M24,39.85h-.62c-.15,0-.2-.06-.2-.22s0-.09,0-.12a.31.31,0,0,1,.27-.07,1,1,0,0,1,.54.06c0,.12,0,.23,0,.34" style="fill:#fdd655"/><path d="M23.18,38.21c0,.13,0,.25,0,.38h-.45v-.48h.41v0l0,.07" style="fill:#fdae36"/><path d="M23.16,40.76l-.4,0v-.4h.42v.41" style="fill:#fdd655"/><path d="M28.38,41.58l.67,0c.06,0,.13,0,.18,0l-.4,0-.36,0a.1.1,0,0,1-.09-.08" style="fill:#716261"/><path d="M23.18,38.21l0-.07.88,0s-.08.06-.12.06h-.4l-.34,0" style="fill:#bd9356"/><path d="M29.67,39.44s0,0,0,.06h-.41s.06-.06.11-.06h.3" style="fill:#bd9356"/><path d="M30.55,42.92c0-.14,0-.28,0-.42V40.67a.57.57,0,0,1,0-.32c.09-.11.23,0,.35-.15a.92.92,0,0,0,0-.34h.41l0,0a1.23,1.23,0,0,1,0,.27.43.43,0,0,1-.05.16l-.31.06c-.05.2-.05.2,0,.34l.16,0,.76,0a.84.84,0,0,1,.18,0,.53.53,0,0,1,.06.36c0,.47,0,1,0,1.42a.4.4,0,0,0,.07.31l.36.06a1.77,1.77,0,0,1,0,.21c0,.27,0,.53,0,.8a.31.31,0,0,0,.07.25c.21.09.48,0,.73.08l0,.17c0,.26,0,.51,0,.76a4.19,4.19,0,0,0,.09.7L34,46a.86.86,0,0,1,0,.21c0,.12,0,.25,0,.38s0,.12.05.18c.26.07.51,0,.74.09,0,.12,0,.22.07.33a.91.91,0,0,0,.39,0,.78.78,0,0,1,.42.07,1.66,1.66,0,0,1,0,.22c0,.2,0,.4,0,.59l0,0-.58,0-.25,0c0-.07,0-.12,0-.17s0-.26,0-.38l0-.21a.91.91,0,0,0-.21,0h-1q0-.21-.06-.39a.31.31,0,0,0-.23-.08h-.53a.84.84,0,0,1-.05-.2c0-.13,0-.25,0-.38s0-.13,0-.17a.21.21,0,0,0-.21-.08H31.43l0-.64a.65.65,0,0,0,0-.19.71.71,0,0,0-.38,0l-.34,0,0,0a.51.51,0,0,1,0-.3c0-.47,0-.94,0-1.41,0-.13,0-.26,0-.38" style="fill:#feeb95"/><path d="M31,45.08a.71.71,0,0,1,.38,0,.65.65,0,0,1,0,.19l0,.64a.65.65,0,0,1-.39,0,1.16,1.16,0,0,1,0-.18c0-.22,0-.44,0-.65" style="fill:#fdd655"/><path d="M29.27,42.49h.34a.44.44,0,0,1,.06.17,1.76,1.76,0,0,1,0,.23h-.4v-.42" style="fill:#feeb95"/><path d="M34.86,48.6H34.6a.51.51,0,0,1-.15-.07h.27a.15.15,0,0,1,.14.07" style="fill:#bd9356"/><path d="M37,49a1.48,1.48,0,0,1,.41,0s0,.05,0,.08c0,.29,0,.58,0,.86a1.36,1.36,0,0,1,0,.2.89.89,0,0,1-.45.06v-.42c0-.27,0-.55,0-.83" style="fill:#fdd655"/><path d="M37,49.83v.42H35.78a.66.66,0,0,1,0-.39,2.39,2.39,0,0,1,.6,0H37" style="fill:#f4c153"/><path d="M34.86,50.25a1.11,1.11,0,0,1-.36,0,.74.74,0,0,1,0-.36.88.88,0,0,1,.36,0,.68.68,0,0,1,0,.37" style="fill:#bd9356"/><path d="M51.37,54.62h-.45c0-.16,0-.32,0-.48,0-.4,0-.8,0-1.2,0,0,0-.06-.06-.06H49.21c0-.07,0-.12,0-.17a1.94,1.94,0,0,1,0-.24V50.78s0,0,0-.05H47v0a.14.14,0,0,0,0-.06V49s0,0,0,0-.15-.06-.23-.06H45.62a.45.45,0,0,1-.3-.05c-.07-.08,0-.17,0-.26,0-.5,0-1,0-1.48a.72.72,0,0,0,0-.32,1.71,1.71,0,0,0-.81,0h-.65a.32.32,0,0,1-.23-.06l0-.43H44l.35,0h1.38c0,.13,0,.26,0,.38v1.49a.42.42,0,0,0,0,.27,12.2,12.2,0,0,0,1.66,0h0c0,.13,0,.25,0,.38,0,.38,0,.76,0,1.14a.86.86,0,0,0,0,.21l.28,0h1.86v2.07s0,.05,0,.07.17.06.26.06h1.45c0,.42,0,.84,0,1.26,0,.16,0,.32,0,.47s0,.28,0,.42" style="fill:#bebdf9"/><path d="M45.27,50.75l.34,0h1.06l.34,0v0h0c0,.58,0,1.16,0,1.73h-.52l-.58,0a.29.29,0,0,1-.22-.08v-.32c0-.1,0-.2,0-.3a.16.16,0,0,0-.07-.15l-.36,0v-.81" style="fill:#261f4a"/><path d="M45.27,51.56l.36,0a.16.16,0,0,1,.07.15c0,.1,0,.2,0,.3a2,2,0,0,1-.48,0,1.2,1.2,0,0,0-.33,0h-.45v-.41h.84" style="fill:#f4c153"/><path d="M46.58,52.48H47c0,.14,0,.27,0,.41h-.39a.22.22,0,0,0,0-.08v-.33" style="fill:#716261"/><path d="M45.69,52.37a.29.29,0,0,0,.22.08l.57,0h-.6a.19.19,0,0,1-.19-.1" style="fill:#f4c153"/><path d="M47,52.46V50.73h2.1s0,0,0,.05v1.69H47" style="fill:#161336"/><path d="M47,49s0,0,0,0v1.61a4.38,4.38,0,0,1-1.24,0c-.1-.08,0-.22-.13-.33l-.31-.08a1,1,0,0,1,0-.42c0-.13,0-.25,0-.38a1,1,0,0,1,0-.34c.07-.08.17-.06.26-.06H47" style="fill:#fdd655"/><path d="M42.22,51.57c0-.19,0-.39,0-.58a.88.88,0,0,1,0-.17s0,0,0-.07a4.75,4.75,0,0,1,.77,0,2.26,2.26,0,0,1,0,.82.67.67,0,0,1-.19,0h-.68Z" style="fill:#feeb95"/><path d="M43.53,49.43h.3l.09,0c0,.09,0,.2.06.31a.67.67,0,0,0,.44,0,.77.77,0,0,1,0,.37s0,0-.06,0l-.55,0a1.38,1.38,0,0,1-.2,0,.88.88,0,0,1-.06-.42v-.37" style="fill:#fdd655"/><path d="M42.23,49.83h.88a.63.63,0,0,1,0,.36c-.2.08-.2.08-.86.06h0v-.42" style="fill:#fdd655"/><path d="M41.81,52.44v-.87h.41a4.38,4.38,0,0,1,0,.81.48.48,0,0,1-.4.06" style="fill:#feeb95"/><path d="M44.86,51.56h-.43a3.94,3.94,0,0,1,0-.77.56.56,0,0,1,.4,0v.81" style="fill:#bd9356"/><path d="M44.86,51.56v-.81h.41v.81h-.41" style="fill:#8b734d"/><path d="M53.09,58.43v-1.6l1.61,0,.06,0a.35.35,0,0,1,.06.26c0,.45,0,.9,0,1.34H53.38a.39.39,0,0,1-.29-.07" style="fill:#161336"/><path d="M37.93,52.54a.14.14,0,0,1,0-.07s0,0,0,.05v0" style="fill:#f4c153"/><path d="M43.53,46.78a.32.32,0,0,0,.23.06h.65c.05.41-.06.42-.38.42s-.42,0-.63,0l-.24,0c-.09.25,0,.52-.07.73a.25.25,0,0,1-.22.07h-.79c-.21,0-.41,0-.63,0l-.08.33a.57.57,0,0,1-.35.07H39.6a.53.53,0,0,0-.32.05,1.34,1.34,0,0,0-.09.46c0,.06,0,.13,0,.2a.15.15,0,0,1-.12.11.3.3,0,0,1-.24,0c-.08-.09-.05-.21-.06-.33s0-.23,0-.33a2,2,0,0,0-.71-.12l-1.45,0a.53.53,0,0,1-.32-.05c0-.1,0-.21-.07-.32a.82.82,0,0,0-.38,0c0-.19,0-.39,0-.59a1.66,1.66,0,0,0,0-.22.78.78,0,0,0-.42-.07.91.91,0,0,1-.39,0c0-.11,0-.21-.07-.33-.23-.09-.48,0-.74-.09,0-.06,0-.12-.05-.18s0-.26,0-.38A.86.86,0,0,0,34,46l-.35-.07a4.19,4.19,0,0,1-.09-.7c0-.25,0-.5,0-.76l0-.17c-.25-.11-.52,0-.73-.08a.31.31,0,0,1-.07-.25c0-.27,0-.53,0-.8a1.77,1.77,0,0,0,0-.21l-.37-.06a.44.44,0,0,1-.06-.31c0-.47,0-1,0-1.42a.53.53,0,0,0-.06-.36.84.84,0,0,0-.18,0l-.76,0-.16,0c-.08-.14-.08-.14,0-.34l.31-.06a.43.43,0,0,0,.05-.16,1.23,1.23,0,0,0,0-.27,6.48,6.48,0,0,0,.76-.06.61.61,0,0,0,.05-.37l.38,0h4a1.18,1.18,0,0,1,.38,0,.29.29,0,0,1,.08.25v1a.73.73,0,0,0,0,.33.25.25,0,0,0,.22.08H39c.15,0,.21.07.22.22v1.52a.78.78,0,0,0,.05.36,1,1,0,0,0,.18,0h1.9c0,.15,0,.29,0,.44s0,.57,0,.86v.24a.61.61,0,0,0,.07.17h1.21c.46,0,.46,0,.46.47v1a1.6,1.6,0,0,0,0,.23.64.64,0,0,0,.38.05M32.67,40.72a.4.4,0,0,0,0-.32c0-.09-.11-.14-.24-.13a.16.16,0,0,0-.16.15.33.33,0,0,0,.05.29.39.39,0,0,0,.32,0" style="fill:#fff"/><path d="M42.23,49.83v.42a.87.87,0,0,1-.36,0,1.46,1.46,0,0,1,0-.75.37.37,0,0,1,.34,0,.85.85,0,0,1,0,.38" style="fill:#fdae36"/><path d="M31.4,38.59c0-.57,0-1.13,0-1.7h.41c0,.12,0,.23,0,.34v1.41c0,.13,0,.25,0,.38h-.31l-.1,0,0-.37" style="fill:#9694f8"/><path d="M31.41,34.67V33.18a1,1,0,0,1,0-.12.59.59,0,0,1,.14-.06h.24v1.48a.6.6,0,0,1,0,.12.67.67,0,0,1-.15.06h-.24" style="fill:#615ee8"/><path d="M22.34,35.55h.4a1.92,1.92,0,0,1,0,.24.44.44,0,0,1,0,.15,3.9,3.9,0,0,1-.76,0h0l0-.32.06-.08.35,0" style="fill:#bd9356"/><path d="M21.92,35.65c0,.1,0,.21,0,.32l-.41,0c0-.15,0-.29,0-.43h.46a.28.28,0,0,1,0,.09" style="fill:#716261"/><path d="M21.92,35.65a.28.28,0,0,0,0-.09H22l-.07.08" style="fill:#8b734d"/><path d="M21.93,36a3.9,3.9,0,0,0,.76,0,.44.44,0,0,0,0-.15,1.92,1.92,0,0,0,0-.24v-.41a8.44,8.44,0,0,1,1.33,0v.41c0,.33,0,.65,0,1,0,.11,0,.22,0,.33h-.59a.61.61,0,0,0-.18,0,.64.64,0,0,0,0,.36H21.91c0-.34,0-.68,0-1,0-.1,0-.2,0-.3" style="fill:#f4c153"/><path d="M21.91,37.29h.84v.84h-.84v-.84" style="fill:#fdd655"/><path d="M21.91,38.13h.84v.48H21.9c0-.17,0-.33,0-.49" style="fill:#feeb95"/><path d="M21.91,38.61h.83v.83h-.86c0-.12,0-.24,0-.36s0-.31,0-.47" style="fill:#bd9356"/><path d="M21.92,39.44h.83c0,.14,0,.28,0,.42h-.83v-.42" style="fill:#fdd655"/><path d="M29.68,29.05H27.94V27.63a.35.35,0,0,1,.06-.26s0,0,.06,0l1.61,0v1.73Z" style="fill:#c4c3fd"/><path d="M29.67,27.32l-1.61,0s0,0-.06,0a.35.35,0,0,0-.06.26V29a.64.64,0,0,1-.38-.05,1.81,1.81,0,0,1,0-.23,9,9,0,0,1,0-1.81.54.54,0,0,1,.15,0h1.76l.12,0a.53.53,0,0,1,.05.15,1.93,1.93,0,0,1,0,.24" style="fill:#bebdf9"/><path d="M39.65,40.77c0-.58,0-1.16,0-1.75H41.8c0,.57,0,1.15,0,1.72l0,0H40.38a.34.34,0,0,0-.27.06s0,0,0,.08v2h-.41c0-.06,0-.11,0-.17v-2" style="fill:#615ee8"/><path d="M39.66,42.9H41.8c0,.12,0,.25,0,.38v1.34h-.43c0-.29,0-.57,0-.86s0-.29,0-.44a.39.39,0,0,0,0-.3.31.31,0,0,0-.26-.07H39.92a.35.35,0,0,1-.26-.07" style="fill:#9694f8"/><path d="M31.4,38.59l0,.37a.15.15,0,0,0,0,.07v.41H31V38.6h.4" style="fill:#feeb95"/><path d="M32.24,39.46a.61.61,0,0,1-.05.37,6.48,6.48,0,0,1-.76.06l0,0c0-.13,0-.26,0-.4h0l.83,0" style="fill:#feeb95"/><path d="M31.42,39a.15.15,0,0,1,0-.07l.1,0-.11,0" style="fill:#7c79f7"/><path d="M41.81,39h-.42V36.88l.35,0,.06,0V39" style="fill:#9694f8"/><path d="M50.05,38.14a.86.86,0,0,0,0,.35,2.54,2.54,0,0,0,.78.12c0,.27,0,.55,0,.82h0l-.43,0H48.74a6,6,0,0,1,0-.85c.27-.1.55,0,.79-.08s.09-.32.06-1.23H50l0,.85" style="fill:#fdae36"/><path d="M50.06,40.74l-.44,0H48.33c.1-.09.24,0,.35-.1s0-.21.07-.32h.67a.27.27,0,0,0,.21-.07c.13,0,.27,0,.4.08l0,.39" style="fill:#fdd655"/><path d="M47.89,34.24h.43c0,.29,0,.57,0,.86a.38.38,0,0,1-.4-.09l0-.16s0-.09,0-.12-.23-.06-.34-.13,0-.23,0-.35l.4,0" style="fill:#fdd655"/><path d="M48.74,39.86a1.36,1.36,0,0,0,.87,0l0,.42a.27.27,0,0,1-.21.07h-.67v-.47" style="fill:#bd9356"/><path d="M47,33c0,.29,0,.57,0,.86l-.4,0a3.93,3.93,0,0,1,0-.84.61.61,0,0,1,.4,0" style="fill:#f4c153"/><path d="M47.89,32.92h-.45c0-.11,0-.22,0-.33a.29.29,0,0,1,.18-.07h.22a.52.52,0,0,1,.06.4" style="fill:#29224c"/><path d="M46.59,33.83l.4,0s0,0,0,0v.4a.81.81,0,0,1-.38,0,.72.72,0,0,1,0-.41" style="fill:#716261"/><path d="M47,34.24v-.4h.41l0,.41a1.09,1.09,0,0,1-.44,0" style="fill:#261f4a"/><path d="M41.81,40.75V39h1.73v1.71H41.81" style="fill:#7774f9"/><path d="M41.8,36.88l-.06,0,.06,0" style="fill:#bebdf9"/><path d="M41,27.32v.41h-.24c-.16,0-.2.05-.24.2l-.06.2-.35,0v0c0-.25,0-.5,0-.76a1.08,1.08,0,0,1,.2-.06c.23,0,.46,0,.69,0" style="fill:#f4c153"/><path d="M40.06,28.62h-.71l-.1,0a.74.74,0,0,1,0-.36l0-.09h.83v0l0,.46" style="fill:#f4c153"/><path d="M40.06,28.62l0-.46.35,0,.06-.2c0-.15.08-.19.24-.2H41a1,1,0,0,1,0,.35c-.11.11-.28,0-.38.14a1.15,1.15,0,0,0-.06.17c0,.08,0,.15,0,.23h-.42" style="fill:#bd9356"/><path d="M40.48,28.62c0-.08,0-.15,0-.23a1.15,1.15,0,0,1,.06-.17H41a.81.81,0,0,1-.05.37,1,1,0,0,1-.43,0" style="fill:#716261"/><path d="M49.52,36a.46.46,0,0,1,0,.13c0,.2,0,.25-.22.26h-.41c-.15,0-.2-.07-.19-.23V36.1c0-.06.06-.11.12-.11a1.85,1.85,0,0,1,.66,0" style="fill:#feeb95"/><path d="M50.12,36.41l-.06.05.06-.05" style="fill:#fdae36"/><path d="M46.57,30.76l.42,0a4.73,4.73,0,0,1,0,.84l-.16.05a1.81,1.81,0,0,1-.23,0s0,0,0,0c0-.29,0-.58,0-.87,0,0,0,0,0,0" style="fill:#bd9356"/><path d="M46.58,29.47H47c0,.14,0,.28,0,.42a.68.68,0,0,1-.42.05v-.47" style="fill:#fdd655"/><path d="M47,29.89v-.42h.4a.68.68,0,0,1,0,.37c-.11.09-.25,0-.37.06" style="fill:#feeb95"/><path d="M48.72,40.76h.9v.82h-.54a.61.61,0,0,0-.33.06c0-.17,0-.34,0-.52s0-.25,0-.38" style="fill:#bd9356"/><path d="M48.75,41.66a.61.61,0,0,1,.33-.06h.54c0,.21,0,.41,0,.62a.32.32,0,0,1-.08.22l-.8,0v-.75" style="fill:#fdd655"/><path d="M48.75,42.41l.8,0a.13.13,0,0,1,0,.06h-.72a.08.08,0,0,1-.09-.08" style="fill:#bd9356"/><path d="M49.63,40.27l0-.42v-.33l0-.07h.81c0,.12,0,.25,0,.36a.79.79,0,0,0,.37,0c0,.3,0,.59,0,.89l-.82,0,0-.39c-.13-.11-.27-.07-.4-.08" style="fill:#feeb95"/><path d="M51.78,41.59h-.9v-.83a4.76,4.76,0,0,1,.84,0,.59.59,0,0,1,.05.19c0,.21,0,.41,0,.62" style="fill:#feeb95"/><path d="M50.87,39.87a.74.74,0,0,1-.36,0c-.08-.11,0-.24-.06-.36l.43,0c0,.14,0,.29,0,.43" style="fill:#fdd655"/><path d="M50.47,41.61v.88h-.42a5.72,5.72,0,0,1,0-.83.52.52,0,0,1,.4,0" style="fill:#fdd655"/><path d="M46.56,30.79c0,.29,0,.58,0,.87a4.61,4.61,0,0,1-.83,0,2.49,2.49,0,0,1,0-.86h.83" style="fill:#2e2952"/><path d="M47.42,29.47H47v-.83h.42v.84" style="fill:#fdae36"/><path d="M46.58,28.63v.84h-.89v-.82h.89" style="fill:#feeb95"/><path d="M51.34,52.47H49.89c-.09,0-.19,0-.26-.06h1.42c.09,0,.19,0,.27-.06a.51.51,0,0,0,0-.3V50.65c0-.12,0-.25,0-.38l0,0h1.76l.37,0c0,.14,0,.27,0,.41,0,.59,0,1.19,0,1.78H51.34" style="fill:#615ee8"/><path d="M44,46.36h-.4v-.44c0-.42,0-.84,0-1.26V42.91h2.14c0,.37,0,.75,0,1.13,0,.19,0,.39,0,.58H44.26a.33.33,0,0,0-.3.1c0,.51,0,1.07,0,1.62" style="fill:#615ee8"/><path d="M41.81,40.75h1.72c0,.58,0,1.15,0,1.72v.42H41.8c0-.71,0-1.43,0-2.14Z" style="fill:#615ee8"/><path d="M49.61,46.39c0,.13,0,.25,0,.38v1.75l0,0h-2.2V46.36H49.2l.41,0" style="fill:#615ee8"/><path d="M45.69,44.63h1.72c0,.41,0,.82,0,1.23v.5H45.68V44.64Z" style="fill:#615ee8"/><path d="M51.34,48.54c0,.13,0,.25,0,.38v1.33l0,0H49.63V49.12c0-.19,0-.38,0-.58l0,0H51l.37,0" style="fill:#615ee8"/><path d="M51.34,52.47h2.17c0,.52,0,1,0,1.56a.65.65,0,0,1,0,.11.64.64,0,0,1-.18.06H51.36c0-.15,0-.31,0-.47,0-.42,0-.84,0-1.26" style="fill:#3835c1"/><path d="M31,38.6a.79.79,0,0,1-.4-.05c0-.12,0-.24-.06-.38a4.07,4.07,0,0,0-.85,0,1.4,1.4,0,0,0-.5,0h-.83V37.3h2.39a1.08,1.08,0,0,1,.19,0c.08.23.09.32.06,1.28" style="fill:#feeb95"/><path d="M28.36,37.3v.82H28c0-.27,0-.55,0-.82h.42" style="fill:#fdd655"/><path d="M29.19,38.13a1.4,1.4,0,0,1,.5,0,.14.14,0,0,1,0,.06.78.78,0,0,0-.37,0c-.07.12,0,.26-.05.39l-.86,0h0s0,0,0-.06a1.59,1.59,0,0,0,.43-.06c0-.09.07-.18.09-.26l.3-.11" style="fill:#bd9356"/><path d="M31.39,39.45c0,.14,0,.27,0,.4H31v-.42h.39" style="fill:#fdd655"/><path d="M23.24,37.29a.64.64,0,0,1,0-.36.61.61,0,0,1,.18,0H24v.43h-.8" style="fill:#fdae36"/><path d="M22.74,39.44v-.83h.41a4.17,4.17,0,0,1,0,.79.77.77,0,0,1-.42,0" style="fill:#feeb95"/><path d="M28.37,38.56s0,0,0,.06H28v-.49h.41v.44" style="fill:#fdae36"/><path d="M22.75,38.13v-.84h.41v.83h-.41" style="fill:#feeb95"/><path d="M49.61,48.54c0,.2,0,.39,0,.58v1.14H47.76l-.28,0a.78.78,0,0,1,0-.21c0-.38,0-.76,0-1.14,0-.13,0-.25,0-.38h2.2" style="fill:#3835c1"/><path d="M49.62,50.25h1.72c0,.13,0,.26,0,.38V52a.51.51,0,0,1,0,.3c-.08.08-.18.06-.27.06H49.63s0,0,0-.07V50.25" style="fill:#3835c1"/><path d="M45.68,46.37h1.73v2.15a12.2,12.2,0,0,1-1.66,0,.42.42,0,0,1,0-.27V46.75c0-.12,0-.25,0-.38" style="fill:#3835c1"/><path d="M45.68,44.64v1.74H44.3l-.35,0c0-.55,0-1.11,0-1.62a.33.33,0,0,1,.3-.1h1.42" style="fill:#3835c1"/><path d="M43.53,44.65c0,.42,0,.84,0,1.26v.44l0,.43a.64.64,0,0,1-.38-.05,1.6,1.6,0,0,1,0-.23v-1c0-.43,0-.47-.46-.47H41.45a.61.61,0,0,1-.07-.17v-.24h.43l.38,0h1.34" style="fill:#c4c3fd"/><path d="M32.67,40.72a.39.39,0,0,1-.32,0,.33.33,0,0,1-.05-.29.16.16,0,0,1,.16-.15c.13,0,.22,0,.24.13a.4.4,0,0,1,0,.32" style="fill:#feeb95"/><path d="M41.79,40.77c0,.71,0,1.43,0,2.14H40.07v-2s0-.06,0-.08a.34.34,0,0,1,.27-.06h1.41" style="fill:#3835c1"/><path d="M43.53,44.65H42.19l-.38,0V43.29c0-.13,0-.26,0-.38h1.73v1.74" style="fill:#3835c1"/><path d="M49.64,39.45l0,.07,0-.06h.08" style="fill:#bd9356"/><path d="M28.37,38.56v-.44l.83,0-.3.1c0,.08-.06.17-.09.26a1.59,1.59,0,0,1-.43.06" style="fill:#fdd655"/></g></g></g></svg>