<svg id="Layer_1" data-name="Layer 1" xmlns="http://www.w3.org/2000/svg" xmlns:xlink="http://www.w3.org/1999/xlink" viewBox="0 0 91 91"><defs><linearGradient id="linear-gradient" x1="-249.53" y1="-523.94" x2="-249.53" y2="-588.37" gradientTransform="translate(295.03 598.91)" gradientUnits="userSpaceOnUse"><stop offset="0" stop-color="#05aac5"/><stop offset="1" stop-color="#71e0ec"/></linearGradient><linearGradient id="linear-gradient-2" x1="-249.5" y1="-515.92" x2="-249.5" y2="-593.59" xlink:href="#linear-gradient"/><linearGradient id="linear-gradient-3" x1="-249.53" y1="-507.91" x2="-249.53" y2="-598.91" xlink:href="#linear-gradient"/></defs><path d="M45.5,75a25,25,0,0,1-25-25c0-13.43,22.66-37.15,23.62-38.15l1.19-1.25,1.21,1.22c1,1,24,24.71,24,38.15A25,25,0,0,1,45.5,75Zm-.19-59.59c-2,2.15-6.16,6.8-10.29,12.25C27.68,37.31,23.8,45,23.8,49.91a21.7,21.7,0,0,0,43.4,0c0-4.91-3.94-12.6-11.41-22.28C51.59,22.21,47.33,17.53,45.31,15.38Z" style="fill:url(#linear-gradient)"/><path d="M45.5,83a33.09,33.09,0,0,1-33-33c0-17.82,24.88-42.7,25.93-43.73a1.68,1.68,0,0,1,2.38,2.38c-.26.25-24.94,24.94-24.94,41.35a29.72,29.72,0,0,0,59.43,0c0-6.73-4.36-16-12.63-27A158.86,158.86,0,0,0,49.83,8.2a1.63,1.63,0,0,1,0-2.37,1.65,1.65,0,0,1,2.37,0c1.09,1.06,26.41,26.25,26.41,44.11A33.18,33.18,0,0,1,45.5,83Z" style="fill:url(#linear-gradient-2)"/><path d="M45.5,91A40.28,40.28,0,0,1,5.27,50.77c0-9.17,4.62-20.45,13.69-33.5A149.36,149.36,0,0,1,32.52.51a1.68,1.68,0,0,1,2.4,2.34A150.18,150.18,0,0,0,21.68,19.23C13.12,31.51,8.6,42.4,8.6,50.77a36.9,36.9,0,0,0,73.8,0c0-8.37-4.56-19.26-13.18-31.54A148.67,148.67,0,0,0,55.85,2.85,1.68,1.68,0,0,1,58.26.51C59.38,1.66,85.73,29,85.73,50.77A40.28,40.28,0,0,1,45.5,91Z" style="fill:url(#linear-gradient-3)"/></svg>