<svg id="Layer_1" data-name="Layer 1" xmlns="http://www.w3.org/2000/svg" viewBox="0 0 91 91"><path d="M45.51,0A45.47,45.47,0,1,0,91,45.53,45.47,45.47,0,0,0,45.51,0Z" style="fill:#e0e0e0"/><path d="M42.33,76.61a31.29,31.29,0,0,1-27.94-28A50.58,50.58,0,0,1,42.33,76.61Z"/><path d="M14.39,42.33A31.27,31.27,0,0,1,42.33,14.39,50.44,50.44,0,0,1,14.39,42.33Z"/><path d="M76.61,48.64a31.31,31.31,0,0,1-28,28A50.72,50.72,0,0,1,76.61,48.64Z"/><path d="M48.64,14.39a31.29,31.29,0,0,1,28,27.94A50.58,50.58,0,0,1,48.64,14.39Z"/><path d="M60.06,43a2.87,2.87,0,0,1,0,5.08A30.23,30.23,0,0,0,53.2,53.2,31.11,31.11,0,0,0,48,60.07a2.88,2.88,0,0,1-5.08,0,30.81,30.81,0,0,0-12-12,2.88,2.88,0,0,1,0-5.08,30.23,30.23,0,0,0,6.86-5.17A30.06,30.06,0,0,0,43,30.91a2.88,2.88,0,0,1,5.08,0,30.65,30.65,0,0,0,5.17,6.87A30.23,30.23,0,0,0,60.06,43Z"/></svg>