<svg id="Layer_1" data-name="Layer 1" xmlns="http://www.w3.org/2000/svg" viewBox="0 0 91 91"><path d="M13,61.88a2.49,2.49,0,1,0,2.48,2.49h0a2.72,2.72,0,0,0-.32-1.24A2.53,2.53,0,0,0,13,61.88M48.13,7.75a2.49,2.49,0,1,0-2.49,2.48,2.48,2.48,0,0,0,2.49-2.48M78.47,29.34A2.49,2.49,0,1,0,76,26.85h0a2.4,2.4,0,0,0,.32,1.2,2.49,2.49,0,0,0,2.16,1.29M14.14,24.56a2.47,2.47,0,1,0,.92,3.37,2.45,2.45,0,0,0-.92-3.37M79.48,62.37A2.6,2.6,0,0,0,78.23,62a2.49,2.49,0,0,0-.07,5h.07a2.6,2.6,0,0,0,2.17-1.24,2.46,2.46,0,0,0-.92-3.37M43.16,83.11a2.52,2.52,0,0,0,1.6,2.61,2.47,2.47,0,0,0,3.33-2A2.47,2.47,0,0,0,43.2,83a.09.09,0,0,0,0,.08" style="fill:#2683ff"/><path d="M81.92,57.79a6,6,0,0,0-.92-.44V34.11c.36-.12.72-.32,1.08-.48a7.76,7.76,0,1,0-7.54-13.56,6.58,6.58,0,0,0-.88.56L53.19,8.79a9.1,9.1,0,0,0,.08-1A7.75,7.75,0,0,0,45.52,0,7.88,7.88,0,0,0,37.7,7.79a9.1,9.1,0,0,0,.08,1L17.47,20.59A7.76,7.76,0,1,0,7.9,32.8l.14.11c.28.2.56.4.88.6A5,5,0,0,0,10,34v23.2a7.74,7.74,0,1,0,6.78,13.88c.32-.2.64-.4,1-.64L37.82,82a7.74,7.74,0,0,0,15.29,2.45,6.94,6.94,0,0,0,.08-1.29,10.54,10.54,0,0,0-.08-1.12l20-11.52a12,12,0,0,0,1,.69,7.76,7.76,0,0,0,10.55-3,7.86,7.86,0,0,0-2.73-10.48Zm1.41,9.71a5.92,5.92,0,0,1-10.88-4.33l-9.39-5.5A10.47,10.47,0,0,1,51.7,60a30,30,0,0,1-4.41.72V77.29A6.22,6.22,0,1,1,43.6,89.17s-.08,0-.12,0a4.33,4.33,0,0,1-.76-.32A6.2,6.2,0,0,1,40,80.47a6.35,6.35,0,0,1,3.73-3.18V60.44a28.24,28.24,0,0,1-3.45-1.33A12.48,12.48,0,0,1,30,56.59L18.76,63.05a6,6,0,1,1-1.73-3L27.51,54a12.56,12.56,0,0,1,1.36-16.14L17,31.06a5.92,5.92,0,0,1-8.09-8.64l0,0a5.92,5.92,0,0,1,9.8,5.66l13.2,7.59a12.52,12.52,0,0,1,5.62-1.49c1.84-1.52,6.58-3.09,6.58-3.09V13a5.45,5.45,0,1,1,3.21,0v17.7s8.67,2.17,11.4,5.42l14-8a6,6,0,1,1,1.73,3L60.57,39a15.23,15.23,0,0,1,1,2.57,10.47,10.47,0,0,1,3.53,13.24l9.19,5.34a5.88,5.88,0,0,1,9,7.34Z" style="fill:#2683ff"/><path d="M57.44,44.71c0-.32-.08-.6-.12-.93a5,5,0,0,0-.16-.64c0-.08,0-.16,0-.24-.08-.24-.16-.52-.24-.76v0a10.52,10.52,0,0,0-2.29-3.61c-.24-.24-.44-.44-.72-.69l0,0a5.32,5.32,0,0,0-.76-.56l0,0a8,8,0,0,0-.76-.48l0,0a7.61,7.61,0,0,0-.81-.4l-.08,0c-.28-.12-.56-.24-.88-.36l0,0a7.79,7.79,0,0,0-.92-.24h0a6.33,6.33,0,0,0-1-.16h0a9.78,9.78,0,0,0-5.05.6l-.2.16a8.7,8.7,0,0,0-.89.4,1.87,1.87,0,0,1-.4.2,2.69,2.69,0,0,0-.44.28l-.56.4-.12.08a8.56,8.56,0,0,0-.68.57l-.2.2a8.16,8.16,0,0,0-.65.68,8.66,8.66,0,0,0-1.44-.12,1.23,1.23,0,0,0-.4,0,7.93,7.93,0,0,0-5,2.09,8.05,8.05,0,0,0-1.68,2.16l-.05.08a6.73,6.73,0,0,0-.32.73c0,.08,0,.12-.08.2a4.75,4.75,0,0,0-.2.64c0,.08,0,.2-.08.28s-.08.4-.12.64c0,.08,0,.16,0,.28,0,.31,0,.62,0,.93a6.45,6.45,0,0,0,0,.76c0,.08,0,.16,0,.28s0,.32.08.48,0,.2.08.32a1.17,1.17,0,0,1,.08.36,1.27,1.27,0,0,0,.12.36l.12.29a2.78,2.78,0,0,1,.16.4c0,.08.08.12.08.2a7.17,7.17,0,0,0,2.73,3.21,8.92,8.92,0,0,0,1.85.88,5,5,0,0,0,.76.2l.08,0,.73.12.16,0a6.19,6.19,0,0,0,.88,0,7.38,7.38,0,0,0,3.09-.64l.68.48.08,0c.2.12.44.24.68.36h0a10.4,10.4,0,0,0,7.43.77h0a4.3,4.3,0,0,0,1-.37L52,55.06a5.89,5.89,0,0,0,3.62,1.25c.28,0,.52,0,.8,0l.2,0c.26,0,.51-.1.76-.16a6.46,6.46,0,0,0,.73-.28l.12,0c.24-.13.44-.25.68-.37a5.82,5.82,0,0,0,2.21-2.69,5.53,5.53,0,0,0,.32-1.08v-.12c0-.16,0-.32.08-.48s0-.4,0-.6a5.89,5.89,0,0,0-4.1-5.7" style="fill:#2683ff"/></svg>