<svg id="Layer_1" data-name="Layer 1" xmlns="http://www.w3.org/2000/svg" xmlns:xlink="http://www.w3.org/1999/xlink" viewBox="0 0 91 91"><defs><linearGradient id="linear-gradient" x1="-561.23" y1="-340.99" x2="-507.31" y2="-377.84" gradientTransform="matrix(0.83, 0.56, 0.56, -0.83, 681.88, 29.79)" gradientUnits="userSpaceOnUse"><stop offset="0.18" stop-color="#2dade4"/><stop offset="0.42" stop-color="#708fce"/><stop offset="0.7" stop-color="#ba6eb5"/><stop offset="0.9" stop-color="#e85aa6"/><stop offset="1" stop-color="#fa52a0"/></linearGradient><linearGradient id="linear-gradient-2" x1="-544.61" y1="-355.95" x2="-484.93" y2="-356.85" gradientTransform="matrix(0, 1, 1, 0, 410.14, 550.56)" gradientUnits="userSpaceOnUse"><stop offset="0" stop-color="#2dade4"/><stop offset="0.01" stop-color="#31abe3"/><stop offset="0.15" stop-color="#6694d1"/><stop offset="0.3" stop-color="#9380c2"/><stop offset="0.44" stop-color="#b86fb6"/><stop offset="0.58" stop-color="#d562ac"/><stop offset="0.72" stop-color="#ea59a5"/><stop offset="0.86" stop-color="#f654a1"/><stop offset="1" stop-color="#fa52a0"/></linearGradient></defs><g id="Layer_3" data-name="Layer 3"><path d="M26,74.17a93.1,93.1,0,0,1-10.25-8C2.5,54.17-3,41.86,1.74,34.91L19.56,8.68C25.5-.06,45.48,3.52,65,16.82,76.94,24.9,86,34.91,89.48,43.61c2,5,1.94,9.39-.2,12.53L71.46,82.32C65.51,91.06,45.54,87.48,26,74.17Z" style="fill:#fff"/><path d="M19.38,64.49c3-1,4.21-2.78,7.37-5.84,4-3.87,7-6.75,10.67-6.37a7,7,0,0,1,2.06.57c3.5,1.42,4.31,4.08,7.37,7.79,2.4,2.92,4.23,5.13,7.3,6.07a11.55,11.55,0,0,0,7.54-.46c3.23-1.31,4.6-3.57,7.77-7.94,9-12.37,12-13.52,13.15-13.89a11.43,11.43,0,0,1,5.45-.25c-3.2-8.08-11.9-17.92-23.89-26.08C45.61,5.46,26.2,1.63,20.82,9.54L3,35.72C-1.32,42.06,4.68,54,16.76,65A11.68,11.68,0,0,0,19.38,64.49Z" style="fill:url(#linear-gradient)"/><path d="M88.06,44.17a11.43,11.43,0,0,0-5.45.25c-1.19.37-4.18,1.52-13.15,13.89-3.17,4.37-4.54,6.63-7.77,7.94a11.55,11.55,0,0,1-7.54.46c-3.07-.94-4.9-3.15-7.3-6.07-3.06-3.71-3.87-6.37-7.37-7.79a7,7,0,0,0-2.06-.57c-3.62-.38-6.67,2.5-10.67,6.37-3.16,3.06-4.33,4.87-7.37,5.84a11.13,11.13,0,0,1-2.62.5,92.76,92.76,0,0,0,10.09,7.92c18.56,12.63,38,16.46,43.35,8.55L88,55.28C89.94,52.48,89.82,48.59,88.06,44.17Z" style="fill:#0e0f23"/><ellipse cx="53.78" cy="33.36" rx="16.18" ry="37.96" transform="translate(-4.06 59.05) rotate(-55.76)" style="fill:#fff"/><ellipse cx="53.78" cy="33.36" rx="7.28" ry="18.94" transform="translate(-4.06 59.05) rotate(-55.76)" style="fill:url(#linear-gradient-2)"/><path d="M18.32,20.93a.56.56,0,0,1-.23-.36c-.16-.75-.28-1.52-.38-2.28a.57.57,0,1,1,1.14-.14c.09.73.21,1.47.36,2.19a.59.59,0,0,1-.45.68A.58.58,0,0,1,18.32,20.93Z" style="fill:#fff"/><path d="M37.94,46.94h0C30.5,41.19,21.12,32.38,18.72,23.07a.58.58,0,0,1,.42-.7.57.57,0,0,1,.69.41c2.32,9,11.51,17.61,18.81,23.26a.57.57,0,0,1,.11.8h0A.58.58,0,0,1,37.94,46.94Z" style="fill:#fff"/><path d="M69.83,62a.56.56,0,0,1,0-.8.55.55,0,0,1,.43-.2,41.14,41.14,0,0,0,4.83.26A39.64,39.64,0,0,0,79.11,61a.57.57,0,0,1,.63.5h0a.59.59,0,0,1-.51.63c-1.39.14-2.8.22-4.19.23a46.39,46.39,0,0,1-5-.27A.6.6,0,0,1,69.83,62Z" style="fill:#fff"/><path d="M64.94,61a.57.57,0,0,1-.11-.8.57.57,0,0,1,.62-.2,12.47,12.47,0,0,0,1.55.46c.3.07.61.14.92.19a.57.57,0,1,1-.2,1.13l-1-.2a16.86,16.86,0,0,1-1.67-.51Z" style="fill:#fff"/></g></svg>