<svg id="Layer_1" data-name="Layer 1" xmlns="http://www.w3.org/2000/svg" xmlns:xlink="http://www.w3.org/1999/xlink" viewBox="0 0 91 91"><defs><linearGradient id="linear-gradient" x1="-2932.32" y1="20477.7" x2="-1893.11" y2="19766.67" gradientTransform="matrix(0.07, 0, 0, -0.07, 211.84, 1452.31)" gradientUnits="userSpaceOnUse"><stop offset="0" stop-color="#ff3b3b"/><stop offset="1" stop-color="#ff9914"/></linearGradient></defs><g id="Layer_2" data-name="Layer 2"><g id="Layer_1-2" data-name="Layer 1-2"><g id="Layer_1-3" data-name="Layer 1-3"><circle cx="45.5" cy="45.5" r="45.33" style="fill:url(#linear-gradient)"/><path d="M43.86,15.83a11.49,11.49,0,0,0-6.93,3.4c-1.39,1.37-2.7,2.78-4.11,4.17-.71.73-1.42,1.43-2.13,2.14s-1.5,1.47-2.24,2.22-1.35,1.41-2,2.1L23.2,33.08c-.82.85-1.62,1.73-2.43,2.57-.48.51-1,1-1.44,1.51a12.7,12.7,0,0,0-2.88,8.05v.52a10.55,10.55,0,0,0,1.29,4.82,18.71,18.71,0,0,0,1.59,2.55c.4.56.69.55,1.21.12a3.57,3.57,0,0,0,.28-.27c.52-.55,1-1.09,1.55-1.63L24.61,49l2.32-2.47c.37-.39.77-.76,1.14-1.15.79-.84,1.57-1.7,2.36-2.53s1.6-1.61,2.37-2.42l2.61-2.71c.87-.9,1.61-1.66,2.43-2.49,1-1.09,2.08-2.21,3.13-3.3.65-.67,1.31-1.31,2-2,.9-.9,1.74-1.8,2.63-2.7s1.54-1.51,2.3-2.28L53,19.78c.11-.11.21-.22.31-.34.41-.53.45-.64-.06-1a17.11,17.11,0,0,0-2.51-1.63,11.84,11.84,0,0,0-5-1.11h-.09a14.06,14.06,0,0,0-1.72.11h0ZM58.79,26.16h-.11c-1.5,1.47-2.92,2.13-3.89,3.27a1.72,1.72,0,0,1-.27.27l-2.76,2.71-2.82,2.83-2.35,2.34c-.77.79-1.6,1.66-2.44,2.48l-2.6,2.53-3.08,3.1-5.71,5.72L25.19,59c-.49.48-.5.55,0,1.06,1.2,1.22,2.43,2.43,3.6,3.67a4.9,4.9,0,0,0,2.73,1.45,6.48,6.48,0,0,0,3-.1,4.51,4.51,0,0,0,1.94-1l3-2.89c.7-.68,1.42-1.34,2.11-2,1.39-1.38,2.76-2.76,4.15-4.13C46.85,54,48,52.85,49.15,51.74l4.69-4.57,4.41-4.32a1,1,0,0,1,1.34-.26.93.93,0,0,1,.37.46,6.59,6.59,0,0,1,1.15,3.72q0,.34,0,.69A6.19,6.19,0,0,1,59.47,51c-1.09,1.17-2.24,2.27-3.36,3.39-.81.79-1.63,1.57-2.43,2.37l-3.1,3.1c-.15.17-.29.35-.45.52l-1,1c-.77.77-1.55,1.51-2.3,2.27l-2.41,2.5c-.07.08-.15.14-.22.21-.91.84-1.74,1.68-2.6,2.52-.4.4-.79.81-1.19,1.2-.68.7-1.38,1.38-2,2.09-.41.42-.41.68.07,1A17.61,17.61,0,0,0,41,74.81a12.57,12.57,0,0,0,7,1,11.45,11.45,0,0,0,6.32-2.87c1.33-1.18,2.52-2.49,3.77-3.76.9-.9,1.8-1.86,2.76-2.79l2.61-2.63,2.38-2.4c.81-.79,1.81-1.74,2.71-2.63s1.8-1.8,2.71-2.76a21.39,21.39,0,0,0,2-2.35,13.16,13.16,0,0,0,2.05-8.7,12.85,12.85,0,0,0-1.9-5A14.37,14.37,0,0,0,70.75,37c-2.5-2.48-5-5-7.43-7.51a5.42,5.42,0,0,0-4.23-1.83h-.27Z" style="fill:#fff;fill-rule:evenodd"/></g></g></g></svg>