<svg id="Layer_1" data-name="Layer 1" xmlns="http://www.w3.org/2000/svg" viewBox="0 0 91 91"><path d="M45.51,0A45.47,45.47,0,1,0,91,45.53,45.47,45.47,0,0,0,45.51,0Z"/><path d="M53.3,53.18c-.06.4-.11.68-.15,1a7.55,7.55,0,0,1-3.39,5.38,7.74,7.74,0,0,1-12-5.84c-.17-2.38,0-2.42-.07-30.41a8.06,8.06,0,0,0-.1-.89l-7.63,7.71c0,4.05,0,8.24,0,12.46v4.5a73.38,73.38,0,0,0,.18,7.57,14.57,14.57,0,0,0,9.35,12.66,14.72,14.72,0,0,0,15.52-2,15.06,15.06,0,0,0,6-12.06Z" style="fill:#fff"/><polygon points="53.35 45.66 29.89 45.66 37.71 37.91 61.11 37.91 53.35 45.66" style="fill:#00e8b5"/></svg>