<svg id="Layer_1" data-name="Layer 1" xmlns="http://www.w3.org/2000/svg" viewBox="0 0 91 91"><circle cx="45.5" cy="45.5" r="45.5" style="fill:#1b5aff"/><path d="M62.66,53.24a5.91,5.91,0,0,1,11.81,0,6,6,0,0,1-5.79,6A5.9,5.9,0,0,1,62.66,53.24Z" style="fill:#fff"/><path d="M17.68,28.94H29.13c.85,5.87-5.57,12.33-11.45,11.54Z" style="fill:#fff"/><path d="M51.07,40.55h0v-.08l0,.05Z" style="fill:#fff"/><path d="M73.41,28.86H61.33a6.1,6.1,0,0,0-5.54,3.41l-4.68,8.2v.08h0l-8,13.81H33.7v5.43c0,2.15,0,4.26,0,6.41H47.12a5.61,5.61,0,0,0,1.53-.29,5.93,5.93,0,0,0,3.09-2.71c1.4-2.33,2.69-4.73,4-7.09q3.59-6.26,7.2-12.48c.59-1,1.2-2.05,1.83-3.11h9.58V29A8.6,8.6,0,0,0,73.41,28.86Z" style="fill:#fff"/><path d="M49.94,28.86H38a5.75,5.75,0,0,0-3.67,1.33A10.07,10.07,0,0,0,32,33.32q-3.59,6.24-7.17,12.5c-2.07,3.6-4.15,7.2-6.21,10.8-.71,1.23-1.39,2.48-2.13,3.81l10.09,5.89,6.9-12,8-13.81h9.59v0l0-.05V29A11,11,0,0,0,49.94,28.86Z" style="fill:#fff"/></svg>