<svg id="Layer_1" data-name="Layer 1" xmlns="http://www.w3.org/2000/svg" viewBox="0 0 91 91"><path d="M45.54,0A45.48,45.48,0,1,0,91,45.51,45.47,45.47,0,0,0,45.54,0Z" style="fill:#e0e0e0"/><g id="tron"><path d="M70.73,40.09c-2.46-2.27-5.85-5.73-8.62-8.19L62,31.79a3.13,3.13,0,0,0-.91-.51h0c-6.67-1.24-37.73-7-38.34-7a1.12,1.12,0,0,0-.47.18l-.16.12a1.83,1.83,0,0,0-.43.69l0,.11v.67c3.5,9.74,17.3,41.63,20,49.12.16.51.47,1.47,1.06,1.52h.13c.31,0,1.64-1.75,1.64-1.75S68.16,46.2,70.56,43.13a8.3,8.3,0,0,0,.82-1.21A2,2,0,0,0,70.73,40.09Zm-20.2,3.35,10.12-8.39,5.94,5.47Zm-3.93-.55L29.17,28.61l28.19,5.2Zm1.57,3.74L66,43.76,45.61,68.32ZM26.81,30,45.14,45.59,42.49,68.34Z" style="fill:#ff060a"/></g></svg>