<svg width="40" height="40" viewBox="0 0 40 40" fill="none" xmlns="http://www.w3.org/2000/svg">
<g clip-path="url(#clip0_16_23)">
<path d="M21.8919 40H9.06949L0 30.9305V18.1037L9.06949 9.03864H21.8963L30.9658 18.1081V30.9349L21.8963 40.0044L21.8919 40ZM10.6728 36.1238H20.2885L27.0851 29.3272V19.7115L20.2885 12.9149H10.6728L3.87623 19.7115V29.3272L10.6728 36.1238V36.1238Z" fill="black"/>
<path d="M30.9304 30.9613H18.1037L9.03418 21.8919V9.06949L18.1037 0H30.9304L39.9999 9.06949V21.8963L30.9304 30.9658V30.9613ZM19.7114 27.0851H29.3271L36.1237 20.2885V10.6728L29.3271 3.87623H19.7114L12.9148 10.6728V20.2885L19.7114 27.0851V27.0851Z" fill="#37F993"/>
</g>
<defs>
<clipPath id="clip0_16_23">
<rect width="40" height="40" fill="white"/>
</clipPath>
</defs>
</svg>
