<svg id="Layer_1" data-name="Layer 1" xmlns="http://www.w3.org/2000/svg" viewBox="0 0 91 91"><path d="M37.21,21.25c-1-.14-1-.18-.55-.23a15.32,15.32,0,0,1,4.32.37c3.3.78,6.28,2.8,9.45,6.33l.82,1,1.2-.18a25.68,25.68,0,0,1,14.68,1.84,20.13,20.13,0,0,1,3.3,1.92,4.44,4.44,0,0,1,.32,1.29,7.75,7.75,0,0,1-.5,5A1.34,1.34,0,0,0,70.11,40a1.37,1.37,0,0,0,1.24.78c1.1,0,2.25-1.75,2.8-4.18l.23-1,.41.46c2.34,2.61,4.18,6.24,4.45,8.81l.09.68L78.92,45a7.79,7.79,0,0,0-2.2-2.34c-1.56-1.06-3.21-1.38-7.57-1.61a31,31,0,0,1-8.4-1.28C57,38.55,55.05,36.94,50.61,31a42.69,42.69,0,0,0-4.45-5.23A15.61,15.61,0,0,0,37.21,21.25Z"/><path d="M71.4,27.08a10,10,0,0,1,.82-3.95,3.11,3.11,0,0,1,.42-.78,2,2,0,0,1-.19.69,8.73,8.73,0,0,0-.18,4c.32,2.06.46,2.34,2.66,4.59,1,1,2.2,2.38,2.66,2.93l.78,1-.78-.73A28,28,0,0,0,73.92,32c-.32-.19-.37-.19-.6,0s-.23.46-.23,1.79a10,10,0,0,1-1,4.68c-.37.69-.42.55-.1-.23.23-.59.28-.87.28-2.84,0-4-.46-5-3.26-6.56-.69-.42-1.88-1-2.57-1.33a9.44,9.44,0,0,1-1.24-.6,21.42,21.42,0,0,1,3.85,1.18c1.6.64,1.88.68,2.06.64S71.35,28.22,71.4,27.08Z"/><path d="M39.05,33.91a16.26,16.26,0,0,1-2.89-9.86l.1-1,.45.09a10.65,10.65,0,0,1,2.94,1.1c1.84,1.1,2.66,2.61,3.44,6.38.23,1.1.55,2.38.69,2.8a15.91,15.91,0,0,0,1.84,3.3c.5.73.18,1.1-1,1C43,37.58,40.61,36,39.05,33.91Z"/><path d="M69.05,53.87C60,50.2,56.75,47,56.75,41.67V40.25l.78.59c1.83,1.47,3.9,2.11,9.63,2.94a40,40,0,0,1,7,1.47c5.55,1.83,9,5.6,9.82,10.69a19,19,0,0,1-.27,5.73A11.75,11.75,0,0,1,82.32,65a1.24,1.24,0,0,1-.14-.6,7.49,7.49,0,0,0-2.66-5.18C77.59,57.54,75.11,56.31,69.05,53.87Z"/><path d="M62.63,55.39a10.83,10.83,0,0,0-.46-1.93l-.23-.69.42.51a8.26,8.26,0,0,1,1.47,2.66,5.76,5.76,0,0,1,.32,2.57A6,6,0,0,1,63.83,61a8.21,8.21,0,0,1-1.93,3.07c-1.65,1.7-3.81,2.62-6.88,3-.55,0-2.11.18-3.49.27a27.17,27.17,0,0,0-7.8,1.29c-.28.09-.55.18-.6.14a10.15,10.15,0,0,1,2.48-1.47c1.61-.78,3.26-1.19,6.88-1.84a30.22,30.22,0,0,0,4.09-.82C61.12,63.23,63.37,59.7,62.63,55.39Z"/><path d="M66.81,62.78A10.71,10.71,0,0,1,66,55.34c.09-.23.19-.46.28-.46a2.26,2.26,0,0,1,.64.32c.55.37,1.7,1,4.63,2.62,3.72,2,5.83,3.58,7.3,5.37a11.35,11.35,0,0,1,2.43,5.55,18.52,18.52,0,0,1-.21,5.46A13.53,13.53,0,0,1,74.38,83a6.44,6.44,0,0,1-1,.46,3.35,3.35,0,0,1,.41-1,9.11,9.11,0,0,0,.41-7.11,29.49,29.49,0,0,0-3.67-6.61A43.07,43.07,0,0,1,66.81,62.78Z"/><path d="M32.62,76.82a25,25,0,0,1,11.43-5.51,17.08,17.08,0,0,1,5.92.23,10.24,10.24,0,0,1,5.78,3.72c1.1,1.65,1.61,3.07,2.11,6.24.18,1.24.41,2.52.46,2.8a6.13,6.13,0,0,0,2,3.62c1.42,1.06,3.9,1.1,6.33.18a4.12,4.12,0,0,1,.78-.23,6.88,6.88,0,0,1-2,1.34,6.49,6.49,0,0,1-3.31.78c-2.2,0-4.08-1.15-5.59-3.45a22.21,22.21,0,0,1-1.52-3c-1.6-3.72-2.43-4.82-4.31-6.06A5.66,5.66,0,0,0,45.38,77a3.47,3.47,0,0,0-1.69,4.6,3.29,3.29,0,0,0,.5.77,4.63,4.63,0,0,0,2.61,1.38,2.79,2.79,0,0,0,3.14-2.4,2.6,2.6,0,0,0,0-.4,2.21,2.21,0,0,0-1.52-2.25c-1.46-.64-3.07.09-3,1.52a1.25,1.25,0,0,0,.87,1.23c.37.19.37.19.09.14-1.33-.27-1.65-1.92-.6-3,1.29-1.28,4-.73,4.91,1.06a4.77,4.77,0,0,1,.09,3.12,4.28,4.28,0,0,1-5.23,2.47c-1.51-.41-2.15-.82-4-2.7-3.21-3.31-4.45-4-9-4.64l-.87-.14Z"/><path d="M8.49,3c10.69,13,27.16,33.17,28,34.27.69.92.41,1.79-.74,2.44a7,7,0,0,1-2.61.73,3.27,3.27,0,0,1-2.2-1c-.42-.42-2.21-3-6.24-9.32-3.09-4.79-5.65-8.78-5.75-8.82s-.18-.1,5.41,9.91c3.54,6.28,4.69,8.53,4.69,8.79,0,.59-.19.91-.92,1.74-1.24,1.38-1.79,2.94-2.2,6.19-.46,3.63-1.7,6.2-5.24,10.56-2.06,2.57-2.38,3-2.89,4.08a7.7,7.7,0,0,0-.91,3.67,11.25,11.25,0,0,0,.59,4.5,15.14,15.14,0,0,0,2.2,4.31,10.6,10.6,0,0,1,1.7,3.35c0,.37.09.37,1.75,0,3.94-.92,7.2-2.48,9-4.4a4.18,4.18,0,0,0,1.38-3.49,3.78,3.78,0,0,0-.33-1.93c-.45-1-1.33-1.83-3.21-3.12-2.47-1.69-3.53-3.07-3.81-4.91-.22-1.56,0-2.61,1.43-5.5a16.58,16.58,0,0,0,2-7.25c.13-1.93.36-2.71.91-3.31a3.41,3.41,0,0,1,2.53-1,8.29,8.29,0,0,0,5-2.07A4.27,4.27,0,0,0,39.64,38V37l-.6-.64C36.94,33.87,7.05,1,6.93,1A17.71,17.71,0,0,0,8.49,3ZM22.58,68.24a1.92,1.92,0,0,0-.6-2.53c-.78-.5-2-.27-2,.42a.45.45,0,0,0,.36.45c.42.23.46.46.14,1s-.32,1,.09,1.28a1.32,1.32,0,0,0,1.84-.3A1.23,1.23,0,0,0,22.58,68.24Z" style="fill-rule:evenodd"/><path d="M41.16,44.1a4.07,4.07,0,0,0-2.48,2.71,4,4,0,0,0,.23,2.48c.51.64,1,.82,2.25.82,2.52,0,4.68-1.1,4.91-2.43.23-1.1-.74-2.62-2.07-3.3A4.62,4.62,0,0,0,41.16,44.1Zm2.94,2.29a1,1,0,0,0-.18-1.4,1,1,0,0,0-.28-.16c-1.24-.78-3.12-.13-3.12,1.06,0,.6,1,1.24,1.88,1.24A2.55,2.55,0,0,0,44.1,46.39Z" style="fill-rule:evenodd"/></svg>