<svg width="40" height="40" viewBox="0 0 40 40" fill="none" xmlns="http://www.w3.org/2000/svg">
<g clip-path="url(#clip0_8_139)">
<path d="M20 40C31.046 40 40 31.046 40 20C40 8.954 31.046 0 20 0C8.954 0 0 8.954 0 20C0 31.046 8.954 40 20 40Z" fill="#20252F"/>
<path d="M32.6899 12.312H28.4479L26.4919 18.7H30.6759L32.6899 12.312Z" fill="white"/>
<path d="M25.076 23.326L22.986 18.386C22.752 17.776 22.34 17.252 21.804 16.88C21.268 16.508 20.63 16.31 19.976 16.31C19.33 16.31 18.698 16.502 18.164 16.866C17.63 17.228 17.216 17.744 16.978 18.344L14.804 23.316L11.486 12.318H7.31201L12.27 28.452C12.362 28.748 12.546 29.006 12.794 29.188C13.042 29.372 13.344 29.47 13.652 29.47H16.05C16.34 29.472 16.626 29.388 16.868 29.226C17.11 29.064 17.298 28.834 17.406 28.566L19.976 22.24L22.588 28.586C22.696 28.854 22.882 29.082 23.122 29.242C23.362 29.404 23.642 29.49 23.932 29.49H26.292C26.6 29.49 26.9 29.392 27.148 29.208C27.396 29.026 27.58 28.768 27.672 28.474L30.026 20.83H25.86L25.076 23.326Z" fill="white"/>
</g>
<defs>
<clipPath id="clip0_8_139">
<rect width="40" height="40" fill="white"/>
</clipPath>
</defs>
</svg>
