<svg id="Layer_1" data-name="Layer 1" xmlns="http://www.w3.org/2000/svg" viewBox="0 0 91 91"><path d="M45.54,0A45.48,45.48,0,1,0,91,45.51,45.47,45.47,0,0,0,45.54,0Z" style="fill:#e0e0e0"/><path d="M14,58.82c0-1.79,0-3.52,0-5.25a.44.44,0,0,1,.22-.3c.64-.34,1.29-.66,1.93-1a4.77,4.77,0,0,0,2.77-4.67A33.7,33.7,0,0,1,19,42.79a26.21,26.21,0,0,1,2.58-9,26.56,26.56,0,0,1,8.9-10.31,25.87,25.87,0,0,1,10.95-4.35,26.32,26.32,0,0,1,16.46,2.72c.93.48,1.8,1.07,2.69,1.61.2.12.39.27.6.42L61,24q-2.27,1.16-4.52,2.32a.42.42,0,0,1-.47,0,20.88,20.88,0,0,0-8.46-2.57A21.47,21.47,0,0,0,30.65,29.5a21.19,21.19,0,0,0-6.28,10.61,22.23,22.23,0,0,0-.48,8.22L77,21.2v3.42c0,.57,0,1.15,0,1.72a.43.43,0,0,1-.29.46L64,33.28,25.36,53l-11,5.64Z"/><path d="M14,69.74c0-1.81,0-3.55,0-5.29,0-.1.13-.23.24-.29l5.59-2.86L61.28,40.14l15.38-7.85.35-.16v1.62c0,1.15,0,2.29,0,3.44a.51.51,0,0,1-.35.56c-.62.29-1.24.61-1.85.94a4.82,4.82,0,0,0-2.74,4.6c0,1.33.07,2.66,0,4a24.26,24.26,0,0,1-2.31,9.24c-3.85,8.11-10.15,13.27-18.93,15.12a25.89,25.89,0,0,1-20.79-4.36l-.22-.18.3-.16,4.41-2.26a.45.45,0,0,1,.5,0A21.8,21.8,0,0,0,62,59.78a21.16,21.16,0,0,0,4.94-10.19,22,22,0,0,0,.21-6.87s0,0,0-.09Z"/></svg>