<svg id="Layer_1" data-name="Layer 1" xmlns="http://www.w3.org/2000/svg" viewBox="0 0 91 91"><path d="M91,45.49A45.5,45.5,0,1,1,45.5,0,45.5,45.5,0,0,1,91,45.49Z" style="fill:#fff"/><path id="_149931032" data-name=" 149931032" d="M45.5,0A45.55,45.55,0,0,0,2.31,59.86H15.93V21.58L45.5,51.15,75.07,21.58V59.86H88.69A45.55,45.55,0,0,0,45.5,0Z" style="fill:#f26822"/><path id="_149931160" data-name=" 149931160" d="M38.7,58,25.8,45V69.13H6.62a45.49,45.49,0,0,0,77.77,0H65.21V45L52.3,58l-6.8,6.81L38.7,58Z" style="fill:#4d4d4d"/></svg>