<svg id="Layer_1" data-name="Layer 1" xmlns="http://www.w3.org/2000/svg" viewBox="0 0 91 91"><path d="M45.54,0A45.48,45.48,0,1,0,91,45.51,45.47,45.47,0,0,0,45.54,0Z" style="fill:#e0e0e0"/><path d="M17.36,68.51c.57-.65.85-1,1.16-1.31C23.73,62,28.92,56.85,34.14,51.72a15.61,15.61,0,0,1,22-.22C61.67,56.78,67,62.21,72.43,67.58a10.31,10.31,0,0,1,.67.9c-2.67,0-5,.06-7.43,0-.53,0-1.1-.59-1.54-1-3.81-3.73-7.59-7.51-11.39-11.25-4.6-4.52-10.37-4.51-15,0-3.75,3.71-7.53,7.4-11.24,11.15a3.59,3.59,0,0,1-2.94,1.19C21.66,68.45,19.69,68.51,17.36,68.51Z"/><path d="M72.85,22.3c-1.23,1.25-2.45,2.5-3.7,3.73Q63,32.17,56.77,38.29C50,44.92,40.54,45,33.83,38.33q-7.59-7.47-15.12-15c-.36-.36-.68-.75-1.27-1.41,2.73,0,5.1-.06,7.47.05a2.91,2.91,0,0,1,1.56,1c3.73,3.66,7.41,7.36,11.13,11,4.87,4.8,10.49,4.82,15.34,0,3.72-3.67,7.43-7.33,11.11-11a3.2,3.2,0,0,1,2.62-1.09c2,.08,4.06,0,6.1,0A1.84,1.84,0,0,0,72.85,22.3Z"/></svg>