<svg id="Layer_1" data-name="Layer 1" xmlns="http://www.w3.org/2000/svg" viewBox="0 0 91 91"><path d="M45.54,0A45.48,45.48,0,1,0,91,45.51,45.47,45.47,0,0,0,45.54,0Z" style="fill:#e0e0e0"/><g id="Layer_2" data-name="Layer 2"><path d="M50,75.81q-6.49,0-9.48-3.13a9.66,9.66,0,0,1-3-6.73A4.57,4.57,0,0,1,38,63.72a3.87,3.87,0,0,1,1.42-1.42,5,5,0,0,1,4.43,0,3.77,3.77,0,0,1,1.41,1.42A4.43,4.43,0,0,1,45.83,66a4.22,4.22,0,0,1-.76,2.6,3.56,3.56,0,0,1-1.8,1.32,4.94,4.94,0,0,0,2.85,1.77,13.78,13.78,0,0,0,3.88.55,8.25,8.25,0,0,0,8.07-5.76,18.64,18.64,0,0,0,1-6.45A17.69,17.69,0,0,0,58,53.27a8.32,8.32,0,0,0-3.29-4.17,8.57,8.57,0,0,0-4.74-1.35,9,9,0,0,0-4.11,1.39l-3,1.52V49.11L56.43,30.8H37.51v19a6.84,6.84,0,0,0,1,3.89,3.56,3.56,0,0,0,3.17,1.52,5.23,5.23,0,0,0,3.13-1.11,11.06,11.06,0,0,0,2.62-2.71.89.89,0,0,1,.34-.45.7.7,0,0,1,.45-.17,1.55,1.55,0,0,1,.89.38,1.85,1.85,0,0,1,.48,1.29,7.89,7.89,0,0,1-.17,1,9.08,9.08,0,0,1-3.24,4,8,8,0,0,1-4.54,1.38q-6.13,0-8.49-2.42a9.06,9.06,0,0,1-2.34-6.62V30.81H21.24V27.28h9.65V19.22L28.69,17V15.19h6.4l2.42,1.25V27.27l25.06-.08,2.49,2.5L49.7,45.12a10.42,10.42,0,0,1,2.9-.7A12.61,12.61,0,0,1,58.22,46a11.59,11.59,0,0,1,4.84,4.31,15.19,15.19,0,0,1,2.18,5.2A21.47,21.47,0,0,1,65.76,60a18.58,18.58,0,0,1-1.9,8.25,12.06,12.06,0,0,1-5.69,5.68A18.34,18.34,0,0,1,50,75.81Z" style="fill:#2c7df7"/></g></svg>