<svg id="Layer_1" data-name="Layer 1" xmlns="http://www.w3.org/2000/svg" viewBox="0 0 91 91"><g id="Layer_2" data-name="Layer 2"><g id="Layer_1-2" data-name="Layer 1-2"><path id="SVGID" d="M45.5,0A45.5,45.5,0,1,1,0,45.5,45.5,45.5,0,0,1,45.5,0Z" style="fill:#006ae3;fill-rule:evenodd"/><polygon id="SVGID-2" points="43.63 64.68 43.63 26.83 47.75 26.83 47.75 64.68 43.63 64.68" style="fill:#fff"/><path id="SVGID-3" d="M64.61,39.44,51.88,42.82,49,29.6l3.79-.85L54.32,35a10.31,10.31,0,0,0-1.15-11.49c-2.7-3-4-3.13-7-3.6-2.67-.38-8.87.52-10.72,7.75-.78,4.66.1,8.11,6.11,12.62l-.34,5s-6.7-4.72-8.43-8c-1.34-2.62-3.63-7.8.51-15,2.23-3.61,6.62-7.06,14.37-6.7a13.92,13.92,0,0,1,11.93,16,24.83,24.83,0,0,1-1.34,4.86l5.22-1.16Z" style="fill:#fff"/><path id="SVGID-4" d="M57.34,69.06C55,72.6,50.52,75.94,42.8,75.38A14,14,0,0,1,31.24,59.31c0-.1,0-.21.05-.31a25.21,25.21,0,0,1,1.47-4.81l-5.25,1-1-4.14,12.82-3,2.5,13.28L38,62.09l-1.33-6.31a10.32,10.32,0,0,0,.84,11.51c2.62,3.08,3.9,3.23,6.93,3.79,2.65.46,8.87-.29,10.91-7.47.9-4.63.11-8.11-5.77-12.79l.47-5s6.58,4.9,8.22,8.25c1.25,2.67,3.41,7.91-.91,15Z" style="fill:#fff"/></g></g></svg>