<svg id="Layer_1" data-name="Layer 1" xmlns="http://www.w3.org/2000/svg" xmlns:xlink="http://www.w3.org/1999/xlink" viewBox="0 0 91 91"><defs><linearGradient id="linear-gradient" x1="1013.62" y1="292.09" x2="1014.22" y2="292.09" gradientTransform="translate(-112998.5 62523.34) rotate(-45) scale(122.41)" gradientUnits="userSpaceOnUse"><stop offset="0" stop-color="#cf8724"/><stop offset="1" stop-color="#fdce58"/></linearGradient></defs><g id="Layer_2" data-name="Layer 2"><g id="Layer_1-2" data-name="Layer 1-2"><path d="M46,83.58A37.64,37.64,0,1,1,83.58,45.91V46A37.74,37.74,0,0,1,46,83.58Z" style="fill:url(#linear-gradient)"/><path d="M45.47,91A45.47,45.47,0,1,1,91,45.47,45.47,45.47,0,0,1,45.47,91Zm0-80.83A35.36,35.36,0,1,0,80.83,45.5v0A35.45,35.45,0,0,0,45.47,10.11Z"/><path d="M44.54,57.77H64.25V68H52.53v8.79H42.27V68H29.91c0-3.35-.51-6.69.27-9.78.26-1.54,2-3.09,3.35-4.63,3.86-4.63,7.72-9.27,11.84-13.9,1.55-1.81,3.09-3.35,4.9-5.41H32V24.05h10.3V16.73H52.53v7.32H64.88c0,3.36.51,6.69-.26,9.78-.26,1.54-2.05,3.14-3.35,4.63-3.86,4.64-7.72,9.27-11.85,13.9C47.88,54.17,46.33,56,44.54,57.77Z"/></g></g></svg>