<svg id="Layer_1" data-name="Layer 1" xmlns="http://www.w3.org/2000/svg" viewBox="0 0 91 91"><path d="M91,45.47A45.5,45.5,0,1,1,46.24,0,45.62,45.62,0,0,1,91,45.47ZM68.39,30c-.75-.38-1.49-.79-2.25-1.15L43.37,18.28,32.11,13a1.47,1.47,0,0,0-1.41,0c-1.5.74-3,1.41-4.54,2.13-1.17.56-2.32,1.14-3.48,1.71a1.1,1.1,0,0,0-.12.31c0,3.09,0,6.17,0,9.33L49.2,39,22.58,51.37V61l1,.47L58.71,77.88a8.49,8.49,0,0,0,.89.31l8.79-4V44.84L59.6,49V68.58c-.22-.08-.45-.14-.66-.24L41.59,60.26c-2.85-1.32-5.69-2.66-8.63-4,.27-.15.46-.28.66-.38l21.51-10c1.51-.71,3-1.45,4.51-2.18,1-.43,1.94-.84,2.9-1.28,2-.91,3.93-1.84,5.85-2.74Z" style="fill:#021c37"/><path d="M59.64,43.65c-1.5.73-3,1.47-4.51,2.18l-21.51,10c-.2.1-.39.23-.66.38,2.94,1.37,5.78,2.71,8.63,4l17.35,8.08c.21.1.44.16.66.24v9.61a8.49,8.49,0,0,1-.89-.31L23.54,61.49l-1-.47V51.37L49.2,39,22.55,26.52c0-3.16,0-6.24,0-9.33a1.1,1.1,0,0,1,.12-.31c.21.12.4.25.62.35,3.62,1.69,7.24,3.39,10.86,5.07l19.27,9,6.16,2.84Q59.62,38.89,59.64,43.65Z" style="fill:#42c0bf"/><path d="M59.59,34.1l-6.16-2.84-19.27-9c-3.62-1.68-7.24-3.38-10.86-5.07-.22-.1-.41-.23-.62-.35,1.16-.57,2.31-1.15,3.48-1.71,1.51-.72,3-1.39,4.54-2.13a1.47,1.47,0,0,1,1.41,0l11.26,5.27,22.77,10.6c.76.36,1.5.77,2.25,1.15L64,32.09Z" style="fill:#017990"/><path d="M59.6,78.19V49l8.79-4.12V74.18Z" style="fill:#228d97"/><path d="M59.59,34.1l4.37-2L68.39,30v9.6c-1.92.9-3.88,1.83-5.85,2.74-1,.44-1.93.85-2.9,1.28Q59.63,38.88,59.59,34.1Z" style="fill:#218d97"/></svg>