<svg id="Layer_1" data-name="Layer 1" xmlns="http://www.w3.org/2000/svg" viewBox="0 0 90.94 90.94"><path d="M45.48,0A45.47,45.47,0,1,0,90.94,45.5,45.47,45.47,0,0,0,45.48,0Z" style="fill:#e0e0e0"/><path d="M19.85,28.27l14,20c-1,1-2,1.92-2.93,2.89S29.15,53,28.23,53.87a.55.55,0,0,0-.11.78A19.3,19.3,0,0,0,32,59.59c1,.9,2,1.72,3,2.6l-3,2.1c-2.08,1.46-4.17,2.92-6.24,4.39a.51.51,0,0,1-.77-.05,30.92,30.92,0,0,1-5.53-39.88C19.61,28.61,19.72,28.47,19.85,28.27Z"/><path d="M29.25,71.71,49,57.85l2.76,2.79c.67.68,1.37,1.33,2,2a.62.62,0,0,0,.9.13,18.17,18.17,0,0,0,3.69-2.71,22,22,0,0,0,4.34-5.26l6.87,9.81C60.23,76.92,42.3,80,29.25,71.71Z"/><path d="M61.73,19.22,41.94,33.08l-.35-.33c-1.47-1.46-3-2.92-4.4-4.41a.72.72,0,0,0-1-.15,21,21,0,0,0-4.91,3.95c-.62.65-1.19,1.34-1.81,2L22.72,24.6a30.94,30.94,0,0,1,39-5.38Z"/><path d="M58.62,41.16c1.33-1.33,2.63-2.66,4-3.93a.75.75,0,0,0,.15-1.1,23.4,23.4,0,0,0-6-6.67l-.81-.6,0-.08L65.49,22c11.56,9.52,14,26.48,6.8,38.65Z"/></svg>